<svg width="880" height="99" viewBox="0 0 880 99" fill="none" xmlns="http://www.w3.org/2000/svg">
<path d="M20.1016 26.375C20.1016 25.3281 19.8594 24.4453 19.375 23.7266C18.9062 23.0078 18.2969 22.3984 17.5469 21.8984C16.7969 21.4141 15.9688 21.0078 15.0625 20.6797C14.1719 20.3516 13.3125 20.0547 12.4844 19.7891C11.2812 19.3984 10.0547 18.9297 8.80469 18.3828C7.57031 17.8203 6.44531 17.1484 5.42969 16.3672C4.39844 15.5703 3.55469 14.6328 2.89844 13.5547C2.25781 12.4609 1.9375 11.1797 1.9375 9.71094C1.9375 8.24219 2.25781 6.92969 2.89844 5.77344C3.55469 4.61719 4.40625 3.64062 5.45312 2.84375C6.5 2.04688 7.6875 1.44531 9.01562 1.03906C10.3438 0.617188 11.6797 0.40625 13.0234 0.40625C14.5078 0.40625 15.9375 0.65625 17.3125 1.15625C18.6875 1.64062 19.9062 2.32812 20.9688 3.21875C22.0312 4.10938 22.8828 5.1875 23.5234 6.45312C24.1641 7.71875 24.5 9.13281 24.5312 10.6953H20.0781C19.9531 9.71094 19.7109 8.82031 19.3516 8.02344C18.9922 7.21094 18.5156 6.51562 17.9219 5.9375C17.3281 5.35938 16.6172 4.91406 15.7891 4.60156C14.9766 4.27344 14.0547 4.10938 13.0234 4.10938C12.1953 4.10938 11.3828 4.22656 10.5859 4.46094C9.80469 4.69531 9.10938 5.04688 8.5 5.51562C7.875 5.98438 7.375 6.5625 7 7.25C6.64062 7.9375 6.46094 8.73438 6.46094 9.64062C6.47656 10.625 6.72656 11.4609 7.21094 12.1484C7.69531 12.8203 8.3125 13.3906 9.0625 13.8594C9.79688 14.3281 10.5938 14.7188 11.4531 15.0312C12.3281 15.3438 13.1484 15.6172 13.9141 15.8516C15.1797 16.2422 16.4453 16.7188 17.7109 17.2812C18.9766 17.8281 20.1328 18.5312 21.1797 19.3906C22.2109 20.1875 23.0391 21.1641 23.6641 22.3203C24.3047 23.4766 24.625 24.8125 24.625 26.3281C24.625 27.8594 24.2812 29.1953 23.5938 30.3359C22.9219 31.4766 22.0469 32.4219 20.9688 33.1719C19.8906 33.9375 18.6719 34.5156 17.3125 34.9062C15.9531 35.2812 14.5938 35.4688 13.2344 35.4688C11.6094 35.4688 10.0078 35.1953 8.42969 34.6484C6.86719 34.1016 5.50781 33.3125 4.35156 32.2812C3.32031 31.3906 2.5 30.3516 1.89062 29.1641C1.29688 27.9609 0.976562 26.625 0.929688 25.1562H5.35938C5.5 26.2188 5.78906 27.1641 6.22656 27.9922C6.66406 28.8047 7.22656 29.4922 7.91406 30.0547C8.60156 30.6328 9.39062 31.0703 10.2812 31.3672C11.1875 31.6484 12.1719 31.7891 13.2344 31.7891C14.0781 31.7891 14.9062 31.6875 15.7188 31.4844C16.5469 31.2656 17.2812 30.9297 17.9219 30.4766C18.5625 30.0391 19.0859 29.4844 19.4922 28.8125C19.8984 28.125 20.1016 27.3125 20.1016 26.375ZM49.8438 19.2266H35.5938V31.3203H52.2109V35H31.2578V0.875H52V4.57812H35.5938V15.5469H49.8438V19.2266ZM81.2734 35H76.8672L63.625 9.5L63.5547 35H59.1719V0.875H63.5781L76.8203 26.3281L76.8906 0.875H81.2734V35ZM88.2812 35V0.875H96.1797C97.5078 0.890625 98.7578 1.03125 99.9297 1.29688C101.117 1.54688 102.211 1.90625 103.211 2.375C104.602 3.01562 105.828 3.85938 106.891 4.90625C107.969 5.9375 108.828 7.13281 109.469 8.49219C110.047 9.64844 110.484 10.9141 110.781 12.2891C111.094 13.6641 111.258 15.1328 111.273 16.6953V19.2031C111.273 20.7031 111.125 22.125 110.828 23.4688C110.547 24.8125 110.133 26.0469 109.586 27.1719C109.023 28.3438 108.312 29.4062 107.453 30.3594C106.594 31.3125 105.633 32.125 104.57 32.7969C103.445 33.5 102.172 34.0391 100.75 34.4141C99.3438 34.7891 97.8203 34.9844 96.1797 35H88.2812ZM92.6875 4.4375V31.4609H96.1797C97.4297 31.4453 98.5625 31.2891 99.5781 30.9922C100.609 30.6953 101.523 30.2734 102.32 29.7266C103.164 29.1641 103.891 28.4766 104.5 27.6641C105.125 26.8359 105.617 25.9141 105.977 24.8984C106.289 24.0703 106.523 23.1797 106.68 22.2266C106.836 21.2578 106.922 20.25 106.938 19.2031V16.6484C106.922 15.5859 106.828 14.5703 106.656 13.6016C106.5 12.6172 106.258 11.7031 105.93 10.8594C105.508 9.76562 104.938 8.78125 104.219 7.90625C103.516 7.01562 102.648 6.29688 101.617 5.75C100.883 5.34375 100.062 5.03125 99.1562 4.8125C98.25 4.57812 97.2578 4.45312 96.1797 4.4375H92.6875ZM156.438 18.0078L164.219 0.875H169.141L158.523 22.2734L158.453 35H154.422L154.352 22.2734L143.734 0.875H148.68L156.438 18.0078ZM197.406 19.9062C197.391 21.125 197.281 22.3594 197.078 23.6094C196.891 24.8438 196.594 26.0391 196.188 27.1953C195.781 28.3516 195.258 29.4297 194.617 30.4297C193.992 31.4297 193.242 32.3047 192.367 33.0547C191.492 33.8047 190.484 34.3984 189.344 34.8359C188.219 35.2578 186.953 35.4688 185.547 35.4688C184.141 35.4688 182.867 35.2578 181.727 34.8359C180.602 34.3984 179.602 33.8047 178.727 33.0547C177.852 32.3047 177.094 31.4297 176.453 30.4297C175.812 29.4141 175.289 28.3281 174.883 27.1719C174.461 26.0156 174.148 24.8203 173.945 23.5859C173.742 22.3516 173.633 21.125 173.617 19.9062V16.0156C173.633 14.7969 173.734 13.5703 173.922 12.3359C174.125 11.0859 174.438 9.88281 174.859 8.72656C175.266 7.57031 175.781 6.49219 176.406 5.49219C177.047 4.47656 177.805 3.58594 178.68 2.82031C179.555 2.07031 180.555 1.48438 181.68 1.0625C182.82 0.625 184.094 0.40625 185.5 0.40625C186.906 0.40625 188.18 0.625 189.32 1.0625C190.461 1.48438 191.469 2.07031 192.344 2.82031C193.219 3.57031 193.969 4.45312 194.594 5.46875C195.234 6.46875 195.766 7.54688 196.188 8.70312C196.594 9.85938 196.891 11.0625 197.078 12.3125C197.281 13.5625 197.391 14.7969 197.406 16.0156V19.9062ZM193.117 15.9688C193.102 15.1562 193.047 14.3125 192.953 13.4375C192.859 12.5469 192.703 11.6641 192.484 10.7891C192.25 9.92969 191.945 9.10938 191.57 8.32812C191.195 7.53125 190.727 6.82812 190.164 6.21875C189.602 5.625 188.938 5.15625 188.172 4.8125C187.406 4.45312 186.516 4.27344 185.5 4.27344C184.5 4.27344 183.617 4.45312 182.852 4.8125C182.086 5.17188 181.422 5.64844 180.859 6.24219C180.297 6.85156 179.828 7.55469 179.453 8.35156C179.078 9.13281 178.781 9.95312 178.562 10.8125C178.328 11.6875 178.156 12.5703 178.047 13.4609C177.953 14.3359 177.898 15.1719 177.883 15.9688V19.9062C177.898 20.7031 177.953 21.5469 178.047 22.4375C178.156 23.3281 178.328 24.2031 178.562 25.0625C178.797 25.9375 179.102 26.7734 179.477 27.5703C179.852 28.3672 180.32 29.0625 180.883 29.6562C181.445 30.2656 182.109 30.75 182.875 31.1094C183.641 31.4688 184.531 31.6484 185.547 31.6484C186.562 31.6484 187.453 31.4688 188.219 31.1094C189 30.75 189.672 30.2656 190.234 29.6562C190.781 29.0625 191.234 28.375 191.594 27.5938C191.969 26.7969 192.273 25.9609 192.508 25.0859C192.727 24.2266 192.875 23.3516 192.953 22.4609C193.047 21.5703 193.102 20.7188 193.117 19.9062V15.9688ZM225.461 0.875L225.508 23.9844C225.508 25.5781 225.227 27.0703 224.664 28.4609C224.102 29.8516 223.328 31.0625 222.344 32.0938C221.359 33.1406 220.188 33.9688 218.828 34.5781C217.469 35.1719 215.977 35.4688 214.352 35.4688C212.695 35.4688 211.188 35.1719 209.828 34.5781C208.469 33.9844 207.305 33.1641 206.336 32.1172C205.367 31.0859 204.609 29.875 204.062 28.4844C203.516 27.0781 203.234 25.5781 203.219 23.9844L203.266 0.875H207.391L207.484 23.9844C207.5 25 207.656 25.9766 207.953 26.9141C208.266 27.8516 208.711 28.6797 209.289 29.3984C209.852 30.1172 210.555 30.6953 211.398 31.1328C212.258 31.5703 213.242 31.7891 214.352 31.7891C215.461 31.7891 216.438 31.5781 217.281 31.1562C218.125 30.7188 218.836 30.1328 219.414 29.3984C219.977 28.6797 220.406 27.8516 220.703 26.9141C221 25.9766 221.164 25 221.195 23.9844L221.266 0.875H225.461ZM244.164 21.0781H237.344V35H233.031V0.875H243.039C244.633 0.90625 246.133 1.13281 247.539 1.55469C248.945 1.97656 250.18 2.60938 251.242 3.45312C252.289 4.29688 253.109 5.35938 253.703 6.64062C254.312 7.90625 254.617 9.39844 254.617 11.1172C254.617 12.2266 254.453 13.2422 254.125 14.1641C253.812 15.0859 253.375 15.9219 252.812 16.6719C252.25 17.4219 251.578 18.0859 250.797 18.6641C250.016 19.2422 249.156 19.7344 248.219 20.1406L255.461 34.7188L255.438 35H250.867L244.164 21.0781ZM237.344 17.5156H243.156C244.125 17.5 245.039 17.3516 245.898 17.0703C246.758 16.7734 247.516 16.3516 248.172 15.8047C248.812 15.2578 249.32 14.5938 249.695 13.8125C250.07 13.0156 250.258 12.1016 250.258 11.0703C250.258 9.97656 250.078 9.02344 249.719 8.21094C249.359 7.38281 248.859 6.6875 248.219 6.125C247.578 5.57812 246.812 5.16406 245.922 4.88281C245.047 4.60156 244.086 4.45312 243.039 4.4375H237.344V17.5156ZM295.422 31.3203H312.109V35H291.086V0.875H295.422V31.3203ZM341.547 19.9062C341.531 21.125 341.422 22.3594 341.219 23.6094C341.031 24.8438 340.734 26.0391 340.328 27.1953C339.922 28.3516 339.398 29.4297 338.758 30.4297C338.133 31.4297 337.383 32.3047 336.508 33.0547C335.633 33.8047 334.625 34.3984 333.484 34.8359C332.359 35.2578 331.094 35.4688 329.688 35.4688C328.281 35.4688 327.008 35.2578 325.867 34.8359C324.742 34.3984 323.742 33.8047 322.867 33.0547C321.992 32.3047 321.234 31.4297 320.594 30.4297C319.953 29.4141 319.43 28.3281 319.023 27.1719C318.602 26.0156 318.289 24.8203 318.086 23.5859C317.883 22.3516 317.773 21.125 317.758 19.9062V16.0156C317.773 14.7969 317.875 13.5703 318.062 12.3359C318.266 11.0859 318.578 9.88281 319 8.72656C319.406 7.57031 319.922 6.49219 320.547 5.49219C321.188 4.47656 321.945 3.58594 322.82 2.82031C323.695 2.07031 324.695 1.48438 325.82 1.0625C326.961 0.625 328.234 0.40625 329.641 0.40625C331.047 0.40625 332.32 0.625 333.461 1.0625C334.602 1.48438 335.609 2.07031 336.484 2.82031C337.359 3.57031 338.109 4.45312 338.734 5.46875C339.375 6.46875 339.906 7.54688 340.328 8.70312C340.734 9.85938 341.031 11.0625 341.219 12.3125C341.422 13.5625 341.531 14.7969 341.547 16.0156V19.9062ZM337.258 15.9688C337.242 15.1562 337.188 14.3125 337.094 13.4375C337 12.5469 336.844 11.6641 336.625 10.7891C336.391 9.92969 336.086 9.10938 335.711 8.32812C335.336 7.53125 334.867 6.82812 334.305 6.21875C333.742 5.625 333.078 5.15625 332.312 4.8125C331.547 4.45312 330.656 4.27344 329.641 4.27344C328.641 4.27344 327.758 4.45312 326.992 4.8125C326.227 5.17188 325.562 5.64844 325 6.24219C324.438 6.85156 323.969 7.55469 323.594 8.35156C323.219 9.13281 322.922 9.95312 322.703 10.8125C322.469 11.6875 322.297 12.5703 322.188 13.4609C322.094 14.3359 322.039 15.1719 322.023 15.9688V19.9062C322.039 20.7031 322.094 21.5469 322.188 22.4375C322.297 23.3281 322.469 24.2031 322.703 25.0625C322.938 25.9375 323.242 26.7734 323.617 27.5703C323.992 28.3672 324.461 29.0625 325.023 29.6562C325.586 30.2656 326.25 30.75 327.016 31.1094C327.781 31.4688 328.672 31.6484 329.688 31.6484C330.703 31.6484 331.594 31.4688 332.359 31.1094C333.141 30.75 333.812 30.2656 334.375 29.6562C334.922 29.0625 335.375 28.375 335.734 27.5938C336.109 26.7969 336.414 25.9609 336.648 25.0859C336.867 24.2266 337.016 23.3516 337.094 22.4609C337.188 21.5703 337.242 20.7188 337.258 19.9062V15.9688ZM356.547 35L345.766 0.875H350.406L357.906 26.3516L358.398 28.0156L358.914 26.3047L366.461 0.875H371.078L360.32 35H356.547ZM395.781 19.2266H381.531V31.3203H398.148V35H377.195V0.875H397.938V4.57812H381.531V15.5469H395.781V19.2266ZM434.617 35V0.875H444.766C446.172 0.890625 447.547 1.07812 448.891 1.4375C450.234 1.78125 451.43 2.32031 452.477 3.05469C453.523 3.78906 454.359 4.72656 454.984 5.86719C455.609 7.00781 455.914 8.375 455.898 9.96875C455.883 10.8594 455.734 11.6719 455.453 12.4062C455.188 13.1406 454.82 13.7969 454.352 14.375C453.867 14.9688 453.328 15.4688 452.734 15.875C452.156 16.2812 451.453 16.6641 450.625 17.0234V17.0938C451.484 17.2969 452.312 17.6641 453.109 18.1953C453.906 18.7266 454.562 19.3125 455.078 19.9531C455.625 20.6562 456.047 21.4453 456.344 22.3203C456.656 23.1953 456.812 24.1406 456.812 25.1562C456.828 26.75 456.523 28.1562 455.898 29.375C455.273 30.5938 454.438 31.6094 453.391 32.4219C452.344 33.25 451.133 33.8828 449.758 34.3203C448.398 34.7578 446.992 34.9844 445.539 35H434.617ZM438.977 19.0391V31.3203H445.656C446.562 31.3047 447.422 31.1562 448.234 30.875C449.047 30.5781 449.766 30.1719 450.391 29.6562C451.016 29.1406 451.508 28.5078 451.867 27.7578C452.242 27.0078 452.43 26.1562 452.43 25.2031C452.445 24.2344 452.281 23.375 451.938 22.625C451.609 21.875 451.148 21.2344 450.555 20.7031C449.961 20.1875 449.266 19.7891 448.469 19.5078C447.672 19.2266 446.812 19.0703 445.891 19.0391H438.977ZM438.977 15.4297H445.023C445.836 15.4141 446.633 15.2891 447.414 15.0547C448.195 14.8047 448.891 14.4453 449.5 13.9766C450.109 13.5234 450.602 12.9609 450.977 12.2891C451.352 11.6172 451.539 10.8359 451.539 9.94531C451.539 8.99219 451.352 8.17969 450.977 7.50781C450.617 6.83594 450.133 6.28125 449.523 5.84375C448.898 5.42188 448.18 5.10938 447.367 4.90625C446.57 4.70312 445.75 4.59375 444.906 4.57812H438.977V15.4297ZM473.547 18.0078L481.328 0.875H486.25L475.633 22.2734L475.562 35H471.531L471.461 22.2734L460.844 0.875H465.789L473.547 18.0078ZM515.336 4.57812H504.789V35H500.57V4.57812H490.023V0.875H515.336V4.57812ZM539.922 19.2266H525.672V31.3203H542.289V35H521.336V0.875H542.078V4.57812H525.672V15.5469H539.922V19.2266ZM601.82 4.57812H591.273V35H587.055V4.57812H576.508V0.875H601.82V4.57812ZM629.828 19.9062C629.812 21.125 629.703 22.3594 629.5 23.6094C629.312 24.8438 629.016 26.0391 628.609 27.1953C628.203 28.3516 627.68 29.4297 627.039 30.4297C626.414 31.4297 625.664 32.3047 624.789 33.0547C623.914 33.8047 622.906 34.3984 621.766 34.8359C620.641 35.2578 619.375 35.4688 617.969 35.4688C616.562 35.4688 615.289 35.2578 614.148 34.8359C613.023 34.3984 612.023 33.8047 611.148 33.0547C610.273 32.3047 609.516 31.4297 608.875 30.4297C608.234 29.4141 607.711 28.3281 607.305 27.1719C606.883 26.0156 606.57 24.8203 606.367 23.5859C606.164 22.3516 606.055 21.125 606.039 19.9062V16.0156C606.055 14.7969 606.156 13.5703 606.344 12.3359C606.547 11.0859 606.859 9.88281 607.281 8.72656C607.688 7.57031 608.203 6.49219 608.828 5.49219C609.469 4.47656 610.227 3.58594 611.102 2.82031C611.977 2.07031 612.977 1.48438 614.102 1.0625C615.242 0.625 616.516 0.40625 617.922 0.40625C619.328 0.40625 620.602 0.625 621.742 1.0625C622.883 1.48438 623.891 2.07031 624.766 2.82031C625.641 3.57031 626.391 4.45312 627.016 5.46875C627.656 6.46875 628.188 7.54688 628.609 8.70312C629.016 9.85938 629.312 11.0625 629.5 12.3125C629.703 13.5625 629.812 14.7969 629.828 16.0156V19.9062ZM625.539 15.9688C625.523 15.1562 625.469 14.3125 625.375 13.4375C625.281 12.5469 625.125 11.6641 624.906 10.7891C624.672 9.92969 624.367 9.10938 623.992 8.32812C623.617 7.53125 623.148 6.82812 622.586 6.21875C622.023 5.625 621.359 5.15625 620.594 4.8125C619.828 4.45312 618.938 4.27344 617.922 4.27344C616.922 4.27344 616.039 4.45312 615.273 4.8125C614.508 5.17188 613.844 5.64844 613.281 6.24219C612.719 6.85156 612.25 7.55469 611.875 8.35156C611.5 9.13281 611.203 9.95312 610.984 10.8125C610.75 11.6875 610.578 12.5703 610.469 13.4609C610.375 14.3359 610.32 15.1719 610.305 15.9688V19.9062C610.32 20.7031 610.375 21.5469 610.469 22.4375C610.578 23.3281 610.75 24.2031 610.984 25.0625C611.219 25.9375 611.523 26.7734 611.898 27.5703C612.273 28.3672 612.742 29.0625 613.305 29.6562C613.867 30.2656 614.531 30.75 615.297 31.1094C616.062 31.4688 616.953 31.6484 617.969 31.6484C618.984 31.6484 619.875 31.4688 620.641 31.1094C621.422 30.75 622.094 30.2656 622.656 29.6562C623.203 29.0625 623.656 28.375 624.016 27.5938C624.391 26.7969 624.695 25.9609 624.93 25.0859C625.148 24.2266 625.297 23.3516 625.375 22.4609C625.469 21.5703 625.523 20.7188 625.539 19.9062V15.9688ZM683.148 26.375C683.148 25.3281 682.906 24.4453 682.422 23.7266C681.953 23.0078 681.344 22.3984 680.594 21.8984C679.844 21.4141 679.016 21.0078 678.109 20.6797C677.219 20.3516 676.359 20.0547 675.531 19.7891C674.328 19.3984 673.102 18.9297 671.852 18.3828C670.617 17.8203 669.492 17.1484 668.477 16.3672C667.445 15.5703 666.602 14.6328 665.945 13.5547C665.305 12.4609 664.984 11.1797 664.984 9.71094C664.984 8.24219 665.305 6.92969 665.945 5.77344C666.602 4.61719 667.453 3.64062 668.5 2.84375C669.547 2.04688 670.734 1.44531 672.062 1.03906C673.391 0.617188 674.727 0.40625 676.07 0.40625C677.555 0.40625 678.984 0.65625 680.359 1.15625C681.734 1.64062 682.953 2.32812 684.016 3.21875C685.078 4.10938 685.93 5.1875 686.57 6.45312C687.211 7.71875 687.547 9.13281 687.578 10.6953H683.125C683 9.71094 682.758 8.82031 682.398 8.02344C682.039 7.21094 681.562 6.51562 680.969 5.9375C680.375 5.35938 679.664 4.91406 678.836 4.60156C678.023 4.27344 677.102 4.10938 676.07 4.10938C675.242 4.10938 674.43 4.22656 673.633 4.46094C672.852 4.69531 672.156 5.04688 671.547 5.51562C670.922 5.98438 670.422 6.5625 670.047 7.25C669.688 7.9375 669.508 8.73438 669.508 9.64062C669.523 10.625 669.773 11.4609 670.258 12.1484C670.742 12.8203 671.359 13.3906 672.109 13.8594C672.844 14.3281 673.641 14.7188 674.5 15.0312C675.375 15.3438 676.195 15.6172 676.961 15.8516C678.227 16.2422 679.492 16.7188 680.758 17.2812C682.023 17.8281 683.18 18.5312 684.227 19.3906C685.258 20.1875 686.086 21.1641 686.711 22.3203C687.352 23.4766 687.672 24.8125 687.672 26.3281C687.672 27.8594 687.328 29.1953 686.641 30.3359C685.969 31.4766 685.094 32.4219 684.016 33.1719C682.938 33.9375 681.719 34.5156 680.359 34.9062C679 35.2812 677.641 35.4688 676.281 35.4688C674.656 35.4688 673.055 35.1953 671.477 34.6484C669.914 34.1016 668.555 33.3125 667.398 32.2812C666.367 31.3906 665.547 30.3516 664.938 29.1641C664.344 27.9609 664.023 26.625 663.977 25.1562H668.406C668.547 26.2188 668.836 27.1641 669.273 27.9922C669.711 28.8047 670.273 29.4922 670.961 30.0547C671.648 30.6328 672.438 31.0703 673.328 31.3672C674.234 31.6484 675.219 31.7891 676.281 31.7891C677.125 31.7891 677.953 31.6875 678.766 31.4844C679.594 31.2656 680.328 30.9297 680.969 30.4766C681.609 30.0391 682.133 29.4844 682.539 28.8125C682.945 28.125 683.148 27.3125 683.148 26.375ZM716.312 19.9062C716.297 21.125 716.188 22.3594 715.984 23.6094C715.797 24.8438 715.5 26.0391 715.094 27.1953C714.688 28.3516 714.164 29.4297 713.523 30.4297C712.898 31.4297 712.148 32.3047 711.273 33.0547C710.398 33.8047 709.391 34.3984 708.25 34.8359C707.125 35.2578 705.859 35.4688 704.453 35.4688C703.047 35.4688 701.773 35.2578 700.633 34.8359C699.508 34.3984 698.508 33.8047 697.633 33.0547C696.758 32.3047 696 31.4297 695.359 30.4297C694.719 29.4141 694.195 28.3281 693.789 27.1719C693.367 26.0156 693.055 24.8203 692.852 23.5859C692.648 22.3516 692.539 21.125 692.523 19.9062V16.0156C692.539 14.7969 692.641 13.5703 692.828 12.3359C693.031 11.0859 693.344 9.88281 693.766 8.72656C694.172 7.57031 694.688 6.49219 695.312 5.49219C695.953 4.47656 696.711 3.58594 697.586 2.82031C698.461 2.07031 699.461 1.48438 700.586 1.0625C701.727 0.625 703 0.40625 704.406 0.40625C705.812 0.40625 707.086 0.625 708.227 1.0625C709.367 1.48438 710.375 2.07031 711.25 2.82031C712.125 3.57031 712.875 4.45312 713.5 5.46875C714.141 6.46875 714.672 7.54688 715.094 8.70312C715.5 9.85938 715.797 11.0625 715.984 12.3125C716.188 13.5625 716.297 14.7969 716.312 16.0156V19.9062ZM712.023 15.9688C712.008 15.1562 711.953 14.3125 711.859 13.4375C711.766 12.5469 711.609 11.6641 711.391 10.7891C711.156 9.92969 710.852 9.10938 710.477 8.32812C710.102 7.53125 709.633 6.82812 709.07 6.21875C708.508 5.625 707.844 5.15625 707.078 4.8125C706.312 4.45312 705.422 4.27344 704.406 4.27344C703.406 4.27344 702.523 4.45312 701.758 4.8125C700.992 5.17188 700.328 5.64844 699.766 6.24219C699.203 6.85156 698.734 7.55469 698.359 8.35156C697.984 9.13281 697.688 9.95312 697.469 10.8125C697.234 11.6875 697.062 12.5703 696.953 13.4609C696.859 14.3359 696.805 15.1719 696.789 15.9688V19.9062C696.805 20.7031 696.859 21.5469 696.953 22.4375C697.062 23.3281 697.234 24.2031 697.469 25.0625C697.703 25.9375 698.008 26.7734 698.383 27.5703C698.758 28.3672 699.227 29.0625 699.789 29.6562C700.352 30.2656 701.016 30.75 701.781 31.1094C702.547 31.4688 703.438 31.6484 704.453 31.6484C705.469 31.6484 706.359 31.4688 707.125 31.1094C707.906 30.75 708.578 30.2656 709.141 29.6562C709.688 29.0625 710.141 28.375 710.5 27.5938C710.875 26.7969 711.18 25.9609 711.414 25.0859C711.633 24.2266 711.781 23.3516 711.859 22.4609C711.953 21.5703 712.008 20.7188 712.023 19.9062V15.9688ZM727.703 0.875L733.258 17.9375L739.258 0.875H744.648V35H740.43V21.3828L740.781 7.13281L734.477 25.5078H731.992L726.203 7.625L726.555 21.3828V35H722.336V0.875H727.703ZM770.547 19.2266H756.297V31.3203H772.914V35H751.961V0.875H772.703V4.57812H756.297V15.5469H770.547V19.2266ZM802.797 19.9062C802.781 21.125 802.672 22.3594 802.469 23.6094C802.281 24.8438 801.984 26.0391 801.578 27.1953C801.172 28.3516 800.648 29.4297 800.008 30.4297C799.383 31.4297 798.633 32.3047 797.758 33.0547C796.883 33.8047 795.875 34.3984 794.734 34.8359C793.609 35.2578 792.344 35.4688 790.938 35.4688C789.531 35.4688 788.258 35.2578 787.117 34.8359C785.992 34.3984 784.992 33.8047 784.117 33.0547C783.242 32.3047 782.484 31.4297 781.844 30.4297C781.203 29.4141 780.68 28.3281 780.273 27.1719C779.852 26.0156 779.539 24.8203 779.336 23.5859C779.133 22.3516 779.023 21.125 779.008 19.9062V16.0156C779.023 14.7969 779.125 13.5703 779.312 12.3359C779.516 11.0859 779.828 9.88281 780.25 8.72656C780.656 7.57031 781.172 6.49219 781.797 5.49219C782.438 4.47656 783.195 3.58594 784.07 2.82031C784.945 2.07031 785.945 1.48438 787.07 1.0625C788.211 0.625 789.484 0.40625 790.891 0.40625C792.297 0.40625 793.57 0.625 794.711 1.0625C795.852 1.48438 796.859 2.07031 797.734 2.82031C798.609 3.57031 799.359 4.45312 799.984 5.46875C800.625 6.46875 801.156 7.54688 801.578 8.70312C801.984 9.85938 802.281 11.0625 802.469 12.3125C802.672 13.5625 802.781 14.7969 802.797 16.0156V19.9062ZM798.508 15.9688C798.492 15.1562 798.438 14.3125 798.344 13.4375C798.25 12.5469 798.094 11.6641 797.875 10.7891C797.641 9.92969 797.336 9.10938 796.961 8.32812C796.586 7.53125 796.117 6.82812 795.555 6.21875C794.992 5.625 794.328 5.15625 793.562 4.8125C792.797 4.45312 791.906 4.27344 790.891 4.27344C789.891 4.27344 789.008 4.45312 788.242 4.8125C787.477 5.17188 786.812 5.64844 786.25 6.24219C785.688 6.85156 785.219 7.55469 784.844 8.35156C784.469 9.13281 784.172 9.95312 783.953 10.8125C783.719 11.6875 783.547 12.5703 783.438 13.4609C783.344 14.3359 783.289 15.1719 783.273 15.9688V19.9062C783.289 20.7031 783.344 21.5469 783.438 22.4375C783.547 23.3281 783.719 24.2031 783.953 25.0625C784.188 25.9375 784.492 26.7734 784.867 27.5703C785.242 28.3672 785.711 29.0625 786.273 29.6562C786.836 30.2656 787.5 30.75 788.266 31.1094C789.031 31.4688 789.922 31.6484 790.938 31.6484C791.953 31.6484 792.844 31.4688 793.609 31.1094C794.391 30.75 795.062 30.2656 795.625 29.6562C796.172 29.0625 796.625 28.375 796.984 27.5938C797.359 26.7969 797.664 25.9609 797.898 25.0859C798.117 24.2266 798.266 23.3516 798.344 22.4609C798.438 21.5703 798.492 20.7188 798.508 19.9062V15.9688ZM830.805 35H826.398L813.156 9.5L813.086 35H808.703V0.875H813.109L826.352 26.3281L826.422 0.875H830.805V35ZM857.031 19.2266H842.781V31.3203H859.398V35H838.445V0.875H859.188V4.57812H842.781V15.5469H857.031V19.2266ZM879.18 23.9609H874.82V0.875H879.18V23.9609ZM874.398 32.7266C874.398 31.9766 874.617 31.3516 875.055 30.8516C875.508 30.3516 876.18 30.1016 877.07 30.1016C877.961 30.1016 878.633 30.3516 879.086 30.8516C879.555 31.3516 879.789 31.9766 879.789 32.7266C879.789 33.4453 879.555 34.0469 879.086 34.5312C878.633 35.0156 877.961 35.2578 877.07 35.2578C876.18 35.2578 875.508 35.0156 875.055 34.5312C874.617 34.0469 874.398 33.4453 874.398 32.7266ZM370.281 87.7344C370.078 89.3125 369.672 90.7656 369.062 92.0938C368.453 93.4062 367.664 94.5312 366.695 95.4688C365.711 96.4219 364.547 97.1641 363.203 97.6953C361.875 98.2109 360.391 98.4688 358.75 98.4688C357.344 98.4688 356.062 98.2734 354.906 97.8828C353.766 97.4766 352.75 96.9219 351.859 96.2188C350.953 95.5156 350.172 94.6875 349.516 93.7344C348.875 92.7812 348.344 91.7422 347.922 90.6172C347.484 89.4922 347.156 88.3125 346.938 87.0781C346.734 85.8438 346.625 84.5938 346.609 83.3281V78.5703C346.625 77.3047 346.734 76.0547 346.938 74.8203C347.156 73.5859 347.484 72.4062 347.922 71.2812C348.344 70.1562 348.875 69.1172 349.516 68.1641C350.172 67.1953 350.953 66.3594 351.859 65.6562C352.75 64.9531 353.766 64.4062 354.906 64.0156C356.047 63.6094 357.328 63.4062 358.75 63.4062C360.453 63.4062 361.977 63.6719 363.32 64.2031C364.664 64.7188 365.82 65.4531 366.789 66.4062C367.758 67.375 368.531 68.5312 369.109 69.875C369.703 71.2188 370.094 72.7031 370.281 74.3281H365.945C365.805 73.2969 365.562 72.3359 365.219 71.4453C364.875 70.5547 364.414 69.7734 363.836 69.1016C363.258 68.4297 362.547 67.9062 361.703 67.5312C360.875 67.1406 359.891 66.9453 358.75 66.9453C357.719 66.9453 356.805 67.1172 356.008 67.4609C355.227 67.7891 354.555 68.2422 353.992 68.8203C353.414 69.3984 352.93 70.0703 352.539 70.8359C352.164 71.6016 351.859 72.4141 351.625 73.2734C351.391 74.1328 351.219 75.0156 351.109 75.9219C351.016 76.8125 350.969 77.6797 350.969 78.5234V83.3281C350.969 84.1719 351.016 85.0469 351.109 85.9531C351.219 86.8438 351.391 87.7188 351.625 88.5781C351.859 89.4531 352.164 90.2734 352.539 91.0391C352.914 91.8047 353.391 92.4766 353.969 93.0547C354.547 93.6484 355.227 94.1172 356.008 94.4609C356.789 94.7891 357.703 94.9531 358.75 94.9531C359.891 94.9531 360.875 94.7734 361.703 94.4141C362.547 94.0547 363.258 93.5469 363.836 92.8906C364.414 92.25 364.875 91.4922 365.219 90.6172C365.562 89.7266 365.805 88.7656 365.945 87.7344H370.281ZM399.203 82.9062C399.188 84.125 399.078 85.3594 398.875 86.6094C398.688 87.8438 398.391 89.0391 397.984 90.1953C397.578 91.3516 397.055 92.4297 396.414 93.4297C395.789 94.4297 395.039 95.3047 394.164 96.0547C393.289 96.8047 392.281 97.3984 391.141 97.8359C390.016 98.2578 388.75 98.4688 387.344 98.4688C385.938 98.4688 384.664 98.2578 383.523 97.8359C382.398 97.3984 381.398 96.8047 380.523 96.0547C379.648 95.3047 378.891 94.4297 378.25 93.4297C377.609 92.4141 377.086 91.3281 376.68 90.1719C376.258 89.0156 375.945 87.8203 375.742 86.5859C375.539 85.3516 375.43 84.125 375.414 82.9062V79.0156C375.43 77.7969 375.531 76.5703 375.719 75.3359C375.922 74.0859 376.234 72.8828 376.656 71.7266C377.062 70.5703 377.578 69.4922 378.203 68.4922C378.844 67.4766 379.602 66.5859 380.477 65.8203C381.352 65.0703 382.352 64.4844 383.477 64.0625C384.617 63.625 385.891 63.4062 387.297 63.4062C388.703 63.4062 389.977 63.625 391.117 64.0625C392.258 64.4844 393.266 65.0703 394.141 65.8203C395.016 66.5703 395.766 67.4531 396.391 68.4688C397.031 69.4688 397.562 70.5469 397.984 71.7031C398.391 72.8594 398.688 74.0625 398.875 75.3125C399.078 76.5625 399.188 77.7969 399.203 79.0156V82.9062ZM394.914 78.9688C394.898 78.1562 394.844 77.3125 394.75 76.4375C394.656 75.5469 394.5 74.6641 394.281 73.7891C394.047 72.9297 393.742 72.1094 393.367 71.3281C392.992 70.5312 392.523 69.8281 391.961 69.2188C391.398 68.625 390.734 68.1562 389.969 67.8125C389.203 67.4531 388.312 67.2734 387.297 67.2734C386.297 67.2734 385.414 67.4531 384.648 67.8125C383.883 68.1719 383.219 68.6484 382.656 69.2422C382.094 69.8516 381.625 70.5547 381.25 71.3516C380.875 72.1328 380.578 72.9531 380.359 73.8125C380.125 74.6875 379.953 75.5703 379.844 76.4609C379.75 77.3359 379.695 78.1719 379.68 78.9688V82.9062C379.695 83.7031 379.75 84.5469 379.844 85.4375C379.953 86.3281 380.125 87.2031 380.359 88.0625C380.594 88.9375 380.898 89.7734 381.273 90.5703C381.648 91.3672 382.117 92.0625 382.68 92.6562C383.242 93.2656 383.906 93.75 384.672 94.1094C385.438 94.4688 386.328 94.6484 387.344 94.6484C388.359 94.6484 389.25 94.4688 390.016 94.1094C390.797 93.75 391.469 93.2656 392.031 92.6562C392.578 92.0625 393.031 91.375 393.391 90.5938C393.766 89.7969 394.07 88.9609 394.305 88.0859C394.523 87.2266 394.672 86.3516 394.75 85.4609C394.844 84.5703 394.898 83.7188 394.914 82.9062V78.9688ZM410.57 84.3125V98H406.234V63.875H417.297C418.828 63.9062 420.273 64.1484 421.633 64.6016C423.008 65.0547 424.211 65.7109 425.242 66.5703C426.273 67.4297 427.086 68.4922 427.68 69.7578C428.289 71.0234 428.594 72.4766 428.594 74.1172C428.594 75.7578 428.289 77.2109 427.68 78.4766C427.086 79.7266 426.273 80.7812 425.242 81.6406C424.211 82.5 423.008 83.1562 421.633 83.6094C420.273 84.0625 418.828 84.2969 417.297 84.3125H410.57ZM410.57 80.75H417.297C418.297 80.7344 419.219 80.5781 420.062 80.2812C420.906 79.9688 421.641 79.5312 422.266 78.9688C422.891 78.4062 423.375 77.7266 423.719 76.9297C424.078 76.1172 424.258 75.1953 424.258 74.1641C424.258 73.1328 424.078 72.2031 423.719 71.375C423.375 70.5469 422.898 69.8438 422.289 69.2656C421.664 68.6875 420.922 68.2422 420.062 67.9297C419.219 67.6172 418.297 67.4531 417.297 67.4375H410.57V80.75ZM434.664 63.875H455.289V67.6484H447.109V94.25H455.289V98H434.664V94.25H442.656V67.6484H434.664V63.875ZM482.266 82.2266H468.016V94.3203H484.633V98H463.68V63.875H484.422V67.5781H468.016V78.5469H482.266V82.2266ZM491.875 98V63.875H499.773C501.102 63.8906 502.352 64.0312 503.523 64.2969C504.711 64.5469 505.805 64.9062 506.805 65.375C508.195 66.0156 509.422 66.8594 510.484 67.9062C511.562 68.9375 512.422 70.1328 513.062 71.4922C513.641 72.6484 514.078 73.9141 514.375 75.2891C514.688 76.6641 514.852 78.1328 514.867 79.6953V82.2031C514.867 83.7031 514.719 85.125 514.422 86.4688C514.141 87.8125 513.727 89.0469 513.18 90.1719C512.617 91.3438 511.906 92.4062 511.047 93.3594C510.188 94.3125 509.227 95.125 508.164 95.7969C507.039 96.5 505.766 97.0391 504.344 97.4141C502.938 97.7891 501.414 97.9844 499.773 98H491.875ZM496.281 67.4375V94.4609H499.773C501.023 94.4453 502.156 94.2891 503.172 93.9922C504.203 93.6953 505.117 93.2734 505.914 92.7266C506.758 92.1641 507.484 91.4766 508.094 90.6641C508.719 89.8359 509.211 88.9141 509.57 87.8984C509.883 87.0703 510.117 86.1797 510.273 85.2266C510.43 84.2578 510.516 83.25 510.531 82.2031V79.6484C510.516 78.5859 510.422 77.5703 510.25 76.6016C510.094 75.6172 509.852 74.7031 509.523 73.8594C509.102 72.7656 508.531 71.7812 507.812 70.9062C507.109 70.0156 506.242 69.2969 505.211 68.75C504.477 68.3438 503.656 68.0312 502.75 67.8125C501.844 67.5781 500.852 67.4531 499.773 67.4375H496.281ZM533.242 86.9609H528.883V63.875H533.242V86.9609ZM528.461 95.7266C528.461 94.9766 528.68 94.3516 529.117 93.8516C529.57 93.3516 530.242 93.1016 531.133 93.1016C532.023 93.1016 532.695 93.3516 533.148 93.8516C533.617 94.3516 533.852 94.9766 533.852 95.7266C533.852 96.4453 533.617 97.0469 533.148 97.5312C532.695 98.0156 532.023 98.2578 531.133 98.2578C530.242 98.2578 529.57 98.0156 529.117 97.5312C528.68 97.0469 528.461 96.4453 528.461 95.7266Z" fill="#FF35D0"/>
</svg>
