<svg width="880" height="99" viewBox="0 0 880 99" fill="none" xmlns="http://www.w3.org/2000/svg">
<path d="M20.1016 26.375C20.1016 25.3281 19.8594 24.4453 19.375 23.7266C18.9062 23.0078 18.2969 22.3984 17.5469 21.8984C16.7969 21.4141 15.9688 21.0078 15.0625 20.6797C14.1719 20.3516 13.3125 20.0547 12.4844 19.7891C11.2812 19.3984 10.0547 18.9297 8.80469 18.3828C7.57031 17.8203 6.44531 17.1484 5.42969 16.3672C4.39844 15.5703 3.55469 14.6328 2.89844 13.5547C2.25781 12.4609 1.9375 11.1797 1.9375 9.71094C1.9375 8.24219 2.25781 6.92969 2.89844 5.77344C3.55469 4.61719 4.40625 3.64062 5.45312 2.84375C6.5 2.04688 7.6875 1.44531 9.01562 1.03906C10.3438 0.617188 11.6797 0.40625 13.0234 0.40625C14.5078 0.40625 15.9375 0.65625 17.3125 1.15625C18.6875 1.64062 19.9062 2.32812 20.9688 3.21875C22.0312 4.10938 22.8828 5.1875 23.5234 6.45312C24.1641 7.71875 24.5 9.13281 24.5312 10.6953H20.0781C19.9531 9.71094 19.7109 8.82031 19.3516 8.02344C18.9922 7.21094 18.5156 6.51562 17.9219 5.9375C17.3281 5.35938 16.6172 4.91406 15.7891 4.60156C14.9766 4.27344 14.0547 4.10938 13.0234 4.10938C12.1953 4.10938 11.3828 4.22656 10.5859 4.46094C9.80469 4.69531 9.10938 5.04688 8.5 5.51562C7.875 5.98438 7.375 6.5625 7 7.25C6.64062 7.9375 6.46094 8.73438 6.46094 9.64062C6.47656 10.625 6.72656 11.4609 7.21094 12.1484C7.69531 12.8203 8.3125 13.3906 9.0625 13.8594C9.79688 14.3281 10.5938 14.7188 11.4531 15.0312C12.3281 15.3438 13.1484 15.6172 13.9141 15.8516C15.1797 16.2422 16.4453 16.7188 17.7109 17.2812C18.9766 17.8281 20.1328 18.5312 21.1797 19.3906C22.2109 20.1875 23.0391 21.1641 23.6641 22.3203C24.3047 23.4766 24.625 24.8125 24.625 26.3281C24.625 27.8594 24.2812 29.1953 23.5938 30.3359C22.9219 31.4766 22.0469 32.4219 20.9688 33.1719C19.8906 33.9375 18.6719 34.5156 17.3125 34.9062C15.9531 35.2812 14.5938 35.4688 13.2344 35.4688C11.6094 35.4688 10.0078 35.1953 8.42969 34.6484C6.86719 34.1016 5.50781 33.3125 4.35156 32.2812C3.32031 31.3906 2.5 30.3516 1.89062 29.1641C1.29688 27.9609 0.976562 26.625 0.929688 25.1562H5.35938C5.5 26.2188 5.78906 27.1641 6.22656 27.9922C6.66406 28.8047 7.22656 29.4922 7.91406 30.0547C8.60156 30.6328 9.39062 31.0703 10.2812 31.3672C11.1875 31.6484 12.1719 31.7891 13.2344 31.7891C14.0781 31.7891 14.9062 31.6875 15.7188 31.4844C16.5469 31.2656 17.2812 30.9297 17.9219 30.4766C18.5625 30.0391 19.0859 29.4844 19.4922 28.8125C19.8984 28.125 20.1016 27.3125 20.1016 26.375ZM49.8438 19.2266H35.5938V31.3203H52.2109V35H31.2578V0.875H52V4.57812H35.5938V15.5469H49.8438V19.2266ZM81.2734 35H76.8672L63.625 9.5L63.5547 35H59.1719V0.875H63.5781L76.8203 26.3281L76.8906 0.875H81.2734V35ZM88.2812 35V0.875H96.1797C97.5078 0.890625 98.7578 1.03125 99.9297 1.29688C101.117 1.54688 102.211 1.90625 103.211 2.375C104.602 3.01562 105.828 3.85938 106.891 4.90625C107.969 5.9375 108.828 7.13281 109.469 8.49219C110.047 9.64844 110.484 10.9141 110.781 12.2891C111.094 13.6641 111.258 15.1328 111.273 16.6953V19.2031C111.273 20.7031 111.125 22.125 110.828 23.4688C110.547 24.8125 110.133 26.0469 109.586 27.1719C109.023 28.3438 108.312 29.4062 107.453 30.3594C106.594 31.3125 105.633 32.125 104.57 32.7969C103.445 33.5 102.172 34.0391 100.75 34.4141C99.3438 34.7891 97.8203 34.9844 96.1797 35H88.2812ZM92.6875 4.4375V31.4609H96.1797C97.4297 31.4453 98.5625 31.2891 99.5781 30.9922C100.609 30.6953 101.523 30.2734 102.32 29.7266C103.164 29.1641 103.891 28.4766 104.5 27.6641C105.125 26.8359 105.617 25.9141 105.977 24.8984C106.289 24.0703 106.523 23.1797 106.68 22.2266C106.836 21.2578 106.922 20.25 106.938 19.2031V16.6484C106.922 15.5859 106.828 14.5703 106.656 13.6016C106.5 12.6172 106.258 11.7031 105.93 10.8594C105.508 9.76562 104.938 8.78125 104.219 7.90625C103.516 7.01562 102.648 6.29688 101.617 5.75C100.883 5.34375 100.062 5.03125 99.1562 4.8125C98.25 4.57812 97.2578 4.45312 96.1797 4.4375H92.6875ZM156.438 18.0078L164.219 0.875H169.141L158.523 22.2734L158.453 35H154.422L154.352 22.2734L143.734 0.875H148.68L156.438 18.0078ZM197.406 19.9062C197.391 21.125 197.281 22.3594 197.078 23.6094C196.891 24.8438 196.594 26.0391 196.188 27.1953C195.781 28.3516 195.258 29.4297 194.617 30.4297C193.992 31.4297 193.242 32.3047 192.367 33.0547C191.492 33.8047 190.484 34.3984 189.344 34.8359C188.219 35.2578 186.953 35.4688 185.547 35.4688C184.141 35.4688 182.867 35.2578 181.727 34.8359C180.602 34.3984 179.602 33.8047 178.727 33.0547C177.852 32.3047 177.094 31.4297 176.453 30.4297C175.812 29.4141 175.289 28.3281 174.883 27.1719C174.461 26.0156 174.148 24.8203 173.945 23.5859C173.742 22.3516 173.633 21.125 173.617 19.9062V16.0156C173.633 14.7969 173.734 13.5703 173.922 12.3359C174.125 11.0859 174.438 9.88281 174.859 8.72656C175.266 7.57031 175.781 6.49219 176.406 5.49219C177.047 4.47656 177.805 3.58594 178.68 2.82031C179.555 2.07031 180.555 1.48438 181.68 1.0625C182.82 0.625 184.094 0.40625 185.5 0.40625C186.906 0.40625 188.18 0.625 189.32 1.0625C190.461 1.48438 191.469 2.07031 192.344 2.82031C193.219 3.57031 193.969 4.45312 194.594 5.46875C195.234 6.46875 195.766 7.54688 196.188 8.70312C196.594 9.85938 196.891 11.0625 197.078 12.3125C197.281 13.5625 197.391 14.7969 197.406 16.0156V19.9062ZM193.117 15.9688C193.102 15.1562 193.047 14.3125 192.953 13.4375C192.859 12.5469 192.703 11.6641 192.484 10.7891C192.25 9.92969 191.945 9.10938 191.57 8.32812C191.195 7.53125 190.727 6.82812 190.164 6.21875C189.602 5.625 188.938 5.15625 188.172 4.8125C187.406 4.45312 186.516 4.27344 185.5 4.27344C184.5 4.27344 183.617 4.45312 182.852 4.8125C182.086 5.17188 181.422 5.64844 180.859 6.24219C180.297 6.85156 179.828 7.55469 179.453 8.35156C179.078 9.13281 178.781 9.95312 178.562 10.8125C178.328 11.6875 178.156 12.5703 178.047 13.4609C177.953 14.3359 177.898 15.1719 177.883 15.9688V19.9062C177.898 20.7031 177.953 21.5469 178.047 22.4375C178.156 23.3281 178.328 24.2031 178.562 25.0625C178.797 25.9375 179.102 26.7734 179.477 27.5703C179.852 28.3672 180.32 29.0625 180.883 29.6562C181.445 30.2656 182.109 30.75 182.875 31.1094C183.641 31.4688 184.531 31.6484 185.547 31.6484C186.562 31.6484 187.453 31.4688 188.219 31.1094C189 30.75 189.672 30.2656 190.234 29.6562C190.781 29.0625 191.234 28.375 191.594 27.5938C191.969 26.7969 192.273 25.9609 192.508 25.0859C192.727 24.2266 192.875 23.3516 192.953 22.4609C193.047 21.5703 193.102 20.7188 193.117 19.9062V15.9688ZM225.461 0.875L225.508 23.9844C225.508 25.5781 225.227 27.0703 224.664 28.4609C224.102 29.8516 223.328 31.0625 222.344 32.0938C221.359 33.1406 220.188 33.9688 218.828 34.5781C217.469 35.1719 215.977 35.4688 214.352 35.4688C212.695 35.4688 211.188 35.1719 209.828 34.5781C208.469 33.9844 207.305 33.1641 206.336 32.1172C205.367 31.0859 204.609 29.875 204.062 28.4844C203.516 27.0781 203.234 25.5781 203.219 23.9844L203.266 0.875H207.391L207.484 23.9844C207.5 25 207.656 25.9766 207.953 26.9141C208.266 27.8516 208.711 28.6797 209.289 29.3984C209.852 30.1172 210.555 30.6953 211.398 31.1328C212.258 31.5703 213.242 31.7891 214.352 31.7891C215.461 31.7891 216.438 31.5781 217.281 31.1562C218.125 30.7188 218.836 30.1328 219.414 29.3984C219.977 28.6797 220.406 27.8516 220.703 26.9141C221 25.9766 221.164 25 221.195 23.9844L221.266 0.875H225.461ZM244.164 21.0781H237.344V35H233.031V0.875H243.039C244.633 0.90625 246.133 1.13281 247.539 1.55469C248.945 1.97656 250.18 2.60938 251.242 3.45312C252.289 4.29688 253.109 5.35938 253.703 6.64062C254.312 7.90625 254.617 9.39844 254.617 11.1172C254.617 12.2266 254.453 13.2422 254.125 14.1641C253.812 15.0859 253.375 15.9219 252.812 16.6719C252.25 17.4219 251.578 18.0859 250.797 18.6641C250.016 19.2422 249.156 19.7344 248.219 20.1406L255.461 34.7188L255.438 35H250.867L244.164 21.0781ZM237.344 17.5156H243.156C244.125 17.5 245.039 17.3516 245.898 17.0703C246.758 16.7734 247.516 16.3516 248.172 15.8047C248.812 15.2578 249.32 14.5938 249.695 13.8125C250.07 13.0156 250.258 12.1016 250.258 11.0703C250.258 9.97656 250.078 9.02344 249.719 8.21094C249.359 7.38281 248.859 6.6875 248.219 6.125C247.578 5.57812 246.812 5.16406 245.922 4.88281C245.047 4.60156 244.086 4.45312 243.039 4.4375H237.344V17.5156ZM295.422 31.3203H312.109V35H291.086V0.875H295.422V31.3203ZM341.547 19.9062C341.531 21.125 341.422 22.3594 341.219 23.6094C341.031 24.8438 340.734 26.0391 340.328 27.1953C339.922 28.3516 339.398 29.4297 338.758 30.4297C338.133 31.4297 337.383 32.3047 336.508 33.0547C335.633 33.8047 334.625 34.3984 333.484 34.8359C332.359 35.2578 331.094 35.4688 329.688 35.4688C328.281 35.4688 327.008 35.2578 325.867 34.8359C324.742 34.3984 323.742 33.8047 322.867 33.0547C321.992 32.3047 321.234 31.4297 320.594 30.4297C319.953 29.4141 319.43 28.3281 319.023 27.1719C318.602 26.0156 318.289 24.8203 318.086 23.5859C317.883 22.3516 317.773 21.125 317.758 19.9062V16.0156C317.773 14.7969 317.875 13.5703 318.062 12.3359C318.266 11.0859 318.578 9.88281 319 8.72656C319.406 7.57031 319.922 6.49219 320.547 5.49219C321.188 4.47656 321.945 3.58594 322.82 2.82031C323.695 2.07031 324.695 1.48438 325.82 1.0625C326.961 0.625 328.234 0.40625 329.641 0.40625C331.047 0.40625 332.32 0.625 333.461 1.0625C334.602 1.48438 335.609 2.07031 336.484 2.82031C337.359 3.57031 338.109 4.45312 338.734 5.46875C339.375 6.46875 339.906 7.54688 340.328 8.70312C340.734 9.85938 341.031 11.0625 341.219 12.3125C341.422 13.5625 341.531 14.7969 341.547 16.0156V19.9062ZM337.258 15.9688C337.242 15.1562 337.188 14.3125 337.094 13.4375C337 12.5469 336.844 11.6641 336.625 10.7891C336.391 9.92969 336.086 9.10938 335.711 8.32812C335.336 7.53125 334.867 6.82812 334.305 6.21875C333.742 5.625 333.078 5.15625 332.312 4.8125C331.547 4.45312 330.656 4.27344 329.641 4.27344C328.641 4.27344 327.758 4.45312 326.992 4.8125C326.227 5.17188 325.562 5.64844 325 6.24219C324.438 6.85156 323.969 7.55469 323.594 8.35156C323.219 9.13281 322.922 9.95312 322.703 10.8125C322.469 11.6875 322.297 12.5703 322.188 13.4609C322.094 14.3359 322.039 15.1719 322.023 15.9688V19.9062C322.039 20.7031 322.094 21.5469 322.188 22.4375C322.297 23.3281 322.469 24.2031 322.703 25.0625C322.938 25.9375 323.242 26.7734 323.617 27.5703C323.992 28.3672 324.461 29.0625 325.023 29.6562C325.586 30.2656 326.25 30.75 327.016 31.1094C327.781 31.4688 328.672 31.6484 329.688 31.6484C330.703 31.6484 331.594 31.4688 332.359 31.1094C333.141 30.75 333.812 30.2656 334.375 29.6562C334.922 29.0625 335.375 28.375 335.734 27.5938C336.109 26.7969 336.414 25.9609 336.648 25.0859C336.867 24.2266 337.016 23.3516 337.094 22.4609C337.188 21.5703 337.242 20.7188 337.258 19.9062V15.9688ZM356.547 35L345.766 0.875H350.406L357.906 26.3516L358.398 28.0156L358.914 26.3047L366.461 0.875H371.078L360.32 35H356.547ZM395.781 19.2266H381.531V31.3203H398.148V35H377.195V0.875H397.938V4.57812H381.531V15.5469H395.781V19.2266ZM434.617 35V0.875H444.766C446.172 0.890625 447.547 1.07812 448.891 1.4375C450.234 1.78125 451.43 2.32031 452.477 3.05469C453.523 3.78906 454.359 4.72656 454.984 5.86719C455.609 7.00781 455.914 8.375 455.898 9.96875C455.883 10.8594 455.734 11.6719 455.453 12.4062C455.188 13.1406 454.82 13.7969 454.352 14.375C453.867 14.9688 453.328 15.4688 452.734 15.875C452.156 16.2812 451.453 16.6641 450.625 17.0234V17.0938C451.484 17.2969 452.312 17.6641 453.109 18.1953C453.906 18.7266 454.562 19.3125 455.078 19.9531C455.625 20.6562 456.047 21.4453 456.344 22.3203C456.656 23.1953 456.812 24.1406 456.812 25.1562C456.828 26.75 456.523 28.1562 455.898 29.375C455.273 30.5938 454.438 31.6094 453.391 32.4219C452.344 33.25 451.133 33.8828 449.758 34.3203C448.398 34.7578 446.992 34.9844 445.539 35H434.617ZM438.977 19.0391V31.3203H445.656C446.562 31.3047 447.422 31.1562 448.234 30.875C449.047 30.5781 449.766 30.1719 450.391 29.6562C451.016 29.1406 451.508 28.5078 451.867 27.7578C452.242 27.0078 452.43 26.1562 452.43 25.2031C452.445 24.2344 452.281 23.375 451.938 22.625C451.609 21.875 451.148 21.2344 450.555 20.7031C449.961 20.1875 449.266 19.7891 448.469 19.5078C447.672 19.2266 446.812 19.0703 445.891 19.0391H438.977ZM438.977 15.4297H445.023C445.836 15.4141 446.633 15.2891 447.414 15.0547C448.195 14.8047 448.891 14.4453 449.5 13.9766C450.109 13.5234 450.602 12.9609 450.977 12.2891C451.352 11.6172 451.539 10.8359 451.539 9.94531C451.539 8.99219 451.352 8.17969 450.977 7.50781C450.617 6.83594 450.133 6.28125 449.523 5.84375C448.898 5.42188 448.18 5.10938 447.367 4.90625C446.57 4.70312 445.75 4.59375 444.906 4.57812H438.977V15.4297ZM473.547 18.0078L481.328 0.875H486.25L475.633 22.2734L475.562 35H471.531L471.461 22.2734L460.844 0.875H465.789L473.547 18.0078ZM515.336 4.57812H504.789V35H500.57V4.57812H490.023V0.875H515.336V4.57812ZM539.922 19.2266H525.672V31.3203H542.289V35H521.336V0.875H542.078V4.57812H525.672V15.5469H539.922V19.2266ZM601.82 4.57812H591.273V35H587.055V4.57812H576.508V0.875H601.82V4.57812ZM629.828 19.9062C629.812 21.125 629.703 22.3594 629.5 23.6094C629.312 24.8438 629.016 26.0391 628.609 27.1953C628.203 28.3516 627.68 29.4297 627.039 30.4297C626.414 31.4297 625.664 32.3047 624.789 33.0547C623.914 33.8047 622.906 34.3984 621.766 34.8359C620.641 35.2578 619.375 35.4688 617.969 35.4688C616.562 35.4688 615.289 35.2578 614.148 34.8359C613.023 34.3984 612.023 33.8047 611.148 33.0547C610.273 32.3047 609.516 31.4297 608.875 30.4297C608.234 29.4141 607.711 28.3281 607.305 27.1719C606.883 26.0156 606.57 24.8203 606.367 23.5859C606.164 22.3516 606.055 21.125 606.039 19.9062V16.0156C606.055 14.7969 606.156 13.5703 606.344 12.3359C606.547 11.0859 606.859 9.88281 607.281 8.72656C607.688 7.57031 608.203 6.49219 608.828 5.49219C609.469 4.47656 610.227 3.58594 611.102 2.82031C611.977 2.07031 612.977 1.48438 614.102 1.0625C615.242 0.625 616.516 0.40625 617.922 0.40625C619.328 0.40625 620.602 0.625 621.742 1.0625C622.883 1.48438 623.891 2.07031 624.766 2.82031C625.641 3.57031 626.391 4.45312 627.016 5.46875C627.656 6.46875 628.188 7.54688 628.609 8.70312C629.016 9.85938 629.312 11.0625 629.5 12.3125C629.703 13.5625 629.812 14.7969 629.828 16.0156V19.9062ZM625.539 15.9688C625.523 15.1562 625.469 14.3125 625.375 13.4375C625.281 12.5469 625.125 11.6641 624.906 10.7891C624.672 9.92969 624.367 9.10938 623.992 8.32812C623.617 7.53125 623.148 6.82812 622.586 6.21875C622.023 5.625 621.359 5.15625 620.594 4.8125C619.828 4.45312 618.938 4.27344 617.922 4.27344C616.922 4.27344 616.039 4.45312 615.273 4.8125C614.508 5.17188 613.844 5.64844 613.281 6.24219C612.719 6.85156 612.25 7.55469 611.875 8.35156C611.5 9.13281 611.203 9.95312 610.984 10.8125C610.75 11.6875 610.578 12.5703 610.469 13.4609C610.375 14.3359 610.32 15.1719 610.305 15.9688V19.9062C610.32 20.7031 610.375 21.5469 610.469 22.4375C610.578 23.3281 610.75 24.2031 610.984 25.0625C611.219 25.9375 611.523 26.7734 611.898 27.5703C612.273 28.3672 612.742 29.0625 613.305 29.6562C613.867 30.2656 614.531 30.75 615.297 31.1094C616.062 31.4688 616.953 31.6484 617.969 31.6484C618.984 31.6484 619.875 31.4688 620.641 31.1094C621.422 30.75 622.094 30.2656 622.656 29.6562C623.203 29.0625 623.656 28.375 624.016 27.5938C624.391 26.7969 624.695 25.9609 624.93 25.0859C625.148 24.2266 625.297 23.3516 625.375 22.4609C625.469 21.5703 625.523 20.7188 625.539 19.9062V15.9688ZM683.148 26.375C683.148 25.3281 682.906 24.4453 682.422 23.7266C681.953 23.0078 681.344 22.3984 680.594 21.8984C679.844 21.4141 679.016 21.0078 678.109 20.6797C677.219 20.3516 676.359 20.0547 675.531 19.7891C674.328 19.3984 673.102 18.9297 671.852 18.3828C670.617 17.8203 669.492 17.1484 668.477 16.3672C667.445 15.5703 666.602 14.6328 665.945 13.5547C665.305 12.4609 664.984 11.1797 664.984 9.71094C664.984 8.24219 665.305 6.92969 665.945 5.77344C666.602 4.61719 667.453 3.64062 668.5 2.84375C669.547 2.04688 670.734 1.44531 672.062 1.03906C673.391 0.617188 674.727 0.40625 676.07 0.40625C677.555 0.40625 678.984 0.65625 680.359 1.15625C681.734 1.64062 682.953 2.32812 684.016 3.21875C685.078 4.10938 685.93 5.1875 686.57 6.45312C687.211 7.71875 687.547 9.13281 687.578 10.6953H683.125C683 9.71094 682.758 8.82031 682.398 8.02344C682.039 7.21094 681.562 6.51562 680.969 5.9375C680.375 5.35938 679.664 4.91406 678.836 4.60156C678.023 4.27344 677.102 4.10938 676.07 4.10938C675.242 4.10938 674.43 4.22656 673.633 4.46094C672.852 4.69531 672.156 5.04688 671.547 5.51562C670.922 5.98438 670.422 6.5625 670.047 7.25C669.688 7.9375 669.508 8.73438 669.508 9.64062C669.523 10.625 669.773 11.4609 670.258 12.1484C670.742 12.8203 671.359 13.3906 672.109 13.8594C672.844 14.3281 673.641 14.7188 674.5 15.0312C675.375 15.3438 676.195 15.6172 676.961 15.8516C678.227 16.2422 679.492 16.7188 680.758 17.2812C682.023 17.8281 683.18 18.5312 684.227 19.3906C685.258 20.1875 686.086 21.1641 686.711 22.3203C687.352 23.4766 687.672 24.8125 687.672 26.3281C687.672 27.8594 687.328 29.1953 686.641 30.3359C685.969 31.4766 685.094 32.4219 684.016 33.1719C682.938 33.9375 681.719 34.5156 680.359 34.9062C679 35.2812 677.641 35.4688 676.281 35.4688C674.656 35.4688 673.055 35.1953 671.477 34.6484C669.914 34.1016 668.555 33.3125 667.398 32.2812C666.367 31.3906 665.547 30.3516 664.938 29.1641C664.344 27.9609 664.023 26.625 663.977 25.1562H668.406C668.547 26.2188 668.836 27.1641 669.273 27.9922C669.711 28.8047 670.273 29.4922 670.961 30.0547C671.648 30.6328 672.438 31.0703 673.328 31.3672C674.234 31.6484 675.219 31.7891 676.281 31.7891C677.125 31.7891 677.953 31.6875 678.766 31.4844C679.594 31.2656 680.328 30.9297 680.969 30.4766C681.609 30.0391 682.133 29.4844 682.539 28.8125C682.945 28.125 683.148 27.3125 683.148 26.375ZM716.312 19.9062C716.297 21.125 716.188 22.3594 715.984 23.6094C715.797 24.8438 715.5 26.0391 715.094 27.1953C714.688 28.3516 714.164 29.4297 713.523 30.4297C712.898 31.4297 712.148 32.3047 711.273 33.0547C710.398 33.8047 709.391 34.3984 708.25 34.8359C707.125 35.2578 705.859 35.4688 704.453 35.4688C703.047 35.4688 701.773 35.2578 700.633 34.8359C699.508 34.3984 698.508 33.8047 697.633 33.0547C696.758 32.3047 696 31.4297 695.359 30.4297C694.719 29.4141 694.195 28.3281 693.789 27.1719C693.367 26.0156 693.055 24.8203 692.852 23.5859C692.648 22.3516 692.539 21.125 692.523 19.9062V16.0156C692.539 14.7969 692.641 13.5703 692.828 12.3359C693.031 11.0859 693.344 9.88281 693.766 8.72656C694.172 7.57031 694.688 6.49219 695.312 5.49219C695.953 4.47656 696.711 3.58594 697.586 2.82031C698.461 2.07031 699.461 1.48438 700.586 1.0625C701.727 0.625 703 0.40625 704.406 0.40625C705.812 0.40625 707.086 0.625 708.227 1.0625C709.367 1.48438 710.375 2.07031 711.25 2.82031C712.125 3.57031 712.875 4.45312 713.5 5.46875C714.141 6.46875 714.672 7.54688 715.094 8.70312C715.5 9.85938 715.797 11.0625 715.984 12.3125C716.188 13.5625 716.297 14.7969 716.312 16.0156V19.9062ZM712.023 15.9688C712.008 15.1562 711.953 14.3125 711.859 13.4375C711.766 12.5469 711.609 11.6641 711.391 10.7891C711.156 9.92969 710.852 9.10938 710.477 8.32812C710.102 7.53125 709.633 6.82812 709.07 6.21875C708.508 5.625 707.844 5.15625 707.078 4.8125C706.312 4.45312 705.422 4.27344 704.406 4.27344C703.406 4.27344 702.523 4.45312 701.758 4.8125C700.992 5.17188 700.328 5.64844 699.766 6.24219C699.203 6.85156 698.734 7.55469 698.359 8.35156C697.984 9.13281 697.688 9.95312 697.469 10.8125C697.234 11.6875 697.062 12.5703 696.953 13.4609C696.859 14.3359 696.805 15.1719 696.789 15.9688V19.9062C696.805 20.7031 696.859 21.5469 696.953 22.4375C697.062 23.3281 697.234 24.2031 697.469 25.0625C697.703 25.9375 698.008 26.7734 698.383 27.5703C698.758 28.3672 699.227 29.0625 699.789 29.6562C700.352 30.2656 701.016 30.75 701.781 31.1094C702.547 31.4688 703.438 31.6484 704.453 31.6484C705.469 31.6484 706.359 31.4688 707.125 31.1094C707.906 30.75 708.578 30.2656 709.141 29.6562C709.688 29.0625 710.141 28.375 710.5 27.5938C710.875 26.7969 711.18 25.9609 711.414 25.0859C711.633 24.2266 711.781 23.3516 711.859 22.4609C711.953 21.5703 712.008 20.7188 712.023 19.9062V15.9688ZM727.703 0.875L733.258 17.9375L739.258 0.875H744.648V35H740.43V21.3828L740.781 7.13281L734.477 25.5078H731.992L726.203 7.625L726.555 21.3828V35H722.336V0.875H727.703ZM770.547 19.2266H756.297V31.3203H772.914V35H751.961V0.875H772.703V4.57812H756.297V15.5469H770.547V19.2266ZM802.797 19.9062C802.781 21.125 802.672 22.3594 802.469 23.6094C802.281 24.8438 801.984 26.0391 801.578 27.1953C801.172 28.3516 800.648 29.4297 800.008 30.4297C799.383 31.4297 798.633 32.3047 797.758 33.0547C796.883 33.8047 795.875 34.3984 794.734 34.8359C793.609 35.2578 792.344 35.4688 790.938 35.4688C789.531 35.4688 788.258 35.2578 787.117 34.8359C785.992 34.3984 784.992 33.8047 784.117 33.0547C783.242 32.3047 782.484 31.4297 781.844 30.4297C781.203 29.4141 780.68 28.3281 780.273 27.1719C779.852 26.0156 779.539 24.8203 779.336 23.5859C779.133 22.3516 779.023 21.125 779.008 19.9062V16.0156C779.023 14.7969 779.125 13.5703 779.312 12.3359C779.516 11.0859 779.828 9.88281 780.25 8.72656C780.656 7.57031 781.172 6.49219 781.797 5.49219C782.438 4.47656 783.195 3.58594 784.07 2.82031C784.945 2.07031 785.945 1.48438 787.07 1.0625C788.211 0.625 789.484 0.40625 790.891 0.40625C792.297 0.40625 793.57 0.625 794.711 1.0625C795.852 1.48438 796.859 2.07031 797.734 2.82031C798.609 3.57031 799.359 4.45312 799.984 5.46875C800.625 6.46875 801.156 7.54688 801.578 8.70312C801.984 9.85938 802.281 11.0625 802.469 12.3125C802.672 13.5625 802.781 14.7969 802.797 16.0156V19.9062ZM798.508 15.9688C798.492 15.1562 798.438 14.3125 798.344 13.4375C798.25 12.5469 798.094 11.6641 797.875 10.7891C797.641 9.92969 797.336 9.10938 796.961 8.32812C796.586 7.53125 796.117 6.82812 795.555 6.21875C794.992 5.625 794.328 5.15625 793.562 4.8125C792.797 4.45312 791.906 4.27344 790.891 4.27344C789.891 4.27344 789.008 4.45312 788.242 4.8125C787.477 5.17188 786.812 5.64844 786.25 6.24219C785.688 6.85156 785.219 7.55469 784.844 8.35156C784.469 9.13281 784.172 9.95312 783.953 10.8125C783.719 11.6875 783.547 12.5703 783.438 13.4609C783.344 14.3359 783.289 15.1719 783.273 15.9688V19.9062C783.289 20.7031 783.344 21.5469 783.438 22.4375C783.547 23.3281 783.719 24.2031 783.953 25.0625C784.188 25.9375 784.492 26.7734 784.867 27.5703C785.242 28.3672 785.711 29.0625 786.273 29.6562C786.836 30.2656 787.5 30.75 788.266 31.1094C789.031 31.4688 789.922 31.6484 790.938 31.6484C791.953 31.6484 792.844 31.4688 793.609 31.1094C794.391 30.75 795.062 30.2656 795.625 29.6562C796.172 29.0625 796.625 28.375 796.984 27.5938C797.359 26.7969 797.664 25.9609 797.898 25.0859C798.117 24.2266 798.266 23.3516 798.344 22.4609C798.438 21.5703 798.492 20.7188 798.508 19.9062V15.9688ZM830.805 35H826.398L813.156 9.5L813.086 35H808.703V0.875H813.109L826.352 26.3281L826.422 0.875H830.805V35ZM857.031 19.2266H842.781V31.3203H859.398V35H838.445V0.875H859.188V4.57812H842.781V15.5469H857.031V19.2266ZM879.18 23.9609H874.82V0.875H879.18V23.9609ZM874.398 32.7266C874.398 31.9766 874.617 31.3516 875.055 30.8516C875.508 30.3516 876.18 30.1016 877.07 30.1016C877.961 30.1016 878.633 30.3516 879.086 30.8516C879.555 31.3516 879.789 31.9766 879.789 32.7266C879.789 33.4453 879.555 34.0469 879.086 34.5312C878.633 35.0156 877.961 35.2578 877.07 35.2578C876.18 35.2578 875.508 35.0156 875.055 34.5312C874.617 34.0469 874.398 33.4453 874.398 32.7266ZM226.141 87.7344C225.938 89.3125 225.531 90.7656 224.922 92.0938C224.312 93.4062 223.523 94.5312 222.555 95.4688C221.57 96.4219 220.406 97.1641 219.062 97.6953C217.734 98.2109 216.25 98.4688 214.609 98.4688C213.203 98.4688 211.922 98.2734 210.766 97.8828C209.625 97.4766 208.609 96.9219 207.719 96.2188C206.812 95.5156 206.031 94.6875 205.375 93.7344C204.734 92.7812 204.203 91.7422 203.781 90.6172C203.344 89.4922 203.016 88.3125 202.797 87.0781C202.594 85.8438 202.484 84.5938 202.469 83.3281V78.5703C202.484 77.3047 202.594 76.0547 202.797 74.8203C203.016 73.5859 203.344 72.4062 203.781 71.2812C204.203 70.1562 204.734 69.1172 205.375 68.1641C206.031 67.1953 206.812 66.3594 207.719 65.6562C208.609 64.9531 209.625 64.4062 210.766 64.0156C211.906 63.6094 213.188 63.4062 214.609 63.4062C216.312 63.4062 217.836 63.6719 219.18 64.2031C220.523 64.7188 221.68 65.4531 222.648 66.4062C223.617 67.375 224.391 68.5312 224.969 69.875C225.562 71.2188 225.953 72.7031 226.141 74.3281H221.805C221.664 73.2969 221.422 72.3359 221.078 71.4453C220.734 70.5547 220.273 69.7734 219.695 69.1016C219.117 68.4297 218.406 67.9062 217.562 67.5312C216.734 67.1406 215.75 66.9453 214.609 66.9453C213.578 66.9453 212.664 67.1172 211.867 67.4609C211.086 67.7891 210.414 68.2422 209.852 68.8203C209.273 69.3984 208.789 70.0703 208.398 70.8359C208.023 71.6016 207.719 72.4141 207.484 73.2734C207.25 74.1328 207.078 75.0156 206.969 75.9219C206.875 76.8125 206.828 77.6797 206.828 78.5234V83.3281C206.828 84.1719 206.875 85.0469 206.969 85.9531C207.078 86.8438 207.25 87.7188 207.484 88.5781C207.719 89.4531 208.023 90.2734 208.398 91.0391C208.773 91.8047 209.25 92.4766 209.828 93.0547C210.406 93.6484 211.086 94.1172 211.867 94.4609C212.648 94.7891 213.562 94.9531 214.609 94.9531C215.75 94.9531 216.734 94.7734 217.562 94.4141C218.406 94.0547 219.117 93.5469 219.695 92.8906C220.273 92.25 220.734 91.4922 221.078 90.6172C221.422 89.7266 221.664 88.7656 221.805 87.7344H226.141ZM237.766 94.3203H254.453V98H233.43V63.875H237.766V94.3203ZM261.695 63.875H282.32V67.6484H274.141V94.25H282.32V98H261.695V94.25H269.688V67.6484H261.695V63.875ZM312.625 87.7344C312.422 89.3125 312.016 90.7656 311.406 92.0938C310.797 93.4062 310.008 94.5312 309.039 95.4688C308.055 96.4219 306.891 97.1641 305.547 97.6953C304.219 98.2109 302.734 98.4688 301.094 98.4688C299.688 98.4688 298.406 98.2734 297.25 97.8828C296.109 97.4766 295.094 96.9219 294.203 96.2188C293.297 95.5156 292.516 94.6875 291.859 93.7344C291.219 92.7812 290.688 91.7422 290.266 90.6172C289.828 89.4922 289.5 88.3125 289.281 87.0781C289.078 85.8438 288.969 84.5938 288.953 83.3281V78.5703C288.969 77.3047 289.078 76.0547 289.281 74.8203C289.5 73.5859 289.828 72.4062 290.266 71.2812C290.688 70.1562 291.219 69.1172 291.859 68.1641C292.516 67.1953 293.297 66.3594 294.203 65.6562C295.094 64.9531 296.109 64.4062 297.25 64.0156C298.391 63.6094 299.672 63.4062 301.094 63.4062C302.797 63.4062 304.32 63.6719 305.664 64.2031C307.008 64.7188 308.164 65.4531 309.133 66.4062C310.102 67.375 310.875 68.5312 311.453 69.875C312.047 71.2188 312.438 72.7031 312.625 74.3281H308.289C308.148 73.2969 307.906 72.3359 307.562 71.4453C307.219 70.5547 306.758 69.7734 306.18 69.1016C305.602 68.4297 304.891 67.9062 304.047 67.5312C303.219 67.1406 302.234 66.9453 301.094 66.9453C300.062 66.9453 299.148 67.1172 298.352 67.4609C297.57 67.7891 296.898 68.2422 296.336 68.8203C295.758 69.3984 295.273 70.0703 294.883 70.8359C294.508 71.6016 294.203 72.4141 293.969 73.2734C293.734 74.1328 293.562 75.0156 293.453 75.9219C293.359 76.8125 293.312 77.6797 293.312 78.5234V83.3281C293.312 84.1719 293.359 85.0469 293.453 85.9531C293.562 86.8438 293.734 87.7188 293.969 88.5781C294.203 89.4531 294.508 90.2734 294.883 91.0391C295.258 91.8047 295.734 92.4766 296.312 93.0547C296.891 93.6484 297.57 94.1172 298.352 94.4609C299.133 94.7891 300.047 94.9531 301.094 94.9531C302.234 94.9531 303.219 94.7734 304.047 94.4141C304.891 94.0547 305.602 93.5469 306.18 92.8906C306.758 92.25 307.219 91.4922 307.562 90.6172C307.906 89.7266 308.148 88.7656 308.289 87.7344H312.625ZM327.531 82.1562L323.734 86.4688V98H319.305V63.875H323.734V80.5391L327.039 76.4141L337.047 63.875H342.32L330.391 78.8047L343.117 98H337.844L327.531 82.1562ZM400.023 67.5781H389.477V98H385.258V67.5781H374.711V63.875H400.023V67.5781ZM428.031 82.9062C428.016 84.125 427.906 85.3594 427.703 86.6094C427.516 87.8438 427.219 89.0391 426.812 90.1953C426.406 91.3516 425.883 92.4297 425.242 93.4297C424.617 94.4297 423.867 95.3047 422.992 96.0547C422.117 96.8047 421.109 97.3984 419.969 97.8359C418.844 98.2578 417.578 98.4688 416.172 98.4688C414.766 98.4688 413.492 98.2578 412.352 97.8359C411.227 97.3984 410.227 96.8047 409.352 96.0547C408.477 95.3047 407.719 94.4297 407.078 93.4297C406.438 92.4141 405.914 91.3281 405.508 90.1719C405.086 89.0156 404.773 87.8203 404.57 86.5859C404.367 85.3516 404.258 84.125 404.242 82.9062V79.0156C404.258 77.7969 404.359 76.5703 404.547 75.3359C404.75 74.0859 405.062 72.8828 405.484 71.7266C405.891 70.5703 406.406 69.4922 407.031 68.4922C407.672 67.4766 408.43 66.5859 409.305 65.8203C410.18 65.0703 411.18 64.4844 412.305 64.0625C413.445 63.625 414.719 63.4062 416.125 63.4062C417.531 63.4062 418.805 63.625 419.945 64.0625C421.086 64.4844 422.094 65.0703 422.969 65.8203C423.844 66.5703 424.594 67.4531 425.219 68.4688C425.859 69.4688 426.391 70.5469 426.812 71.7031C427.219 72.8594 427.516 74.0625 427.703 75.3125C427.906 76.5625 428.016 77.7969 428.031 79.0156V82.9062ZM423.742 78.9688C423.727 78.1562 423.672 77.3125 423.578 76.4375C423.484 75.5469 423.328 74.6641 423.109 73.7891C422.875 72.9297 422.57 72.1094 422.195 71.3281C421.82 70.5312 421.352 69.8281 420.789 69.2188C420.227 68.625 419.562 68.1562 418.797 67.8125C418.031 67.4531 417.141 67.2734 416.125 67.2734C415.125 67.2734 414.242 67.4531 413.477 67.8125C412.711 68.1719 412.047 68.6484 411.484 69.2422C410.922 69.8516 410.453 70.5547 410.078 71.3516C409.703 72.1328 409.406 72.9531 409.188 73.8125C408.953 74.6875 408.781 75.5703 408.672 76.4609C408.578 77.3359 408.523 78.1719 408.508 78.9688V82.9062C408.523 83.7031 408.578 84.5469 408.672 85.4375C408.781 86.3281 408.953 87.2031 409.188 88.0625C409.422 88.9375 409.727 89.7734 410.102 90.5703C410.477 91.3672 410.945 92.0625 411.508 92.6562C412.07 93.2656 412.734 93.75 413.5 94.1094C414.266 94.4688 415.156 94.6484 416.172 94.6484C417.188 94.6484 418.078 94.4688 418.844 94.1094C419.625 93.75 420.297 93.2656 420.859 92.6562C421.406 92.0625 421.859 91.375 422.219 90.5938C422.594 89.7969 422.898 88.9609 423.133 88.0859C423.352 87.2266 423.5 86.3516 423.578 85.4609C423.672 84.5703 423.727 83.7188 423.742 82.9062V78.9688ZM485.594 87.7344C485.391 89.3125 484.984 90.7656 484.375 92.0938C483.766 93.4062 482.977 94.5312 482.008 95.4688C481.023 96.4219 479.859 97.1641 478.516 97.6953C477.188 98.2109 475.703 98.4688 474.062 98.4688C472.656 98.4688 471.375 98.2734 470.219 97.8828C469.078 97.4766 468.062 96.9219 467.172 96.2188C466.266 95.5156 465.484 94.6875 464.828 93.7344C464.188 92.7812 463.656 91.7422 463.234 90.6172C462.797 89.4922 462.469 88.3125 462.25 87.0781C462.047 85.8438 461.938 84.5938 461.922 83.3281V78.5703C461.938 77.3047 462.047 76.0547 462.25 74.8203C462.469 73.5859 462.797 72.4062 463.234 71.2812C463.656 70.1562 464.188 69.1172 464.828 68.1641C465.484 67.1953 466.266 66.3594 467.172 65.6562C468.062 64.9531 469.078 64.4062 470.219 64.0156C471.359 63.6094 472.641 63.4062 474.062 63.4062C475.766 63.4062 477.289 63.6719 478.633 64.2031C479.977 64.7188 481.133 65.4531 482.102 66.4062C483.07 67.375 483.844 68.5312 484.422 69.875C485.016 71.2188 485.406 72.7031 485.594 74.3281H481.258C481.117 73.2969 480.875 72.3359 480.531 71.4453C480.188 70.5547 479.727 69.7734 479.148 69.1016C478.57 68.4297 477.859 67.9062 477.016 67.5312C476.188 67.1406 475.203 66.9453 474.062 66.9453C473.031 66.9453 472.117 67.1172 471.32 67.4609C470.539 67.7891 469.867 68.2422 469.305 68.8203C468.727 69.3984 468.242 70.0703 467.852 70.8359C467.477 71.6016 467.172 72.4141 466.938 73.2734C466.703 74.1328 466.531 75.0156 466.422 75.9219C466.328 76.8125 466.281 77.6797 466.281 78.5234V83.3281C466.281 84.1719 466.328 85.0469 466.422 85.9531C466.531 86.8438 466.703 87.7188 466.938 88.5781C467.172 89.4531 467.477 90.2734 467.852 91.0391C468.227 91.8047 468.703 92.4766 469.281 93.0547C469.859 93.6484 470.539 94.1172 471.32 94.4609C472.102 94.7891 473.016 94.9531 474.062 94.9531C475.203 94.9531 476.188 94.7734 477.016 94.4141C477.859 94.0547 478.57 93.5469 479.148 92.8906C479.727 92.25 480.188 91.4922 480.531 90.6172C480.875 89.7266 481.117 88.7656 481.258 87.7344H485.594ZM514.516 82.9062C514.5 84.125 514.391 85.3594 514.188 86.6094C514 87.8438 513.703 89.0391 513.297 90.1953C512.891 91.3516 512.367 92.4297 511.727 93.4297C511.102 94.4297 510.352 95.3047 509.477 96.0547C508.602 96.8047 507.594 97.3984 506.453 97.8359C505.328 98.2578 504.062 98.4688 502.656 98.4688C501.25 98.4688 499.977 98.2578 498.836 97.8359C497.711 97.3984 496.711 96.8047 495.836 96.0547C494.961 95.3047 494.203 94.4297 493.562 93.4297C492.922 92.4141 492.398 91.3281 491.992 90.1719C491.57 89.0156 491.258 87.8203 491.055 86.5859C490.852 85.3516 490.742 84.125 490.727 82.9062V79.0156C490.742 77.7969 490.844 76.5703 491.031 75.3359C491.234 74.0859 491.547 72.8828 491.969 71.7266C492.375 70.5703 492.891 69.4922 493.516 68.4922C494.156 67.4766 494.914 66.5859 495.789 65.8203C496.664 65.0703 497.664 64.4844 498.789 64.0625C499.93 63.625 501.203 63.4062 502.609 63.4062C504.016 63.4062 505.289 63.625 506.43 64.0625C507.57 64.4844 508.578 65.0703 509.453 65.8203C510.328 66.5703 511.078 67.4531 511.703 68.4688C512.344 69.4688 512.875 70.5469 513.297 71.7031C513.703 72.8594 514 74.0625 514.188 75.3125C514.391 76.5625 514.5 77.7969 514.516 79.0156V82.9062ZM510.227 78.9688C510.211 78.1562 510.156 77.3125 510.062 76.4375C509.969 75.5469 509.812 74.6641 509.594 73.7891C509.359 72.9297 509.055 72.1094 508.68 71.3281C508.305 70.5312 507.836 69.8281 507.273 69.2188C506.711 68.625 506.047 68.1562 505.281 67.8125C504.516 67.4531 503.625 67.2734 502.609 67.2734C501.609 67.2734 500.727 67.4531 499.961 67.8125C499.195 68.1719 498.531 68.6484 497.969 69.2422C497.406 69.8516 496.938 70.5547 496.562 71.3516C496.188 72.1328 495.891 72.9531 495.672 73.8125C495.438 74.6875 495.266 75.5703 495.156 76.4609C495.062 77.3359 495.008 78.1719 494.992 78.9688V82.9062C495.008 83.7031 495.062 84.5469 495.156 85.4375C495.266 86.3281 495.438 87.2031 495.672 88.0625C495.906 88.9375 496.211 89.7734 496.586 90.5703C496.961 91.3672 497.43 92.0625 497.992 92.6562C498.555 93.2656 499.219 93.75 499.984 94.1094C500.75 94.4688 501.641 94.6484 502.656 94.6484C503.672 94.6484 504.562 94.4688 505.328 94.1094C506.109 93.75 506.781 93.2656 507.344 92.6562C507.891 92.0625 508.344 91.375 508.703 90.5938C509.078 89.7969 509.383 88.9609 509.617 88.0859C509.836 87.2266 509.984 86.3516 510.062 85.4609C510.156 84.5703 510.211 83.7188 510.227 82.9062V78.9688ZM525.883 84.3125V98H521.547V63.875H532.609C534.141 63.9062 535.586 64.1484 536.945 64.6016C538.32 65.0547 539.523 65.7109 540.555 66.5703C541.586 67.4297 542.398 68.4922 542.992 69.7578C543.602 71.0234 543.906 72.4766 543.906 74.1172C543.906 75.7578 543.602 77.2109 542.992 78.4766C542.398 79.7266 541.586 80.7812 540.555 81.6406C539.523 82.5 538.32 83.1562 536.945 83.6094C535.586 84.0625 534.141 84.2969 532.609 84.3125H525.883ZM525.883 80.75H532.609C533.609 80.7344 534.531 80.5781 535.375 80.2812C536.219 79.9688 536.953 79.5312 537.578 78.9688C538.203 78.4062 538.688 77.7266 539.031 76.9297C539.391 76.1172 539.57 75.1953 539.57 74.1641C539.57 73.1328 539.391 72.2031 539.031 71.375C538.688 70.5469 538.211 69.8438 537.602 69.2656C536.977 68.6875 536.234 68.2422 535.375 67.9297C534.531 67.6172 533.609 67.4531 532.609 67.4375H525.883V80.75ZM560.031 81.0078L567.812 63.875H572.734L562.117 85.2734L562.047 98H558.016L557.945 85.2734L547.328 63.875H552.273L560.031 81.0078ZM629.055 63.875L629.102 86.9844C629.102 88.5781 628.82 90.0703 628.258 91.4609C627.695 92.8516 626.922 94.0625 625.938 95.0938C624.953 96.1406 623.781 96.9688 622.422 97.5781C621.062 98.1719 619.57 98.4688 617.945 98.4688C616.289 98.4688 614.781 98.1719 613.422 97.5781C612.062 96.9844 610.898 96.1641 609.93 95.1172C608.961 94.0859 608.203 92.875 607.656 91.4844C607.109 90.0781 606.828 88.5781 606.812 86.9844L606.859 63.875H610.984L611.078 86.9844C611.094 88 611.25 88.9766 611.547 89.9141C611.859 90.8516 612.305 91.6797 612.883 92.3984C613.445 93.1172 614.148 93.6953 614.992 94.1328C615.852 94.5703 616.836 94.7891 617.945 94.7891C619.055 94.7891 620.031 94.5781 620.875 94.1562C621.719 93.7188 622.43 93.1328 623.008 92.3984C623.57 91.6797 624 90.8516 624.297 89.9141C624.594 88.9766 624.758 88 624.789 86.9844L624.859 63.875H629.055ZM647.758 84.0781H640.938V98H636.625V63.875H646.633C648.227 63.9062 649.727 64.1328 651.133 64.5547C652.539 64.9766 653.773 65.6094 654.836 66.4531C655.883 67.2969 656.703 68.3594 657.297 69.6406C657.906 70.9062 658.211 72.3984 658.211 74.1172C658.211 75.2266 658.047 76.2422 657.719 77.1641C657.406 78.0859 656.969 78.9219 656.406 79.6719C655.844 80.4219 655.172 81.0859 654.391 81.6641C653.609 82.2422 652.75 82.7344 651.812 83.1406L659.055 97.7188L659.031 98H654.461L647.758 84.0781ZM640.938 80.5156H646.75C647.719 80.5 648.633 80.3516 649.492 80.0703C650.352 79.7734 651.109 79.3516 651.766 78.8047C652.406 78.2578 652.914 77.5938 653.289 76.8125C653.664 76.0156 653.852 75.1016 653.852 74.0703C653.852 72.9766 653.672 72.0234 653.312 71.2109C652.953 70.3828 652.453 69.6875 651.812 69.125C651.172 68.5781 650.406 68.1641 649.516 67.8828C648.641 67.6016 647.68 67.4531 646.633 67.4375H640.938V80.5156ZM670.188 94.3203H686.875V98H665.852V63.875H670.188V94.3203Z" fill="#FF35D0"/>
</svg>
