<svg width="262" height="46" viewBox="0 0 262 46" fill="none" xmlns="http://www.w3.org/2000/svg">
<path d="M16.272 35.576C14.672 35.576 13.168 35.272 11.76 34.664C10.384 34.024 9.232 33.048 8.304 31.736V35H2.16V1.4H8.256V14.552C9.152 13.24 10.304 12.264 11.712 11.624C13.12 10.952 14.64 10.616 16.272 10.616C18.544 10.616 20.496 11.176 22.128 12.296C23.792 13.384 25.072 14.872 25.968 16.76C26.864 18.616 27.312 20.696 27.312 23C27.312 25.272 26.864 27.368 25.968 29.288C25.072 31.208 23.792 32.744 22.128 33.896C20.496 35.016 18.544 35.576 16.272 35.576ZM14.64 30.2C15.92 30.2 17.04 29.88 18 29.24C18.96 28.6 19.712 27.736 20.256 26.648C20.8 25.528 21.072 24.312 21.072 23C21.072 21.496 20.768 20.232 20.16 19.208C19.584 18.152 18.8 17.352 17.808 16.808C16.848 16.264 15.792 15.992 14.64 15.992C13.392 15.992 12.288 16.296 11.328 16.904C10.4 17.512 9.664 18.36 9.12 19.448C8.576 20.504 8.304 21.72 8.304 23.096C8.304 24.504 8.576 25.752 9.12 26.84C9.696 27.896 10.464 28.728 11.424 29.336C12.384 29.912 13.456 30.2 14.64 30.2ZM30.6131 35V1.4H36.7571V35H30.6131ZM52.4948 35.576C50.0948 35.576 47.9508 35.064 46.0628 34.04C44.2068 32.984 42.7508 31.512 41.6948 29.624C40.6388 27.736 40.1108 25.56 40.1108 23.096C40.1108 20.504 40.6708 18.28 41.7908 16.424C42.9428 14.536 44.4628 13.096 46.3508 12.104C48.2708 11.112 50.3828 10.616 52.6868 10.616C55.0868 10.616 57.2308 11.144 59.1188 12.2C61.0068 13.224 62.4948 14.664 63.5828 16.52C64.7028 18.376 65.2628 20.568 65.2628 23.096C65.2628 25.496 64.7188 27.64 63.6308 29.528C62.5428 31.416 61.0388 32.904 59.1188 33.992C57.2308 35.048 55.0228 35.576 52.4948 35.576ZM52.5908 30.248C53.8708 30.248 54.9748 29.928 55.9028 29.288C56.8628 28.616 57.6148 27.736 58.1588 26.648C58.7028 25.528 58.9748 24.312 58.9748 23C58.9748 21.496 58.6708 20.216 58.0628 19.16C57.4868 18.104 56.7188 17.304 55.7588 16.76C54.7988 16.216 53.7428 15.944 52.5908 15.944C51.3428 15.944 50.2388 16.248 49.2788 16.856C48.3508 17.464 47.6148 18.312 47.0708 19.4C46.5588 20.456 46.3028 21.688 46.3028 23.096C46.3028 24.504 46.5748 25.752 47.1188 26.84C47.6948 27.928 48.4628 28.776 49.4228 29.384C50.3828 29.96 51.4388 30.248 52.5908 30.248ZM80.0003 35.576C77.6003 35.576 75.5043 35.048 73.7122 33.992C71.9203 32.904 70.5283 31.432 69.5363 29.576C68.5443 27.688 68.0483 25.528 68.0483 23.096C68.0483 20.696 68.5283 18.552 69.4883 16.664C70.4803 14.776 71.8723 13.304 73.6643 12.248C75.4563 11.16 77.5683 10.616 80.0003 10.616C82.8803 10.616 85.3123 11.336 87.2963 12.776C89.3123 14.216 90.6723 16.344 91.3763 19.16H84.8003C84.5123 18.232 83.9523 17.448 83.1203 16.808C82.3203 16.136 81.2643 15.8 79.9523 15.8C78.6403 15.8 77.5683 16.136 76.7363 16.808C75.9043 17.48 75.2803 18.376 74.8643 19.496C74.4803 20.584 74.2883 21.784 74.2883 23.096C74.2883 24.408 74.4803 25.624 74.8643 26.744C75.2803 27.832 75.9043 28.712 76.7363 29.384C77.5683 30.024 78.6403 30.344 79.9523 30.344C81.2003 30.344 82.2243 30.072 83.0243 29.528C83.8243 28.952 84.4163 28.12 84.8003 27.032H91.3763C90.9603 28.824 90.2083 30.36 89.1203 31.64C88.0643 32.92 86.7523 33.896 85.1843 34.568C83.6483 35.24 81.9203 35.576 80.0003 35.576ZM94.9256 35V1.4H101.07V21.272L108.99 11.192H116.91L106.446 23.144L117.054 35H109.134L101.07 24.872V35H94.9256ZM120.051 35V1.4H126.195V35H120.051ZM141.932 35.576C139.532 35.576 137.388 35.064 135.5 34.04C133.644 32.984 132.188 31.512 131.132 29.624C130.076 27.736 129.548 25.56 129.548 23.096C129.548 20.504 130.108 18.28 131.228 16.424C132.38 14.536 133.9 13.096 135.788 12.104C137.708 11.112 139.82 10.616 142.124 10.616C144.524 10.616 146.668 11.144 148.556 12.2C150.444 13.224 151.932 14.664 153.02 16.52C154.14 18.376 154.7 20.568 154.7 23.096C154.7 25.496 154.156 27.64 153.068 29.528C151.98 31.416 150.476 32.904 148.556 33.992C146.668 35.048 144.46 35.576 141.932 35.576ZM142.028 30.248C143.308 30.248 144.412 29.928 145.34 29.288C146.3 28.616 147.052 27.736 147.596 26.648C148.14 25.528 148.412 24.312 148.412 23C148.412 21.496 148.108 20.216 147.5 19.16C146.924 18.104 146.156 17.304 145.196 16.76C144.236 16.216 143.18 15.944 142.028 15.944C140.78 15.944 139.676 16.248 138.716 16.856C137.788 17.464 137.052 18.312 136.508 19.4C135.996 20.456 135.74 21.688 135.74 23.096C135.74 24.504 136.012 25.752 136.556 26.84C137.132 27.928 137.9 28.776 138.86 29.384C139.82 29.96 140.876 30.248 142.028 30.248ZM169.438 35.576C167.038 35.576 164.942 35.048 163.15 33.992C161.358 32.904 159.966 31.432 158.974 29.576C157.982 27.688 157.486 25.528 157.486 23.096C157.486 20.696 157.966 18.552 158.926 16.664C159.918 14.776 161.31 13.304 163.102 12.248C164.894 11.16 167.006 10.616 169.438 10.616C172.318 10.616 174.75 11.336 176.734 12.776C178.75 14.216 180.11 16.344 180.814 19.16H174.238C173.95 18.232 173.39 17.448 172.558 16.808C171.758 16.136 170.702 15.8 169.39 15.8C168.078 15.8 167.006 16.136 166.174 16.808C165.342 17.48 164.718 18.376 164.302 19.496C163.918 20.584 163.726 21.784 163.726 23.096C163.726 24.408 163.918 25.624 164.302 26.744C164.718 27.832 165.342 28.712 166.174 29.384C167.006 30.024 168.078 30.344 169.39 30.344C170.638 30.344 171.662 30.072 172.462 29.528C173.262 28.952 173.854 28.12 174.238 27.032H180.814C180.398 28.824 179.646 30.36 178.558 31.64C177.502 32.92 176.19 33.896 174.622 34.568C173.086 35.24 171.358 35.576 169.438 35.576ZM184.363 35V1.4H190.507V21.272L198.427 11.192H206.347L195.883 23.144L206.491 35H198.571L190.507 24.872V35H184.363ZM209.92 23.672V18.536H225.52V23.672H209.92ZM226.318 45.56V40.328H227.614C228.638 40.328 229.374 40.12 229.822 39.704C230.302 39.288 230.542 38.584 230.542 37.592V11.192H236.686V37.592C236.686 39.576 236.334 41.144 235.63 42.296C234.926 43.48 233.966 44.312 232.75 44.792C231.534 45.304 230.142 45.56 228.574 45.56H226.318ZM233.662 8.12C232.542 8.12 231.598 7.736 230.83 6.968C230.062 6.168 229.678 5.224 229.678 4.136C229.678 3.016 230.062 2.072 230.83 1.304C231.598 0.535999 232.542 0.151999 233.662 0.151999C234.782 0.151999 235.726 0.535999 236.494 1.304C237.262 2.072 237.646 3.016 237.646 4.136C237.646 5.224 237.262 6.168 236.494 6.968C235.726 7.736 234.782 8.12 233.662 8.12ZM250.92 35.576C249.128 35.576 247.448 35.256 245.88 34.616C244.312 33.944 243.016 33 241.992 31.784C241 30.568 240.456 29.144 240.36 27.512H246.504C246.664 28.536 247.16 29.336 247.992 29.912C248.856 30.488 249.816 30.776 250.872 30.776C251.768 30.776 252.6 30.584 253.368 30.2C254.168 29.784 254.568 29.144 254.568 28.28C254.568 27.608 254.28 27.08 253.704 26.696C253.128 26.312 252.456 26.008 251.688 25.784C250.92 25.56 250.216 25.368 249.576 25.208C247.976 24.824 246.52 24.376 245.208 23.864C243.896 23.32 242.856 22.584 242.088 21.656C241.32 20.696 240.936 19.432 240.936 17.864C240.936 16.328 241.368 15.016 242.232 13.928C243.128 12.84 244.296 12.024 245.736 11.48C247.208 10.904 248.792 10.616 250.488 10.616C253.144 10.616 255.384 11.288 257.208 12.632C259.032 13.976 260.024 15.96 260.184 18.584H254.376C254.28 17.56 253.848 16.792 253.08 16.28C252.344 15.736 251.416 15.464 250.296 15.464C249.4 15.464 248.6 15.624 247.896 15.944C247.192 16.264 246.84 16.872 246.84 17.768C246.84 18.408 247.128 18.936 247.704 19.352C248.28 19.736 248.968 20.056 249.768 20.312C250.568 20.536 251.272 20.728 251.88 20.888C253.544 21.304 255 21.784 256.248 22.328C257.528 22.872 258.536 23.608 259.272 24.536C260.008 25.464 260.392 26.712 260.424 28.28C260.424 29.848 259.976 31.176 259.08 32.264C258.216 33.352 257.064 34.184 255.624 34.76C254.184 35.304 252.616 35.576 250.92 35.576Z" fill="#FF35D0"/>
<path d="M0 41H225.694V43.4H0V41ZM238.619 41H261.768V43.4H238.619V41Z" fill="#FF35D0"/>
<a href="https://github.com/randa-mu/blocklock-js">
<rect fill="black" fill-opacity="0" y="-0.247999" width="261.768" height="62.496"/>
</a>
</svg>
