<svg width="808" height="37" viewBox="0 0 808 37" fill="none" xmlns="http://www.w3.org/2000/svg">
<path d="M10.032 36V22.32L0.72 0.959999H4.704L11.904 18.192H12.096L19.296 0.959999H23.28L13.968 22.32V36H10.032ZM36 36.48C33.536 36.48 31.568 35.952 30.096 34.896C28.624 33.808 27.552 32.048 26.88 29.616C26.24 27.184 25.92 23.952 25.92 19.92V17.04C25.92 12.976 26.24 9.744 26.88 7.344C27.552 4.912 28.624 3.168 30.096 2.112C31.568 1.024 33.536 0.48 36 0.48C38.464 0.48 40.432 1.024 41.904 2.112C43.376 3.168 44.432 4.912 45.072 7.344C45.744 9.744 46.08 12.976 46.08 17.04V19.92C46.08 23.952 45.744 27.184 45.072 29.616C44.432 32.048 43.376 33.808 41.904 34.896C40.432 35.952 38.464 36.48 36 36.48ZM36 33.024C37.6 33.024 38.832 32.64 39.696 31.872C40.592 31.072 41.216 29.712 41.568 27.792C41.952 25.84 42.144 23.136 42.144 19.68V17.28C42.144 13.824 41.952 11.136 41.568 9.216C41.216 7.264 40.592 5.904 39.696 5.136C38.832 4.336 37.6 3.936 36 3.936C34.432 3.936 33.2 4.336 32.304 5.136C31.408 5.904 30.768 7.264 30.384 9.216C30.032 11.136 29.856 13.824 29.856 17.28V19.68C29.856 23.136 30.032 25.84 30.384 27.792C30.768 29.712 31.408 31.072 32.304 31.872C33.2 32.64 34.432 33.024 36 33.024ZM60 36.48C56.8 36.48 54.432 35.696 52.896 34.128C51.392 32.528 50.64 30.032 50.64 26.64V0.959999H54.48V26.256C54.48 28.656 54.912 30.384 55.776 31.44C56.64 32.496 58.048 33.024 60 33.024C61.984 33.024 63.392 32.496 64.224 31.44C65.088 30.384 65.52 28.656 65.52 26.256V0.959999H69.36V26.64C69.36 30.032 68.608 32.528 67.104 34.128C65.6 35.696 63.232 36.48 60 36.48ZM75.36 1.056C76.768 0.831999 77.984 0.687999 79.008 0.623998C80.064 0.527999 81.072 0.48 82.032 0.48C84.944 0.48 87.28 0.848 89.04 1.584C90.8 2.288 92.08 3.44 92.88 5.04C93.68 6.608 94.08 8.688 94.08 11.28C94.08 13.872 93.68 15.968 92.88 17.568C92.08 19.136 90.8 20.288 89.04 21.024C87.28 21.728 84.944 22.08 82.032 22.08C81.168 22.08 80.32 22.048 79.488 21.984C78.688 21.92 77.84 21.824 76.944 21.696L78.192 18.336C79.024 18.464 79.776 18.56 80.448 18.624C81.12 18.688 81.76 18.72 82.368 18.72C84.288 18.72 85.808 18.48 86.928 18C88.08 17.52 88.912 16.736 89.424 15.648C89.936 14.56 90.192 13.12 90.192 11.328C90.192 9.504 89.936 8.064 89.424 7.008C88.912 5.92 88.08 5.136 86.928 4.656C85.808 4.176 84.288 3.936 82.368 3.936C81.728 3.936 81.056 3.968 80.352 4.032C79.68 4.064 78.912 4.16 78.048 4.32L79.2 2.976V36H75.36V1.056ZM90.048 36L78.048 20.256H82.464L94.56 36H90.048ZM123.84 36V0.959999H127.776V32.544H141.6V36H123.84ZM156 36.48C153.536 36.48 151.568 35.952 150.096 34.896C148.624 33.808 147.552 32.048 146.88 29.616C146.24 27.184 145.92 23.952 145.92 19.92V17.04C145.92 12.976 146.24 9.744 146.88 7.344C147.552 4.912 148.624 3.168 150.096 2.112C151.568 1.024 153.536 0.48 156 0.48C158.464 0.48 160.432 1.024 161.904 2.112C163.376 3.168 164.432 4.912 165.072 7.344C165.744 9.744 166.08 12.976 166.08 17.04V19.92C166.08 23.952 165.744 27.184 165.072 29.616C164.432 32.048 163.376 33.808 161.904 34.896C160.432 35.952 158.464 36.48 156 36.48ZM156 33.024C157.6 33.024 158.832 32.64 159.696 31.872C160.592 31.072 161.216 29.712 161.568 27.792C161.952 25.84 162.144 23.136 162.144 19.68V17.28C162.144 13.824 161.952 11.136 161.568 9.216C161.216 7.264 160.592 5.904 159.696 5.136C158.832 4.336 157.6 3.936 156 3.936C154.432 3.936 153.2 4.336 152.304 5.136C151.408 5.904 150.768 7.264 150.384 9.216C150.032 11.136 149.856 13.824 149.856 17.28V19.68C149.856 23.136 150.032 25.84 150.384 27.792C150.768 29.712 151.408 31.072 152.304 31.872C153.2 32.64 154.432 33.024 156 33.024ZM177.648 36L168.96 0.959999H172.896L179.904 31.008H180.096L187.104 0.959999H191.04L182.352 36H177.648ZM195.888 36V0.959999H212.688V4.32H199.776V15.792H212.208V19.152H199.776V32.64H212.688V36H195.888ZM250.176 36.48C249.376 36.48 248.352 36.432 247.104 36.336C245.888 36.272 244.56 36.128 243.12 35.904V1.056C244.592 0.831999 245.92 0.687999 247.104 0.623998C248.32 0.527999 249.344 0.48 250.176 0.48C253.952 0.48 256.768 1.216 258.624 2.688C260.48 4.16 261.408 6.384 261.408 9.36C261.408 11.312 261.008 12.944 260.208 14.256C259.408 15.568 258.224 16.528 256.656 17.136V17.328C258.576 17.872 260 18.848 260.928 20.256C261.856 21.664 262.32 23.552 262.32 25.92C262.32 29.408 261.296 32.048 259.248 33.84C257.232 35.6 254.208 36.48 250.176 36.48ZM246 32.4C246.832 32.624 247.616 32.784 248.352 32.88C249.088 32.976 249.84 33.024 250.608 33.024C253.264 33.024 255.216 32.448 256.464 31.296C257.744 30.112 258.384 28.32 258.384 25.92C258.384 23.52 257.744 21.792 256.464 20.736C255.216 19.648 253.216 19.104 250.464 19.104H245.04V15.84H250.08C252.608 15.84 254.48 15.344 255.696 14.352C256.912 13.328 257.52 11.776 257.52 9.696C257.52 7.712 256.96 6.256 255.84 5.328C254.72 4.4 252.976 3.936 250.608 3.936C249.84 3.936 249.072 3.984 248.304 4.08C247.536 4.176 246.768 4.336 246 4.56L246.96 3.024V33.936L246 32.4ZM274.032 36V22.32L264.72 0.959999H268.704L275.904 18.192H276.096L283.296 0.959999H287.28L277.968 22.32V36H274.032ZM298.032 36V4.416H289.92V0.959999H310.08V4.416H301.968V36H298.032ZM315.888 36V0.959999H332.688V4.32H319.776V15.792H332.208V19.152H319.776V32.64H332.688V36H315.888ZM363.6 36L360.48 0.959999H364.416L366.336 31.056H366.528L369.024 5.76H374.976L377.472 31.056H377.664L379.584 0.959999H383.52L380.4 36H374.832L372.096 10.176H371.904L369.168 36H363.6ZM387.6 36V32.64H394.032V4.32H387.6V0.959999H404.4V4.32H397.968V32.64H404.4V36H387.6ZM411.84 36V0.959999H415.776V32.544H429.6V36H411.84ZM435.84 36V0.959999H439.776V32.544H453.6V36H435.84ZM490.176 36.48C489.376 36.48 488.352 36.432 487.104 36.336C485.888 36.272 484.56 36.128 483.12 35.904V1.056C484.592 0.831999 485.92 0.687999 487.104 0.623998C488.32 0.527999 489.344 0.48 490.176 0.48C493.952 0.48 496.768 1.216 498.624 2.688C500.48 4.16 501.408 6.384 501.408 9.36C501.408 11.312 501.008 12.944 500.208 14.256C499.408 15.568 498.224 16.528 496.656 17.136V17.328C498.576 17.872 500 18.848 500.928 20.256C501.856 21.664 502.32 23.552 502.32 25.92C502.32 29.408 501.296 32.048 499.248 33.84C497.232 35.6 494.208 36.48 490.176 36.48ZM486 32.4C486.832 32.624 487.616 32.784 488.352 32.88C489.088 32.976 489.84 33.024 490.608 33.024C493.264 33.024 495.216 32.448 496.464 31.296C497.744 30.112 498.384 28.32 498.384 25.92C498.384 23.52 497.744 21.792 496.464 20.736C495.216 19.648 493.216 19.104 490.464 19.104H485.04V15.84H490.08C492.608 15.84 494.48 15.344 495.696 14.352C496.912 13.328 497.52 11.776 497.52 9.696C497.52 7.712 496.96 6.256 495.84 5.328C494.72 4.4 492.976 3.936 490.608 3.936C489.84 3.936 489.072 3.984 488.304 4.08C487.536 4.176 486.768 4.336 486 4.56L486.96 3.024V33.936L486 32.4ZM507.888 36V0.959999H524.688V4.32H511.776V15.792H524.208V19.152H511.776V32.64H524.688V36H507.888ZM561.648 36L552.96 0.959999H556.896L563.904 31.008H564.096L571.104 0.959999H575.04L566.352 36H561.648ZM579.6 36V32.64H586.032V4.32H579.6V0.959999H596.4V4.32H589.968V32.64H596.4V36H579.6ZM610.752 36.48C609.504 36.48 608.256 36.368 607.008 36.144C605.792 35.952 604.576 35.648 603.36 35.232V31.536C604.544 32.016 605.712 32.384 606.864 32.64C608.016 32.896 609.2 33.024 610.416 33.024C612.592 33.024 614.272 32.576 615.456 31.68C616.672 30.784 617.28 29.36 617.28 27.408C617.28 26.384 617.072 25.472 616.656 24.672C616.272 23.84 615.6 23.04 614.64 22.272C613.712 21.504 612.4 20.656 610.704 19.728C608.624 18.544 606.976 17.44 605.76 16.416C604.576 15.392 603.728 14.304 603.216 13.152C602.736 11.968 602.496 10.624 602.496 9.12C602.496 6.144 603.36 3.968 605.088 2.592C606.848 1.184 609.6 0.48 613.344 0.48C614.464 0.48 615.584 0.543999 616.704 0.671997C617.856 0.799997 619.056 1.008 620.304 1.296V11.52H616.464V2.784L618 4.512C617.136 4.32 616.32 4.176 615.552 4.08C614.816 3.984 614.048 3.936 613.248 3.936C610.944 3.936 609.232 4.368 608.112 5.232C606.992 6.064 606.432 7.376 606.432 9.168C606.432 10.16 606.624 11.072 607.008 11.904C607.424 12.704 608.112 13.504 609.072 14.304C610.064 15.072 611.392 15.92 613.056 16.848C615.104 18 616.72 19.104 617.904 20.16C619.088 21.184 619.936 22.288 620.448 23.472C620.96 24.624 621.216 25.968 621.216 27.504C621.216 30.512 620.336 32.768 618.576 34.272C616.848 35.744 614.24 36.48 610.752 36.48ZM627.6 36V32.64H634.032V4.32H627.6V0.959999H644.4V4.32H637.968V32.64H644.4V36H627.6ZM658.176 36.48C657.376 36.48 656.352 36.432 655.104 36.336C653.888 36.272 652.56 36.128 651.12 35.904V1.056C652.592 0.831999 653.92 0.687999 655.104 0.623998C656.32 0.527999 657.344 0.48 658.176 0.48C661.952 0.48 664.768 1.216 666.624 2.688C668.48 4.16 669.408 6.384 669.408 9.36C669.408 11.312 669.008 12.944 668.208 14.256C667.408 15.568 666.224 16.528 664.656 17.136V17.328C666.576 17.872 668 18.848 668.928 20.256C669.856 21.664 670.32 23.552 670.32 25.92C670.32 29.408 669.296 32.048 667.248 33.84C665.232 35.6 662.208 36.48 658.176 36.48ZM654 32.4C654.832 32.624 655.616 32.784 656.352 32.88C657.088 32.976 657.84 33.024 658.608 33.024C661.264 33.024 663.216 32.448 664.464 31.296C665.744 30.112 666.384 28.32 666.384 25.92C666.384 23.52 665.744 21.792 664.464 20.736C663.216 19.648 661.216 19.104 658.464 19.104H653.04V15.84H658.08C660.608 15.84 662.48 15.344 663.696 14.352C664.912 13.328 665.52 11.776 665.52 9.696C665.52 7.712 664.96 6.256 663.84 5.328C662.72 4.4 660.976 3.936 658.608 3.936C657.84 3.936 657.072 3.984 656.304 4.08C655.536 4.176 654.768 4.336 654 4.56L654.96 3.024V33.936L654 32.4ZM675.84 36V0.959999H679.776V32.544H693.6V36H675.84ZM699.888 36V0.959999H716.688V4.32H703.776V15.792H716.208V19.152H703.776V32.64H716.688V36H699.888ZM747.6 36V32.64H754.032V4.32H747.6V0.959999H764.4V4.32H757.968V32.64H764.4V36H747.6ZM770.64 36V0.959999H776.88L785.328 31.2H785.52V0.959999H789.36V36H783.12L774.672 5.76H774.48V36H770.64ZM804 17.856C802.88 17.856 801.968 17.52 801.264 16.848C800.592 16.176 800.256 15.296 800.256 14.208C800.256 13.088 800.592 12.208 801.264 11.568C801.968 10.896 802.88 10.56 804 10.56C805.12 10.56 806.016 10.896 806.688 11.568C807.392 12.208 807.744 13.088 807.744 14.208C807.744 15.296 807.392 16.176 806.688 16.848C806.016 17.52 805.12 17.856 804 17.856ZM804 36.48C802.88 36.48 801.968 36.144 801.264 35.472C800.592 34.8 800.256 33.92 800.256 32.832C800.256 31.712 800.592 30.832 801.264 30.192C801.968 29.52 802.88 29.184 804 29.184C805.12 29.184 806.016 29.52 806.688 30.192C807.392 30.832 807.744 31.712 807.744 32.832C807.744 33.92 807.392 34.8 806.688 35.472C806.016 36.144 805.12 36.48 804 36.48Z" fill="#FF35D0"/>
</svg>
