<svg width="596" height="60" viewBox="0 0 596 60" fill="none" xmlns="http://www.w3.org/2000/svg">
<path d="M48.5357 1.63477L48.6197 18.7493H20.6317V25.2422H43.351V40.6524H20.6317V58.415H0.924805V1.63477H48.5477H48.5357Z" fill="#0090FF"/>
<path d="M55.1963 58.427V1.63477H74.9152V58.427H55.1963Z" fill="#0090FF"/>
<path d="M83.3408 58.427V1.63477H103.06V41.3005H131.864L131.78 58.415H83.3408V58.427Z" fill="#0090FF"/>
<path d="M140.612 43.6651V33.9316H159.275V43.6651H140.612Z" fill="#0090FF"/>
<path d="M166.333 1.63477H194.729C200.25 1.63477 204.727 2.82294 208.159 5.19928C211.592 7.57563 213.308 10.8521 213.308 15.0167C213.308 20.1055 210.787 23.886 205.759 26.3704V27.2585C209.755 28.3386 212.924 30.1509 215.252 32.6953C217.58 35.2397 218.745 38.3481 218.745 42.0206C218.745 47.2174 216.644 51.238 212.456 54.1064C208.267 56.9748 202.89 58.403 196.349 58.403H166.333V1.63477ZM186.136 17.057V23.706H191.081C192.221 23.706 193.109 23.3939 193.757 22.7698C194.405 22.1457 194.729 21.3536 194.729 20.3815C194.729 19.3493 194.405 18.5452 193.757 17.9451C193.109 17.345 192.221 17.057 191.081 17.057H186.136ZM186.136 34.1715V42.3687H192.545C193.901 42.3687 194.981 41.9726 195.785 41.1925C196.589 40.4124 196.997 39.4163 196.997 38.2281C196.997 37.0399 196.589 35.9958 195.785 35.2637C194.981 34.5315 193.865 34.1715 192.461 34.1715H186.136Z" fill="#0090FF"/>
<path d="M223.941 31.4951V1.63477H243.66V30.3549C243.66 38.4081 246.637 42.4407 252.59 42.4407C258.542 42.4407 261.435 38.5401 261.435 30.763V1.63477H281.226V31.087C281.226 40.6644 278.681 47.7935 273.605 52.5102C268.516 57.2749 261.459 59.6512 252.434 59.6512C243.408 59.6512 236.399 57.3109 231.418 52.6302C226.438 47.9495 223.953 40.9045 223.953 31.4951H223.941Z" fill="white"/>
<path d="M289.483 58.427V1.63477H309.202V58.427H289.483Z" fill="white"/>
<path d="M317.639 58.427V1.63477H337.358V41.3005H366.162L366.078 58.415H317.639V58.427Z" fill="white"/>
<path d="M372.08 58.427V1.63477H396.575C405.337 1.63477 412.55 4.28715 418.19 9.57992C423.843 14.8847 426.664 21.6417 426.664 29.8629C426.664 38.0841 423.819 44.9011 418.142 50.3138C412.466 55.7266 405.24 58.427 396.479 58.427H372.056H372.08ZM394.463 41.2285C402.576 41.2285 406.633 37.496 406.633 30.0309C406.633 22.5658 402.492 18.7493 394.223 18.7493H391.787V41.2285H394.463Z" fill="white"/>
<path d="M480.621 1.63477L480.705 18.7493H452.717V23.2979H475.508V36.5238H452.717V41.3125H480.705L480.621 58.427H432.998V1.63477H480.621Z" fill="white"/>
<path d="M488.003 58.427V1.63477H516.075C523.048 1.63477 528.593 3.13498 532.709 6.13542C536.826 9.13586 538.878 13.4565 538.878 19.0733C538.878 22.9139 538.026 26.2623 536.322 29.1308C534.618 31.9992 532.169 34.1115 528.977 35.4557L540.415 58.415H520.216L511.61 41.1325H507.722V58.415H488.003V58.427ZM512.907 28.2426C514.695 28.2426 516.147 27.7986 517.287 26.8984C518.427 26.0103 518.991 24.7501 518.991 23.1299C518.991 21.5097 518.439 20.2615 517.323 19.3973C516.219 18.5332 514.743 18.1012 512.907 18.1012H507.71V28.2426H512.907Z" fill="white"/>
<path d="M547.796 37.0879C554.337 41.9486 561.178 44.385 568.319 44.385C570.215 44.385 571.811 44.169 573.107 43.7369C574.404 43.3048 575.052 42.6808 575.052 41.8646C575.052 41.0485 574.5 40.3884 573.383 39.8723C572.279 39.3563 570.179 38.7802 567.094 38.1321C560.601 36.7759 555.297 34.4956 551.192 31.2791C547.076 28.0626 545.023 23.886 545.023 18.7493C545.023 13.1205 547.16 8.66781 551.432 5.36733C555.705 2.06685 562.066 0.422607 570.503 0.422607C576.936 0.422607 583.213 1.26273 589.322 2.94297V18.6773C584.077 16.565 578.832 15.5088 573.587 15.5088C571.475 15.5088 569.615 15.7488 567.995 16.2409C566.374 16.733 565.558 17.4051 565.558 18.2692C565.558 19.0253 566.074 19.6494 567.106 20.1295C568.139 20.6215 570.131 21.1256 573.107 21.6657C587.761 24.4261 595.095 30.727 595.095 40.5684C595.095 46.2453 592.934 50.8419 588.602 54.3585C584.269 57.875 578.076 59.6272 570.023 59.6272C564.778 59.6272 559.497 58.8951 554.205 57.4429C548.9 55.9787 544.663 54.0944 541.471 51.7661L547.796 37.0879Z" fill="white"/>
</svg>
