<svg width="520" height="71" viewBox="0 0 520 71" fill="none" xmlns="http://www.w3.org/2000/svg">
<path d="M42.3867 19.8296L42.46 34.7594H18.0447V40.4235H37.8638V53.8666H18.0447V69.3617H0.85348V19.8296H42.3972H42.3867Z" fill="white"/>
<path fill-rule="evenodd" clip-rule="evenodd" d="M0 18.9763H42.397L42.3972 19.8296L43.2398 19.8254L43.3173 35.6127H18.8978V39.5702H38.7169V54.7198H18.8978V70.215H0V18.9763ZM41.5374 20.6829H1.70656V68.5084H17.1912V53.0133H37.0103V41.2768H17.1912V33.9061H41.6023L41.5374 20.6829Z" fill="black"/>
<path d="M48.1971 69.3722V19.8296H65.3988V69.3722H48.1971Z" fill="white"/>
<path fill-rule="evenodd" clip-rule="evenodd" d="M47.3436 18.9763H66.2518V70.2254H47.3436V18.9763ZM49.0501 20.6829V68.5189H64.5453V20.6829H49.0501Z" fill="black"/>
<path d="M72.7484 69.3722V19.8296H89.9501V54.4319H115.077L115.004 69.3617H72.7484V69.3722Z" fill="white"/>
<path fill-rule="evenodd" clip-rule="evenodd" d="M71.8949 18.9763H90.8032V53.5786H115.935L115.853 70.215H72.7482L72.7484 69.3722L71.8949 69.3722V18.9763ZM73.6015 68.5084V20.6829H89.0966V55.2852H114.22L114.155 68.5084H73.6015Z" fill="black"/>
<path d="M122.709 56.4946V48.0037H138.99V56.4946H122.709Z" fill="white"/>
<path fill-rule="evenodd" clip-rule="evenodd" d="M121.856 47.1504H139.843V57.3479H121.856V47.1504ZM123.562 48.857V55.6413H138.136V48.857H123.562Z" fill="black"/>
<path d="M145.147 19.8296H169.919C174.735 19.8296 178.64 20.8661 181.634 22.9391C184.629 25.0121 186.126 27.8703 186.126 31.5033C186.126 35.9425 183.927 39.2404 179.54 41.4076V42.1824C183.027 43.1247 185.791 44.7056 187.822 46.9252C189.853 49.1447 190.869 51.8564 190.869 55.0601C190.869 59.5935 189.036 63.1008 185.382 65.6031C181.729 68.1054 177.038 69.3512 171.332 69.3512H145.147V19.8296ZM162.422 33.2832V39.0834H166.736C167.73 39.0834 168.505 38.8111 169.071 38.2667C169.636 37.7223 169.919 37.0313 169.919 36.1833C169.919 35.2829 169.636 34.5814 169.071 34.0579C168.505 33.5344 167.73 33.2832 166.736 33.2832H162.422ZM162.422 48.2129V55.3637H168.013C169.196 55.3637 170.139 55.0182 170.84 54.3377C171.541 53.6572 171.897 52.7882 171.897 51.7517C171.897 50.7152 171.541 49.8043 170.84 49.1657C170.139 48.527 169.165 48.2129 167.94 48.2129H162.422Z" fill="white"/>
<path fill-rule="evenodd" clip-rule="evenodd" d="M144.294 18.9763H169.918C174.853 18.9763 178.943 20.0384 182.12 22.2375C185.344 24.4697 186.979 27.59 186.979 31.5033C186.979 33.8705 186.39 35.9736 185.188 37.7801C184.157 39.3305 182.698 40.6252 180.848 41.6792C183.962 42.6799 186.511 44.229 188.451 46.3491C190.636 48.7368 191.722 51.6583 191.722 55.0601C191.722 59.8686 189.756 63.6422 185.864 66.3071C182.032 68.9316 177.16 70.2045 171.332 70.2045H144.294V18.9763ZM146 20.6829V68.4979H171.332C176.916 68.4979 181.425 67.279 184.9 64.8991C188.316 62.5595 190.015 59.3184 190.015 55.0601C190.015 52.0545 189.069 49.5527 187.192 47.5012C185.291 45.4235 182.68 43.9148 179.318 43.0061L178.687 42.8357V40.8774L179.162 40.6426C181.253 39.6099 182.77 38.3337 183.767 36.8348C184.762 35.3408 185.272 33.5753 185.272 31.5033C185.272 28.1507 183.913 25.5545 181.148 23.6407C178.336 21.6938 174.616 20.6829 169.918 20.6829H146ZM161.569 32.4299H166.736C167.874 32.4299 168.881 32.72 169.65 33.4318C170.418 34.1423 170.772 35.0856 170.772 36.1833C170.772 37.2441 170.408 38.1633 169.662 38.8814C168.899 39.6161 167.891 39.9366 166.736 39.9366H161.569V32.4299ZM163.275 34.1364V38.2301H166.736C167.57 38.2301 168.111 38.0062 168.479 37.6521C168.864 37.2813 169.065 36.8185 169.065 36.1833C169.065 35.4802 168.854 35.0205 168.491 34.684C168.129 34.3488 167.587 34.1364 166.736 34.1364H163.275ZM161.569 47.3596H167.94C169.308 47.3596 170.511 47.7123 171.414 48.5347C172.322 49.3609 172.751 50.5162 172.751 51.7517C172.751 53.004 172.312 54.0988 171.434 54.9501C170.543 55.8146 169.372 56.217 168.013 56.217H161.569V47.3596ZM163.275 49.0662V54.5105H168.013C169.021 54.5105 169.734 54.2218 170.246 53.7253C170.771 53.2156 171.044 52.5724 171.044 51.7517C171.044 50.9141 170.761 50.2477 170.265 49.7966C169.766 49.3417 169.022 49.0662 167.94 49.0662H163.275Z" fill="black"/>
<path d="M195.401 45.8782V19.8296H212.603V44.8836C212.603 51.9087 215.199 55.4265 220.392 55.4265C225.585 55.4265 228.108 52.0239 228.108 45.2395V19.8296H245.373V45.5222C245.373 53.877 243.153 60.096 238.724 64.2106C234.285 68.3671 228.129 70.4401 220.256 70.4401C212.383 70.4401 206.268 68.3985 201.923 64.3153C197.579 60.2321 195.411 54.0864 195.411 45.8782H195.401Z" fill="black"/>
<path d="M252.576 69.3722V19.8296H269.777V69.3722H252.576Z" fill="black"/>
<path d="M277.138 69.3722V19.8296H294.34V54.4319H319.467L319.393 69.3617H277.138V69.3722Z" fill="black"/>
<path d="M324.629 69.3722V19.8296H345.997C353.64 19.8296 359.933 22.1434 364.853 26.7605C369.785 31.3881 372.245 37.2826 372.245 44.4543C372.245 51.6261 369.764 57.5728 364.811 62.2947C359.859 67.0165 353.557 69.3722 345.914 69.3722H324.608H324.629ZM344.155 54.3691C351.232 54.3691 354.771 51.113 354.771 44.6009C354.771 38.0887 351.159 34.7594 343.945 34.7594H341.82V54.3691H344.155Z" fill="black"/>
<path d="M419.316 19.8296L419.389 34.7594H394.974V38.7274H414.856V50.265H394.974V54.4424H419.389L419.316 69.3722H377.772V19.8296H419.316Z" fill="black"/>
<path d="M425.755 69.3722V19.8296H450.243C456.326 19.8296 461.163 21.1383 464.754 23.7557C468.345 26.3732 470.136 30.1423 470.136 35.0421C470.136 38.3924 469.392 41.3134 467.906 43.8157C466.419 46.3179 464.283 48.1606 461.498 49.3332L471.476 69.3617H453.855L446.349 54.2854H442.957V69.3617H425.755V69.3722ZM447.479 43.0409C449.039 43.0409 450.306 42.6535 451.301 41.8683C452.295 41.0935 452.788 39.9942 452.788 38.5808C452.788 37.1674 452.306 36.0786 451.332 35.3247C450.369 34.5709 449.081 34.194 447.479 34.194H442.946V43.0409H447.479Z" fill="black"/>
<path d="M477.915 50.7571C483.621 54.9973 489.588 57.1227 495.818 57.1227C497.472 57.1227 498.865 56.9342 499.995 56.5573C501.126 56.1804 501.691 55.636 501.691 54.924C501.691 54.2121 501.21 53.6363 500.236 53.1861C499.273 52.7359 497.441 52.2333 494.75 51.668C489.086 50.4849 484.458 48.4957 480.878 45.6898C477.286 42.8839 475.496 39.2404 475.496 34.7594C475.496 29.8491 477.36 25.9649 481.087 23.0857C484.814 20.2066 490.363 18.7722 497.723 18.7722C503.335 18.7722 508.811 19.5051 514.14 20.9708V34.6966C509.565 32.8539 504.989 31.9326 500.414 31.9326C498.571 31.9326 496.949 32.142 495.535 32.5713C494.122 33.0005 493.41 33.5868 493.41 34.3406C493.41 35.0002 493.86 35.5446 494.76 35.9634C495.661 36.3927 497.399 36.8324 499.995 37.3036C512.779 39.7116 519.176 45.2082 519.176 53.7933C519.176 58.7455 517.291 62.7554 513.512 65.823C509.732 68.8906 504.33 70.4192 497.305 70.4192C492.729 70.4192 488.123 69.7805 483.505 68.5137C478.878 67.2364 475.182 65.5927 472.397 63.5615L477.915 50.7571Z" fill="black"/>
<path d="M34.3155 3.73358C35.7926 6.96409 35.7129 11.806 35.5755 15.3472C35.4241 19.2382 34.7855 25.7663 29.7359 26.1411C22.3303 26.6907 22.5411 15.7328 22.7237 10.7598C22.8924 6.17559 24.0025 -0.874078 30.2012 0.0892988C32.3903 0.429681 33.4567 1.85679 34.3155 3.73358ZM33.5488 4.44557C32.7806 2.03479 30.8008 0.560838 28.2058 1.04799C24.4257 1.75842 23.7948 7.84315 23.684 10.9206C23.609 12.9989 23.634 15.3628 23.8464 17.4254C24.143 20.3124 25.1127 24.9357 28.7226 25.1839C31.2083 25.3557 32.7119 23.9988 33.5364 21.7832C33.6909 21.3695 33.8767 20.8667 33.897 20.4373C33.5707 20.9057 33.0336 21.3226 32.4512 21.3913C29.1504 21.7801 28.999 16.6978 28.9115 14.4947C28.8178 12.1557 28.7788 9.57161 29.2581 7.27012C29.611 5.56977 30.3948 3.64146 32.498 3.92563C32.9009 3.98028 33.2366 4.21292 33.5504 4.44557H33.5488Z" fill="black"/>
<path d="M33.5488 4.44557C33.2334 4.21292 32.8994 3.98 32.4965 3.92535C30.3933 3.63961 29.6111 5.56793 29.2567 7.26984C28.7789 9.57133 28.8163 12.1554 28.91 14.4944C28.999 16.6975 29.1489 21.7798 32.4497 21.391C33.0321 21.3223 33.5692 20.9054 33.8955 20.437C33.8768 20.8664 33.6894 21.3676 33.5349 21.7829C32.7104 23.9986 31.2068 25.3554 28.7211 25.1836C25.1127 24.9338 24.1415 20.3106 23.8449 17.4251C23.6325 15.3625 23.6076 12.9986 23.6825 10.9204C23.7934 7.84287 24.4242 1.7597 28.2043 1.04771C30.7993 0.558996 32.7791 2.03451 33.5473 4.44529L33.5488 4.44557Z" fill="white"/>
<path d="M18.6747 3.73357C20.1518 6.96408 20.0721 11.8059 19.9347 15.3472C19.7833 19.2382 19.1447 25.7663 14.0952 26.1411C6.68949 26.6907 6.90028 15.7328 7.08296 10.7598C7.25159 6.17558 8.36174 -0.874087 14.5604 0.0892892C16.7495 0.429672 17.8159 1.85678 18.6747 3.73357ZM17.9081 4.44556C17.1399 2.03478 15.16 0.560828 12.565 1.04798C8.78487 1.75841 8.15407 7.84314 8.04322 10.9206C7.96827 12.9988 7.99325 15.3628 8.2056 17.4254C8.50226 20.3124 9.47188 24.9357 13.0818 25.1839C15.5675 25.3557 17.0712 23.9988 17.8956 21.7832C18.0502 21.3694 18.236 20.8667 18.2563 20.4373C17.9299 20.9057 17.3928 21.3226 16.8104 21.3913C13.5096 21.7801 13.3582 16.6978 13.2707 14.4947C13.1771 12.1557 13.138 9.5716 13.6174 7.27011C13.9702 5.56976 14.7541 3.64145 16.8573 3.92562C17.2601 3.98027 17.5958 4.21291 17.9096 4.44556H17.9081Z" fill="black"/>
<path d="M17.9081 4.44556C17.5927 4.21291 17.2579 3.98007 16.855 3.92542C14.7519 3.63969 13.9696 5.568 13.6152 7.26991C13.1374 9.5714 13.1748 12.1555 13.2685 14.4945C13.3575 16.6976 13.5074 21.7799 16.8082 21.3911C17.3906 21.3224 17.9277 20.9055 18.254 20.4371C18.2353 20.8665 18.0479 21.3677 17.8934 21.783C17.0689 23.9986 15.5653 25.3555 13.0796 25.1837C9.47124 24.9339 8.50005 20.3106 8.20339 17.4252C7.99104 15.3626 7.96606 12.9986 8.041 10.9204C8.15186 7.84294 8.78267 1.75977 12.5628 1.04778C15.1578 0.559067 17.1376 2.03458 17.9059 4.44536L17.9081 4.44556Z" fill="white"/>
</svg>
