<svg width="377" height="37" viewBox="0 0 377 37" fill="none" xmlns="http://www.w3.org/2000/svg">
<path d="M13.04 36.48C8.88 36.48 5.728 35.088 3.584 32.304C1.472 29.52 0.416004 25.392 0.416004 19.92V17.04C0.416004 11.568 1.44 7.44 3.488 4.656C5.536 1.872 8.56 0.48 12.56 0.48C13.68 0.48 14.768 0.591999 15.824 0.815998C16.88 1.008 17.824 1.312 18.656 1.728V13.44H14.816V2.304L16.736 5.28C15.52 4.384 14.096 3.936 12.464 3.936C9.808 3.936 7.792 5.056 6.416 7.296C5.04 9.536 4.352 12.864 4.352 17.28V19.68C4.352 24.256 5.088 27.632 6.56 29.808C8.064 31.952 10.352 33.024 13.424 33.024C14.288 33.024 15.184 32.944 16.112 32.784C17.04 32.624 17.888 32.416 18.656 32.16V35.76C17.856 35.984 16.944 36.16 15.92 36.288C14.928 36.416 13.968 36.48 13.04 36.48ZM29.36 36V0.959999H33.296V32.544H47.12V36H29.36ZM56.48 36V32.64H62.912V4.32H56.48V0.959999H73.28V4.32H66.848V32.64H73.28V36H56.48ZM95.12 36.48C90.96 36.48 87.808 35.088 85.664 32.304C83.552 29.52 82.496 25.392 82.496 19.92V17.04C82.496 11.568 83.52 7.44 85.568 4.656C87.616 1.872 90.64 0.48 94.64 0.48C95.76 0.48 96.848 0.591999 97.904 0.815998C98.96 1.008 99.904 1.312 100.736 1.728V13.44H96.896V2.304L98.816 5.28C97.6 4.384 96.176 3.936 94.544 3.936C91.888 3.936 89.872 5.056 88.496 7.296C87.12 9.536 86.432 12.864 86.432 17.28V19.68C86.432 24.256 87.168 27.632 88.64 29.808C90.144 31.952 92.432 33.024 95.504 33.024C96.368 33.024 97.264 32.944 98.192 32.784C99.12 32.624 99.968 32.416 100.736 32.16V35.76C99.936 35.984 99.024 36.16 98 36.288C97.008 36.416 96.048 36.48 95.12 36.48ZM111.2 36V0.959999H115.04V16.128H115.232L126.032 0.959999H130.4L118.64 17.472L130.4 36H126.08L115.232 18.816H115.04V36H111.2ZM172.352 36V4.416H164.24V0.959999H184.4V4.416H176.288V36H172.352ZM201.68 36.48C199.216 36.48 197.248 35.952 195.776 34.896C194.304 33.808 193.232 32.048 192.56 29.616C191.92 27.184 191.6 23.952 191.6 19.92V17.04C191.6 12.976 191.92 9.744 192.56 7.344C193.232 4.912 194.304 3.168 195.776 2.112C197.248 1.024 199.216 0.48 201.68 0.48C204.144 0.48 206.112 1.024 207.584 2.112C209.056 3.168 210.112 4.912 210.752 7.344C211.424 9.744 211.76 12.976 211.76 17.04V19.92C211.76 23.952 211.424 27.184 210.752 29.616C210.112 32.048 209.056 33.808 207.584 34.896C206.112 35.952 204.144 36.48 201.68 36.48ZM201.68 33.024C203.28 33.024 204.512 32.64 205.376 31.872C206.272 31.072 206.896 29.712 207.248 27.792C207.632 25.84 207.824 23.136 207.824 19.68V17.28C207.824 13.824 207.632 11.136 207.248 9.216C206.896 7.264 206.272 5.904 205.376 5.136C204.512 4.336 203.28 3.936 201.68 3.936C200.112 3.936 198.88 4.336 197.984 5.136C197.088 5.904 196.448 7.264 196.064 9.216C195.712 11.136 195.536 13.824 195.536 17.28V19.68C195.536 23.136 195.712 25.84 196.064 27.792C196.448 29.712 197.088 31.072 197.984 31.872C198.88 32.64 200.112 33.024 201.68 33.024ZM248.288 36V0.959999H265.088V4.32H252.176V15.792H264.608V19.152H252.176V32.64H265.088V36H248.288ZM274.4 36V0.959999H280.64L289.088 31.2H289.28V0.959999H293.12V36H286.88L278.432 5.76H278.24V36H274.4ZM309.152 36V4.416H301.04V0.959999H321.2V4.416H313.088V36H309.152ZM330.368 36V0.959999H347.168V4.32H334.256V15.792H346.688V19.152H334.256V32.64H347.168V36H330.368ZM357.2 1.056C358.608 0.831999 359.824 0.687999 360.848 0.623998C361.904 0.527999 362.912 0.48 363.872 0.48C366.784 0.48 369.12 0.848 370.88 1.584C372.64 2.288 373.92 3.44 374.72 5.04C375.52 6.608 375.92 8.688 375.92 11.28C375.92 13.872 375.52 15.968 374.72 17.568C373.92 19.136 372.64 20.288 370.88 21.024C369.12 21.728 366.784 22.08 363.872 22.08C363.008 22.08 362.16 22.048 361.328 21.984C360.528 21.92 359.68 21.824 358.784 21.696L360.032 18.336C360.864 18.464 361.616 18.56 362.288 18.624C362.96 18.688 363.6 18.72 364.208 18.72C366.128 18.72 367.648 18.48 368.768 18C369.92 17.52 370.752 16.736 371.264 15.648C371.776 14.56 372.032 13.12 372.032 11.328C372.032 9.504 371.776 8.064 371.264 7.008C370.752 5.92 369.92 5.136 368.768 4.656C367.648 4.176 366.128 3.936 364.208 3.936C363.568 3.936 362.896 3.968 362.192 4.032C361.52 4.064 360.752 4.16 359.888 4.32L361.04 2.976V36H357.2V1.056ZM371.888 36L359.888 20.256H364.304L376.4 36H371.888Z" fill="#FF35D0"/>
</svg>
