<svg width="1335" height="45" viewBox="0 0 1335 45" fill="none" xmlns="http://www.w3.org/2000/svg">
<path d="M9.39199 36V22.32L0.0799854 0.959999H4.06399L11.264 18.192H11.456L18.656 0.959999H22.64L13.328 22.32V36H9.39199ZM38.72 36.48C36.256 36.48 34.288 35.952 32.816 34.896C31.344 33.808 30.272 32.048 29.6 29.616C28.96 27.184 28.64 23.952 28.64 19.92V17.04C28.64 12.976 28.96 9.744 29.6 7.344C30.272 4.912 31.344 3.168 32.816 2.112C34.288 1.024 36.256 0.48 38.72 0.48C41.184 0.48 43.152 1.024 44.624 2.112C46.096 3.168 47.152 4.912 47.792 7.344C48.464 9.744 48.8 12.976 48.8 17.04V19.92C48.8 23.952 48.464 27.184 47.792 29.616C47.152 32.048 46.096 33.808 44.624 34.896C43.152 35.952 41.184 36.48 38.72 36.48ZM38.72 33.024C40.32 33.024 41.552 32.64 42.416 31.872C43.312 31.072 43.936 29.712 44.288 27.792C44.672 25.84 44.864 23.136 44.864 19.68V17.28C44.864 13.824 44.672 11.136 44.288 9.216C43.936 7.264 43.312 5.904 42.416 5.136C41.552 4.336 40.32 3.936 38.72 3.936C37.152 3.936 35.92 4.336 35.024 5.136C34.128 5.904 33.488 7.264 33.104 9.216C32.752 11.136 32.576 13.824 32.576 17.28V19.68C32.576 23.136 32.752 25.84 33.104 27.792C33.488 29.712 34.128 31.072 35.024 31.872C35.92 32.64 37.152 33.024 38.72 33.024ZM66.08 36.48C62.88 36.48 60.512 35.696 58.976 34.128C57.472 32.528 56.72 30.032 56.72 26.64V0.959999H60.56V26.256C60.56 28.656 60.992 30.384 61.856 31.44C62.72 32.496 64.128 33.024 66.08 33.024C68.064 33.024 69.472 32.496 70.304 31.44C71.168 30.384 71.6 28.656 71.6 26.256V0.959999H75.44V26.64C75.44 30.032 74.688 32.528 73.184 34.128C71.68 35.696 69.312 36.48 66.08 36.48ZM84.8 1.056C86.208 0.831999 87.424 0.687999 88.448 0.623998C89.504 0.527999 90.512 0.48 91.472 0.48C94.384 0.48 96.72 0.848 98.48 1.584C100.24 2.288 101.52 3.44 102.32 5.04C103.12 6.608 103.52 8.688 103.52 11.28C103.52 13.872 103.12 15.968 102.32 17.568C101.52 19.136 100.24 20.288 98.48 21.024C96.72 21.728 94.384 22.08 91.472 22.08C90.608 22.08 89.76 22.048 88.928 21.984C88.128 21.92 87.28 21.824 86.384 21.696L87.632 18.336C88.464 18.464 89.216 18.56 89.888 18.624C90.56 18.688 91.2 18.72 91.808 18.72C93.728 18.72 95.248 18.48 96.368 18C97.52 17.52 98.352 16.736 98.864 15.648C99.376 14.56 99.632 13.12 99.632 11.328C99.632 9.504 99.376 8.064 98.864 7.008C98.352 5.92 97.52 5.136 96.368 4.656C95.248 4.176 93.728 3.936 91.808 3.936C91.168 3.936 90.496 3.968 89.792 4.032C89.12 4.064 88.352 4.16 87.488 4.32L88.64 2.976V36H84.8V1.056ZM99.488 36L87.488 20.256H91.904L104 36H99.488ZM137.12 36L145.808 0.959999H150.512L159.2 36H155.264L148.256 5.472H148.064L141.056 36H137.12ZM141.536 26.4V23.04H154.784V26.4H141.536ZM178.4 36.48C174.24 36.48 171.088 35.088 168.944 32.304C166.832 29.52 165.776 25.392 165.776 19.92V17.04C165.776 11.568 166.8 7.44 168.848 4.656C170.896 1.872 173.92 0.48 177.92 0.48C179.04 0.48 180.128 0.591999 181.184 0.815998C182.24 1.008 183.184 1.312 184.016 1.728V13.44H180.176V2.304L182.096 5.28C180.88 4.384 179.456 3.936 177.824 3.936C175.168 3.936 173.152 5.056 171.776 7.296C170.4 9.536 169.712 12.864 169.712 17.28V19.68C169.712 24.256 170.448 27.632 171.92 29.808C173.424 31.952 175.712 33.024 178.784 33.024C179.648 33.024 180.544 32.944 181.472 32.784C182.4 32.624 183.248 32.416 184.016 32.16V35.76C183.216 35.984 182.304 36.16 181.28 36.288C180.288 36.416 179.328 36.48 178.4 36.48ZM205.76 36.48C201.6 36.48 198.448 35.088 196.304 32.304C194.192 29.52 193.136 25.392 193.136 19.92V17.04C193.136 11.568 194.16 7.44 196.208 4.656C198.256 1.872 201.28 0.48 205.28 0.48C206.4 0.48 207.488 0.591999 208.544 0.815998C209.6 1.008 210.544 1.312 211.376 1.728V13.44H207.536V2.304L209.456 5.28C208.24 4.384 206.816 3.936 205.184 3.936C202.528 3.936 200.512 5.056 199.136 7.296C197.76 9.536 197.072 12.864 197.072 17.28V19.68C197.072 24.256 197.808 27.632 199.28 29.808C200.784 31.952 203.072 33.024 206.144 33.024C207.008 33.024 207.904 32.944 208.832 32.784C209.76 32.624 210.608 32.416 211.376 32.16V35.76C210.576 35.984 209.664 36.16 208.64 36.288C207.648 36.416 206.688 36.48 205.76 36.48ZM230.24 36.48C227.776 36.48 225.808 35.952 224.336 34.896C222.864 33.808 221.792 32.048 221.12 29.616C220.48 27.184 220.16 23.952 220.16 19.92V17.04C220.16 12.976 220.48 9.744 221.12 7.344C221.792 4.912 222.864 3.168 224.336 2.112C225.808 1.024 227.776 0.48 230.24 0.48C232.704 0.48 234.672 1.024 236.144 2.112C237.616 3.168 238.672 4.912 239.312 7.344C239.984 9.744 240.32 12.976 240.32 17.04V19.92C240.32 23.952 239.984 27.184 239.312 29.616C238.672 32.048 237.616 33.808 236.144 34.896C234.672 35.952 232.704 36.48 230.24 36.48ZM230.24 33.024C231.84 33.024 233.072 32.64 233.936 31.872C234.832 31.072 235.456 29.712 235.808 27.792C236.192 25.84 236.384 23.136 236.384 19.68V17.28C236.384 13.824 236.192 11.136 235.808 9.216C235.456 7.264 234.832 5.904 233.936 5.136C233.072 4.336 231.84 3.936 230.24 3.936C228.672 3.936 227.44 4.336 226.544 5.136C225.648 5.904 225.008 7.264 224.624 9.216C224.272 11.136 224.096 13.824 224.096 17.28V19.68C224.096 23.136 224.272 25.84 224.624 27.792C225.008 29.712 225.648 31.072 226.544 31.872C227.44 32.64 228.672 33.024 230.24 33.024ZM257.6 36.48C254.4 36.48 252.032 35.696 250.496 34.128C248.992 32.528 248.24 30.032 248.24 26.64V0.959999H252.08V26.256C252.08 28.656 252.512 30.384 253.376 31.44C254.24 32.496 255.648 33.024 257.6 33.024C259.584 33.024 260.992 32.496 261.824 31.44C262.688 30.384 263.12 28.656 263.12 26.256V0.959999H266.96V26.64C266.96 30.032 266.208 32.528 264.704 34.128C263.2 35.696 260.832 36.48 257.6 36.48ZM275.6 36V0.959999H281.84L290.288 31.2H290.48V0.959999H294.32V36H288.08L279.632 5.76H279.44V36H275.6ZM310.352 36V4.416H302.24V0.959999H322.4V4.416H314.288V36H310.352ZM365.216 36.48C364.416 36.48 363.392 36.432 362.144 36.336C360.928 36.272 359.6 36.128 358.16 35.904V1.056C359.632 0.831999 360.96 0.687999 362.144 0.623998C363.36 0.527999 364.384 0.48 365.216 0.48C368.992 0.48 371.808 1.216 373.664 2.688C375.52 4.16 376.448 6.384 376.448 9.36C376.448 11.312 376.048 12.944 375.248 14.256C374.448 15.568 373.264 16.528 371.696 17.136V17.328C373.616 17.872 375.04 18.848 375.968 20.256C376.896 21.664 377.36 23.552 377.36 25.92C377.36 29.408 376.336 32.048 374.288 33.84C372.272 35.6 369.248 36.48 365.216 36.48ZM361.04 32.4C361.872 32.624 362.656 32.784 363.392 32.88C364.128 32.976 364.88 33.024 365.648 33.024C368.304 33.024 370.256 32.448 371.504 31.296C372.784 30.112 373.424 28.32 373.424 25.92C373.424 23.52 372.784 21.792 371.504 20.736C370.256 19.648 368.256 19.104 365.504 19.104H360.08V15.84H365.12C367.648 15.84 369.52 15.344 370.736 14.352C371.952 13.328 372.56 11.776 372.56 9.696C372.56 7.712 372 6.256 370.88 5.328C369.76 4.4 368.016 3.936 365.648 3.936C364.88 3.936 364.112 3.984 363.344 4.08C362.576 4.176 361.808 4.336 361.04 4.56L362 3.024V33.936L361.04 32.4ZM383.36 36L392.048 0.959999H396.752L405.44 36H401.504L394.496 5.472H394.304L387.296 36H383.36ZM387.776 26.4V23.04H401.024V26.4H387.776ZM413.6 36V0.959999H417.536V32.544H431.36V36H413.6ZM438.08 36L446.768 0.959999H451.472L460.16 36H456.224L449.216 5.472H449.024L442.016 36H438.08ZM442.496 26.4V23.04H455.744V26.4H442.496ZM467.12 36V0.959999H473.36L481.808 31.2H482V0.959999H485.84V36H479.6L471.152 5.76H470.96V36H467.12ZM506.72 36.48C502.56 36.48 499.408 35.088 497.264 32.304C495.152 29.52 494.096 25.392 494.096 19.92V17.04C494.096 11.568 495.12 7.44 497.168 4.656C499.216 1.872 502.24 0.48 506.24 0.48C507.36 0.48 508.448 0.591999 509.504 0.815998C510.56 1.008 511.504 1.312 512.336 1.728V13.44H508.496V2.304L510.416 5.28C509.2 4.384 507.776 3.936 506.144 3.936C503.488 3.936 501.472 5.056 500.096 7.296C498.72 9.536 498.032 12.864 498.032 17.28V19.68C498.032 24.256 498.768 27.632 500.24 29.808C501.744 31.952 504.032 33.024 507.104 33.024C507.968 33.024 508.864 32.944 509.792 32.784C510.72 32.624 511.568 32.416 512.336 32.16V35.76C511.536 35.984 510.624 36.16 509.6 36.288C508.608 36.416 507.648 36.48 506.72 36.48ZM523.088 36V0.959999H539.888V4.32H526.976V15.792H539.408V19.152H526.976V32.64H539.888V36H523.088ZM577.52 36V32.64H583.952V4.32H577.52V0.959999H594.32V4.32H587.888V32.64H594.32V36H577.52ZM612.032 36.48C610.784 36.48 609.536 36.368 608.288 36.144C607.072 35.952 605.856 35.648 604.64 35.232V31.536C605.824 32.016 606.992 32.384 608.144 32.64C609.296 32.896 610.48 33.024 611.696 33.024C613.872 33.024 615.552 32.576 616.736 31.68C617.952 30.784 618.56 29.36 618.56 27.408C618.56 26.384 618.352 25.472 617.936 24.672C617.552 23.84 616.88 23.04 615.92 22.272C614.992 21.504 613.68 20.656 611.984 19.728C609.904 18.544 608.256 17.44 607.04 16.416C605.856 15.392 605.008 14.304 604.496 13.152C604.016 11.968 603.776 10.624 603.776 9.12C603.776 6.144 604.64 3.968 606.368 2.592C608.128 1.184 610.88 0.48 614.624 0.48C615.744 0.48 616.864 0.543999 617.984 0.671997C619.136 0.799997 620.336 1.008 621.584 1.296V11.52H617.744V2.784L619.28 4.512C618.416 4.32 617.6 4.176 616.832 4.08C616.096 3.984 615.328 3.936 614.528 3.936C612.224 3.936 610.512 4.368 609.392 5.232C608.272 6.064 607.712 7.376 607.712 9.168C607.712 10.16 607.904 11.072 608.288 11.904C608.704 12.704 609.392 13.504 610.352 14.304C611.344 15.072 612.672 15.92 614.336 16.848C616.384 18 618 19.104 619.184 20.16C620.368 21.184 621.216 22.288 621.728 23.472C622.24 24.624 622.496 25.968 622.496 27.504C622.496 30.512 621.616 32.768 619.856 34.272C618.128 35.744 615.52 36.48 612.032 36.48ZM659.36 36V32.64L672.32 4.512V4.32H659.36V0.959999H676.64V4.32L663.68 32.448V32.64H676.64V36H659.36ZM687.248 36V0.959999H704.048V4.32H691.136V15.792H703.568V19.152H691.136V32.64H704.048V36H687.248ZM714.08 1.056C715.488 0.831999 716.704 0.687999 717.728 0.623998C718.784 0.527999 719.792 0.48 720.752 0.48C723.664 0.48 726 0.848 727.76 1.584C729.52 2.288 730.8 3.44 731.6 5.04C732.4 6.608 732.8 8.688 732.8 11.28C732.8 13.872 732.4 15.968 731.6 17.568C730.8 19.136 729.52 20.288 727.76 21.024C726 21.728 723.664 22.08 720.752 22.08C719.888 22.08 719.04 22.048 718.208 21.984C717.408 21.92 716.56 21.824 715.664 21.696L716.912 18.336C717.744 18.464 718.496 18.56 719.168 18.624C719.84 18.688 720.48 18.72 721.088 18.72C723.008 18.72 724.528 18.48 725.648 18C726.8 17.52 727.632 16.736 728.144 15.648C728.656 14.56 728.912 13.12 728.912 11.328C728.912 9.504 728.656 8.064 728.144 7.008C727.632 5.92 726.8 5.136 725.648 4.656C724.528 4.176 723.008 3.936 721.088 3.936C720.448 3.936 719.776 3.968 719.072 4.032C718.4 4.064 717.632 4.16 716.768 4.32L717.92 2.976V36H714.08V1.056ZM728.768 36L716.768 20.256H721.184L733.28 36H728.768ZM750.08 36.48C747.616 36.48 745.648 35.952 744.176 34.896C742.704 33.808 741.632 32.048 740.96 29.616C740.32 27.184 740 23.952 740 19.92V17.04C740 12.976 740.32 9.744 740.96 7.344C741.632 4.912 742.704 3.168 744.176 2.112C745.648 1.024 747.616 0.48 750.08 0.48C752.544 0.48 754.512 1.024 755.984 2.112C757.456 3.168 758.512 4.912 759.152 7.344C759.824 9.744 760.16 12.976 760.16 17.04V19.92C760.16 23.952 759.824 27.184 759.152 29.616C758.512 32.048 757.456 33.808 755.984 34.896C754.512 35.952 752.544 36.48 750.08 36.48ZM750.08 33.024C751.68 33.024 752.912 32.64 753.776 31.872C754.672 31.072 755.296 29.712 755.648 27.792C756.032 25.84 756.224 23.136 756.224 19.68V17.28C756.224 13.824 756.032 11.136 755.648 9.216C755.296 7.264 754.672 5.904 753.776 5.136C752.912 4.336 751.68 3.936 750.08 3.936C748.512 3.936 747.28 4.336 746.384 5.136C745.488 5.904 744.848 7.264 744.464 9.216C744.112 11.136 743.936 13.824 743.936 17.28V19.68C743.936 23.136 744.112 25.84 744.464 27.792C744.848 29.712 745.488 31.072 746.384 31.872C747.28 32.64 748.512 33.024 750.08 33.024ZM772.208 44.16L776.624 29.184H781.136L775.76 44.16H772.208ZM834.656 36.48C826.176 36.48 821.936 30.96 821.936 19.92V17.04C821.936 11.472 823.008 7.328 825.152 4.608C827.328 1.856 830.608 0.48 834.992 0.48C835.92 0.48 836.88 0.543999 837.872 0.671997C838.864 0.767998 839.808 0.911998 840.704 1.104V4.656C839.808 4.432 838.88 4.256 837.92 4.128C836.992 4 836.096 3.936 835.232 3.936C831.968 3.936 829.584 4.992 828.08 7.104C826.608 9.216 825.872 12.608 825.872 17.28V19.68C825.872 24.128 826.576 27.472 827.984 29.712C829.424 31.92 831.568 33.024 834.416 33.024C835.152 33.024 835.936 32.944 836.768 32.784C837.632 32.624 838.464 32.384 839.264 32.064L837.776 33.888V19.104H830.576V15.84H841.616V35.52C840.592 35.84 839.44 36.08 838.16 36.24C836.88 36.4 835.712 36.48 834.656 36.48ZM851.408 36V0.959999H868.208V4.32H855.296V15.792H867.728V19.152H855.296V32.64H868.208V36H851.408ZM884.912 36V4.416H876.8V0.959999H896.96V4.416H888.848V36H884.912ZM945.056 36.48C942.24 36.48 940.208 35.904 938.96 34.752C937.744 33.6 937.136 31.664 937.136 28.944V14.4H930.896V11.04H937.136V2.88H940.976V11.04H950.576V14.4H940.976V28.128C940.976 30.016 941.312 31.328 941.984 32.064C942.688 32.768 943.968 33.12 945.824 33.12C946.72 33.12 947.552 33.056 948.32 32.928C949.12 32.768 949.872 32.56 950.576 32.304V35.664C949.68 35.952 948.768 36.16 947.84 36.288C946.944 36.416 946.016 36.48 945.056 36.48ZM961.136 36V0.959999H978.416V4.32H965.072V16.272H977.936V19.632H965.072V36H961.136ZM987.92 36V32.64H994.352V4.32H987.92V0.959999H1004.72V4.32H998.288V32.64H1004.72V36H987.92ZM1015.52 36V0.959999H1019.46V32.544H1033.28V36H1015.52ZM1076.43 36V4.416H1068.32V0.959999H1088.48V4.416H1080.37V36H1076.43ZM1105.76 36.48C1103.3 36.48 1101.33 35.952 1099.86 34.896C1098.38 33.808 1097.31 32.048 1096.64 29.616C1096 27.184 1095.68 23.952 1095.68 19.92V17.04C1095.68 12.976 1096 9.744 1096.64 7.344C1097.31 4.912 1098.38 3.168 1099.86 2.112C1101.33 1.024 1103.3 0.48 1105.76 0.48C1108.22 0.48 1110.19 1.024 1111.66 2.112C1113.14 3.168 1114.19 4.912 1114.83 7.344C1115.5 9.744 1115.84 12.976 1115.84 17.04V19.92C1115.84 23.952 1115.5 27.184 1114.83 29.616C1114.19 32.048 1113.14 33.808 1111.66 34.896C1110.19 35.952 1108.22 36.48 1105.76 36.48ZM1105.76 33.024C1107.36 33.024 1108.59 32.64 1109.46 31.872C1110.35 31.072 1110.98 29.712 1111.33 27.792C1111.71 25.84 1111.9 23.136 1111.9 19.68V17.28C1111.9 13.824 1111.71 11.136 1111.33 9.216C1110.98 7.264 1110.35 5.904 1109.46 5.136C1108.59 4.336 1107.36 3.936 1105.76 3.936C1104.19 3.936 1102.96 4.336 1102.06 5.136C1101.17 5.904 1100.53 7.264 1100.14 9.216C1099.79 11.136 1099.62 13.824 1099.62 17.28V19.68C1099.62 23.136 1099.79 25.84 1100.14 27.792C1100.53 29.712 1101.17 31.072 1102.06 31.872C1102.96 32.64 1104.19 33.024 1105.76 33.024ZM1152.08 1.056C1153.49 0.831999 1154.72 0.687999 1155.78 0.623998C1156.86 0.527999 1157.86 0.48 1158.75 0.48C1161.66 0.48 1164 0.879999 1165.76 1.68C1167.52 2.448 1168.8 3.696 1169.6 5.424C1170.4 7.12 1170.8 9.392 1170.8 12.24C1170.8 15.056 1170.4 17.328 1169.6 19.056C1168.8 20.784 1167.52 22.048 1165.76 22.848C1164 23.616 1161.66 24 1158.75 24C1157.86 24 1157.01 23.968 1156.21 23.904C1155.41 23.84 1154.56 23.744 1153.66 23.616L1154.91 20.16C1155.68 20.288 1156.38 20.384 1157.02 20.448C1157.66 20.512 1158.35 20.544 1159.09 20.544C1161.01 20.544 1162.53 20.272 1163.65 19.728C1164.8 19.184 1165.63 18.304 1166.14 17.088C1166.66 15.872 1166.91 14.256 1166.91 12.24C1166.91 10.192 1166.66 8.576 1166.14 7.392C1165.63 6.176 1164.8 5.296 1163.65 4.752C1162.53 4.208 1161.01 3.936 1159.09 3.936C1158.35 3.936 1157.63 3.968 1156.93 4.032C1156.22 4.096 1155.5 4.192 1154.77 4.32L1156.02 2.976V36H1152.08V1.056ZM1179.2 1.056C1180.61 0.831999 1181.82 0.687999 1182.85 0.623998C1183.9 0.527999 1184.91 0.48 1185.87 0.48C1188.78 0.48 1191.12 0.848 1192.88 1.584C1194.64 2.288 1195.92 3.44 1196.72 5.04C1197.52 6.608 1197.92 8.688 1197.92 11.28C1197.92 13.872 1197.52 15.968 1196.72 17.568C1195.92 19.136 1194.64 20.288 1192.88 21.024C1191.12 21.728 1188.78 22.08 1185.87 22.08C1185.01 22.08 1184.16 22.048 1183.33 21.984C1182.53 21.92 1181.68 21.824 1180.78 21.696L1182.03 18.336C1182.86 18.464 1183.62 18.56 1184.29 18.624C1184.96 18.688 1185.6 18.72 1186.21 18.72C1188.13 18.72 1189.65 18.48 1190.77 18C1191.92 17.52 1192.75 16.736 1193.26 15.648C1193.78 14.56 1194.03 13.12 1194.03 11.328C1194.03 9.504 1193.78 8.064 1193.26 7.008C1192.75 5.92 1191.92 5.136 1190.77 4.656C1189.65 4.176 1188.13 3.936 1186.21 3.936C1185.57 3.936 1184.9 3.968 1184.19 4.032C1183.52 4.064 1182.75 4.16 1181.89 4.32L1183.04 2.976V36H1179.2V1.056ZM1193.89 36L1181.89 20.256H1186.3L1198.4 36H1193.89ZM1215.2 36.48C1212.74 36.48 1210.77 35.952 1209.3 34.896C1207.82 33.808 1206.75 32.048 1206.08 29.616C1205.44 27.184 1205.12 23.952 1205.12 19.92V17.04C1205.12 12.976 1205.44 9.744 1206.08 7.344C1206.75 4.912 1207.82 3.168 1209.3 2.112C1210.77 1.024 1212.74 0.48 1215.2 0.48C1217.66 0.48 1219.63 1.024 1221.1 2.112C1222.58 3.168 1223.63 4.912 1224.27 7.344C1224.94 9.744 1225.28 12.976 1225.28 17.04V19.92C1225.28 23.952 1224.94 27.184 1224.27 29.616C1223.63 32.048 1222.58 33.808 1221.1 34.896C1219.63 35.952 1217.66 36.48 1215.2 36.48ZM1215.2 33.024C1216.8 33.024 1218.03 32.64 1218.9 31.872C1219.79 31.072 1220.42 29.712 1220.77 27.792C1221.15 25.84 1221.34 23.136 1221.34 19.68V17.28C1221.34 13.824 1221.15 11.136 1220.77 9.216C1220.42 7.264 1219.79 5.904 1218.9 5.136C1218.03 4.336 1216.8 3.936 1215.2 3.936C1213.63 3.936 1212.4 4.336 1211.5 5.136C1210.61 5.904 1209.97 7.264 1209.58 9.216C1209.23 11.136 1209.06 13.824 1209.06 17.28V19.68C1209.06 23.136 1209.23 25.84 1209.58 27.792C1209.97 29.712 1210.61 31.072 1211.5 31.872C1212.4 32.64 1213.63 33.024 1215.2 33.024ZM1245.44 36.48C1241.28 36.48 1238.13 35.088 1235.98 32.304C1233.87 29.52 1232.82 25.392 1232.82 19.92V17.04C1232.82 11.568 1233.84 7.44 1235.89 4.656C1237.94 1.872 1240.96 0.48 1244.96 0.48C1246.08 0.48 1247.17 0.591999 1248.22 0.815998C1249.28 1.008 1250.22 1.312 1251.06 1.728V13.44H1247.22V2.304L1249.14 5.28C1247.92 4.384 1246.5 3.936 1244.86 3.936C1242.21 3.936 1240.19 5.056 1238.82 7.296C1237.44 9.536 1236.75 12.864 1236.75 17.28V19.68C1236.75 24.256 1237.49 27.632 1238.96 29.808C1240.46 31.952 1242.75 33.024 1245.82 33.024C1246.69 33.024 1247.58 32.944 1248.51 32.784C1249.44 32.624 1250.29 32.416 1251.06 32.16V35.76C1250.26 35.984 1249.34 36.16 1248.32 36.288C1247.33 36.416 1246.37 36.48 1245.44 36.48ZM1261.81 36V0.959999H1278.61V4.32H1265.7V15.792H1278.13V19.152H1265.7V32.64H1278.61V36H1261.81ZM1289.17 36V0.959999H1305.97V4.32H1293.06V15.792H1305.49V19.152H1293.06V32.64H1305.97V36H1289.17ZM1321.76 36.48C1320 36.48 1317.94 36.288 1315.57 35.904V1.056C1317.94 0.671999 1320 0.48 1321.76 0.48C1324.83 0.48 1327.31 1.04 1329.2 2.16C1331.12 3.28 1332.53 5.056 1333.42 7.488C1334.32 9.92 1334.77 13.104 1334.77 17.04V19.92C1334.77 23.824 1334.32 27.008 1333.42 29.472C1332.53 31.904 1331.12 33.68 1329.2 34.8C1327.31 35.92 1324.83 36.48 1321.76 36.48ZM1318.69 32.448C1319.23 32.64 1319.81 32.784 1320.42 32.88C1321.02 32.976 1321.66 33.024 1322.34 33.024C1324.35 33.024 1325.98 32.576 1327.23 31.68C1328.51 30.752 1329.44 29.312 1330.02 27.36C1330.59 25.408 1330.88 22.848 1330.88 19.68V17.28C1330.88 14.112 1330.59 11.552 1330.02 9.6C1329.44 7.648 1328.51 6.224 1327.23 5.328C1325.98 4.4 1324.35 3.936 1322.34 3.936C1321.66 3.936 1321.02 3.984 1320.42 4.08C1319.81 4.176 1319.23 4.32 1318.69 4.512L1319.41 3.216V33.744L1318.69 32.448Z" fill="#FF35D0"/>
</svg>
