<svg width="664" height="55" viewBox="0 0 664 55" fill="none" xmlns="http://www.w3.org/2000/svg">
<g filter="url(#filter0_dd_2001_2)">
<path d="M8.97656 32.3203H25.6641V36H4.64062V1.875H8.97656V32.3203ZM31.6875 23.0859C31.6875 21.2578 31.9531 19.5625 32.4844 18C33.0156 16.4219 33.7812 15.0547 34.7812 13.8984C35.7656 12.7422 36.9688 11.8359 38.3906 11.1797C39.8125 10.5078 41.4141 10.1719 43.1953 10.1719C44.9922 10.1719 46.6016 10.5078 48.0234 11.1797C49.4609 11.8359 50.6797 12.7422 51.6797 13.8984C52.6641 15.0547 53.4219 16.4219 53.9531 18C54.4844 19.5625 54.75 21.2578 54.75 23.0859V23.6016C54.75 25.4297 54.4844 27.125 53.9531 28.6875C53.4219 30.25 52.6641 31.6094 51.6797 32.7656C50.6797 33.9219 49.4688 34.8281 48.0469 35.4844C46.625 36.1406 45.0234 36.4688 43.2422 36.4688C41.4453 36.4688 39.8281 36.1406 38.3906 35.4844C36.9688 34.8281 35.7656 33.9219 34.7812 32.7656C33.7812 31.6094 33.0156 30.25 32.4844 28.6875C31.9531 27.125 31.6875 25.4297 31.6875 23.6016V23.0859ZM36.0234 23.6016C36.0234 24.8516 36.1719 26.0469 36.4688 27.1875C36.7656 28.3125 37.2188 29.3047 37.8281 30.1641C38.4219 31.0234 39.1719 31.7031 40.0781 32.2031C40.9844 32.7031 42.0391 32.9531 43.2422 32.9531C44.4297 32.9531 45.4688 32.7031 46.3594 32.2031C47.2656 31.7031 48.0234 31.0234 48.6328 30.1641C49.2266 29.3047 49.6719 28.3125 49.9688 27.1875C50.2656 26.0469 50.4141 24.8516 50.4141 23.6016V23.0859C50.4141 21.8516 50.2578 20.6719 49.9453 19.5469C49.6484 18.4062 49.2031 17.4062 48.6094 16.5469C48 15.6875 47.2422 15.0078 46.3359 14.5078C45.4453 13.9922 44.3984 13.7344 43.1953 13.7344C41.9922 13.7344 40.9453 13.9922 40.0547 14.5078C39.1641 15.0078 38.4219 15.6875 37.8281 16.5469C37.2188 17.4062 36.7656 18.4062 36.4688 19.5469C36.1719 20.6719 36.0234 21.8516 36.0234 23.0859V23.6016ZM70.3828 36L59.9531 10.6406H64.4062L71.6719 29.7656L72.0703 31.3359L72.4922 29.7656L79.5938 10.6406H84.0234L73.6875 36H70.3828ZM101.766 36.4688C99.9844 36.4688 98.3438 36.1641 96.8438 35.5547C95.3594 34.9453 94.0859 34.0938 93.0234 33C91.9609 31.9062 91.1328 30.6094 90.5391 29.1094C89.9453 27.6094 89.6484 25.9766 89.6484 24.2109V23.2266C89.6484 21.1797 89.9766 19.3516 90.6328 17.7422C91.2891 16.1172 92.1641 14.7422 93.2578 13.6172C94.3359 12.5078 95.5625 11.6562 96.9375 11.0625C98.3281 10.4688 99.75 10.1719 101.203 10.1719C103.031 10.1719 104.625 10.4922 105.984 11.1328C107.359 11.7578 108.5 12.625 109.406 13.7344C110.312 14.8594 110.984 16.1797 111.422 17.6953C111.875 19.2109 112.102 20.8516 112.102 22.6172V24.5625H93.9844V24.7266C94.0938 25.9609 94.3359 27.0469 94.7109 27.9844C95.1016 28.9219 95.6328 29.75 96.3047 30.4688C96.9922 31.2344 97.8203 31.8359 98.7891 32.2734C99.7578 32.7109 100.828 32.9297 102 32.9297C103.547 32.9297 104.922 32.6172 106.125 31.9922C107.328 31.3672 108.328 30.5391 109.125 29.5078L111.773 31.5703C110.93 32.8516 109.664 33.9922 107.977 34.9922C106.305 35.9766 104.234 36.4688 101.766 36.4688ZM101.203 13.7344C100.328 13.7344 99.5 13.8984 98.7188 14.2266C97.9375 14.5391 97.2344 15 96.6094 15.6094C95.9844 16.2344 95.4531 17 95.0156 17.9062C94.5938 18.7969 94.2969 19.8281 94.125 21H107.766V20.7891C107.766 20.0078 107.617 19.1719 107.32 18.2812C107.023 17.375 106.609 16.5938 106.078 15.9375C105.547 15.2812 104.875 14.75 104.062 14.3438C103.266 13.9375 102.312 13.7344 101.203 13.7344ZM169.711 23.6016C169.711 24.7109 169.625 25.7812 169.453 26.8125C169.297 27.8281 169.062 28.7812 168.75 29.6719C168.328 30.8438 167.773 31.8984 167.086 32.8359C166.414 33.7578 165.602 34.5234 164.648 35.1328C163.961 35.5547 163.203 35.8828 162.375 36.1172C161.562 36.3516 160.68 36.4688 159.727 36.4688C158.633 36.4688 157.633 36.3359 156.727 36.0703C155.836 35.8047 155.031 35.4219 154.312 34.9219C153.969 34.6719 153.641 34.3984 153.328 34.1016C153.016 33.8047 152.719 33.4766 152.438 33.1172L152.227 36H148.242V0H152.578V13.3594C152.938 12.9062 153.336 12.5 153.773 12.1406C154.211 11.7656 154.68 11.4453 155.18 11.1797C155.805 10.8516 156.492 10.6016 157.242 10.4297C157.992 10.2578 158.805 10.1719 159.68 10.1719C160.773 10.1719 161.781 10.3203 162.703 10.6172C163.625 10.9141 164.461 11.3281 165.211 11.8594C165.883 12.3594 166.484 12.9688 167.016 13.6875C167.547 14.3906 168.016 15.1797 168.422 16.0547C168.844 17.0391 169.164 18.1328 169.383 19.3359C169.602 20.5234 169.711 21.7812 169.711 23.1094V23.6016ZM165.375 23.1094C165.375 22.3125 165.32 21.5391 165.211 20.7891C165.117 20.0234 164.969 19.3047 164.766 18.6328C164.484 17.8047 164.117 17.0469 163.664 16.3594C163.211 15.6719 162.656 15.1328 162 14.7422C161.547 14.4609 161.039 14.2422 160.477 14.0859C159.914 13.9297 159.289 13.8516 158.602 13.8516C157.852 13.8516 157.164 13.9531 156.539 14.1562C155.914 14.3438 155.359 14.6094 154.875 14.9531C154.375 15.3125 153.93 15.7344 153.539 16.2188C153.164 16.6875 152.844 17.2031 152.578 17.7656V28.8516C152.859 29.4141 153.188 29.9375 153.562 30.4219C153.953 30.8906 154.398 31.3047 154.898 31.6641C155.398 32.0234 155.961 32.3047 156.586 32.5078C157.211 32.6953 157.898 32.7891 158.648 32.7891C159.367 32.7891 160.023 32.7031 160.617 32.5312C161.211 32.3438 161.742 32.0781 162.211 31.7344C162.836 31.2969 163.359 30.7422 163.781 30.0703C164.203 29.3984 164.539 28.6484 164.789 27.8203C164.992 27.1953 165.141 26.5234 165.234 25.8047C165.328 25.0859 165.375 24.3516 165.375 23.6016V23.1094ZM179.086 46.2422C178.68 46.2422 178.203 46.1953 177.656 46.1016C177.109 46.0078 176.695 45.9297 176.414 45.8672L177.117 42.3281C177.508 42.3594 177.891 42.3828 178.266 42.3984C178.656 42.4297 178.961 42.4453 179.18 42.4453C179.773 42.4453 180.312 42.2812 180.797 41.9531C181.297 41.625 181.742 41.2344 182.133 40.7812C182.508 40.3281 182.828 39.8594 183.094 39.375C183.375 38.8906 183.594 38.4922 183.75 38.1797L185.484 34.8047L174.562 10.6406H179.414L186.375 27L187.5 30.0703L188.695 27.0938L195.234 10.6406H200.086L187.219 39.9141C186.922 40.5703 186.539 41.2656 186.07 42C185.617 42.7344 185.062 43.4141 184.406 44.0391C183.75 44.6641 182.984 45.1875 182.109 45.6094C181.234 46.0312 180.227 46.2422 179.086 46.2422ZM216.141 4.5V10.6406H225.797V13.9922H216.141V27.7734C216.141 28.7578 216.266 29.5703 216.516 30.2109C216.766 30.8516 217.109 31.3594 217.547 31.7344C217.984 32.125 218.484 32.3984 219.047 32.5547C219.625 32.7109 220.234 32.7891 220.875 32.7891C221.344 32.7891 221.828 32.7656 222.328 32.7188C222.828 32.6562 223.32 32.5859 223.805 32.5078C224.273 32.4297 224.711 32.3516 225.117 32.2734C225.539 32.1797 225.883 32.1016 226.148 32.0391L226.758 35.1094C226.398 35.3281 225.961 35.5234 225.445 35.6953C224.93 35.8516 224.367 35.9844 223.758 36.0938C223.148 36.2188 222.5 36.3125 221.812 36.375C221.141 36.4375 220.469 36.4688 219.797 36.4688C218.672 36.4688 217.617 36.3125 216.633 36C215.664 35.6719 214.82 35.1562 214.102 34.4531C213.383 33.7656 212.812 32.875 212.391 31.7812C211.984 30.6719 211.781 29.3359 211.781 27.7734V13.9922H205.125V10.6406H211.781V4.5H216.141ZM245.906 36.4688C244.125 36.4688 242.484 36.1641 240.984 35.5547C239.5 34.9453 238.227 34.0938 237.164 33C236.102 31.9062 235.273 30.6094 234.68 29.1094C234.086 27.6094 233.789 25.9766 233.789 24.2109V23.2266C233.789 21.1797 234.117 19.3516 234.773 17.7422C235.43 16.1172 236.305 14.7422 237.398 13.6172C238.477 12.5078 239.703 11.6562 241.078 11.0625C242.469 10.4688 243.891 10.1719 245.344 10.1719C247.172 10.1719 248.766 10.4922 250.125 11.1328C251.5 11.7578 252.641 12.625 253.547 13.7344C254.453 14.8594 255.125 16.1797 255.562 17.6953C256.016 19.2109 256.242 20.8516 256.242 22.6172V24.5625H238.125V24.7266C238.234 25.9609 238.477 27.0469 238.852 27.9844C239.242 28.9219 239.773 29.75 240.445 30.4688C241.133 31.2344 241.961 31.8359 242.93 32.2734C243.898 32.7109 244.969 32.9297 246.141 32.9297C247.688 32.9297 249.062 32.6172 250.266 31.9922C251.469 31.3672 252.469 30.5391 253.266 29.5078L255.914 31.5703C255.07 32.8516 253.805 33.9922 252.117 34.9922C250.445 35.9766 248.375 36.4688 245.906 36.4688ZM245.344 13.7344C244.469 13.7344 243.641 13.8984 242.859 14.2266C242.078 14.5391 241.375 15 240.75 15.6094C240.125 16.2344 239.594 17 239.156 17.9062C238.734 18.7969 238.438 19.8281 238.266 21H251.906V20.7891C251.906 20.0078 251.758 19.1719 251.461 18.2812C251.164 17.375 250.75 16.5938 250.219 15.9375C249.688 15.2812 249.016 14.75 248.203 14.3438C247.406 13.9375 246.453 13.7344 245.344 13.7344ZM272.25 33.1875C272.25 32.2656 272.531 31.4766 273.094 30.8203C273.656 30.1641 274.508 29.8359 275.648 29.8359C276.773 29.8359 277.625 30.1641 278.203 30.8203C278.797 31.4609 279.094 32.25 279.094 33.1875C279.094 34.1094 278.797 34.8828 278.203 35.5078C277.609 36.1328 276.758 36.4453 275.648 36.4453C274.523 36.4453 273.672 36.1328 273.094 35.5078C272.531 34.8672 272.25 34.0938 272.25 33.1875ZM272.25 12.6562C272.25 11.7344 272.531 10.9453 273.094 10.2891C273.656 9.63281 274.508 9.30469 275.648 9.30469C276.773 9.30469 277.625 9.63281 278.203 10.2891C278.797 10.9297 279.094 11.7188 279.094 12.6562C279.094 13.5781 278.797 14.3516 278.203 14.9766C277.609 15.6016 276.758 15.9141 275.648 15.9141C274.523 15.9141 273.672 15.6016 273.094 14.9766C272.531 14.3359 272.25 13.5625 272.25 12.6562ZM321.867 10.6406H334.828V32.25H343.102V36H321.867V32.25H330.492V14.4141H321.867V10.6406ZM329.93 3.98438C329.93 3.60938 329.984 3.25781 330.094 2.92969C330.219 2.60156 330.406 2.32031 330.656 2.08594C330.859 1.88281 331.117 1.72656 331.43 1.61719C331.758 1.49219 332.125 1.42969 332.531 1.42969C332.938 1.42969 333.297 1.49219 333.609 1.61719C333.922 1.72656 334.18 1.88281 334.383 2.08594C334.633 2.30469 334.82 2.57812 334.945 2.90625C335.07 3.23438 335.133 3.59375 335.133 3.98438C335.133 4.6875 334.914 5.27344 334.477 5.74219C334.039 6.21094 333.391 6.44531 332.531 6.44531C331.656 6.44531 331 6.21094 330.562 5.74219C330.141 5.27344 329.93 4.6875 329.93 3.98438ZM350.016 36V10.6406H353.906L354.211 14.3906C354.586 13.8594 354.992 13.375 355.43 12.9375C355.883 12.4844 356.359 12.0938 356.859 11.7656C357.609 11.2656 358.422 10.8828 359.297 10.6172C360.188 10.3359 361.125 10.1875 362.109 10.1719C363.438 10.1719 364.641 10.3594 365.719 10.7344C366.812 11.1094 367.742 11.6953 368.508 12.4922C369.273 13.2891 369.859 14.3047 370.266 15.5391C370.688 16.7578 370.898 18.2109 370.898 19.8984V36H366.562V19.9922C366.562 18.8672 366.438 17.9141 366.188 17.1328C365.938 16.3516 365.57 15.7188 365.086 15.2344C364.586 14.75 363.977 14.3984 363.258 14.1797C362.555 13.9609 361.742 13.8516 360.82 13.8516C360.023 13.8516 359.281 13.9688 358.594 14.2031C357.906 14.4219 357.273 14.7266 356.695 15.1172C356.227 15.4609 355.789 15.8594 355.383 16.3125C354.992 16.7656 354.648 17.2656 354.352 17.8125V36H350.016ZM395.695 29.2734C395.695 28.7578 395.594 28.2969 395.391 27.8906C395.188 27.4688 394.844 27.0859 394.359 26.7422C393.875 26.3984 393.234 26.0859 392.438 25.8047C391.641 25.5078 390.648 25.2422 389.461 25.0078C388.008 24.7109 386.68 24.3516 385.477 23.9297C384.289 23.5078 383.273 23 382.43 22.4062C381.57 21.8281 380.906 21.1484 380.438 20.3672C379.969 19.5703 379.734 18.6484 379.734 17.6016C379.734 16.5703 379.977 15.6094 380.461 14.7188C380.945 13.8125 381.625 13.0234 382.5 12.3516C383.375 11.6797 384.414 11.1484 385.617 10.7578C386.836 10.3672 388.172 10.1719 389.625 10.1719C391.188 10.1719 392.594 10.375 393.844 10.7812C395.094 11.1875 396.156 11.75 397.031 12.4688C397.906 13.1875 398.578 14.0312 399.047 15C399.531 15.9531 399.773 16.9844 399.773 18.0938H395.438C395.438 17.5469 395.297 17.0156 395.016 16.5C394.734 15.9688 394.344 15.5 393.844 15.0938C393.344 14.6875 392.734 14.3594 392.016 14.1094C391.312 13.8594 390.516 13.7344 389.625 13.7344C388.703 13.7344 387.891 13.8359 387.188 14.0391C386.5 14.2422 385.93 14.5156 385.477 14.8594C385.008 15.2031 384.656 15.6016 384.422 16.0547C384.188 16.5078 384.07 16.9766 384.07 17.4609C384.07 17.9609 384.164 18.4062 384.352 18.7969C384.539 19.1875 384.867 19.5391 385.336 19.8516C385.789 20.1641 386.398 20.4453 387.164 20.6953C387.945 20.9453 388.93 21.1875 390.117 21.4219C391.68 21.75 393.078 22.1328 394.312 22.5703C395.547 22.9922 396.586 23.5 397.43 24.0938C398.273 24.7031 398.914 25.4062 399.352 26.2031C399.805 27 400.031 27.9219 400.031 28.9688C400.031 30.0938 399.773 31.1172 399.258 32.0391C398.758 32.9609 398.055 33.75 397.148 34.4062C396.242 35.0625 395.156 35.5703 393.891 35.9297C392.625 36.2891 391.242 36.4688 389.742 36.4688C388.023 36.4688 386.492 36.2422 385.148 35.7891C383.805 35.3203 382.672 34.7031 381.75 33.9375C380.812 33.1875 380.094 32.3125 379.594 31.3125C379.109 30.3125 378.867 29.2734 378.867 28.1953H383.203C383.266 29.0859 383.5 29.8359 383.906 30.4453C384.328 31.0547 384.852 31.5469 385.477 31.9219C386.086 32.2969 386.766 32.5625 387.516 32.7188C388.266 32.875 389.008 32.9531 389.742 32.9531C390.898 32.9531 391.906 32.8203 392.766 32.5547C393.625 32.2734 394.297 31.8906 394.781 31.4062C395.078 31.1094 395.305 30.7812 395.461 30.4219C395.617 30.0625 395.695 29.6797 395.695 29.2734ZM417.938 4.5V10.6406H427.594V13.9922H417.938V27.7734C417.938 28.7578 418.062 29.5703 418.312 30.2109C418.562 30.8516 418.906 31.3594 419.344 31.7344C419.781 32.125 420.281 32.3984 420.844 32.5547C421.422 32.7109 422.031 32.7891 422.672 32.7891C423.141 32.7891 423.625 32.7656 424.125 32.7188C424.625 32.6562 425.117 32.5859 425.602 32.5078C426.07 32.4297 426.508 32.3516 426.914 32.2734C427.336 32.1797 427.68 32.1016 427.945 32.0391L428.555 35.1094C428.195 35.3281 427.758 35.5234 427.242 35.6953C426.727 35.8516 426.164 35.9844 425.555 36.0938C424.945 36.2188 424.297 36.3125 423.609 36.375C422.938 36.4375 422.266 36.4688 421.594 36.4688C420.469 36.4688 419.414 36.3125 418.43 36C417.461 35.6719 416.617 35.1562 415.898 34.4531C415.18 33.7656 414.609 32.875 414.188 31.7812C413.781 30.6719 413.578 29.3359 413.578 27.7734V13.9922H406.922V10.6406H413.578V4.5H417.938ZM453.117 10.1719C453.914 10.1719 454.742 10.2266 455.602 10.3359C456.477 10.4453 457.133 10.5938 457.57 10.7812L456.984 15.0234C456.141 14.8359 455.336 14.7031 454.57 14.625C453.82 14.5312 453.031 14.4844 452.203 14.4844C451.141 14.4844 450.18 14.6172 449.32 14.8828C448.461 15.1328 447.711 15.5078 447.07 16.0078C446.492 16.4453 445.984 16.9844 445.547 17.625C445.125 18.25 444.773 18.9531 444.492 19.7344V36H440.133V10.6406H444.258L444.445 14.0391L444.469 14.6719C445.5 13.2812 446.734 12.1875 448.172 11.3906C449.625 10.5781 451.273 10.1719 453.117 10.1719ZM482.039 36L481.781 32.5078C480.938 33.7578 479.883 34.7344 478.617 35.4375C477.352 36.125 475.891 36.4688 474.234 36.4688C472.906 36.4688 471.703 36.2656 470.625 35.8594C469.547 35.4375 468.625 34.7891 467.859 33.9141C467.094 33.0391 466.5 31.9297 466.078 30.5859C465.672 29.2266 465.469 27.6016 465.469 25.7109V10.6406H469.805V25.7578C469.805 27.1328 469.914 28.2734 470.133 29.1797C470.352 30.0859 470.68 30.8047 471.117 31.3359C471.555 31.8828 472.086 32.2656 472.711 32.4844C473.352 32.7031 474.086 32.8125 474.914 32.8125C475.883 32.8125 476.75 32.7031 477.516 32.4844C478.281 32.25 478.945 31.9297 479.508 31.5234C479.977 31.1953 480.383 30.8047 480.727 30.3516C481.086 29.8828 481.383 29.375 481.617 28.8281V10.6406H485.977V36H482.039ZM504.961 32.9531C505.742 32.9531 506.5 32.8281 507.234 32.5781C507.984 32.3281 508.648 31.9766 509.227 31.5234C509.805 31.0859 510.266 30.5703 510.609 29.9766C510.969 29.3672 511.156 28.7109 511.172 28.0078H515.273C515.258 29.1328 514.961 30.2109 514.383 31.2422C513.82 32.2578 513.062 33.1484 512.109 33.9141C511.156 34.6953 510.062 35.3203 508.828 35.7891C507.594 36.2422 506.305 36.4688 504.961 36.4688C503.039 36.4688 501.359 36.125 499.922 35.4375C498.484 34.75 497.289 33.8203 496.336 32.6484C495.367 31.4922 494.641 30.1562 494.156 28.6406C493.672 27.1094 493.43 25.5 493.43 23.8125V22.8281C493.43 21.1562 493.672 19.5547 494.156 18.0234C494.641 16.4922 495.367 15.1406 496.336 13.9688C497.289 12.8125 498.484 11.8906 499.922 11.2031C501.359 10.5156 503.039 10.1719 504.961 10.1719C506.461 10.1719 507.836 10.4141 509.086 10.8984C510.352 11.3672 511.445 12.0078 512.367 12.8203C513.273 13.6484 513.984 14.625 514.5 15.75C515.016 16.875 515.273 18.0781 515.273 19.3594H511.172C511.156 18.5938 510.984 17.875 510.656 17.2031C510.344 16.5156 509.914 15.9141 509.367 15.3984C508.82 14.8828 508.164 14.4766 507.398 14.1797C506.648 13.8828 505.836 13.7344 504.961 13.7344C503.617 13.7344 502.484 14.0078 501.562 14.5547C500.656 15.0859 499.922 15.7812 499.359 16.6406C498.797 17.5156 498.391 18.4922 498.141 19.5703C497.906 20.6484 497.789 21.7344 497.789 22.8281V23.8125C497.789 24.9219 497.906 26.0234 498.141 27.1172C498.391 28.1953 498.797 29.1641 499.359 30.0234C499.906 30.8984 500.633 31.6094 501.539 32.1562C502.461 32.6875 503.602 32.9531 504.961 32.9531ZM533.25 4.5V10.6406H542.906V13.9922H533.25V27.7734C533.25 28.7578 533.375 29.5703 533.625 30.2109C533.875 30.8516 534.219 31.3594 534.656 31.7344C535.094 32.125 535.594 32.3984 536.156 32.5547C536.734 32.7109 537.344 32.7891 537.984 32.7891C538.453 32.7891 538.938 32.7656 539.438 32.7188C539.938 32.6562 540.43 32.5859 540.914 32.5078C541.383 32.4297 541.82 32.3516 542.227 32.2734C542.648 32.1797 542.992 32.1016 543.258 32.0391L543.867 35.1094C543.508 35.3281 543.07 35.5234 542.555 35.6953C542.039 35.8516 541.477 35.9844 540.867 36.0938C540.258 36.2188 539.609 36.3125 538.922 36.375C538.25 36.4375 537.578 36.4688 536.906 36.4688C535.781 36.4688 534.727 36.3125 533.742 36C532.773 35.6719 531.93 35.1562 531.211 34.4531C530.492 33.7656 529.922 32.875 529.5 31.7812C529.094 30.6719 528.891 29.3359 528.891 27.7734V13.9922H522.234V10.6406H528.891V4.5H533.25ZM552.492 10.6406H565.453V32.25H573.727V36H552.492V32.25H561.117V14.4141H552.492V10.6406ZM560.555 3.98438C560.555 3.60938 560.609 3.25781 560.719 2.92969C560.844 2.60156 561.031 2.32031 561.281 2.08594C561.484 1.88281 561.742 1.72656 562.055 1.61719C562.383 1.49219 562.75 1.42969 563.156 1.42969C563.562 1.42969 563.922 1.49219 564.234 1.61719C564.547 1.72656 564.805 1.88281 565.008 2.08594C565.258 2.30469 565.445 2.57812 565.57 2.90625C565.695 3.23438 565.758 3.59375 565.758 3.98438C565.758 4.6875 565.539 5.27344 565.102 5.74219C564.664 6.21094 564.016 6.44531 563.156 6.44531C562.281 6.44531 561.625 6.21094 561.188 5.74219C560.766 5.27344 560.555 4.6875 560.555 3.98438ZM579.422 23.0859C579.422 21.2578 579.688 19.5625 580.219 18C580.75 16.4219 581.516 15.0547 582.516 13.8984C583.5 12.7422 584.703 11.8359 586.125 11.1797C587.547 10.5078 589.148 10.1719 590.93 10.1719C592.727 10.1719 594.336 10.5078 595.758 11.1797C597.195 11.8359 598.414 12.7422 599.414 13.8984C600.398 15.0547 601.156 16.4219 601.688 18C602.219 19.5625 602.484 21.2578 602.484 23.0859V23.6016C602.484 25.4297 602.219 27.125 601.688 28.6875C601.156 30.25 600.398 31.6094 599.414 32.7656C598.414 33.9219 597.203 34.8281 595.781 35.4844C594.359 36.1406 592.758 36.4688 590.977 36.4688C589.18 36.4688 587.562 36.1406 586.125 35.4844C584.703 34.8281 583.5 33.9219 582.516 32.7656C581.516 31.6094 580.75 30.25 580.219 28.6875C579.688 27.125 579.422 25.4297 579.422 23.6016V23.0859ZM583.758 23.6016C583.758 24.8516 583.906 26.0469 584.203 27.1875C584.5 28.3125 584.953 29.3047 585.562 30.1641C586.156 31.0234 586.906 31.7031 587.812 32.2031C588.719 32.7031 589.773 32.9531 590.977 32.9531C592.164 32.9531 593.203 32.7031 594.094 32.2031C595 31.7031 595.758 31.0234 596.367 30.1641C596.961 29.3047 597.406 28.3125 597.703 27.1875C598 26.0469 598.148 24.8516 598.148 23.6016V23.0859C598.148 21.8516 597.992 20.6719 597.68 19.5469C597.383 18.4062 596.938 17.4062 596.344 16.5469C595.734 15.6875 594.977 15.0078 594.07 14.5078C593.18 13.9922 592.133 13.7344 590.93 13.7344C589.727 13.7344 588.68 13.9922 587.789 14.5078C586.898 15.0078 586.156 15.6875 585.562 16.5469C584.953 17.4062 584.5 18.4062 584.203 19.5469C583.906 20.6719 583.758 21.8516 583.758 23.0859V23.6016ZM609.469 36V10.6406H613.359L613.664 14.3906C614.039 13.8594 614.445 13.375 614.883 12.9375C615.336 12.4844 615.812 12.0938 616.312 11.7656C617.062 11.2656 617.875 10.8828 618.75 10.6172C619.641 10.3359 620.578 10.1875 621.562 10.1719C622.891 10.1719 624.094 10.3594 625.172 10.7344C626.266 11.1094 627.195 11.6953 627.961 12.4922C628.727 13.2891 629.312 14.3047 629.719 15.5391C630.141 16.7578 630.352 18.2109 630.352 19.8984V36H626.016V19.9922C626.016 18.8672 625.891 17.9141 625.641 17.1328C625.391 16.3516 625.023 15.7188 624.539 15.2344C624.039 14.75 623.43 14.3984 622.711 14.1797C622.008 13.9609 621.195 13.8516 620.273 13.8516C619.477 13.8516 618.734 13.9688 618.047 14.2031C617.359 14.4219 616.727 14.7266 616.148 15.1172C615.68 15.4609 615.242 15.8594 614.836 16.3125C614.445 16.7656 614.102 17.2656 613.805 17.8125V36H609.469ZM655.148 29.2734C655.148 28.7578 655.047 28.2969 654.844 27.8906C654.641 27.4688 654.297 27.0859 653.812 26.7422C653.328 26.3984 652.688 26.0859 651.891 25.8047C651.094 25.5078 650.102 25.2422 648.914 25.0078C647.461 24.7109 646.133 24.3516 644.93 23.9297C643.742 23.5078 642.727 23 641.883 22.4062C641.023 21.8281 640.359 21.1484 639.891 20.3672C639.422 19.5703 639.188 18.6484 639.188 17.6016C639.188 16.5703 639.43 15.6094 639.914 14.7188C640.398 13.8125 641.078 13.0234 641.953 12.3516C642.828 11.6797 643.867 11.1484 645.07 10.7578C646.289 10.3672 647.625 10.1719 649.078 10.1719C650.641 10.1719 652.047 10.375 653.297 10.7812C654.547 11.1875 655.609 11.75 656.484 12.4688C657.359 13.1875 658.031 14.0312 658.5 15C658.984 15.9531 659.227 16.9844 659.227 18.0938H654.891C654.891 17.5469 654.75 17.0156 654.469 16.5C654.188 15.9688 653.797 15.5 653.297 15.0938C652.797 14.6875 652.188 14.3594 651.469 14.1094C650.766 13.8594 649.969 13.7344 649.078 13.7344C648.156 13.7344 647.344 13.8359 646.641 14.0391C645.953 14.2422 645.383 14.5156 644.93 14.8594C644.461 15.2031 644.109 15.6016 643.875 16.0547C643.641 16.5078 643.523 16.9766 643.523 17.4609C643.523 17.9609 643.617 18.4062 643.805 18.7969C643.992 19.1875 644.32 19.5391 644.789 19.8516C645.242 20.1641 645.852 20.4453 646.617 20.6953C647.398 20.9453 648.383 21.1875 649.57 21.4219C651.133 21.75 652.531 22.1328 653.766 22.5703C655 22.9922 656.039 23.5 656.883 24.0938C657.727 24.7031 658.367 25.4062 658.805 26.2031C659.258 27 659.484 27.9219 659.484 28.9688C659.484 30.0938 659.227 31.1172 658.711 32.0391C658.211 32.9609 657.508 33.75 656.602 34.4062C655.695 35.0625 654.609 35.5703 653.344 35.9297C652.078 36.2891 650.695 36.4688 649.195 36.4688C647.477 36.4688 645.945 36.2422 644.602 35.7891C643.258 35.3203 642.125 34.7031 641.203 33.9375C640.266 33.1875 639.547 32.3125 639.047 31.3125C638.562 30.3125 638.32 29.2734 638.32 28.1953H642.656C642.719 29.0859 642.953 29.8359 643.359 30.4453C643.781 31.0547 644.305 31.5469 644.93 31.9219C645.539 32.2969 646.219 32.5625 646.969 32.7188C647.719 32.875 648.461 32.9531 649.195 32.9531C650.352 32.9531 651.359 32.8203 652.219 32.5547C653.078 32.2734 653.75 31.8906 654.234 31.4062C654.531 31.1094 654.758 30.7812 654.914 30.4219C655.07 30.0625 655.148 29.6797 655.148 29.2734Z" fill="white"/>
</g>
<defs>
<filter id="filter0_dd_2001_2" x="0.640625" y="0" width="662.844" height="54.2422" filterUnits="userSpaceOnUse" color-interpolation-filters="sRGB">
<feFlood flood-opacity="0" result="BackgroundImageFix"/>
<feColorMatrix in="SourceAlpha" type="matrix" values="0 0 0 0 0 0 0 0 0 0 0 0 0 0 0 0 0 0 127 0" result="hardAlpha"/>
<feOffset dy="4"/>
<feGaussianBlur stdDeviation="2"/>
<feComposite in2="hardAlpha" operator="out"/>
<feColorMatrix type="matrix" values="0 0 0 0 0 0 0 0 0 0 0 0 0 0 0 0 0 0 0.25 0"/>
<feBlend mode="normal" in2="BackgroundImageFix" result="effect1_dropShadow_2001_2"/>
<feColorMatrix in="SourceAlpha" type="matrix" values="0 0 0 0 0 0 0 0 0 0 0 0 0 0 0 0 0 0 127 0" result="hardAlpha"/>
<feOffset dy="4"/>
<feGaussianBlur stdDeviation="2"/>
<feComposite in2="hardAlpha" operator="out"/>
<feColorMatrix type="matrix" values="0 0 0 0 0 0 0 0 0 0 0 0 0 0 0 0 0 0 0.25 0"/>
<feBlend mode="normal" in2="effect1_dropShadow_2001_2" result="effect2_dropShadow_2001_2"/>
<feBlend mode="normal" in="SourceGraphic" in2="effect2_dropShadow_2001_2" result="shape"/>
</filter>
</defs>
</svg>
