<svg width="376" height="37" viewBox="0 0 376 37" fill="none" xmlns="http://www.w3.org/2000/svg">
<path d="M13.04 36.48C8.88 36.48 5.728 35.088 3.584 32.304C1.472 29.52 0.416004 25.392 0.416004 19.92V17.04C0.416004 11.568 1.44 7.44 3.488 4.656C5.536 1.872 8.56 0.48 12.56 0.48C13.68 0.48 14.768 0.591999 15.824 0.815998C16.88 1.008 17.824 1.312 18.656 1.728V13.44H14.816V2.304L16.736 5.28C15.52 4.384 14.096 3.936 12.464 3.936C9.808 3.936 7.792 5.056 6.416 7.296C5.04 9.536 4.352 12.864 4.352 17.28V19.68C4.352 24.256 5.088 27.632 6.56 29.808C8.064 31.952 10.352 33.024 13.424 33.024C14.288 33.024 15.184 32.944 16.112 32.784C17.04 32.624 17.888 32.416 18.656 32.16V35.76C17.856 35.984 16.944 36.16 15.92 36.288C14.928 36.416 13.968 36.48 13.04 36.48ZM37.52 36.48C35.056 36.48 33.088 35.952 31.616 34.896C30.144 33.808 29.072 32.048 28.4 29.616C27.76 27.184 27.44 23.952 27.44 19.92V17.04C27.44 12.976 27.76 9.744 28.4 7.344C29.072 4.912 30.144 3.168 31.616 2.112C33.088 1.024 35.056 0.48 37.52 0.48C39.984 0.48 41.952 1.024 43.424 2.112C44.896 3.168 45.952 4.912 46.592 7.344C47.264 9.744 47.6 12.976 47.6 17.04V19.92C47.6 23.952 47.264 27.184 46.592 29.616C45.952 32.048 44.896 33.808 43.424 34.896C41.952 35.952 39.984 36.48 37.52 36.48ZM37.52 33.024C39.12 33.024 40.352 32.64 41.216 31.872C42.112 31.072 42.736 29.712 43.088 27.792C43.472 25.84 43.664 23.136 43.664 19.68V17.28C43.664 13.824 43.472 11.136 43.088 9.216C42.736 7.264 42.112 5.904 41.216 5.136C40.352 4.336 39.12 3.936 37.52 3.936C35.952 3.936 34.72 4.336 33.824 5.136C32.928 5.904 32.288 7.264 31.904 9.216C31.552 11.136 31.376 13.824 31.376 17.28V19.68C31.376 23.136 31.552 25.84 31.904 27.792C32.288 29.712 32.928 31.072 33.824 31.872C34.72 32.64 35.952 33.024 37.52 33.024ZM55.52 36V0.959999H61.76L70.208 31.2H70.4V0.959999H74.24V36H68L59.552 5.76H59.36V36H55.52ZM82.88 36V0.959999H89.12L97.568 31.2H97.76V0.959999H101.6V36H95.36L86.912 5.76H86.72V36H82.88ZM111.488 36V0.959999H128.288V4.32H115.376V15.792H127.808V19.152H115.376V32.64H128.288V36H111.488ZM149.84 36.48C145.68 36.48 142.528 35.088 140.384 32.304C138.272 29.52 137.216 25.392 137.216 19.92V17.04C137.216 11.568 138.24 7.44 140.288 4.656C142.336 1.872 145.36 0.48 149.36 0.48C150.48 0.48 151.568 0.591999 152.624 0.815998C153.68 1.008 154.624 1.312 155.456 1.728V13.44H151.616V2.304L153.536 5.28C152.32 4.384 150.896 3.936 149.264 3.936C146.608 3.936 144.592 5.056 143.216 7.296C141.84 9.536 141.152 12.864 141.152 17.28V19.68C141.152 24.256 141.888 27.632 143.36 29.808C144.864 31.952 147.152 33.024 150.224 33.024C151.088 33.024 151.984 32.944 152.912 32.784C153.84 32.624 154.688 32.416 155.456 32.16V35.76C154.656 35.984 153.744 36.16 152.72 36.288C151.728 36.416 150.768 36.48 149.84 36.48ZM172.352 36V4.416H164.24V0.959999H184.4V4.416H176.288V36H172.352ZM220.64 36L217.52 0.959999H221.456L223.376 31.056H223.568L226.064 5.76H232.016L234.512 31.056H234.704L236.624 0.959999H240.56L237.44 36H231.872L229.136 10.176H228.944L226.208 36H220.64ZM245.36 36L254.048 0.959999H258.752L267.44 36H263.504L256.496 5.472H256.304L249.296 36H245.36ZM249.776 26.4V23.04H263.024V26.4H249.776ZM275.6 36V0.959999H279.536V32.544H293.36V36H275.6ZM302.96 36V0.959999H306.896V32.544H320.72V36H302.96ZM330.368 36V0.959999H347.168V4.32H334.256V15.792H346.688V19.152H334.256V32.64H347.168V36H330.368ZM363.872 36V4.416H355.76V0.959999H375.92V4.416H367.808V36H363.872Z" fill="#FF35D0"/>
</svg>
