<svg width="1118" height="192" viewBox="0 0 1118 192" fill="none" xmlns="http://www.w3.org/2000/svg">
<path d="M28.512 96.152C23.776 96.152 19.456 95.384 15.552 93.848C11.712 92.248 8.608 89.88 6.24 86.744C3.936 83.544 2.688 79.512 2.496 74.648H18.432C18.688 76.888 19.584 78.904 21.12 80.696C22.72 82.488 25.12 83.384 28.32 83.384C31.072 83.384 33.12 82.776 34.464 81.56C35.872 80.344 36.576 78.744 36.576 76.76C36.576 75.864 36.416 75.032 36.096 74.264C35.84 73.496 35.296 72.76 34.464 72.056C33.632 71.288 32.352 70.52 30.624 69.752C28.96 68.984 26.72 68.152 23.904 67.256C18.656 65.592 14.56 63.64 11.616 61.4C8.672 59.16 6.592 56.76 5.376 54.2C4.224 51.64 3.648 49.016 3.648 46.328C3.712 41.976 4.8 38.36 6.912 35.48C9.024 32.536 11.84 30.328 15.36 28.856C18.88 27.384 22.816 26.648 27.168 26.648C31.52 26.648 35.488 27.416 39.072 28.952C42.72 30.424 45.664 32.632 47.904 35.576C50.144 38.52 51.296 42.168 51.36 46.52H35.04C34.976 44.792 34.24 43.16 32.832 41.624C31.424 40.088 29.344 39.32 26.592 39.32C24.608 39.384 22.912 39.96 21.504 41.048C20.16 42.072 19.488 43.544 19.488 45.464C19.488 47.128 20.192 48.568 21.6 49.784C23.008 51 24.992 52.12 27.552 53.144C30.176 54.168 33.216 55.256 36.672 56.408C39.296 57.304 41.6 58.36 43.584 59.576C45.632 60.728 47.328 62.104 48.672 63.704C50.016 65.24 51.04 67 51.744 68.984C52.448 70.968 52.8 73.208 52.8 75.704C52.8 79.8 51.744 83.384 49.632 86.456C47.584 89.528 44.736 91.928 41.088 93.656C37.44 95.32 33.248 96.152 28.512 96.152ZM59.8245 95V27.8H103.985V40.856H74.9925V53.048H99.4725V66.104H74.9925V81.944H103.985V95H59.8245ZM141.929 96.152C134.953 96.152 129.001 94.68 124.073 91.736C119.145 88.728 115.369 84.632 112.745 79.448C110.185 74.264 108.905 68.312 108.905 61.592C108.905 54.872 110.153 48.888 112.648 43.64C115.209 38.328 118.953 34.168 123.881 31.16C128.809 28.152 134.825 26.648 141.929 26.648C150.249 26.648 157.097 28.76 162.473 32.984C167.849 37.144 171.145 43.064 172.361 50.744H155.753C155.113 47.48 153.545 44.952 151.049 43.16C148.617 41.368 145.481 40.472 141.641 40.472C138.313 40.472 135.337 41.272 132.713 42.872C130.089 44.408 128.041 46.744 126.569 49.88C125.097 52.952 124.361 56.856 124.361 61.592C124.361 66.2 125.065 70.072 126.473 73.208C127.945 76.28 129.993 78.616 132.617 80.216C135.241 81.752 138.249 82.52 141.641 82.52C145.481 82.52 148.617 81.72 151.049 80.12C153.545 78.456 155.113 76.12 155.753 73.112H172.361C171.145 80.28 167.849 85.912 162.473 90.008C157.097 94.104 150.249 96.152 141.929 96.152ZM179.45 95V27.8H205.082C209.69 27.8 213.754 28.6 217.274 30.2C220.794 31.8 223.546 34.104 225.53 37.112C227.514 40.056 228.506 43.576 228.506 47.672C228.506 52.152 227.29 55.896 224.858 58.904C222.426 61.912 219.066 64.056 214.778 65.336L233.114 95H215.642L199.609 67.64H194.618V95H179.45ZM194.618 54.776H204.794C207.162 54.776 208.922 54.424 210.074 53.72C211.29 52.952 212.122 52.024 212.57 50.936C213.018 49.848 213.242 48.76 213.242 47.672C213.242 46.584 213.018 45.528 212.57 44.504C212.122 43.416 211.29 42.52 210.074 41.816C208.922 41.112 207.162 40.76 204.794 40.76H194.618V54.776ZM238.043 95V27.8H282.203V40.856H253.211V53.048H277.691V66.104H253.211V81.944H282.203V95H238.043ZM305.629 95V40.856H286.333V27.8H340.093V40.856H320.701V95H305.629ZM365.825 95V27.8H380.993V81.848H408.449V95H365.825ZM444.226 96.152C439.618 96.152 435.202 95.352 430.978 93.752C426.818 92.152 423.074 89.848 419.746 86.84C416.482 83.832 413.89 80.184 411.97 75.896C410.114 71.608 409.186 66.776 409.186 61.4C409.186 56.024 410.114 51.192 411.97 46.904C413.89 42.616 416.482 38.968 419.746 35.96C423.074 32.952 426.818 30.648 430.978 29.048C435.202 27.448 439.618 26.648 444.226 26.648C448.834 26.648 453.25 27.448 457.474 29.048C461.698 30.648 465.442 32.952 468.706 35.96C472.034 38.968 474.658 42.616 476.578 46.904C478.498 51.192 479.458 56.024 479.458 61.4C479.458 66.776 478.498 71.608 476.578 75.896C474.658 80.184 472.034 83.832 468.706 86.84C465.442 89.848 461.698 92.152 457.474 93.752C453.25 95.352 448.834 96.152 444.226 96.152ZM444.226 82.424C447.362 82.424 450.434 81.656 453.442 80.12C456.45 78.584 458.914 76.28 460.834 73.208C462.818 70.072 463.81 66.136 463.81 61.4C463.81 56.6 462.818 52.664 460.834 49.592C458.85 46.456 456.354 44.152 453.346 42.68C450.338 41.144 447.298 40.376 444.226 40.376C441.154 40.376 438.114 41.144 435.106 42.68C432.162 44.152 429.698 46.456 427.714 49.592C425.794 52.664 424.834 56.6 424.834 61.4C424.834 66.136 425.794 70.072 427.714 73.208C429.634 76.28 432.066 78.584 435.01 80.12C438.018 81.656 441.09 82.424 444.226 82.424ZM501.739 95L477.643 27.8H493.675L511.243 79.736L528.811 27.8H544.747L520.555 95H501.739ZM548.543 95V27.8H592.703V40.856H563.711V53.048H588.191V66.104H563.711V81.944H592.703V95H548.543ZM620.637 95V27.8H635.805V81.848H663.261V95H620.637ZM670.793 95V27.8H714.953V40.856H685.961V53.048H710.441V66.104H685.961V81.944H714.953V95H670.793ZM738.379 95V40.856H719.083V27.8H772.843V40.856H753.451V95H738.379ZM795.004 95V40.856H775.708V27.8H829.468V40.856H810.076V95H795.004ZM835.043 95V27.8H879.203V40.856H850.211V53.048H874.691V66.104H850.211V81.944H879.203V95H835.043ZM886.981 95V27.8H912.613C917.221 27.8 921.285 28.6 924.805 30.2C928.325 31.8 931.077 34.104 933.061 37.112C935.045 40.056 936.037 43.576 936.037 47.672C936.037 52.152 934.821 55.896 932.389 58.904C929.957 61.912 926.597 64.056 922.309 65.336L940.645 95H923.173L907.141 67.64H902.149V95H886.981ZM902.149 54.776H912.325C914.693 54.776 916.453 54.424 917.605 53.72C918.821 52.952 919.653 52.024 920.101 50.936C920.549 49.848 920.773 48.76 920.773 47.672C920.773 46.584 920.549 45.528 920.101 44.504C919.653 43.416 918.821 42.52 917.605 41.816C916.453 41.112 914.693 40.76 912.325 40.76H902.149V54.776Z" fill="white"/>
<path d="M169.512 162V94.8H193.992C202.056 94.8 208.616 96.272 213.672 99.216C218.792 102.096 222.536 106.064 224.904 111.12C227.272 116.112 228.456 121.84 228.456 128.304C228.456 135.664 227.048 141.872 224.232 146.928C221.48 151.92 217.512 155.696 212.328 158.256C207.208 160.752 201.096 162 193.992 162H169.512ZM184.68 148.848H193.224C198.472 148.848 202.504 147.984 205.32 146.256C208.2 144.528 210.184 142.128 211.272 139.056C212.424 135.984 213 132.4 213 128.304C213 121.072 211.336 115.856 208.008 112.656C204.744 109.392 199.816 107.76 193.224 107.76H184.68V148.848ZM266.71 163.152C259.734 163.152 253.782 161.68 248.854 158.736C243.926 155.728 240.15 151.632 237.526 146.448C234.966 141.264 233.686 135.312 233.686 128.592C233.686 121.872 234.934 115.888 237.43 110.64C239.99 105.328 243.734 101.168 248.662 98.16C253.59 95.152 259.606 93.648 266.71 93.648C275.03 93.648 281.878 95.76 287.254 99.984C292.63 104.144 295.926 110.064 297.142 117.744H280.534C279.894 114.48 278.326 111.952 275.83 110.16C273.398 108.368 270.262 107.472 266.422 107.472C263.094 107.472 260.118 108.272 257.494 109.872C254.87 111.408 252.822 113.744 251.35 116.88C249.878 119.952 249.142 123.856 249.142 128.592C249.142 133.2 249.846 137.072 251.254 140.208C252.726 143.28 254.774 145.616 257.398 147.216C260.022 148.752 263.03 149.52 266.422 149.52C270.262 149.52 273.398 148.72 275.83 147.12C278.326 145.456 279.894 143.12 280.534 140.112H297.142C295.926 147.28 292.63 152.912 287.254 157.008C281.878 161.104 275.03 163.152 266.71 163.152ZM304.231 162V94.8H329.863C334.471 94.8 338.535 95.6 342.055 97.2C345.575 98.8 348.327 101.104 350.311 104.112C352.295 107.056 353.287 110.576 353.287 114.672C353.287 119.152 352.071 122.896 349.639 125.904C347.207 128.912 343.847 131.056 339.559 132.336L357.895 162H340.423L324.391 134.64H319.399V162H304.231ZM319.399 121.776H329.575C331.943 121.776 333.703 121.424 334.855 120.72C336.071 119.952 336.903 119.024 337.351 117.936C337.799 116.848 338.023 115.76 338.023 114.672C338.023 113.584 337.799 112.528 337.351 111.504C336.903 110.416 336.071 109.52 334.855 108.816C333.703 108.112 331.943 107.76 329.575 107.76H319.399V121.776ZM376.837 162V134.064L353.797 94.8H370.981L384.517 118.704L397.957 94.8H414.853L391.909 134.064V162H376.837ZM418.7 162V94.8H445.388C449.996 94.8 454.156 95.632 457.868 97.296C461.58 98.96 464.492 101.36 466.604 104.496C468.78 107.632 469.868 111.376 469.868 115.728C469.868 120.016 468.812 123.76 466.7 126.96C464.652 130.096 461.772 132.528 458.06 134.256C454.412 135.984 450.188 136.848 445.388 136.848H433.868V162H418.7ZM433.868 123.888H445.004C448.588 123.888 451.052 123.088 452.396 121.488C453.804 119.824 454.508 117.904 454.508 115.728C454.508 113.68 453.804 111.856 452.396 110.256C451.052 108.592 448.588 107.76 445.004 107.76H433.868V123.888ZM491.16 162V107.856H471.864V94.8H525.624V107.856H506.232V162H491.16ZM531.2 162V94.8H575.36V107.856H546.368V120.048H570.848V133.104H546.368V148.944H575.36V162H531.2ZM583.137 162V94.8H607.617C615.681 94.8 622.241 96.272 627.297 99.216C632.417 102.096 636.161 106.064 638.529 111.12C640.897 116.112 642.081 121.84 642.081 128.304C642.081 135.664 640.673 141.872 637.857 146.928C635.105 151.92 631.137 155.696 625.953 158.256C620.833 160.752 614.721 162 607.617 162H583.137ZM598.305 148.848H606.849C612.097 148.848 616.129 147.984 618.945 146.256C621.825 144.528 623.809 142.128 624.897 139.056C626.049 135.984 626.625 132.4 626.625 128.304C626.625 121.072 624.961 115.856 621.633 112.656C618.369 109.392 613.441 107.76 606.849 107.76H598.305V148.848ZM702.507 163.152C697.899 163.152 693.483 162.352 689.259 160.752C685.099 159.152 681.355 156.848 678.027 153.84C674.763 150.832 672.171 147.184 670.251 142.896C668.395 138.608 667.467 133.776 667.467 128.4C667.467 123.024 668.395 118.192 670.251 113.904C672.171 109.616 674.763 105.968 678.027 102.96C681.355 99.952 685.099 97.648 689.259 96.048C693.483 94.448 697.899 93.648 702.507 93.648C707.115 93.648 711.531 94.448 715.755 96.048C719.979 97.648 723.723 99.952 726.987 102.96C730.315 105.968 732.939 109.616 734.859 113.904C736.779 118.192 737.739 123.024 737.739 128.4C737.739 133.776 736.779 138.608 734.859 142.896C732.939 147.184 730.315 150.832 726.987 153.84C723.723 156.848 719.979 159.152 715.755 160.752C711.531 162.352 707.115 163.152 702.507 163.152ZM702.507 149.424C705.643 149.424 708.715 148.656 711.723 147.12C714.731 145.584 717.195 143.28 719.115 140.208C721.099 137.072 722.091 133.136 722.091 128.4C722.091 123.6 721.099 119.664 719.115 116.592C717.131 113.456 714.635 111.152 711.627 109.68C708.619 108.144 705.579 107.376 702.507 107.376C699.435 107.376 696.395 108.144 693.387 109.68C690.443 111.152 687.979 113.456 685.995 116.592C684.075 119.664 683.115 123.6 683.115 128.4C683.115 133.136 684.075 137.072 685.995 140.208C687.915 143.28 690.347 145.584 693.291 147.12C696.299 148.656 699.371 149.424 702.507 149.424ZM744.856 162V94.8H760.024L788.728 137.136V94.8H803.896V162H788.728L760.024 119.856V162H744.856ZM833.075 162V94.8H876.371V107.856H848.243V120.72H873.395V133.776H848.243V162H833.075ZM882.762 162V94.8H926.922V107.856H897.93V120.048H922.41V133.104H897.93V148.944H926.922V162H882.762ZM934.7 162V94.8H961.676C969.1 94.8 974.636 96.4 978.284 99.6C981.996 102.736 983.852 106.864 983.852 111.984C983.852 115.696 983.02 118.64 981.356 120.816C979.756 122.992 977.676 124.752 975.116 126.096C976.908 126.864 978.7 128.112 980.492 129.84C982.284 131.504 983.788 133.488 985.004 135.792C986.284 138.096 986.924 140.56 986.924 143.184C986.924 146.64 985.996 149.808 984.14 152.688C982.348 155.504 979.756 157.776 976.364 159.504C972.972 161.168 968.972 162 964.364 162H934.7ZM949.868 149.04H964.172C966.988 149.04 968.908 148.368 969.932 147.024C971.02 145.616 971.564 143.76 971.564 141.456C971.564 139.216 971.02 137.424 969.932 136.08C968.908 134.672 966.924 133.968 963.98 133.968H949.868V149.04ZM949.868 120.816H960.332C963.34 120.816 965.42 120.336 966.572 119.376C967.724 118.352 968.3 116.624 968.3 114.192C968.3 112.016 967.756 110.416 966.668 109.392C965.58 108.304 963.436 107.76 960.236 107.76H949.868V120.816ZM1016.22 162V148.944H1032.54V111.504L1016.99 114.48V102.576L1038.78 94.8H1046.75V148.944H1061.72V162H1016.22ZM1094.61 162V150.768H1065.42V138.672L1087.5 94.8H1102.29L1081.36 137.808H1095.66V121.392H1109.78V137.808H1116.21V150.768H1109.78V162H1094.61Z" fill="white"/>
</svg>
