<svg width="1117" height="258" viewBox="0 0 1117 258" fill="none" xmlns="http://www.w3.org/2000/svg">
<path d="M28.512 96.152C23.776 96.152 19.456 95.384 15.552 93.848C11.712 92.248 8.608 89.88 6.24 86.744C3.936 83.544 2.688 79.512 2.496 74.648H18.432C18.688 76.888 19.584 78.904 21.12 80.696C22.72 82.488 25.12 83.384 28.32 83.384C31.072 83.384 33.12 82.776 34.464 81.56C35.872 80.344 36.576 78.744 36.576 76.76C36.576 75.864 36.416 75.032 36.096 74.264C35.84 73.496 35.296 72.76 34.464 72.056C33.632 71.288 32.352 70.52 30.624 69.752C28.96 68.984 26.72 68.152 23.904 67.256C18.656 65.592 14.56 63.64 11.616 61.4C8.672 59.16 6.592 56.76 5.376 54.2C4.224 51.64 3.648 49.016 3.648 46.328C3.712 41.976 4.8 38.36 6.912 35.48C9.024 32.536 11.84 30.328 15.36 28.856C18.88 27.384 22.816 26.648 27.168 26.648C31.52 26.648 35.488 27.416 39.072 28.952C42.72 30.424 45.664 32.632 47.904 35.576C50.144 38.52 51.296 42.168 51.36 46.52H35.04C34.976 44.792 34.24 43.16 32.832 41.624C31.424 40.088 29.344 39.32 26.592 39.32C24.608 39.384 22.912 39.96 21.504 41.048C20.16 42.072 19.488 43.544 19.488 45.464C19.488 47.128 20.192 48.568 21.6 49.784C23.008 51 24.992 52.12 27.552 53.144C30.176 54.168 33.216 55.256 36.672 56.408C39.296 57.304 41.6 58.36 43.584 59.576C45.632 60.728 47.328 62.104 48.672 63.704C50.016 65.24 51.04 67 51.744 68.984C52.448 70.968 52.8 73.208 52.8 75.704C52.8 79.8 51.744 83.384 49.632 86.456C47.584 89.528 44.736 91.928 41.088 93.656C37.44 95.32 33.248 96.152 28.512 96.152ZM59.8245 95V27.8H103.985V40.856H74.9925V53.048H99.4725V66.104H74.9925V81.944H103.985V95H59.8245ZM141.929 96.152C134.953 96.152 129.001 94.68 124.073 91.736C119.145 88.728 115.369 84.632 112.745 79.448C110.185 74.264 108.905 68.312 108.905 61.592C108.905 54.872 110.153 48.888 112.648 43.64C115.209 38.328 118.953 34.168 123.881 31.16C128.809 28.152 134.825 26.648 141.929 26.648C150.249 26.648 157.097 28.76 162.473 32.984C167.849 37.144 171.145 43.064 172.361 50.744H155.753C155.113 47.48 153.545 44.952 151.049 43.16C148.617 41.368 145.481 40.472 141.641 40.472C138.313 40.472 135.337 41.272 132.713 42.872C130.089 44.408 128.041 46.744 126.569 49.88C125.097 52.952 124.361 56.856 124.361 61.592C124.361 66.2 125.065 70.072 126.473 73.208C127.945 76.28 129.993 78.616 132.617 80.216C135.241 81.752 138.249 82.52 141.641 82.52C145.481 82.52 148.617 81.72 151.049 80.12C153.545 78.456 155.113 76.12 155.753 73.112H172.361C171.145 80.28 167.849 85.912 162.473 90.008C157.097 94.104 150.249 96.152 141.929 96.152ZM179.45 95V27.8H205.082C209.69 27.8 213.754 28.6 217.274 30.2C220.794 31.8 223.546 34.104 225.53 37.112C227.514 40.056 228.506 43.576 228.506 47.672C228.506 52.152 227.29 55.896 224.858 58.904C222.426 61.912 219.066 64.056 214.778 65.336L233.114 95H215.642L199.609 67.64H194.618V95H179.45ZM194.618 54.776H204.794C207.162 54.776 208.922 54.424 210.074 53.72C211.29 52.952 212.122 52.024 212.57 50.936C213.018 49.848 213.242 48.76 213.242 47.672C213.242 46.584 213.018 45.528 212.57 44.504C212.122 43.416 211.29 42.52 210.074 41.816C208.922 41.112 207.162 40.76 204.794 40.76H194.618V54.776ZM238.043 95V27.8H282.203V40.856H253.211V53.048H277.691V66.104H253.211V81.944H282.203V95H238.043ZM305.629 95V40.856H286.333V27.8H340.093V40.856H320.701V95H305.629ZM365.825 95V27.8H380.993V81.848H408.449V95H365.825ZM444.226 96.152C439.618 96.152 435.202 95.352 430.978 93.752C426.818 92.152 423.074 89.848 419.746 86.84C416.482 83.832 413.89 80.184 411.97 75.896C410.114 71.608 409.186 66.776 409.186 61.4C409.186 56.024 410.114 51.192 411.97 46.904C413.89 42.616 416.482 38.968 419.746 35.96C423.074 32.952 426.818 30.648 430.978 29.048C435.202 27.448 439.618 26.648 444.226 26.648C448.834 26.648 453.25 27.448 457.474 29.048C461.698 30.648 465.442 32.952 468.706 35.96C472.034 38.968 474.658 42.616 476.578 46.904C478.498 51.192 479.458 56.024 479.458 61.4C479.458 66.776 478.498 71.608 476.578 75.896C474.658 80.184 472.034 83.832 468.706 86.84C465.442 89.848 461.698 92.152 457.474 93.752C453.25 95.352 448.834 96.152 444.226 96.152ZM444.226 82.424C447.362 82.424 450.434 81.656 453.442 80.12C456.45 78.584 458.914 76.28 460.834 73.208C462.818 70.072 463.81 66.136 463.81 61.4C463.81 56.6 462.818 52.664 460.834 49.592C458.85 46.456 456.354 44.152 453.346 42.68C450.338 41.144 447.298 40.376 444.226 40.376C441.154 40.376 438.114 41.144 435.106 42.68C432.162 44.152 429.698 46.456 427.714 49.592C425.794 52.664 424.834 56.6 424.834 61.4C424.834 66.136 425.794 70.072 427.714 73.208C429.634 76.28 432.066 78.584 435.01 80.12C438.018 81.656 441.09 82.424 444.226 82.424ZM501.739 95L477.643 27.8H493.675L511.243 79.736L528.811 27.8H544.747L520.555 95H501.739ZM548.543 95V27.8H592.703V40.856H563.711V53.048H588.191V66.104H563.711V81.944H592.703V95H548.543ZM620.637 95V27.8H635.805V81.848H663.261V95H620.637ZM670.793 95V27.8H714.953V40.856H685.961V53.048H710.441V66.104H685.961V81.944H714.953V95H670.793ZM738.379 95V40.856H719.083V27.8H772.843V40.856H753.451V95H738.379ZM795.004 95V40.856H775.708V27.8H829.468V40.856H810.076V95H795.004ZM835.043 95V27.8H879.203V40.856H850.211V53.048H874.691V66.104H850.211V81.944H879.203V95H835.043ZM886.981 95V27.8H912.613C917.221 27.8 921.285 28.6 924.805 30.2C928.325 31.8 931.077 34.104 933.061 37.112C935.045 40.056 936.037 43.576 936.037 47.672C936.037 52.152 934.821 55.896 932.389 58.904C929.957 61.912 926.597 64.056 922.309 65.336L940.645 95H923.173L907.141 67.64H902.149V95H886.981ZM902.149 54.776H912.325C914.693 54.776 916.453 54.424 917.605 53.72C918.821 52.952 919.653 52.024 920.101 50.936C920.549 49.848 920.773 48.76 920.773 47.672C920.773 46.584 920.549 45.528 920.101 44.504C919.653 43.416 918.821 42.52 917.605 41.816C916.453 41.112 914.693 40.76 912.325 40.76H902.149V54.776Z" fill="black"/>
<path d="M167.512 163V95.8H211.672V108.856H182.68V121.048H207.16V134.104H182.68V149.944H211.672V163H167.512ZM219.45 163V95.8H234.618L263.322 138.136V95.8H278.49V163H263.322L234.618 120.856V163H219.45ZM318.616 164.152C311.64 164.152 305.688 162.68 300.76 159.736C295.832 156.728 292.056 152.632 289.432 147.448C286.872 142.264 285.592 136.312 285.592 129.592C285.592 122.872 286.84 116.888 289.336 111.64C291.896 106.328 295.64 102.168 300.568 99.16C305.496 96.152 311.512 94.648 318.616 94.648C326.936 94.648 333.784 96.76 339.16 100.984C344.536 105.144 347.832 111.064 349.048 118.744H332.44C331.8 115.48 330.232 112.952 327.736 111.16C325.304 109.368 322.168 108.472 318.328 108.472C315 108.472 312.024 109.272 309.4 110.872C306.776 112.408 304.728 114.744 303.256 117.88C301.784 120.952 301.048 124.856 301.048 129.592C301.048 134.2 301.752 138.072 303.16 141.208C304.632 144.28 306.68 146.616 309.304 148.216C311.928 149.752 314.936 150.52 318.328 150.52C322.168 150.52 325.304 149.72 327.736 148.12C330.232 146.456 331.8 144.12 332.44 141.112H349.048C347.832 148.28 344.536 153.912 339.16 158.008C333.784 162.104 326.936 164.152 318.616 164.152ZM356.137 163V95.8H381.769C386.377 95.8 390.441 96.6 393.961 98.2C397.481 99.8 400.233 102.104 402.217 105.112C404.201 108.056 405.193 111.576 405.193 115.672C405.193 120.152 403.977 123.896 401.545 126.904C399.113 129.912 395.753 132.056 391.465 133.336L409.801 163H392.329L376.297 135.64H371.305V163H356.137ZM371.305 122.776H381.481C383.849 122.776 385.609 122.424 386.761 121.72C387.977 120.952 388.809 120.024 389.257 118.936C389.705 117.848 389.929 116.76 389.929 115.672C389.929 114.584 389.705 113.528 389.257 112.504C388.809 111.416 387.977 110.52 386.761 109.816C385.609 109.112 383.849 108.76 381.481 108.76H371.305V122.776ZM428.743 163V135.064L405.703 95.8H422.887L436.423 119.704L449.863 95.8H466.759L443.815 135.064V163H428.743ZM470.606 163V95.8H497.294C501.902 95.8 506.062 96.632 509.774 98.296C513.486 99.96 516.398 102.36 518.51 105.496C520.686 108.632 521.774 112.376 521.774 116.728C521.774 121.016 520.718 124.76 518.606 127.96C516.558 131.096 513.678 133.528 509.966 135.256C506.318 136.984 502.094 137.848 497.294 137.848H485.774V163H470.606ZM485.774 124.888H496.91C500.494 124.888 502.958 124.088 504.302 122.488C505.71 120.824 506.414 118.904 506.414 116.728C506.414 114.68 505.71 112.856 504.302 111.256C502.958 109.592 500.494 108.76 496.91 108.76H485.774V124.888ZM543.066 163V108.856H523.77V95.8H577.53V108.856H558.138V163H543.066ZM583.106 163V95.8H627.266V108.856H598.274V121.048H622.754V134.104H598.274V149.944H627.266V163H583.106ZM635.043 163V95.8H659.523C667.587 95.8 674.147 97.272 679.203 100.216C684.323 103.096 688.067 107.064 690.435 112.12C692.803 117.112 693.987 122.84 693.987 129.304C693.987 136.664 692.579 142.872 689.763 147.928C687.011 152.92 683.043 156.696 677.859 159.256C672.739 161.752 666.627 163 659.523 163H635.043ZM650.211 149.848H658.755C664.003 149.848 668.035 148.984 670.851 147.256C673.731 145.528 675.715 143.128 676.803 140.056C677.955 136.984 678.531 133.4 678.531 129.304C678.531 122.072 676.867 116.856 673.539 113.656C670.275 110.392 665.347 108.76 658.755 108.76H650.211V149.848ZM754.413 164.152C749.805 164.152 745.389 163.352 741.165 161.752C737.005 160.152 733.261 157.848 729.933 154.84C726.669 151.832 724.077 148.184 722.157 143.896C720.301 139.608 719.373 134.776 719.373 129.4C719.373 124.024 720.301 119.192 722.157 114.904C724.077 110.616 726.669 106.968 729.933 103.96C733.261 100.952 737.005 98.648 741.165 97.048C745.389 95.448 749.805 94.648 754.413 94.648C759.021 94.648 763.437 95.448 767.661 97.048C771.885 98.648 775.629 100.952 778.893 103.96C782.221 106.968 784.845 110.616 786.765 114.904C788.685 119.192 789.645 124.024 789.645 129.4C789.645 134.776 788.685 139.608 786.765 143.896C784.845 148.184 782.221 151.832 778.893 154.84C775.629 157.848 771.885 160.152 767.661 161.752C763.437 163.352 759.021 164.152 754.413 164.152ZM754.413 150.424C757.549 150.424 760.621 149.656 763.629 148.12C766.637 146.584 769.101 144.28 771.021 141.208C773.005 138.072 773.997 134.136 773.997 129.4C773.997 124.6 773.005 120.664 771.021 117.592C769.037 114.456 766.541 112.152 763.533 110.68C760.525 109.144 757.485 108.376 754.413 108.376C751.341 108.376 748.301 109.144 745.293 110.68C742.349 112.152 739.885 114.456 737.901 117.592C735.981 120.664 735.021 124.6 735.021 129.4C735.021 134.136 735.981 138.072 737.901 141.208C739.821 144.28 742.253 146.584 745.197 148.12C748.205 149.656 751.277 150.424 754.413 150.424ZM796.762 163V95.8H811.93L840.634 138.136V95.8H855.802V163H840.634L811.93 120.856V163H796.762ZM884.981 163V95.8H928.277V108.856H900.149V121.72H925.301V134.776H900.149V163H884.981ZM934.668 163V95.8H978.828V108.856H949.836V121.048H974.316V134.104H949.836V149.944H978.828V163H934.668ZM986.606 163V95.8H1013.58C1021.01 95.8 1026.54 97.4 1030.19 100.6C1033.9 103.736 1035.76 107.864 1035.76 112.984C1035.76 116.696 1034.93 119.64 1033.26 121.816C1031.66 123.992 1029.58 125.752 1027.02 127.096C1028.81 127.864 1030.61 129.112 1032.4 130.84C1034.19 132.504 1035.69 134.488 1036.91 136.792C1038.19 139.096 1038.83 141.56 1038.83 144.184C1038.83 147.64 1037.9 150.808 1036.05 153.688C1034.25 156.504 1031.66 158.776 1028.27 160.504C1024.88 162.168 1020.88 163 1016.27 163H986.606ZM1001.77 150.04H1016.08C1018.89 150.04 1020.81 149.368 1021.84 148.024C1022.93 146.616 1023.47 144.76 1023.47 142.456C1023.47 140.216 1022.93 138.424 1021.84 137.08C1020.81 135.672 1018.83 134.968 1015.89 134.968H1001.77V150.04ZM1001.77 121.816H1012.24C1015.25 121.816 1017.33 121.336 1018.48 120.376C1019.63 119.352 1020.21 117.624 1020.21 115.192C1020.21 113.016 1019.66 111.416 1018.57 110.392C1017.49 109.304 1015.34 108.76 1012.14 108.76H1001.77V121.816ZM1072.16 163L1097.6 108.664H1063.23V95.8H1113.72V106.36L1087.71 163H1072.16Z" fill="black"/>
<path d="M168.512 228V160.8H192.992C201.056 160.8 207.616 162.272 212.672 165.216C217.792 168.096 221.536 172.064 223.904 177.12C226.272 182.112 227.456 187.84 227.456 194.304C227.456 201.664 226.048 207.872 223.232 212.928C220.48 217.92 216.512 221.696 211.328 224.256C206.208 226.752 200.096 228 192.992 228H168.512ZM183.68 214.848H192.224C197.472 214.848 201.504 213.984 204.32 212.256C207.2 210.528 209.184 208.128 210.272 205.056C211.424 201.984 212 198.4 212 194.304C212 187.072 210.336 181.856 207.008 178.656C203.744 175.392 198.816 173.76 192.224 173.76H183.68V214.848ZM265.71 229.152C258.734 229.152 252.782 227.68 247.854 224.736C242.926 221.728 239.15 217.632 236.526 212.448C233.966 207.264 232.686 201.312 232.686 194.592C232.686 187.872 233.934 181.888 236.43 176.64C238.99 171.328 242.734 167.168 247.662 164.16C252.59 161.152 258.606 159.648 265.71 159.648C274.03 159.648 280.878 161.76 286.254 165.984C291.63 170.144 294.926 176.064 296.142 183.744H279.534C278.894 180.48 277.326 177.952 274.83 176.16C272.398 174.368 269.262 173.472 265.422 173.472C262.094 173.472 259.118 174.272 256.494 175.872C253.87 177.408 251.822 179.744 250.35 182.88C248.878 185.952 248.142 189.856 248.142 194.592C248.142 199.2 248.846 203.072 250.254 206.208C251.726 209.28 253.774 211.616 256.398 213.216C259.022 214.752 262.03 215.52 265.422 215.52C269.262 215.52 272.398 214.72 274.83 213.12C277.326 211.456 278.894 209.12 279.534 206.112H296.142C294.926 213.28 291.63 218.912 286.254 223.008C280.878 227.104 274.03 229.152 265.71 229.152ZM303.231 228V160.8H328.863C333.471 160.8 337.535 161.6 341.055 163.2C344.575 164.8 347.327 167.104 349.311 170.112C351.295 173.056 352.287 176.576 352.287 180.672C352.287 185.152 351.071 188.896 348.639 191.904C346.207 194.912 342.847 197.056 338.559 198.336L356.895 228H339.423L323.391 200.64H318.399V228H303.231ZM318.399 187.776H328.575C330.943 187.776 332.703 187.424 333.855 186.72C335.071 185.952 335.903 185.024 336.351 183.936C336.799 182.848 337.023 181.76 337.023 180.672C337.023 179.584 336.799 178.528 336.351 177.504C335.903 176.416 335.071 175.52 333.855 174.816C332.703 174.112 330.943 173.76 328.575 173.76H318.399V187.776ZM375.837 228V200.064L352.797 160.8H369.981L383.517 184.704L396.957 160.8H413.853L390.909 200.064V228H375.837ZM417.7 228V160.8H444.388C448.996 160.8 453.156 161.632 456.868 163.296C460.58 164.96 463.492 167.36 465.604 170.496C467.78 173.632 468.868 177.376 468.868 181.728C468.868 186.016 467.812 189.76 465.7 192.96C463.652 196.096 460.772 198.528 457.06 200.256C453.412 201.984 449.188 202.848 444.388 202.848H432.868V228H417.7ZM432.868 189.888H444.004C447.588 189.888 450.052 189.088 451.396 187.488C452.804 185.824 453.508 183.904 453.508 181.728C453.508 179.68 452.804 177.856 451.396 176.256C450.052 174.592 447.588 173.76 444.004 173.76H432.868V189.888ZM490.16 228V173.856H470.864V160.8H524.624V173.856H505.232V228H490.16ZM530.2 228V160.8H574.36V173.856H545.368V186.048H569.848V199.104H545.368V214.944H574.36V228H530.2ZM582.137 228V160.8H606.617C614.681 160.8 621.241 162.272 626.297 165.216C631.417 168.096 635.161 172.064 637.529 177.12C639.897 182.112 641.081 187.84 641.081 194.304C641.081 201.664 639.673 207.872 636.857 212.928C634.105 217.92 630.137 221.696 624.953 224.256C619.833 226.752 613.721 228 606.617 228H582.137ZM597.305 214.848H605.849C611.097 214.848 615.129 213.984 617.945 212.256C620.825 210.528 622.809 208.128 623.897 205.056C625.049 201.984 625.625 198.4 625.625 194.304C625.625 187.072 623.961 181.856 620.633 178.656C617.369 175.392 612.441 173.76 605.849 173.76H597.305V214.848ZM701.507 229.152C696.899 229.152 692.483 228.352 688.259 226.752C684.099 225.152 680.355 222.848 677.027 219.84C673.763 216.832 671.171 213.184 669.251 208.896C667.395 204.608 666.467 199.776 666.467 194.4C666.467 189.024 667.395 184.192 669.251 179.904C671.171 175.616 673.763 171.968 677.027 168.96C680.355 165.952 684.099 163.648 688.259 162.048C692.483 160.448 696.899 159.648 701.507 159.648C706.115 159.648 710.531 160.448 714.755 162.048C718.979 163.648 722.723 165.952 725.987 168.96C729.315 171.968 731.939 175.616 733.859 179.904C735.779 184.192 736.739 189.024 736.739 194.4C736.739 199.776 735.779 204.608 733.859 208.896C731.939 213.184 729.315 216.832 725.987 219.84C722.723 222.848 718.979 225.152 714.755 226.752C710.531 228.352 706.115 229.152 701.507 229.152ZM701.507 215.424C704.643 215.424 707.715 214.656 710.723 213.12C713.731 211.584 716.195 209.28 718.115 206.208C720.099 203.072 721.091 199.136 721.091 194.4C721.091 189.6 720.099 185.664 718.115 182.592C716.131 179.456 713.635 177.152 710.627 175.68C707.619 174.144 704.579 173.376 701.507 173.376C698.435 173.376 695.395 174.144 692.387 175.68C689.443 177.152 686.979 179.456 684.995 182.592C683.075 185.664 682.115 189.6 682.115 194.4C682.115 199.136 683.075 203.072 684.995 206.208C686.915 209.28 689.347 211.584 692.291 213.12C695.299 214.656 698.371 215.424 701.507 215.424ZM743.856 228V160.8H759.024L787.728 203.136V160.8H802.896V228H787.728L759.024 185.856V228H743.856ZM832.075 228V160.8H875.371V173.856H847.243V186.72H872.395V199.776H847.243V228H832.075ZM881.762 228V160.8H925.922V173.856H896.93V186.048H921.41V199.104H896.93V214.944H925.922V228H881.762ZM933.7 228V160.8H960.676C968.1 160.8 973.636 162.4 977.284 165.6C980.996 168.736 982.852 172.864 982.852 177.984C982.852 181.696 982.02 184.64 980.356 186.816C978.756 188.992 976.676 190.752 974.116 192.096C975.908 192.864 977.7 194.112 979.492 195.84C981.284 197.504 982.788 199.488 984.004 201.792C985.284 204.096 985.924 206.56 985.924 209.184C985.924 212.64 984.996 215.808 983.14 218.688C981.348 221.504 978.756 223.776 975.364 225.504C971.972 227.168 967.972 228 963.364 228H933.7ZM948.868 215.04H963.172C965.988 215.04 967.908 214.368 968.932 213.024C970.02 211.616 970.564 209.76 970.564 207.456C970.564 205.216 970.02 203.424 968.932 202.08C967.908 200.672 965.924 199.968 962.98 199.968H948.868V215.04ZM948.868 186.816H959.332C962.34 186.816 964.42 186.336 965.572 185.376C966.724 184.352 967.3 182.624 967.3 180.192C967.3 178.016 966.756 176.416 965.668 175.392C964.58 174.304 962.436 173.76 959.236 173.76H948.868V186.816ZM1015.22 228V214.944H1031.54V177.504L1015.99 180.48V168.576L1037.78 160.8H1045.75V214.944H1060.72V228H1015.22ZM1093.61 228V216.768H1064.42V204.672L1086.5 160.8H1101.29L1080.36 203.808H1094.66V187.392H1108.78V203.808H1115.21V216.768H1108.78V228H1093.61Z" fill="black"/>
</svg>
