<svg width="1037" height="138" viewBox="0 0 1037 138" fill="none" xmlns="http://www.w3.org/2000/svg">
<path d="M538.047 69L515.199 1.8H530.655L547.263 54.696L552.447 36.744L540.159 1.8H555.327L562.719 25.128L569.919 1.8H585.183L572.799 36.744L577.887 54.696L594.591 1.8H610.047L587.199 69H568.959L562.719 48.744L556.191 69H538.047ZM615.046 69V1.8H630.214V69H615.046ZM654.973 69V14.856H635.677V1.8H689.437V14.856H670.045V69H654.973ZM695.012 69V1.8H710.18V26.952H737.156V1.8H752.228V69H737.156V40.008H710.18V69H695.012ZM781.45 69V1.8H796.618V55.848H824.074V69H781.45ZM859.851 70.152C855.243 70.152 850.827 69.352 846.603 67.752C842.443 66.152 838.699 63.848 835.371 60.84C832.107 57.832 829.515 54.184 827.595 49.896C825.739 45.608 824.811 40.776 824.811 35.4C824.811 30.024 825.739 25.192 827.595 20.904C829.515 16.616 832.107 12.968 835.371 9.96C838.699 6.952 842.443 4.64799 846.603 3.048C850.827 1.448 855.243 0.647999 859.851 0.647999C864.459 0.647999 868.875 1.448 873.099 3.048C877.323 4.64799 881.067 6.952 884.331 9.96C887.659 12.968 890.283 16.616 892.203 20.904C894.123 25.192 895.083 30.024 895.083 35.4C895.083 40.776 894.123 45.608 892.203 49.896C890.283 54.184 887.659 57.832 884.331 60.84C881.067 63.848 877.323 66.152 873.099 67.752C868.875 69.352 864.459 70.152 859.851 70.152ZM859.851 56.424C862.987 56.424 866.059 55.656 869.067 54.12C872.075 52.584 874.539 50.28 876.459 47.208C878.443 44.072 879.435 40.136 879.435 35.4C879.435 30.6 878.443 26.664 876.459 23.592C874.475 20.456 871.979 18.152 868.971 16.68C865.963 15.144 862.923 14.376 859.851 14.376C856.779 14.376 853.739 15.144 850.731 16.68C847.787 18.152 845.323 20.456 843.339 23.592C841.419 26.664 840.459 30.6 840.459 35.4C840.459 40.136 841.419 44.072 843.339 47.208C845.259 50.28 847.691 52.584 850.635 54.12C853.643 55.656 856.715 56.424 859.851 56.424ZM917.364 69L893.268 1.8H909.3L926.868 53.736L944.436 1.8H960.372L936.18 69H917.364ZM964.168 69V1.8H1008.33V14.856H979.336V27.048H1003.82V40.104H979.336V55.944H1008.33V69H964.168ZM1013.71 79.944L1019.08 54.216H1033.39L1023.4 79.944H1013.71ZM23.0555 136V108.064L0.0155 68.8H17.1995L30.7355 92.704L44.1755 68.8H61.0715L38.1275 108.064V136H23.0555ZM92.7883 137.152C88.1803 137.152 83.7643 136.352 79.5403 134.752C75.3803 133.152 71.6363 130.848 68.3083 127.84C65.0443 124.832 62.4523 121.184 60.5323 116.896C58.6763 112.608 57.7483 107.776 57.7483 102.4C57.7483 97.024 58.6763 92.192 60.5323 87.904C62.4523 83.616 65.0443 79.968 68.3083 76.96C71.6363 73.952 75.3803 71.648 79.5403 70.048C83.7643 68.448 88.1803 67.648 92.7883 67.648C97.3963 67.648 101.812 68.448 106.036 70.048C110.26 71.648 114.004 73.952 117.268 76.96C120.596 79.968 123.22 83.616 125.14 87.904C127.06 92.192 128.02 97.024 128.02 102.4C128.02 107.776 127.06 112.608 125.14 116.896C123.22 121.184 120.596 124.832 117.268 127.84C114.004 130.848 110.26 133.152 106.036 134.752C101.812 136.352 97.3963 137.152 92.7883 137.152ZM92.7883 123.424C95.9243 123.424 98.9963 122.656 102.004 121.12C105.012 119.584 107.476 117.28 109.396 114.208C111.38 111.072 112.372 107.136 112.372 102.4C112.372 97.6 111.38 93.664 109.396 90.592C107.412 87.456 104.916 85.152 101.908 83.68C98.9003 82.144 95.8603 81.376 92.7883 81.376C89.7163 81.376 86.6763 82.144 83.6683 83.68C80.7243 85.152 78.2603 87.456 76.2763 90.592C74.3563 93.664 73.3963 97.6 73.3963 102.4C73.3963 107.136 74.3563 111.072 76.2763 114.208C78.1963 117.28 80.6283 119.584 83.5723 121.12C86.5803 122.656 89.6523 123.424 92.7883 123.424ZM162.209 137.152C155.937 137.152 150.785 135.904 146.753 133.408C142.721 130.912 139.745 127.584 137.825 123.424C135.905 119.264 134.945 114.656 134.945 109.6V68.8H150.017V109.696C150.017 114.048 151.073 117.408 153.185 119.776C155.297 122.08 158.401 123.232 162.497 123.232C166.529 123.232 169.633 122.08 171.809 119.776C174.049 117.408 175.169 114.048 175.169 109.696V68.8H190.241V109.6C190.241 114.848 189.377 119.232 187.649 122.752C185.921 126.272 183.649 129.088 180.833 131.2C178.081 133.312 175.041 134.848 171.713 135.808C168.449 136.704 165.281 137.152 162.209 137.152ZM198.887 136V68.8H224.519C229.127 68.8 233.191 69.6 236.711 71.2C240.231 72.8 242.983 75.104 244.967 78.112C246.951 81.056 247.943 84.576 247.943 88.672C247.943 93.152 246.727 96.896 244.295 99.904C241.863 102.912 238.503 105.056 234.215 106.336L252.551 136H235.079L219.047 108.64H214.055V136H198.887ZM214.055 95.776H224.231C226.599 95.776 228.359 95.424 229.511 94.72C230.727 93.952 231.559 93.024 232.007 91.936C232.455 90.848 232.679 89.76 232.679 88.672C232.679 87.584 232.455 86.528 232.007 85.504C231.559 84.416 230.727 83.52 229.511 82.816C228.359 82.112 226.599 81.76 224.231 81.76H214.055V95.776ZM301.637 137.152C296.901 137.152 292.581 136.384 288.677 134.848C284.837 133.248 281.733 130.88 279.365 127.744C277.061 124.544 275.813 120.512 275.621 115.648H291.557C291.813 117.888 292.709 119.904 294.245 121.696C295.845 123.488 298.245 124.384 301.445 124.384C304.197 124.384 306.245 123.776 307.589 122.56C308.997 121.344 309.701 119.744 309.701 117.76C309.701 116.864 309.541 116.032 309.221 115.264C308.965 114.496 308.421 113.76 307.589 113.056C306.757 112.288 305.477 111.52 303.749 110.752C302.085 109.984 299.845 109.152 297.029 108.256C291.781 106.592 287.685 104.64 284.741 102.4C281.797 100.16 279.717 97.76 278.501 95.2C277.349 92.64 276.773 90.016 276.773 87.328C276.837 82.976 277.925 79.36 280.037 76.48C282.149 73.536 284.965 71.328 288.485 69.856C292.005 68.384 295.941 67.648 300.293 67.648C304.645 67.648 308.613 68.416 312.197 69.952C315.845 71.424 318.789 73.632 321.029 76.576C323.269 79.52 324.421 83.168 324.485 87.52H308.165C308.101 85.792 307.365 84.16 305.957 82.624C304.549 81.088 302.469 80.32 299.717 80.32C297.733 80.384 296.037 80.96 294.629 82.048C293.285 83.072 292.613 84.544 292.613 86.464C292.613 88.128 293.317 89.568 294.725 90.784C296.133 92 298.117 93.12 300.677 94.144C303.301 95.168 306.341 96.256 309.797 97.408C312.421 98.304 314.725 99.36 316.709 100.576C318.757 101.728 320.453 103.104 321.797 104.704C323.141 106.24 324.165 108 324.869 109.984C325.573 111.968 325.925 114.208 325.925 116.704C325.925 120.8 324.869 124.384 322.757 127.456C320.709 130.528 317.861 132.928 314.213 134.656C310.565 136.32 306.373 137.152 301.637 137.152ZM332.95 136V68.8H377.11V81.856H348.118V94.048H372.598V107.104H348.118V122.944H377.11V136H332.95ZM415.054 137.152C408.078 137.152 402.126 135.68 397.198 132.736C392.27 129.728 388.494 125.632 385.87 120.448C383.31 115.264 382.03 109.312 382.03 102.592C382.03 95.872 383.278 89.888 385.773 84.64C388.334 79.328 392.078 75.168 397.006 72.16C401.934 69.152 407.95 67.648 415.054 67.648C423.374 67.648 430.222 69.76 435.598 73.984C440.974 78.144 444.27 84.064 445.486 91.744H428.878C428.238 88.48 426.67 85.952 424.174 84.16C421.742 82.368 418.606 81.472 414.766 81.472C411.438 81.472 408.462 82.272 405.838 83.872C403.214 85.408 401.166 87.744 399.694 90.88C398.222 93.952 397.486 97.856 397.486 102.592C397.486 107.2 398.19 111.072 399.598 114.208C401.07 117.28 403.118 119.616 405.742 121.216C408.366 122.752 411.374 123.52 414.766 123.52C418.606 123.52 421.742 122.72 424.174 121.12C426.67 119.456 428.238 117.12 428.878 114.112H445.486C444.27 121.28 440.974 126.912 435.598 131.008C430.222 135.104 423.374 137.152 415.054 137.152ZM452.575 136V68.8H478.207C482.815 68.8 486.879 69.6 490.399 71.2C493.919 72.8 496.671 75.104 498.655 78.112C500.639 81.056 501.631 84.576 501.631 88.672C501.631 93.152 500.415 96.896 497.983 99.904C495.551 102.912 492.191 105.056 487.903 106.336L506.239 136H488.767L472.734 108.64H467.743V136H452.575ZM467.743 95.776H477.919C480.287 95.776 482.047 95.424 483.199 94.72C484.415 93.952 485.247 93.024 485.695 91.936C486.143 90.848 486.367 89.76 486.367 88.672C486.367 87.584 486.143 86.528 485.695 85.504C485.247 84.416 484.415 83.52 483.199 82.816C482.047 82.112 480.287 81.76 477.919 81.76H467.743V95.776ZM511.168 136V68.8H555.328V81.856H526.336V94.048H550.816V107.104H526.336V122.944H555.328V136H511.168ZM578.754 136V81.856H559.458V68.8H613.218V81.856H593.826V136H578.754ZM633.692 136L658.076 68.8H675.452L699.932 136H683.9L679.196 122.08H654.236L649.436 136H633.692ZM658.46 109.984H675.068L666.62 85.504L658.46 109.984ZM704.481 136V68.8H728.961C737.025 68.8 743.585 70.272 748.641 73.216C753.761 76.096 757.505 80.064 759.873 85.12C762.241 90.112 763.425 95.84 763.425 102.304C763.425 109.664 762.017 115.872 759.201 120.928C756.449 125.92 752.481 129.696 747.297 132.256C742.177 134.752 736.065 136 728.961 136H704.481ZM719.649 122.848H728.193C733.441 122.848 737.473 121.984 740.289 120.256C743.169 118.528 745.153 116.128 746.241 113.056C747.393 109.984 747.969 106.4 747.969 102.304C747.969 95.072 746.305 89.856 742.977 86.656C739.713 83.392 734.785 81.76 728.193 81.76H719.649V122.848ZM770.575 136V68.8H788.623L805.039 109.984L820.975 68.8H839.023V136H823.855V95.584L810.895 128.128H798.703L785.743 95.488V136H770.575ZM848.108 136V68.8H863.276V136H848.108ZM872.387 136V68.8H898.019C902.627 68.8 906.691 69.6 910.211 71.2C913.731 72.8 916.483 75.104 918.467 78.112C920.451 81.056 921.443 84.576 921.443 88.672C921.443 93.152 920.227 96.896 917.795 99.904C915.363 102.912 912.003 105.056 907.715 106.336L926.051 136H908.579L892.547 108.64H887.555V136H872.387ZM887.555 95.776H897.731C900.099 95.776 901.859 95.424 903.011 94.72C904.227 93.952 905.059 93.024 905.507 91.936C905.955 90.848 906.179 89.76 906.179 88.672C906.179 87.584 905.955 86.528 905.507 85.504C905.059 84.416 904.227 83.52 903.011 82.816C901.859 82.112 900.099 81.76 897.731 81.76H887.555V95.776ZM930.981 136V68.8H975.141V81.856H946.149V94.048H970.629V107.104H946.149V122.944H975.141V136H930.981ZM982.918 136V68.8H1008.55C1013.16 68.8 1017.22 69.6 1020.74 71.2C1024.26 72.8 1027.01 75.104 1029 78.112C1030.98 81.056 1031.97 84.576 1031.97 88.672C1031.97 93.152 1030.76 96.896 1028.33 99.904C1025.89 102.912 1022.53 105.056 1018.25 106.336L1036.58 136H1019.11L1003.08 108.64H998.086V136H982.918ZM998.086 95.776H1008.26C1010.63 95.776 1012.39 95.424 1013.54 94.72C1014.76 93.952 1015.59 93.024 1016.04 91.936C1016.49 90.848 1016.71 89.76 1016.71 88.672C1016.71 87.584 1016.49 86.528 1016.04 85.504C1015.59 84.416 1014.76 83.52 1013.54 82.816C1012.39 82.112 1010.63 81.76 1008.26 81.76H998.086V95.776Z" fill="white"/>
</svg>
