<svg width="474" height="37" viewBox="0 0 474 37" fill="none" xmlns="http://www.w3.org/2000/svg">
<path d="M0.888 36V0.959999H17.688V4.32H4.776V15.792H17.208V19.152H4.776V32.64H17.688V36H0.888ZM23.64 36V0.959999H29.88L38.328 31.2H38.52V0.959999H42.36V36H36.12L27.672 5.76H27.48V36H23.64ZM59.88 36.48C55.72 36.48 52.568 35.088 50.424 32.304C48.312 29.52 47.256 25.392 47.256 19.92V17.04C47.256 11.568 48.28 7.44 50.328 4.656C52.376 1.872 55.4 0.48 59.4 0.48C60.52 0.48 61.608 0.591999 62.664 0.815998C63.72 1.008 64.664 1.312 65.496 1.728V13.44H61.656V2.304L63.576 5.28C62.36 4.384 60.936 3.936 59.304 3.936C56.648 3.936 54.632 5.056 53.256 7.296C51.88 9.536 51.192 12.864 51.192 17.28V19.68C51.192 24.256 51.928 27.632 53.4 29.808C54.904 31.952 57.192 33.024 60.264 33.024C61.128 33.024 62.024 32.944 62.952 32.784C63.88 32.624 64.728 32.416 65.496 32.16V35.76C64.696 35.984 63.784 36.16 62.76 36.288C61.768 36.416 60.808 36.48 59.88 36.48ZM72.36 1.056C73.768 0.831999 74.984 0.687999 76.008 0.623998C77.064 0.527999 78.072 0.48 79.032 0.48C81.944 0.48 84.28 0.848 86.04 1.584C87.8 2.288 89.08 3.44 89.88 5.04C90.68 6.608 91.08 8.688 91.08 11.28C91.08 13.872 90.68 15.968 89.88 17.568C89.08 19.136 87.8 20.288 86.04 21.024C84.28 21.728 81.944 22.08 79.032 22.08C78.168 22.08 77.32 22.048 76.488 21.984C75.688 21.92 74.84 21.824 73.944 21.696L75.192 18.336C76.024 18.464 76.776 18.56 77.448 18.624C78.12 18.688 78.76 18.72 79.368 18.72C81.288 18.72 82.808 18.48 83.928 18C85.08 17.52 85.912 16.736 86.424 15.648C86.936 14.56 87.192 13.12 87.192 11.328C87.192 9.504 86.936 8.064 86.424 7.008C85.912 5.92 85.08 5.136 83.928 4.656C82.808 4.176 81.288 3.936 79.368 3.936C78.728 3.936 78.056 3.968 77.352 4.032C76.68 4.064 75.912 4.16 75.048 4.32L76.2 2.976V36H72.36V1.056ZM87.048 36L75.048 20.256H79.464L91.56 36H87.048ZM103.032 36V22.32L93.72 0.959999H97.704L104.904 18.192H105.096L112.296 0.959999H116.28L106.968 22.32V36H103.032ZM120.6 1.056C122.008 0.831999 123.24 0.687999 124.296 0.623998C125.384 0.527999 126.376 0.48 127.272 0.48C130.184 0.48 132.52 0.879999 134.28 1.68C136.04 2.448 137.32 3.696 138.12 5.424C138.92 7.12 139.32 9.392 139.32 12.24C139.32 15.056 138.92 17.328 138.12 19.056C137.32 20.784 136.04 22.048 134.28 22.848C132.52 23.616 130.184 24 127.272 24C126.376 24 125.528 23.968 124.728 23.904C123.928 23.84 123.08 23.744 122.184 23.616L123.432 20.16C124.2 20.288 124.904 20.384 125.544 20.448C126.184 20.512 126.872 20.544 127.608 20.544C129.528 20.544 131.048 20.272 132.168 19.728C133.32 19.184 134.152 18.304 134.664 17.088C135.176 15.872 135.432 14.256 135.432 12.24C135.432 10.192 135.176 8.576 134.664 7.392C134.152 6.176 133.32 5.296 132.168 4.752C131.048 4.208 129.528 3.936 127.608 3.936C126.872 3.936 126.152 3.968 125.448 4.032C124.744 4.096 124.024 4.192 123.288 4.32L124.536 2.976V36H120.6V1.056ZM151.032 36V4.416H142.92V0.959999H163.08V4.416H154.968V36H151.032ZM168.6 36V32.64H175.032V4.32H168.6V0.959999H185.4V4.32H178.968V32.64H185.4V36H168.6ZM191.64 36V0.959999H197.88L206.328 31.2H206.52V0.959999H210.36V36H204.12L195.672 5.76H195.48V36H191.64ZM227.496 36.48C219.016 36.48 214.776 30.96 214.776 19.92V17.04C214.776 11.472 215.848 7.328 217.992 4.608C220.168 1.856 223.448 0.48 227.832 0.48C228.76 0.48 229.72 0.543999 230.712 0.671997C231.704 0.767998 232.648 0.911998 233.544 1.104V4.656C232.648 4.432 231.72 4.256 230.76 4.128C229.832 4 228.936 3.936 228.072 3.936C224.808 3.936 222.424 4.992 220.92 7.104C219.448 9.216 218.712 12.608 218.712 17.28V19.68C218.712 24.128 219.416 27.472 220.824 29.712C222.264 31.92 224.408 33.024 227.256 33.024C227.992 33.024 228.776 32.944 229.608 32.784C230.472 32.624 231.304 32.384 232.104 32.064L230.616 33.888V19.104H223.416V15.84H234.456V35.52C233.432 35.84 232.28 36.08 231 36.24C229.72 36.4 228.552 36.48 227.496 36.48ZM264.84 36V0.959999H268.776V32.544H282.6V36H264.84ZM297 36.48C294.536 36.48 292.568 35.952 291.096 34.896C289.624 33.808 288.552 32.048 287.88 29.616C287.24 27.184 286.92 23.952 286.92 19.92V17.04C286.92 12.976 287.24 9.744 287.88 7.344C288.552 4.912 289.624 3.168 291.096 2.112C292.568 1.024 294.536 0.48 297 0.48C299.464 0.48 301.432 1.024 302.904 2.112C304.376 3.168 305.432 4.912 306.072 7.344C306.744 9.744 307.08 12.976 307.08 17.04V19.92C307.08 23.952 306.744 27.184 306.072 29.616C305.432 32.048 304.376 33.808 302.904 34.896C301.432 35.952 299.464 36.48 297 36.48ZM297 33.024C298.6 33.024 299.832 32.64 300.696 31.872C301.592 31.072 302.216 29.712 302.568 27.792C302.952 25.84 303.144 23.136 303.144 19.68V17.28C303.144 13.824 302.952 11.136 302.568 9.216C302.216 7.264 301.592 5.904 300.696 5.136C299.832 4.336 298.6 3.936 297 3.936C295.432 3.936 294.2 4.336 293.304 5.136C292.408 5.904 291.768 7.264 291.384 9.216C291.032 11.136 290.856 13.824 290.856 17.28V19.68C290.856 23.136 291.032 25.84 291.384 27.792C291.768 29.712 292.408 31.072 293.304 31.872C294.2 32.64 295.432 33.024 297 33.024ZM318.648 36L309.96 0.959999H313.896L320.904 31.008H321.096L328.104 0.959999H332.04L323.352 36H318.648ZM336.888 36V0.959999H353.688V4.32H340.776V15.792H353.208V19.152H340.776V32.64H353.688V36H336.888ZM391.176 36.48C390.376 36.48 389.352 36.432 388.104 36.336C386.888 36.272 385.56 36.128 384.12 35.904V1.056C385.592 0.831999 386.92 0.687999 388.104 0.623998C389.32 0.527999 390.344 0.48 391.176 0.48C394.952 0.48 397.768 1.216 399.624 2.688C401.48 4.16 402.408 6.384 402.408 9.36C402.408 11.312 402.008 12.944 401.208 14.256C400.408 15.568 399.224 16.528 397.656 17.136V17.328C399.576 17.872 401 18.848 401.928 20.256C402.856 21.664 403.32 23.552 403.32 25.92C403.32 29.408 402.296 32.048 400.248 33.84C398.232 35.6 395.208 36.48 391.176 36.48ZM387 32.4C387.832 32.624 388.616 32.784 389.352 32.88C390.088 32.976 390.84 33.024 391.608 33.024C394.264 33.024 396.216 32.448 397.464 31.296C398.744 30.112 399.384 28.32 399.384 25.92C399.384 23.52 398.744 21.792 397.464 20.736C396.216 19.648 394.216 19.104 391.464 19.104H386.04V15.84H391.08C393.608 15.84 395.48 15.344 396.696 14.352C397.912 13.328 398.52 11.776 398.52 9.696C398.52 7.712 397.96 6.256 396.84 5.328C395.72 4.4 393.976 3.936 391.608 3.936C390.84 3.936 390.072 3.984 389.304 4.08C388.536 4.176 387.768 4.336 387 4.56L387.96 3.024V33.936L387 32.4ZM415.032 36V22.32L405.72 0.959999H409.704L416.904 18.192H417.096L424.296 0.959999H428.28L418.968 22.32V36H415.032ZM439.032 36V4.416H430.92V0.959999H451.08V4.416H442.968V36H439.032ZM456.888 36V0.959999H473.688V4.32H460.776V15.792H473.208V19.152H460.776V32.64H473.688V36H456.888Z" fill="#FF35D0"/>
</svg>
