<svg width="760" height="61" viewBox="0 0 760 61" fill="none" xmlns="http://www.w3.org/2000/svg">
<path d="M25.4688 25.9688H6.46875V42.0938H28.625V47H0.6875V1.5H28.3438V6.4375H6.46875V21.0625H25.4688V25.9688ZM38.875 47V13.1875H44.0625L44.4688 18.1875C44.9688 17.4792 45.5104 16.8333 46.0938 16.25C46.6979 15.6458 47.3333 15.125 48 14.6875C49 14.0208 50.0833 13.5104 51.25 13.1562C52.4375 12.7812 53.6875 12.5833 55 12.5625C56.7708 12.5625 58.375 12.8125 59.8125 13.3125C61.2708 13.8125 62.5104 14.5938 63.5312 15.6562C64.5521 16.7188 65.3333 18.0729 65.875 19.7188C66.4375 21.3438 66.7188 23.2812 66.7188 25.5312V47H60.9375V25.6562C60.9375 24.1562 60.7708 22.8854 60.4375 21.8438C60.1042 20.8021 59.6146 19.9583 58.9688 19.3125C58.3021 18.6667 57.4896 18.1979 56.5312 17.9062C55.5938 17.6146 54.5104 17.4688 53.2812 17.4688C52.2188 17.4688 51.2292 17.625 50.3125 17.9375C49.3958 18.2292 48.5521 18.6354 47.7812 19.1562C47.1562 19.6146 46.5729 20.1458 46.0312 20.75C45.5104 21.3542 45.0521 22.0208 44.6562 22.75V47H38.875ZM91.7188 42.9375C92.7604 42.9375 93.7708 42.7708 94.75 42.4375C95.75 42.1042 96.6354 41.6354 97.4062 41.0312C98.1771 40.4479 98.7917 39.7604 99.25 38.9688C99.7292 38.1562 99.9792 37.2812 100 36.3438H105.469C105.448 37.8438 105.052 39.2812 104.281 40.6562C103.531 42.0104 102.521 43.1979 101.25 44.2188C99.9792 45.2604 98.5208 46.0938 96.875 46.7188C95.2292 47.3229 93.5104 47.625 91.7188 47.625C89.1562 47.625 86.9167 47.1667 85 46.25C83.0833 45.3333 81.4896 44.0938 80.2188 42.5312C78.9271 40.9896 77.9583 39.2083 77.3125 37.1875C76.6667 35.1458 76.3438 33 76.3438 30.75V29.4375C76.3438 27.2083 76.6667 25.0729 77.3125 23.0312C77.9583 20.9896 78.9271 19.1875 80.2188 17.625C81.4896 16.0833 83.0833 14.8542 85 13.9375C86.9167 13.0208 89.1562 12.5625 91.7188 12.5625C93.7188 12.5625 95.5521 12.8854 97.2188 13.5312C98.9062 14.1562 100.365 15.0104 101.594 16.0938C102.802 17.1979 103.75 18.5 104.438 20C105.125 21.5 105.469 23.1042 105.469 24.8125H100C99.9792 23.7917 99.75 22.8333 99.3125 21.9375C98.8958 21.0208 98.3229 20.2188 97.5938 19.5312C96.8646 18.8438 95.9896 18.3021 94.9688 17.9062C93.9688 17.5104 92.8854 17.3125 91.7188 17.3125C89.9271 17.3125 88.4167 17.6771 87.1875 18.4062C85.9792 19.1146 85 20.0417 84.25 21.1875C83.5 22.3542 82.9583 23.6562 82.625 25.0938C82.3125 26.5312 82.1562 27.9792 82.1562 29.4375V30.75C82.1562 32.2292 82.3125 33.6979 82.625 35.1562C82.9583 36.5938 83.5 37.8854 84.25 39.0312C84.9792 40.1979 85.9479 41.1458 87.1562 41.875C88.3854 42.5833 89.9062 42.9375 91.7188 42.9375ZM137.906 12.5625C138.969 12.5625 140.073 12.6354 141.219 12.7812C142.385 12.9271 143.26 13.125 143.844 13.375L143.062 19.0312C141.938 18.7812 140.865 18.6042 139.844 18.5C138.844 18.375 137.792 18.3125 136.688 18.3125C135.271 18.3125 133.99 18.4896 132.844 18.8438C131.698 19.1771 130.698 19.6771 129.844 20.3438C129.073 20.9271 128.396 21.6458 127.812 22.5C127.25 23.3333 126.781 24.2708 126.406 25.3125V47H120.594V13.1875H126.094L126.344 17.7188L126.375 18.5625C127.75 16.7083 129.396 15.25 131.312 14.1875C133.25 13.1042 135.448 12.5625 137.906 12.5625ZM156.906 60.6562C156.365 60.6562 155.729 60.5938 155 60.4688C154.271 60.3438 153.719 60.2396 153.344 60.1562L154.281 55.4375C154.802 55.4792 155.312 55.5104 155.812 55.5312C156.333 55.5729 156.74 55.5938 157.031 55.5938C157.823 55.5938 158.542 55.375 159.188 54.9375C159.854 54.5 160.448 53.9792 160.969 53.375C161.469 52.7708 161.896 52.1458 162.25 51.5C162.625 50.8542 162.917 50.3229 163.125 49.9062L165.438 45.4062L150.875 13.1875H157.344L166.625 35L168.125 39.0938L169.719 35.125L178.438 13.1875H184.906L167.75 52.2188C167.354 53.0938 166.844 54.0208 166.219 55C165.615 55.9792 164.875 56.8854 164 57.7188C163.125 58.5521 162.104 59.25 160.938 59.8125C159.771 60.375 158.427 60.6562 156.906 60.6562ZM192.594 60V13.1875H197.875L198.156 16.875C198.615 16.2917 199.115 15.7708 199.656 15.3125C200.198 14.8333 200.781 14.4271 201.406 14.0938C202.281 13.5938 203.25 13.2188 204.312 12.9688C205.396 12.6979 206.552 12.5625 207.781 12.5625C209.948 12.5625 211.865 12.9896 213.531 13.8438C215.198 14.6979 216.594 15.8854 217.719 17.4062C218.844 18.9271 219.698 20.75 220.281 22.875C220.865 24.9792 221.156 27.2917 221.156 29.8125V30.4688C221.156 32.8854 220.865 35.1458 220.281 37.25C219.698 39.3333 218.844 41.1458 217.719 42.6875C216.594 44.2292 215.198 45.4375 213.531 46.3125C211.885 47.1875 210 47.625 207.875 47.625C206.583 47.625 205.375 47.4896 204.25 47.2188C203.146 46.9479 202.146 46.5625 201.25 46.0625C200.708 45.75 200.198 45.4062 199.719 45.0312C199.24 44.6354 198.792 44.2083 198.375 43.75V60H192.594ZM215.375 29.8125C215.375 28.1667 215.188 26.6042 214.812 25.125C214.458 23.625 213.906 22.3021 213.156 21.1562C212.385 20.0312 211.417 19.1354 210.25 18.4688C209.083 17.8021 207.688 17.4688 206.062 17.4688C205.167 17.4688 204.333 17.5729 203.562 17.7812C202.812 17.9896 202.135 18.2917 201.531 18.6875C200.865 19.0833 200.271 19.5729 199.75 20.1562C199.229 20.7396 198.771 21.3854 198.375 22.0938V38.375C198.729 39 199.135 39.5833 199.594 40.125C200.052 40.6667 200.573 41.125 201.156 41.5C201.823 41.9375 202.562 42.2812 203.375 42.5312C204.208 42.7812 205.125 42.9062 206.125 42.9062C207.729 42.9062 209.115 42.5729 210.281 41.9062C211.448 41.2188 212.406 40.3021 213.156 39.1562C213.906 38.0104 214.458 36.6875 214.812 35.1875C215.188 33.6875 215.375 32.1146 215.375 30.4688V29.8125ZM244.75 5V13.1875H257.625V17.6562H244.75V36.0312C244.75 37.3438 244.917 38.4271 245.25 39.2812C245.583 40.1354 246.042 40.8125 246.625 41.3125C247.208 41.8333 247.875 42.1979 248.625 42.4062C249.396 42.6146 250.208 42.7188 251.062 42.7188C251.688 42.7188 252.333 42.6875 253 42.625C253.667 42.5417 254.323 42.4479 254.969 42.3438C255.594 42.2396 256.177 42.1354 256.719 42.0312C257.281 41.9062 257.74 41.8021 258.094 41.7188L258.906 45.8125C258.427 46.1042 257.844 46.3646 257.156 46.5938C256.469 46.8021 255.719 46.9792 254.906 47.125C254.094 47.2917 253.229 47.4167 252.312 47.5C251.417 47.5833 250.521 47.625 249.625 47.625C248.125 47.625 246.719 47.4167 245.406 47C244.115 46.5625 242.99 45.875 242.031 44.9375C241.073 44.0208 240.312 42.8333 239.75 41.375C239.208 39.8958 238.938 38.1146 238.938 36.0312V17.6562H230.062V13.1875H238.938V5H244.75ZM270.406 13.1875H287.688V42H298.719V47H270.406V42H281.906V18.2188H270.406V13.1875ZM281.156 4.3125C281.156 3.8125 281.229 3.34375 281.375 2.90625C281.542 2.46875 281.792 2.09375 282.125 1.78125C282.396 1.51042 282.74 1.30208 283.156 1.15625C283.594 0.989583 284.083 0.90625 284.625 0.90625C285.167 0.90625 285.646 0.989583 286.062 1.15625C286.479 1.30208 286.823 1.51042 287.094 1.78125C287.427 2.07292 287.677 2.4375 287.844 2.875C288.01 3.3125 288.094 3.79167 288.094 4.3125C288.094 5.25 287.802 6.03125 287.219 6.65625C286.635 7.28125 285.771 7.59375 284.625 7.59375C283.458 7.59375 282.583 7.28125 282 6.65625C281.438 6.03125 281.156 5.25 281.156 4.3125ZM307.938 47V13.1875H313.125L313.531 18.1875C314.031 17.4792 314.573 16.8333 315.156 16.25C315.76 15.6458 316.396 15.125 317.062 14.6875C318.062 14.0208 319.146 13.5104 320.312 13.1562C321.5 12.7812 322.75 12.5833 324.062 12.5625C325.833 12.5625 327.438 12.8125 328.875 13.3125C330.333 13.8125 331.573 14.5938 332.594 15.6562C333.615 16.7188 334.396 18.0729 334.938 19.7188C335.5 21.3438 335.781 23.2812 335.781 25.5312V47H330V25.6562C330 24.1562 329.833 22.8854 329.5 21.8438C329.167 20.8021 328.677 19.9583 328.031 19.3125C327.365 18.6667 326.552 18.1979 325.594 17.9062C324.656 17.6146 323.573 17.4688 322.344 17.4688C321.281 17.4688 320.292 17.625 319.375 17.9375C318.458 18.2292 317.615 18.6354 316.844 19.1562C316.219 19.6146 315.635 20.1458 315.094 20.75C314.573 21.3542 314.115 22.0208 313.719 22.75V47H307.938ZM345.312 29.8125C345.312 27.2917 345.615 24.9792 346.219 22.875C346.844 20.75 347.74 18.9271 348.906 17.4062C350.073 15.8854 351.49 14.6979 353.156 13.8438C354.823 12.9896 356.708 12.5625 358.812 12.5625C360.167 12.5625 361.406 12.7188 362.531 13.0312C363.677 13.3438 364.708 13.8021 365.625 14.4062C366.125 14.7188 366.594 15.0833 367.031 15.5C367.49 15.9167 367.917 16.375 368.312 16.875L368.594 13.1875H373.844V46.2812C373.844 48.5104 373.49 50.4896 372.781 52.2188C372.094 53.9479 371.125 55.4167 369.875 56.625C368.604 57.8333 367.094 58.75 365.344 59.375C363.594 60 361.656 60.3125 359.531 60.3125C358.656 60.3125 357.656 60.2083 356.531 60C355.406 59.8125 354.271 59.4896 353.125 59.0312C351.958 58.5938 350.833 58 349.75 57.25C348.688 56.5 347.771 55.5729 347 54.4688L350 51C350.708 51.8542 351.438 52.5729 352.188 53.1562C352.938 53.7604 353.698 54.2396 354.469 54.5938C355.24 54.9479 356.01 55.1979 356.781 55.3438C357.552 55.5104 358.323 55.5938 359.094 55.5938C360.469 55.5938 361.708 55.3958 362.812 55C363.917 54.6042 364.865 54.0208 365.656 53.25C366.427 52.5 367.021 51.5625 367.438 50.4375C367.854 49.3125 368.062 48.0208 368.062 46.5625V43.6562C367.625 44.1562 367.156 44.6146 366.656 45.0312C366.177 45.4479 365.656 45.8125 365.094 46.125C364.219 46.6042 363.25 46.9688 362.188 47.2188C361.125 47.4896 359.979 47.625 358.75 47.625C356.688 47.625 354.823 47.1875 353.156 46.3125C351.49 45.4375 350.083 44.2292 348.938 42.6875C347.771 41.1458 346.875 39.3333 346.25 37.25C345.625 35.1458 345.312 32.8854 345.312 30.4688V29.8125ZM351.094 30.4688C351.094 32.1146 351.26 33.6771 351.594 35.1562C351.948 36.6354 352.5 37.9375 353.25 39.0625C353.979 40.1875 354.917 41.0833 356.062 41.75C357.208 42.3958 358.583 42.7188 360.188 42.7188C361.188 42.7188 362.083 42.6042 362.875 42.375C363.688 42.125 364.417 41.7812 365.062 41.3438C365.688 40.9062 366.25 40.3854 366.75 39.7812C367.25 39.1771 367.688 38.5104 368.062 37.7812V22.2812C367.688 21.5729 367.25 20.9271 366.75 20.3438C366.25 19.7604 365.677 19.25 365.031 18.8125C364.385 18.3958 363.667 18.0729 362.875 17.8438C362.083 17.5938 361.208 17.4688 360.25 17.4688C358.625 17.4688 357.229 17.8021 356.062 18.4688C354.917 19.1354 353.979 20.0312 353.25 21.1562C352.5 22.3021 351.948 23.625 351.594 25.125C351.26 26.6042 351.094 28.1667 351.094 29.8125V30.4688ZM429.781 42.0938H452.031V47H424V1.5H429.781V42.0938ZM460.062 29.7812C460.062 27.3438 460.417 25.0833 461.125 23C461.833 20.8958 462.854 19.0729 464.188 17.5312C465.5 15.9896 467.104 14.7812 469 13.9062C470.896 13.0104 473.031 12.5625 475.406 12.5625C477.802 12.5625 479.948 13.0104 481.844 13.9062C483.76 14.7812 485.385 15.9896 486.719 17.5312C488.031 19.0729 489.042 20.8958 489.75 23C490.458 25.0833 490.812 27.3438 490.812 29.7812V30.4688C490.812 32.9062 490.458 35.1667 489.75 37.25C489.042 39.3333 488.031 41.1458 486.719 42.6875C485.385 44.2292 483.771 45.4375 481.875 46.3125C479.979 47.1875 477.844 47.625 475.469 47.625C473.073 47.625 470.917 47.1875 469 46.3125C467.104 45.4375 465.5 44.2292 464.188 42.6875C462.854 41.1458 461.833 39.3333 461.125 37.25C460.417 35.1667 460.062 32.9062 460.062 30.4688V29.7812ZM465.844 30.4688C465.844 32.1354 466.042 33.7292 466.438 35.25C466.833 36.75 467.438 38.0729 468.25 39.2188C469.042 40.3646 470.042 41.2708 471.25 41.9375C472.458 42.6042 473.865 42.9375 475.469 42.9375C477.052 42.9375 478.438 42.6042 479.625 41.9375C480.833 41.2708 481.844 40.3646 482.656 39.2188C483.448 38.0729 484.042 36.75 484.438 35.25C484.833 33.7292 485.031 32.1354 485.031 30.4688V29.7812C485.031 28.1354 484.823 26.5625 484.406 25.0625C484.01 23.5417 483.417 22.2083 482.625 21.0625C481.812 19.9167 480.802 19.0104 479.594 18.3438C478.406 17.6562 477.01 17.3125 475.406 17.3125C473.802 17.3125 472.406 17.6562 471.219 18.3438C470.031 19.0104 469.042 19.9167 468.25 21.0625C467.438 22.2083 466.833 23.5417 466.438 25.0625C466.042 26.5625 465.844 28.1354 465.844 29.7812V30.4688ZM511.656 47L497.75 13.1875H503.688L513.375 38.6875L513.906 40.7812L514.469 38.6875L523.938 13.1875H529.844L516.062 47H511.656ZM553.5 47.625C551.125 47.625 548.938 47.2188 546.938 46.4062C544.958 45.5938 543.26 44.4583 541.844 43C540.427 41.5417 539.323 39.8125 538.531 37.8125C537.74 35.8125 537.344 33.6354 537.344 31.2812V29.9688C537.344 27.2396 537.781 24.8021 538.656 22.6562C539.531 20.4896 540.698 18.6562 542.156 17.1562C543.594 15.6771 545.229 14.5417 547.062 13.75C548.917 12.9583 550.812 12.5625 552.75 12.5625C555.188 12.5625 557.312 12.9896 559.125 13.8438C560.958 14.6771 562.479 15.8333 563.688 17.3125C564.896 18.8125 565.792 20.5729 566.375 22.5938C566.979 24.6146 567.281 26.8021 567.281 29.1562V31.75H543.125V31.9688C543.271 33.6146 543.594 35.0625 544.094 36.3125C544.615 37.5625 545.323 38.6667 546.219 39.625C547.135 40.6458 548.24 41.4479 549.531 42.0312C550.823 42.6146 552.25 42.9062 553.812 42.9062C555.875 42.9062 557.708 42.4896 559.312 41.6562C560.917 40.8229 562.25 39.7188 563.312 38.3438L566.844 41.0938C565.719 42.8021 564.031 44.3229 561.781 45.6562C559.552 46.9688 556.792 47.625 553.5 47.625ZM552.75 17.3125C551.583 17.3125 550.479 17.5312 549.438 17.9688C548.396 18.3854 547.458 19 546.625 19.8125C545.792 20.6458 545.083 21.6667 544.5 22.875C543.938 24.0625 543.542 25.4375 543.312 27H561.5V26.7188C561.5 25.6771 561.302 24.5625 560.906 23.375C560.51 22.1667 559.958 21.125 559.25 20.25C558.542 19.375 557.646 18.6667 556.562 18.125C555.5 17.5833 554.229 17.3125 552.75 17.3125ZM615.375 47V1.5H628.906C630.781 1.52083 632.615 1.77083 634.406 2.25C636.198 2.70833 637.792 3.42708 639.188 4.40625C640.583 5.38542 641.698 6.63542 642.531 8.15625C643.365 9.67708 643.771 11.5 643.75 13.625C643.729 14.8125 643.531 15.8958 643.156 16.875C642.802 17.8542 642.312 18.7292 641.688 19.5C641.042 20.2917 640.323 20.9583 639.531 21.5C638.76 22.0417 637.823 22.5521 636.719 23.0312V23.125C637.865 23.3958 638.969 23.8854 640.031 24.5938C641.094 25.3021 641.969 26.0833 642.656 26.9375C643.385 27.875 643.948 28.9271 644.344 30.0938C644.76 31.2604 644.969 32.5208 644.969 33.875C644.99 36 644.583 37.875 643.75 39.5C642.917 41.125 641.802 42.4792 640.406 43.5625C639.01 44.6667 637.396 45.5104 635.562 46.0938C633.75 46.6771 631.875 46.9792 629.938 47H615.375ZM621.188 25.7188V42.0938H630.094C631.302 42.0729 632.448 41.875 633.531 41.5C634.615 41.1042 635.573 40.5625 636.406 39.875C637.24 39.1875 637.896 38.3438 638.375 37.3438C638.875 36.3438 639.125 35.2083 639.125 33.9375C639.146 32.6458 638.927 31.5 638.469 30.5C638.031 29.5 637.417 28.6458 636.625 27.9375C635.833 27.25 634.906 26.7188 633.844 26.3438C632.781 25.9688 631.635 25.7604 630.406 25.7188H621.188ZM621.188 20.9062H629.25C630.333 20.8854 631.396 20.7188 632.438 20.4062C633.479 20.0729 634.406 19.5938 635.219 18.9688C636.031 18.3646 636.688 17.6146 637.188 16.7188C637.688 15.8229 637.938 14.7812 637.938 13.5938C637.938 12.3229 637.688 11.2396 637.188 10.3438C636.708 9.44792 636.062 8.70833 635.25 8.125C634.417 7.5625 633.458 7.14583 632.375 6.875C631.312 6.60417 630.219 6.45833 629.094 6.4375H621.188V20.9062ZM656.594 60.6562C656.052 60.6562 655.417 60.5938 654.688 60.4688C653.958 60.3438 653.406 60.2396 653.031 60.1562L653.969 55.4375C654.49 55.4792 655 55.5104 655.5 55.5312C656.021 55.5729 656.427 55.5938 656.719 55.5938C657.51 55.5938 658.229 55.375 658.875 54.9375C659.542 54.5 660.135 53.9792 660.656 53.375C661.156 52.7708 661.583 52.1458 661.938 51.5C662.312 50.8542 662.604 50.3229 662.812 49.9062L665.125 45.4062L650.562 13.1875H657.031L666.312 35L667.812 39.0938L669.406 35.125L678.125 13.1875H684.594L667.438 52.2188C667.042 53.0938 666.531 54.0208 665.906 55C665.302 55.9792 664.562 56.8854 663.688 57.7188C662.812 58.5521 661.792 59.25 660.625 59.8125C659.458 60.375 658.115 60.6562 656.594 60.6562ZM706 5V13.1875H718.875V17.6562H706V36.0312C706 37.3438 706.167 38.4271 706.5 39.2812C706.833 40.1354 707.292 40.8125 707.875 41.3125C708.458 41.8333 709.125 42.1979 709.875 42.4062C710.646 42.6146 711.458 42.7188 712.312 42.7188C712.938 42.7188 713.583 42.6875 714.25 42.625C714.917 42.5417 715.573 42.4479 716.219 42.3438C716.844 42.2396 717.427 42.1354 717.969 42.0312C718.531 41.9062 718.99 41.8021 719.344 41.7188L720.156 45.8125C719.677 46.1042 719.094 46.3646 718.406 46.5938C717.719 46.8021 716.969 46.9792 716.156 47.125C715.344 47.2917 714.479 47.4167 713.562 47.5C712.667 47.5833 711.771 47.625 710.875 47.625C709.375 47.625 707.969 47.4167 706.656 47C705.365 46.5625 704.24 45.875 703.281 44.9375C702.323 44.0208 701.562 42.8333 701 41.375C700.458 39.8958 700.188 38.1146 700.188 36.0312V17.6562H691.312V13.1875H700.188V5H706ZM745.688 47.625C743.312 47.625 741.125 47.2188 739.125 46.4062C737.146 45.5938 735.448 44.4583 734.031 43C732.615 41.5417 731.51 39.8125 730.719 37.8125C729.927 35.8125 729.531 33.6354 729.531 31.2812V29.9688C729.531 27.2396 729.969 24.8021 730.844 22.6562C731.719 20.4896 732.885 18.6562 734.344 17.1562C735.781 15.6771 737.417 14.5417 739.25 13.75C741.104 12.9583 743 12.5625 744.938 12.5625C747.375 12.5625 749.5 12.9896 751.312 13.8438C753.146 14.6771 754.667 15.8333 755.875 17.3125C757.083 18.8125 757.979 20.5729 758.562 22.5938C759.167 24.6146 759.469 26.8021 759.469 29.1562V31.75H735.312V31.9688C735.458 33.6146 735.781 35.0625 736.281 36.3125C736.802 37.5625 737.51 38.6667 738.406 39.625C739.323 40.6458 740.427 41.4479 741.719 42.0312C743.01 42.6146 744.438 42.9062 746 42.9062C748.062 42.9062 749.896 42.4896 751.5 41.6562C753.104 40.8229 754.438 39.7188 755.5 38.3438L759.031 41.0938C757.906 42.8021 756.219 44.3229 753.969 45.6562C751.74 46.9688 748.979 47.625 745.688 47.625ZM744.938 17.3125C743.771 17.3125 742.667 17.5312 741.625 17.9688C740.583 18.3854 739.646 19 738.812 19.8125C737.979 20.6458 737.271 21.6667 736.688 22.875C736.125 24.0625 735.729 25.4375 735.5 27H753.688V26.7188C753.688 25.6771 753.49 24.5625 753.094 23.375C752.698 22.1667 752.146 21.125 751.438 20.25C750.729 19.375 749.833 18.6667 748.75 18.125C747.688 17.5833 746.417 17.3125 744.938 17.3125Z" fill="#FF35D0"/>
</svg>
