<svg width="306" height="361" viewBox="0 0 306 361" fill="none" xmlns="http://www.w3.org/2000/svg">
<path d="M299.76 210.283H6.15039V443.954H299.76V210.283Z" stroke="black" stroke-width="1.19842" stroke-linecap="round" stroke-linejoin="round"/>
<path d="M304.965 205.081H294.56V215.486H304.965V205.081Z" fill="white"/>
<path d="M304.965 205.081H294.56V215.486H304.965V205.081Z" stroke="black" stroke-width="1.19842" stroke-linecap="round" stroke-linejoin="round"/>
<path d="M11.3555 205.081H0.950195V215.486H11.3555V205.081Z" fill="white"/>
<path d="M11.3555 205.081H0.950195V215.486H11.3555V205.081Z" stroke="black" stroke-width="1.19842" stroke-linecap="round" stroke-linejoin="round"/>
<path d="M299.76 -84.1969H6.15039V149.474H299.76V-84.1969Z" stroke="black" stroke-width="1.19842" stroke-linecap="round" stroke-linejoin="round"/>
<path d="M304.965 144.269H294.56V154.674H304.965V144.269Z" fill="white"/>
<path d="M304.965 144.269H294.56V154.674H304.965V144.269Z" stroke="black" stroke-width="1.19842" stroke-linecap="round" stroke-linejoin="round"/>
<path d="M11.3555 144.269H0.950195V154.674H11.3555V144.269Z" fill="white"/>
<path d="M11.3555 144.269H0.950195V154.674H11.3555V144.269Z" stroke="black" stroke-width="1.19842" stroke-linecap="round" stroke-linejoin="round"/>
</svg>
