<svg width="381" height="37" viewBox="0 0 381 37" fill="none" xmlns="http://www.w3.org/2000/svg">
<path d="M12.88 36.48C8.72 36.48 5.568 35.088 3.424 32.304C1.312 29.52 0.256 25.392 0.256 19.92V17.04C0.256 11.568 1.28 7.44 3.328 4.656C5.376 1.872 8.4 0.48 12.4 0.48C13.52 0.48 14.608 0.591999 15.664 0.815998C16.72 1.008 17.664 1.312 18.496 1.728V13.44H14.656V2.304L16.576 5.28C15.36 4.384 13.936 3.936 12.304 3.936C9.648 3.936 7.632 5.056 6.256 7.296C4.88 9.536 4.192 12.864 4.192 17.28V19.68C4.192 24.256 4.928 27.632 6.4 29.808C7.904 31.952 10.192 33.024 13.264 33.024C14.128 33.024 15.024 32.944 15.952 32.784C16.88 32.624 17.728 32.416 18.496 32.16V35.76C17.696 35.984 16.784 36.16 15.76 36.288C14.768 36.416 13.808 36.48 12.88 36.48ZM25.84 36V0.959999H29.776V32.544H43.6V36H25.84ZM49.6 36V32.64H56.032V4.32H49.6V0.959999H66.4V4.32H59.968V32.64H66.4V36H49.6ZM84.88 36.48C80.72 36.48 77.568 35.088 75.424 32.304C73.312 29.52 72.256 25.392 72.256 19.92V17.04C72.256 11.568 73.28 7.44 75.328 4.656C77.376 1.872 80.4 0.48 84.4 0.48C85.52 0.48 86.608 0.591999 87.664 0.815998C88.72 1.008 89.664 1.312 90.496 1.728V13.44H86.656V2.304L88.576 5.28C87.36 4.384 85.936 3.936 84.304 3.936C81.648 3.936 79.632 5.056 78.256 7.296C76.88 9.536 76.192 12.864 76.192 17.28V19.68C76.192 24.256 76.928 27.632 78.4 29.808C79.904 31.952 82.192 33.024 85.264 33.024C86.128 33.024 87.024 32.944 87.952 32.784C88.88 32.624 89.728 32.416 90.496 32.16V35.76C89.696 35.984 88.784 36.16 87.76 36.288C86.768 36.416 85.808 36.48 84.88 36.48ZM97.6 36V0.959999H101.44V16.128H101.632L112.432 0.959999H116.8L105.04 17.472L116.8 36H112.48L101.632 18.816H101.44V36H97.6ZM152.032 36V4.416H143.92V0.959999H164.08V4.416H155.968V36H152.032ZM178 36.48C175.536 36.48 173.568 35.952 172.096 34.896C170.624 33.808 169.552 32.048 168.88 29.616C168.24 27.184 167.92 23.952 167.92 19.92V17.04C167.92 12.976 168.24 9.744 168.88 7.344C169.552 4.912 170.624 3.168 172.096 2.112C173.568 1.024 175.536 0.48 178 0.48C180.464 0.48 182.432 1.024 183.904 2.112C185.376 3.168 186.432 4.912 187.072 7.344C187.744 9.744 188.08 12.976 188.08 17.04V19.92C188.08 23.952 187.744 27.184 187.072 29.616C186.432 32.048 185.376 33.808 183.904 34.896C182.432 35.952 180.464 36.48 178 36.48ZM178 33.024C179.6 33.024 180.832 32.64 181.696 31.872C182.592 31.072 183.216 29.712 183.568 27.792C183.952 25.84 184.144 23.136 184.144 19.68V17.28C184.144 13.824 183.952 11.136 183.568 9.216C183.216 7.264 182.592 5.904 181.696 5.136C180.832 4.336 179.6 3.936 178 3.936C176.432 3.936 175.2 4.336 174.304 5.136C173.408 5.904 172.768 7.264 172.384 9.216C172.032 11.136 171.856 13.824 171.856 17.28V19.68C171.856 23.136 172.032 25.84 172.384 27.792C172.768 29.712 173.408 31.072 174.304 31.872C175.2 32.64 176.432 33.024 178 33.024ZM217.888 36V0.959999H234.688V4.32H221.776V15.792H234.208V19.152H221.776V32.64H234.688V36H217.888ZM240.64 36V0.959999H246.88L255.328 31.2H255.52V0.959999H259.36V36H253.12L244.672 5.76H244.48V36H240.64ZM276.88 36.48C272.72 36.48 269.568 35.088 267.424 32.304C265.312 29.52 264.256 25.392 264.256 19.92V17.04C264.256 11.568 265.28 7.44 267.328 4.656C269.376 1.872 272.4 0.48 276.4 0.48C277.52 0.48 278.608 0.591999 279.664 0.815998C280.72 1.008 281.664 1.312 282.496 1.728V13.44H278.656V2.304L280.576 5.28C279.36 4.384 277.936 3.936 276.304 3.936C273.648 3.936 271.632 5.056 270.256 7.296C268.88 9.536 268.192 12.864 268.192 17.28V19.68C268.192 24.256 268.928 27.632 270.4 29.808C271.904 31.952 274.192 33.024 277.264 33.024C278.128 33.024 279.024 32.944 279.952 32.784C280.88 32.624 281.728 32.416 282.496 32.16V35.76C281.696 35.984 280.784 36.16 279.76 36.288C278.768 36.416 277.808 36.48 276.88 36.48ZM289.36 1.056C290.768 0.831999 291.984 0.687999 293.008 0.623998C294.064 0.527999 295.072 0.48 296.032 0.48C298.944 0.48 301.28 0.848 303.04 1.584C304.8 2.288 306.08 3.44 306.88 5.04C307.68 6.608 308.08 8.688 308.08 11.28C308.08 13.872 307.68 15.968 306.88 17.568C306.08 19.136 304.8 20.288 303.04 21.024C301.28 21.728 298.944 22.08 296.032 22.08C295.168 22.08 294.32 22.048 293.488 21.984C292.688 21.92 291.84 21.824 290.944 21.696L292.192 18.336C293.024 18.464 293.776 18.56 294.448 18.624C295.12 18.688 295.76 18.72 296.368 18.72C298.288 18.72 299.808 18.48 300.928 18C302.08 17.52 302.912 16.736 303.424 15.648C303.936 14.56 304.192 13.12 304.192 11.328C304.192 9.504 303.936 8.064 303.424 7.008C302.912 5.92 302.08 5.136 300.928 4.656C299.808 4.176 298.288 3.936 296.368 3.936C295.728 3.936 295.056 3.968 294.352 4.032C293.68 4.064 292.912 4.16 292.048 4.32L293.2 2.976V36H289.36V1.056ZM304.048 36L292.048 20.256H296.464L308.56 36H304.048ZM320.032 36V22.32L310.72 0.959999H314.704L321.904 18.192H322.096L329.296 0.959999H333.28L323.968 22.32V36H320.032ZM337.6 1.056C339.008 0.831999 340.24 0.687999 341.296 0.623998C342.384 0.527999 343.376 0.48 344.272 0.48C347.184 0.48 349.52 0.879999 351.28 1.68C353.04 2.448 354.32 3.696 355.12 5.424C355.92 7.12 356.32 9.392 356.32 12.24C356.32 15.056 355.92 17.328 355.12 19.056C354.32 20.784 353.04 22.048 351.28 22.848C349.52 23.616 347.184 24 344.272 24C343.376 24 342.528 23.968 341.728 23.904C340.928 23.84 340.08 23.744 339.184 23.616L340.432 20.16C341.2 20.288 341.904 20.384 342.544 20.448C343.184 20.512 343.872 20.544 344.608 20.544C346.528 20.544 348.048 20.272 349.168 19.728C350.32 19.184 351.152 18.304 351.664 17.088C352.176 15.872 352.432 14.256 352.432 12.24C352.432 10.192 352.176 8.576 351.664 7.392C351.152 6.176 350.32 5.296 349.168 4.752C348.048 4.208 346.528 3.936 344.608 3.936C343.872 3.936 343.152 3.968 342.448 4.032C341.744 4.096 341.024 4.192 340.288 4.32L341.536 2.976V36H337.6V1.056ZM368.032 36V4.416H359.92V0.959999H380.08V4.416H371.968V36H368.032Z" fill="#FF35D0"/>
</svg>
