<svg width="607" height="62" viewBox="0 0 607 62" fill="none" xmlns="http://www.w3.org/2000/svg">
<path d="M31.9062 34.3125C31.6354 36.4167 31.0938 38.3542 30.2812 40.125C29.4688 41.875 28.4167 43.375 27.125 44.625C25.8125 45.8958 24.2604 46.8854 22.4688 47.5938C20.6979 48.2812 18.7188 48.625 16.5312 48.625C14.6562 48.625 12.9479 48.3646 11.4062 47.8438C9.88542 47.3021 8.53125 46.5625 7.34375 45.625C6.13542 44.6875 5.09375 43.5833 4.21875 42.3125C3.36458 41.0417 2.65625 39.6562 2.09375 38.1562C1.51042 36.6562 1.07292 35.0833 0.78125 33.4375C0.510417 31.7917 0.364583 30.125 0.34375 28.4375V22.0938C0.364583 20.4062 0.510417 18.7396 0.78125 17.0938C1.07292 15.4479 1.51042 13.875 2.09375 12.375C2.65625 10.875 3.36458 9.48958 4.21875 8.21875C5.09375 6.92708 6.13542 5.8125 7.34375 4.875C8.53125 3.9375 9.88542 3.20833 11.4062 2.6875C12.9271 2.14583 14.6354 1.875 16.5312 1.875C18.8021 1.875 20.8333 2.22917 22.625 2.9375C24.4167 3.625 25.9583 4.60417 27.25 5.875C28.5417 7.16667 29.5729 8.70833 30.3438 10.5C31.1354 12.2917 31.6562 14.2708 31.9062 16.4375H26.125C25.9375 15.0625 25.6146 13.7812 25.1562 12.5938C24.6979 11.4062 24.0833 10.3646 23.3125 9.46875C22.5417 8.57292 21.5938 7.875 20.4688 7.375C19.3646 6.85417 18.0521 6.59375 16.5312 6.59375C15.1562 6.59375 13.9375 6.82292 12.875 7.28125C11.8333 7.71875 10.9375 8.32292 10.1875 9.09375C9.41667 9.86458 8.77083 10.7604 8.25 11.7812C7.75 12.8021 7.34375 13.8854 7.03125 15.0312C6.71875 16.1771 6.48958 17.3542 6.34375 18.5625C6.21875 19.75 6.15625 20.9062 6.15625 22.0312V28.4375C6.15625 29.5625 6.21875 30.7292 6.34375 31.9375C6.48958 33.125 6.71875 34.2917 7.03125 35.4375C7.34375 36.6042 7.75 37.6979 8.25 38.7188C8.75 39.7396 9.38542 40.6354 10.1562 41.4062C10.9271 42.1979 11.8333 42.8229 12.875 43.2812C13.9167 43.7188 15.1354 43.9375 16.5312 43.9375C18.0521 43.9375 19.3646 43.6979 20.4688 43.2188C21.5938 42.7396 22.5417 42.0625 23.3125 41.1875C24.0833 40.3333 24.6979 39.3229 25.1562 38.1562C25.6146 36.9688 25.9375 35.6875 26.125 34.3125H31.9062ZM41.7812 0H59.0625V43H70.0938V48H41.7812V43H53.2812V5.03125H41.7812V0ZM80.2188 14.1875H97.5V43H108.531V48H80.2188V43H91.7188V19.2188H80.2188V14.1875ZM90.9688 5.3125C90.9688 4.8125 91.0417 4.34375 91.1875 3.90625C91.3542 3.46875 91.6042 3.09375 91.9375 2.78125C92.2083 2.51042 92.5521 2.30208 92.9688 2.15625C93.4062 1.98958 93.8958 1.90625 94.4375 1.90625C94.9792 1.90625 95.4583 1.98958 95.875 2.15625C96.2917 2.30208 96.6354 2.51042 96.9062 2.78125C97.2396 3.07292 97.4896 3.4375 97.6562 3.875C97.8229 4.3125 97.9062 4.79167 97.9062 5.3125C97.9062 6.25 97.6146 7.03125 97.0312 7.65625C96.4479 8.28125 95.5833 8.59375 94.4375 8.59375C93.2708 8.59375 92.3958 8.28125 91.8125 7.65625C91.25 7.03125 90.9688 6.25 90.9688 5.3125ZM132.156 43.9375C133.198 43.9375 134.208 43.7708 135.188 43.4375C136.188 43.1042 137.073 42.6354 137.844 42.0312C138.615 41.4479 139.229 40.7604 139.688 39.9688C140.167 39.1562 140.417 38.2812 140.438 37.3438H145.906C145.885 38.8438 145.49 40.2812 144.719 41.6562C143.969 43.0104 142.958 44.1979 141.688 45.2188C140.417 46.2604 138.958 47.0938 137.312 47.7188C135.667 48.3229 133.948 48.625 132.156 48.625C129.594 48.625 127.354 48.1667 125.438 47.25C123.521 46.3333 121.927 45.0938 120.656 43.5312C119.365 41.9896 118.396 40.2083 117.75 38.1875C117.104 36.1458 116.781 34 116.781 31.75V30.4375C116.781 28.2083 117.104 26.0729 117.75 24.0312C118.396 21.9896 119.365 20.1875 120.656 18.625C121.927 17.0833 123.521 15.8542 125.438 14.9375C127.354 14.0208 129.594 13.5625 132.156 13.5625C134.156 13.5625 135.99 13.8854 137.656 14.5312C139.344 15.1562 140.802 16.0104 142.031 17.0938C143.24 18.1979 144.188 19.5 144.875 21C145.562 22.5 145.906 24.1042 145.906 25.8125H140.438C140.417 24.7917 140.188 23.8333 139.75 22.9375C139.333 22.0208 138.76 21.2188 138.031 20.5312C137.302 19.8438 136.427 19.3021 135.406 18.9062C134.406 18.5104 133.323 18.3125 132.156 18.3125C130.365 18.3125 128.854 18.6771 127.625 19.4062C126.417 20.1146 125.438 21.0417 124.688 22.1875C123.938 23.3542 123.396 24.6562 123.062 26.0938C122.75 27.5312 122.594 28.9792 122.594 30.4375V31.75C122.594 33.2292 122.75 34.6979 123.062 36.1562C123.396 37.5938 123.938 38.8854 124.688 40.0312C125.417 41.1979 126.385 42.1458 127.594 42.875C128.823 43.5833 130.344 43.9375 132.156 43.9375ZM166.312 32.2188L162.062 36.3125V48H156.25V0H162.062V29.375L165.844 25.3125L176.938 14.1875H183.969L170.281 28.2812L186.062 48H178.719L166.312 32.2188ZM246.75 6V14.1875H259.625V18.6562H246.75V37.0312C246.75 38.3438 246.917 39.4271 247.25 40.2812C247.583 41.1354 248.042 41.8125 248.625 42.3125C249.208 42.8333 249.875 43.1979 250.625 43.4062C251.396 43.6146 252.208 43.7188 253.062 43.7188C253.688 43.7188 254.333 43.6875 255 43.625C255.667 43.5417 256.323 43.4479 256.969 43.3438C257.594 43.2396 258.177 43.1354 258.719 43.0312C259.281 42.9062 259.74 42.8021 260.094 42.7188L260.906 46.8125C260.427 47.1042 259.844 47.3646 259.156 47.5938C258.469 47.8021 257.719 47.9792 256.906 48.125C256.094 48.2917 255.229 48.4167 254.312 48.5C253.417 48.5833 252.521 48.625 251.625 48.625C250.125 48.625 248.719 48.4167 247.406 48C246.115 47.5625 244.99 46.875 244.031 45.9375C243.073 45.0208 242.312 43.8333 241.75 42.375C241.208 40.8958 240.938 39.1146 240.938 37.0312V18.6562H232.062V14.1875H240.938V6H246.75ZM269.875 30.7812C269.875 28.3438 270.229 26.0833 270.938 24C271.646 21.8958 272.667 20.0729 274 18.5312C275.312 16.9896 276.917 15.7812 278.812 14.9062C280.708 14.0104 282.844 13.5625 285.219 13.5625C287.615 13.5625 289.76 14.0104 291.656 14.9062C293.573 15.7812 295.198 16.9896 296.531 18.5312C297.844 20.0729 298.854 21.8958 299.562 24C300.271 26.0833 300.625 28.3438 300.625 30.7812V31.4688C300.625 33.9062 300.271 36.1667 299.562 38.25C298.854 40.3333 297.844 42.1458 296.531 43.6875C295.198 45.2292 293.583 46.4375 291.688 47.3125C289.792 48.1875 287.656 48.625 285.281 48.625C282.885 48.625 280.729 48.1875 278.812 47.3125C276.917 46.4375 275.312 45.2292 274 43.6875C272.667 42.1458 271.646 40.3333 270.938 38.25C270.229 36.1667 269.875 33.9062 269.875 31.4688V30.7812ZM275.656 31.4688C275.656 33.1354 275.854 34.7292 276.25 36.25C276.646 37.75 277.25 39.0729 278.062 40.2188C278.854 41.3646 279.854 42.2708 281.062 42.9375C282.271 43.6042 283.677 43.9375 285.281 43.9375C286.865 43.9375 288.25 43.6042 289.438 42.9375C290.646 42.2708 291.656 41.3646 292.469 40.2188C293.26 39.0729 293.854 37.75 294.25 36.25C294.646 34.7292 294.844 33.1354 294.844 31.4688V30.7812C294.844 29.1354 294.635 27.5625 294.219 26.0625C293.823 24.5417 293.229 23.2083 292.438 22.0625C291.625 20.9167 290.615 20.0104 289.406 19.3438C288.219 18.6562 286.823 18.3125 285.219 18.3125C283.615 18.3125 282.219 18.6562 281.031 19.3438C279.844 20.0104 278.854 20.9167 278.062 22.0625C277.25 23.2083 276.646 24.5417 276.25 26.0625C275.854 27.5625 275.656 29.1354 275.656 30.7812V31.4688ZM363.312 48.625C360.938 48.625 358.75 48.2188 356.75 47.4062C354.771 46.5938 353.073 45.4583 351.656 44C350.24 42.5417 349.135 40.8125 348.344 38.8125C347.552 36.8125 347.156 34.6354 347.156 32.2812V30.9688C347.156 28.2396 347.594 25.8021 348.469 23.6562C349.344 21.4896 350.51 19.6562 351.969 18.1562C353.406 16.6771 355.042 15.5417 356.875 14.75C358.729 13.9583 360.625 13.5625 362.562 13.5625C365 13.5625 367.125 13.9896 368.938 14.8438C370.771 15.6771 372.292 16.8333 373.5 18.3125C374.708 19.8125 375.604 21.5729 376.188 23.5938C376.792 25.6146 377.094 27.8021 377.094 30.1562V32.75H352.938V32.9688C353.083 34.6146 353.406 36.0625 353.906 37.3125C354.427 38.5625 355.135 39.6667 356.031 40.625C356.948 41.6458 358.052 42.4479 359.344 43.0312C360.635 43.6146 362.062 43.9062 363.625 43.9062C365.688 43.9062 367.521 43.4896 369.125 42.6562C370.729 41.8229 372.062 40.7188 373.125 39.3438L376.656 42.0938C375.531 43.8021 373.844 45.3229 371.594 46.6562C369.365 47.9688 366.604 48.625 363.312 48.625ZM362.562 18.3125C361.396 18.3125 360.292 18.5312 359.25 18.9688C358.208 19.3854 357.271 20 356.438 20.8125C355.604 21.6458 354.896 22.6667 354.312 23.875C353.75 25.0625 353.354 26.4375 353.125 28H371.312V27.7188C371.312 26.6771 371.115 25.5625 370.719 24.375C370.323 23.1667 369.771 22.125 369.062 21.25C368.354 20.375 367.458 19.6667 366.375 19.125C365.312 18.5833 364.042 18.3125 362.562 18.3125ZM386.812 48V14.1875H392L392.406 19.1875C392.906 18.4792 393.448 17.8333 394.031 17.25C394.635 16.6458 395.271 16.125 395.938 15.6875C396.938 15.0208 398.021 14.5104 399.188 14.1562C400.375 13.7812 401.625 13.5833 402.938 13.5625C404.708 13.5625 406.312 13.8125 407.75 14.3125C409.208 14.8125 410.448 15.5938 411.469 16.6562C412.49 17.7188 413.271 19.0729 413.812 20.7188C414.375 22.3438 414.656 24.2812 414.656 26.5312V48H408.875V26.6562C408.875 25.1562 408.708 23.8854 408.375 22.8438C408.042 21.8021 407.552 20.9583 406.906 20.3125C406.24 19.6667 405.427 19.1979 404.469 18.9062C403.531 18.6146 402.448 18.4688 401.219 18.4688C400.156 18.4688 399.167 18.625 398.25 18.9375C397.333 19.2292 396.49 19.6354 395.719 20.1562C395.094 20.6146 394.51 21.1458 393.969 21.75C393.448 22.3542 392.99 23.0208 392.594 23.75V48H386.812ZM439.656 43.9375C440.698 43.9375 441.708 43.7708 442.688 43.4375C443.688 43.1042 444.573 42.6354 445.344 42.0312C446.115 41.4479 446.729 40.7604 447.188 39.9688C447.667 39.1562 447.917 38.2812 447.938 37.3438H453.406C453.385 38.8438 452.99 40.2812 452.219 41.6562C451.469 43.0104 450.458 44.1979 449.188 45.2188C447.917 46.2604 446.458 47.0938 444.812 47.7188C443.167 48.3229 441.448 48.625 439.656 48.625C437.094 48.625 434.854 48.1667 432.938 47.25C431.021 46.3333 429.427 45.0938 428.156 43.5312C426.865 41.9896 425.896 40.2083 425.25 38.1875C424.604 36.1458 424.281 34 424.281 31.75V30.4375C424.281 28.2083 424.604 26.0729 425.25 24.0312C425.896 21.9896 426.865 20.1875 428.156 18.625C429.427 17.0833 431.021 15.8542 432.938 14.9375C434.854 14.0208 437.094 13.5625 439.656 13.5625C441.656 13.5625 443.49 13.8854 445.156 14.5312C446.844 15.1562 448.302 16.0104 449.531 17.0938C450.74 18.1979 451.688 19.5 452.375 21C453.062 22.5 453.406 24.1042 453.406 25.8125H447.938C447.917 24.7917 447.688 23.8333 447.25 22.9375C446.833 22.0208 446.26 21.2188 445.531 20.5312C444.802 19.8438 443.927 19.3021 442.906 18.9062C441.906 18.5104 440.823 18.3125 439.656 18.3125C437.865 18.3125 436.354 18.6771 435.125 19.4062C433.917 20.1146 432.938 21.0417 432.188 22.1875C431.438 23.3542 430.896 24.6562 430.562 26.0938C430.25 27.5312 430.094 28.9792 430.094 30.4375V31.75C430.094 33.2292 430.25 34.6979 430.562 36.1562C430.896 37.5938 431.438 38.8854 432.188 40.0312C432.917 41.1979 433.885 42.1458 435.094 42.875C436.323 43.5833 437.844 43.9375 439.656 43.9375ZM485.844 13.5625C486.906 13.5625 488.01 13.6354 489.156 13.7812C490.323 13.9271 491.198 14.125 491.781 14.375L491 20.0312C489.875 19.7812 488.802 19.6042 487.781 19.5C486.781 19.375 485.729 19.3125 484.625 19.3125C483.208 19.3125 481.927 19.4896 480.781 19.8438C479.635 20.1771 478.635 20.6771 477.781 21.3438C477.01 21.9271 476.333 22.6458 475.75 23.5C475.188 24.3333 474.719 25.2708 474.344 26.3125V48H468.531V14.1875H474.031L474.281 18.7188L474.312 19.5625C475.688 17.7083 477.333 16.25 479.25 15.1875C481.188 14.1042 483.385 13.5625 485.844 13.5625ZM504.844 61.6562C504.302 61.6562 503.667 61.5938 502.938 61.4688C502.208 61.3438 501.656 61.2396 501.281 61.1562L502.219 56.4375C502.74 56.4792 503.25 56.5104 503.75 56.5312C504.271 56.5729 504.677 56.5938 504.969 56.5938C505.76 56.5938 506.479 56.375 507.125 55.9375C507.792 55.5 508.385 54.9792 508.906 54.375C509.406 53.7708 509.833 53.1458 510.188 52.5C510.562 51.8542 510.854 51.3229 511.062 50.9062L513.375 46.4062L498.812 14.1875H505.281L514.562 36L516.062 40.0938L517.656 36.125L526.375 14.1875H532.844L515.688 53.2188C515.292 54.0938 514.781 55.0208 514.156 56C513.552 56.9792 512.812 57.8854 511.938 58.7188C511.062 59.5521 510.042 60.25 508.875 60.8125C507.708 61.375 506.365 61.6562 504.844 61.6562ZM540.531 61V14.1875H545.812L546.094 17.875C546.552 17.2917 547.052 16.7708 547.594 16.3125C548.135 15.8333 548.719 15.4271 549.344 15.0938C550.219 14.5938 551.188 14.2188 552.25 13.9688C553.333 13.6979 554.49 13.5625 555.719 13.5625C557.885 13.5625 559.802 13.9896 561.469 14.8438C563.135 15.6979 564.531 16.8854 565.656 18.4062C566.781 19.9271 567.635 21.75 568.219 23.875C568.802 25.9792 569.094 28.2917 569.094 30.8125V31.4688C569.094 33.8854 568.802 36.1458 568.219 38.25C567.635 40.3333 566.781 42.1458 565.656 43.6875C564.531 45.2292 563.135 46.4375 561.469 47.3125C559.823 48.1875 557.938 48.625 555.812 48.625C554.521 48.625 553.312 48.4896 552.188 48.2188C551.083 47.9479 550.083 47.5625 549.188 47.0625C548.646 46.75 548.135 46.4062 547.656 46.0312C547.177 45.6354 546.729 45.2083 546.312 44.75V61H540.531ZM563.312 30.8125C563.312 29.1667 563.125 27.6042 562.75 26.125C562.396 24.625 561.844 23.3021 561.094 22.1562C560.323 21.0312 559.354 20.1354 558.188 19.4688C557.021 18.8021 555.625 18.4688 554 18.4688C553.104 18.4688 552.271 18.5729 551.5 18.7812C550.75 18.9896 550.073 19.2917 549.469 19.6875C548.802 20.0833 548.208 20.5729 547.688 21.1562C547.167 21.7396 546.708 22.3854 546.312 23.0938V39.375C546.667 40 547.073 40.5833 547.531 41.125C547.99 41.6667 548.51 42.125 549.094 42.5C549.76 42.9375 550.5 43.2812 551.312 43.5312C552.146 43.7812 553.062 43.9062 554.062 43.9062C555.667 43.9062 557.052 43.5729 558.219 42.9062C559.385 42.2188 560.344 41.3021 561.094 40.1562C561.844 39.0104 562.396 37.6875 562.75 36.1875C563.125 34.6875 563.312 33.1146 563.312 31.4688V30.8125ZM592.688 6V14.1875H605.562V18.6562H592.688V37.0312C592.688 38.3438 592.854 39.4271 593.188 40.2812C593.521 41.1354 593.979 41.8125 594.562 42.3125C595.146 42.8333 595.812 43.1979 596.562 43.4062C597.333 43.6146 598.146 43.7188 599 43.7188C599.625 43.7188 600.271 43.6875 600.938 43.625C601.604 43.5417 602.26 43.4479 602.906 43.3438C603.531 43.2396 604.115 43.1354 604.656 43.0312C605.219 42.9062 605.677 42.8021 606.031 42.7188L606.844 46.8125C606.365 47.1042 605.781 47.3646 605.094 47.5938C604.406 47.8021 603.656 47.9792 602.844 48.125C602.031 48.2917 601.167 48.4167 600.25 48.5C599.354 48.5833 598.458 48.625 597.562 48.625C596.062 48.625 594.656 48.4167 593.344 48C592.052 47.5625 590.927 46.875 589.969 45.9375C589.01 45.0208 588.25 43.8333 587.688 42.375C587.146 40.8958 586.875 39.1146 586.875 37.0312V18.6562H578V14.1875H586.875V6H592.688Z" fill="#FF35D0"/>
</svg>
