<svg width="493" height="37" viewBox="0 0 493 37" fill="none" xmlns="http://www.w3.org/2000/svg">
<path d="M0.84 36V0.959999H4.776V32.544H18.6V36H0.84ZM24.888 36V0.959999H41.688V4.32H28.776V15.792H41.208V19.152H28.776V32.64H41.688V36H24.888ZM45.96 36L54.648 0.959999H59.352L68.04 36H64.104L57.096 5.472H56.904L49.896 36H45.96ZM50.376 26.4V23.04H63.624V26.4H50.376ZM78.648 36L69.96 0.959999H73.896L80.904 31.008H81.096L88.104 0.959999H92.04L83.352 36H78.648ZM96.888 36V0.959999H113.688V4.32H100.776V15.792H113.208V19.152H100.776V32.64H113.688V36H96.888ZM151.032 36V22.32L141.72 0.959999H145.704L152.904 18.192H153.096L160.296 0.959999H164.28L154.968 22.32V36H151.032ZM177 36.48C174.536 36.48 172.568 35.952 171.096 34.896C169.624 33.808 168.552 32.048 167.88 29.616C167.24 27.184 166.92 23.952 166.92 19.92V17.04C166.92 12.976 167.24 9.744 167.88 7.344C168.552 4.912 169.624 3.168 171.096 2.112C172.568 1.024 174.536 0.48 177 0.48C179.464 0.48 181.432 1.024 182.904 2.112C184.376 3.168 185.432 4.912 186.072 7.344C186.744 9.744 187.08 12.976 187.08 17.04V19.92C187.08 23.952 186.744 27.184 186.072 29.616C185.432 32.048 184.376 33.808 182.904 34.896C181.432 35.952 179.464 36.48 177 36.48ZM177 33.024C178.6 33.024 179.832 32.64 180.696 31.872C181.592 31.072 182.216 29.712 182.568 27.792C182.952 25.84 183.144 23.136 183.144 19.68V17.28C183.144 13.824 182.952 11.136 182.568 9.216C182.216 7.264 181.592 5.904 180.696 5.136C179.832 4.336 178.6 3.936 177 3.936C175.432 3.936 174.2 4.336 173.304 5.136C172.408 5.904 171.768 7.264 171.384 9.216C171.032 11.136 170.856 13.824 170.856 17.28V19.68C170.856 23.136 171.032 25.84 171.384 27.792C171.768 29.712 172.408 31.072 173.304 31.872C174.2 32.64 175.432 33.024 177 33.024ZM201 36.48C197.8 36.48 195.432 35.696 193.896 34.128C192.392 32.528 191.64 30.032 191.64 26.64V0.959999H195.48V26.256C195.48 28.656 195.912 30.384 196.776 31.44C197.64 32.496 199.048 33.024 201 33.024C202.984 33.024 204.392 32.496 205.224 31.44C206.088 30.384 206.52 28.656 206.52 26.256V0.959999H210.36V26.64C210.36 30.032 209.608 32.528 208.104 34.128C206.6 35.696 204.232 36.48 201 36.48ZM216.36 1.056C217.768 0.831999 218.984 0.687999 220.008 0.623998C221.064 0.527999 222.072 0.48 223.032 0.48C225.944 0.48 228.28 0.848 230.04 1.584C231.8 2.288 233.08 3.44 233.88 5.04C234.68 6.608 235.08 8.688 235.08 11.28C235.08 13.872 234.68 15.968 233.88 17.568C233.08 19.136 231.8 20.288 230.04 21.024C228.28 21.728 225.944 22.08 223.032 22.08C222.168 22.08 221.32 22.048 220.488 21.984C219.688 21.92 218.84 21.824 217.944 21.696L219.192 18.336C220.024 18.464 220.776 18.56 221.448 18.624C222.12 18.688 222.76 18.72 223.368 18.72C225.288 18.72 226.808 18.48 227.928 18C229.08 17.52 229.912 16.736 230.424 15.648C230.936 14.56 231.192 13.12 231.192 11.328C231.192 9.504 230.936 8.064 230.424 7.008C229.912 5.92 229.08 5.136 227.928 4.656C226.808 4.176 225.288 3.936 223.368 3.936C222.728 3.936 222.056 3.968 221.352 4.032C220.68 4.064 219.912 4.16 219.048 4.32L220.2 2.976V36H216.36V1.056ZM231.048 36L219.048 20.256H223.464L235.56 36H231.048ZM264.84 36V0.959999H268.776V32.544H282.6V36H264.84ZM297 36.48C294.536 36.48 292.568 35.952 291.096 34.896C289.624 33.808 288.552 32.048 287.88 29.616C287.24 27.184 286.92 23.952 286.92 19.92V17.04C286.92 12.976 287.24 9.744 287.88 7.344C288.552 4.912 289.624 3.168 291.096 2.112C292.568 1.024 294.536 0.48 297 0.48C299.464 0.48 301.432 1.024 302.904 2.112C304.376 3.168 305.432 4.912 306.072 7.344C306.744 9.744 307.08 12.976 307.08 17.04V19.92C307.08 23.952 306.744 27.184 306.072 29.616C305.432 32.048 304.376 33.808 302.904 34.896C301.432 35.952 299.464 36.48 297 36.48ZM297 33.024C298.6 33.024 299.832 32.64 300.696 31.872C301.592 31.072 302.216 29.712 302.568 27.792C302.952 25.84 303.144 23.136 303.144 19.68V17.28C303.144 13.824 302.952 11.136 302.568 9.216C302.216 7.264 301.592 5.904 300.696 5.136C299.832 4.336 298.6 3.936 297 3.936C295.432 3.936 294.2 4.336 293.304 5.136C292.408 5.904 291.768 7.264 291.384 9.216C291.032 11.136 290.856 13.824 290.856 17.28V19.68C290.856 23.136 291.032 25.84 291.384 27.792C291.768 29.712 292.408 31.072 293.304 31.872C294.2 32.64 295.432 33.024 297 33.024ZM318.648 36L309.96 0.959999H313.896L320.904 31.008H321.096L328.104 0.959999H332.04L323.352 36H318.648ZM336.888 36V0.959999H353.688V4.32H340.776V15.792H353.208V19.152H340.776V32.64H353.688V36H336.888ZM391.176 36.48C390.376 36.48 389.352 36.432 388.104 36.336C386.888 36.272 385.56 36.128 384.12 35.904V1.056C385.592 0.831999 386.92 0.687999 388.104 0.623998C389.32 0.527999 390.344 0.48 391.176 0.48C394.952 0.48 397.768 1.216 399.624 2.688C401.48 4.16 402.408 6.384 402.408 9.36C402.408 11.312 402.008 12.944 401.208 14.256C400.408 15.568 399.224 16.528 397.656 17.136V17.328C399.576 17.872 401 18.848 401.928 20.256C402.856 21.664 403.32 23.552 403.32 25.92C403.32 29.408 402.296 32.048 400.248 33.84C398.232 35.6 395.208 36.48 391.176 36.48ZM387 32.4C387.832 32.624 388.616 32.784 389.352 32.88C390.088 32.976 390.84 33.024 391.608 33.024C394.264 33.024 396.216 32.448 397.464 31.296C398.744 30.112 399.384 28.32 399.384 25.92C399.384 23.52 398.744 21.792 397.464 20.736C396.216 19.648 394.216 19.104 391.464 19.104H386.04V15.84H391.08C393.608 15.84 395.48 15.344 396.696 14.352C397.912 13.328 398.52 11.776 398.52 9.696C398.52 7.712 397.96 6.256 396.84 5.328C395.72 4.4 393.976 3.936 391.608 3.936C390.84 3.936 390.072 3.984 389.304 4.08C388.536 4.176 387.768 4.336 387 4.56L387.96 3.024V33.936L387 32.4ZM415.032 36V22.32L405.72 0.959999H409.704L416.904 18.192H417.096L424.296 0.959999H428.28L418.968 22.32V36H415.032ZM439.032 36V4.416H430.92V0.959999H451.08V4.416H442.968V36H439.032ZM456.888 36V0.959999H473.688V4.32H460.776V15.792H473.208V19.152H460.776V32.64H473.688V36H456.888ZM489 17.856C487.88 17.856 486.968 17.52 486.264 16.848C485.592 16.176 485.256 15.296 485.256 14.208C485.256 13.088 485.592 12.208 486.264 11.568C486.968 10.896 487.88 10.56 489 10.56C490.12 10.56 491.016 10.896 491.688 11.568C492.392 12.208 492.744 13.088 492.744 14.208C492.744 15.296 492.392 16.176 491.688 16.848C491.016 17.52 490.12 17.856 489 17.856ZM489 36.48C487.88 36.48 486.968 36.144 486.264 35.472C485.592 34.8 485.256 33.92 485.256 32.832C485.256 31.712 485.592 30.832 486.264 30.192C486.968 29.52 487.88 29.184 489 29.184C490.12 29.184 491.016 29.52 491.688 30.192C492.392 30.832 492.744 31.712 492.744 32.832C492.744 33.92 492.392 34.8 491.688 35.472C491.016 36.144 490.12 36.48 489 36.48Z" fill="#FF35D0"/>
</svg>
