<svg width="759" height="62" viewBox="0 0 759 62" fill="none" xmlns="http://www.w3.org/2000/svg">
<path d="M5.96875 43.0938H28.2188V48H0.1875V2.5H5.96875V43.0938ZM52.8125 48.625C50.4375 48.625 48.25 48.2188 46.25 47.4062C44.2708 46.5938 42.5729 45.4583 41.1562 44C39.7396 42.5417 38.6354 40.8125 37.8438 38.8125C37.0521 36.8125 36.6562 34.6354 36.6562 32.2812V30.9688C36.6562 28.2396 37.0938 25.8021 37.9688 23.6562C38.8438 21.4896 40.0104 19.6562 41.4688 18.1562C42.9062 16.6771 44.5417 15.5417 46.375 14.75C48.2292 13.9583 50.125 13.5625 52.0625 13.5625C54.5 13.5625 56.625 13.9896 58.4375 14.8438C60.2708 15.6771 61.7917 16.8333 63 18.3125C64.2083 19.8125 65.1042 21.5729 65.6875 23.5938C66.2917 25.6146 66.5938 27.8021 66.5938 30.1562V32.75H42.4375V32.9688C42.5833 34.6146 42.9062 36.0625 43.4062 37.3125C43.9271 38.5625 44.6354 39.6667 45.5312 40.625C46.4479 41.6458 47.5521 42.4479 48.8438 43.0312C50.1354 43.6146 51.5625 43.9062 53.125 43.9062C55.1875 43.9062 57.0208 43.4896 58.625 42.6562C60.2292 41.8229 61.5625 40.7188 62.625 39.3438L66.1562 42.0938C65.0312 43.8021 63.3438 45.3229 61.0938 46.6562C58.8646 47.9688 56.1042 48.625 52.8125 48.625ZM52.0625 18.3125C50.8958 18.3125 49.7917 18.5312 48.75 18.9688C47.7083 19.3854 46.7708 20 45.9375 20.8125C45.1042 21.6458 44.3958 22.6667 43.8125 23.875C43.25 25.0625 42.8542 26.4375 42.625 28H60.8125V27.7188C60.8125 26.6771 60.6146 25.5625 60.2188 24.375C59.8229 23.1667 59.2708 22.125 58.5625 21.25C57.8542 20.375 56.9583 19.6667 55.875 19.125C54.8125 18.5833 53.5417 18.3125 52.0625 18.3125ZM98.5312 48C98.3021 47.5625 98.1146 47.0208 97.9688 46.375C97.8438 45.7083 97.75 45.0208 97.6875 44.3125C97.1042 44.8958 96.4479 45.4479 95.7188 45.9688C95.0104 46.4896 94.2292 46.9479 93.375 47.3438C92.5 47.7396 91.5729 48.0521 90.5938 48.2812C89.6146 48.5104 88.5729 48.625 87.4688 48.625C85.6771 48.625 84.0521 48.3646 82.5938 47.8438C81.1562 47.3229 79.9375 46.6146 78.9375 45.7188C77.9167 44.8438 77.125 43.8021 76.5625 42.5938C76.0208 41.3646 75.75 40.0417 75.75 38.625C75.75 36.7708 76.1146 35.1458 76.8438 33.75C77.5938 32.3542 78.6458 31.1875 80 30.25C81.3542 29.3333 82.9792 28.6458 84.875 28.1875C86.7917 27.7292 88.9271 27.5 91.2812 27.5H97.5938V24.8438C97.5938 23.8229 97.4062 22.9062 97.0312 22.0938C96.6562 21.2812 96.125 20.5833 95.4375 20C94.75 19.4375 93.9062 19 92.9062 18.6875C91.9271 18.375 90.8229 18.2188 89.5938 18.2188C88.4479 18.2188 87.4167 18.3646 86.5 18.6562C85.6042 18.9479 84.8438 19.3333 84.2188 19.8125C83.5938 20.2917 83.1042 20.8646 82.75 21.5312C82.4167 22.1771 82.25 22.8542 82.25 23.5625H76.4375C76.4583 22.3333 76.7708 21.125 77.375 19.9375C78 18.75 78.8958 17.6771 80.0625 16.7188C81.2083 15.7812 82.6042 15.0208 84.25 14.4375C85.9167 13.8542 87.8021 13.5625 89.9062 13.5625C91.8229 13.5625 93.6042 13.8021 95.25 14.2812C96.8958 14.7396 98.3229 15.4375 99.5312 16.375C100.719 17.3333 101.656 18.5208 102.344 19.9375C103.031 21.3542 103.375 23.0104 103.375 24.9062V40.625C103.375 41.75 103.479 42.9479 103.688 44.2188C103.896 45.4688 104.188 46.5625 104.562 47.5V48H98.5312ZM88.3125 43.5938C89.4375 43.5938 90.4896 43.4479 91.4688 43.1562C92.4479 42.8646 93.3438 42.4792 94.1562 42C94.9479 41.5208 95.6354 40.9792 96.2188 40.375C96.8021 39.75 97.2604 39.1042 97.5938 38.4375V31.5938H92.2188C90.2188 31.5938 88.4688 31.7708 86.9688 32.125C85.4896 32.4583 84.3125 32.9792 83.4375 33.6875C82.8125 34.1875 82.3333 34.7812 82 35.4688C81.6875 36.1562 81.5312 36.9375 81.5312 37.8125C81.5312 38.6458 81.6667 39.4167 81.9375 40.125C82.2292 40.8333 82.6562 41.4375 83.2188 41.9375C83.7812 42.4583 84.4896 42.8646 85.3438 43.1562C86.1979 43.4479 87.1875 43.5938 88.3125 43.5938ZM126.281 48L112.375 14.1875H118.312L128 39.6875L128.531 41.7812L129.094 39.6875L138.562 14.1875H144.469L130.688 48H126.281ZM168.125 48.625C165.75 48.625 163.562 48.2188 161.562 47.4062C159.583 46.5938 157.885 45.4583 156.469 44C155.052 42.5417 153.948 40.8125 153.156 38.8125C152.365 36.8125 151.969 34.6354 151.969 32.2812V30.9688C151.969 28.2396 152.406 25.8021 153.281 23.6562C154.156 21.4896 155.323 19.6562 156.781 18.1562C158.219 16.6771 159.854 15.5417 161.688 14.75C163.542 13.9583 165.438 13.5625 167.375 13.5625C169.812 13.5625 171.938 13.9896 173.75 14.8438C175.583 15.6771 177.104 16.8333 178.312 18.3125C179.521 19.8125 180.417 21.5729 181 23.5938C181.604 25.6146 181.906 27.8021 181.906 30.1562V32.75H157.75V32.9688C157.896 34.6146 158.219 36.0625 158.719 37.3125C159.24 38.5625 159.948 39.6667 160.844 40.625C161.76 41.6458 162.865 42.4479 164.156 43.0312C165.448 43.6146 166.875 43.9062 168.438 43.9062C170.5 43.9062 172.333 43.4896 173.938 42.6562C175.542 41.8229 176.875 40.7188 177.938 39.3438L181.469 42.0938C180.344 43.8021 178.656 45.3229 176.406 46.6562C174.177 47.9688 171.417 48.625 168.125 48.625ZM167.375 18.3125C166.208 18.3125 165.104 18.5312 164.062 18.9688C163.021 19.3854 162.083 20 161.25 20.8125C160.417 21.6458 159.708 22.6667 159.125 23.875C158.562 25.0625 158.167 26.4375 157.938 28H176.125V27.7188C176.125 26.6771 175.927 25.5625 175.531 24.375C175.135 23.1667 174.583 22.125 173.875 21.25C173.167 20.375 172.271 19.6667 171.188 19.125C170.125 18.5833 168.854 18.3125 167.375 18.3125ZM232.781 61.6562C232.24 61.6562 231.604 61.5938 230.875 61.4688C230.146 61.3438 229.594 61.2396 229.219 61.1562L230.156 56.4375C230.677 56.4792 231.188 56.5104 231.688 56.5312C232.208 56.5729 232.615 56.5938 232.906 56.5938C233.698 56.5938 234.417 56.375 235.062 55.9375C235.729 55.5 236.323 54.9792 236.844 54.375C237.344 53.7708 237.771 53.1458 238.125 52.5C238.5 51.8542 238.792 51.3229 239 50.9062L241.312 46.4062L226.75 14.1875H233.219L242.5 36L244 40.0938L245.594 36.125L254.312 14.1875H260.781L243.625 53.2188C243.229 54.0938 242.719 55.0208 242.094 56C241.49 56.9792 240.75 57.8854 239.875 58.7188C239 59.5521 237.979 60.25 236.812 60.8125C235.646 61.375 234.302 61.6562 232.781 61.6562ZM266.875 30.7812C266.875 28.3438 267.229 26.0833 267.938 24C268.646 21.8958 269.667 20.0729 271 18.5312C272.312 16.9896 273.917 15.7812 275.812 14.9062C277.708 14.0104 279.844 13.5625 282.219 13.5625C284.615 13.5625 286.76 14.0104 288.656 14.9062C290.573 15.7812 292.198 16.9896 293.531 18.5312C294.844 20.0729 295.854 21.8958 296.562 24C297.271 26.0833 297.625 28.3438 297.625 30.7812V31.4688C297.625 33.9062 297.271 36.1667 296.562 38.25C295.854 40.3333 294.844 42.1458 293.531 43.6875C292.198 45.2292 290.583 46.4375 288.688 47.3125C286.792 48.1875 284.656 48.625 282.281 48.625C279.885 48.625 277.729 48.1875 275.812 47.3125C273.917 46.4375 272.312 45.2292 271 43.6875C269.667 42.1458 268.646 40.3333 267.938 38.25C267.229 36.1667 266.875 33.9062 266.875 31.4688V30.7812ZM272.656 31.4688C272.656 33.1354 272.854 34.7292 273.25 36.25C273.646 37.75 274.25 39.0729 275.062 40.2188C275.854 41.3646 276.854 42.2708 278.062 42.9375C279.271 43.6042 280.677 43.9375 282.281 43.9375C283.865 43.9375 285.25 43.6042 286.438 42.9375C287.646 42.2708 288.656 41.3646 289.469 40.2188C290.26 39.0729 290.854 37.75 291.25 36.25C291.646 34.7292 291.844 33.1354 291.844 31.4688V30.7812C291.844 29.1354 291.635 27.5625 291.219 26.0625C290.823 24.5417 290.229 23.2083 289.438 22.0625C288.625 20.9167 287.615 20.0104 286.406 19.3438C285.219 18.6562 283.823 18.3125 282.219 18.3125C280.615 18.3125 279.219 18.6562 278.031 19.3438C276.844 20.0104 275.854 20.9167 275.062 22.0625C274.25 23.2083 273.646 24.5417 273.25 26.0625C272.854 27.5625 272.656 29.1354 272.656 30.7812V31.4688ZM329.219 48L328.875 43.3438C327.75 45.0104 326.344 46.3125 324.656 47.25C322.969 48.1667 321.021 48.625 318.812 48.625C317.042 48.625 315.438 48.3542 314 47.8125C312.562 47.25 311.333 46.3854 310.312 45.2188C309.292 44.0521 308.5 42.5729 307.938 40.7812C307.396 38.9688 307.125 36.8021 307.125 34.2812V14.1875H312.906V34.3438C312.906 36.1771 313.052 37.6979 313.344 38.9062C313.635 40.1146 314.073 41.0729 314.656 41.7812C315.24 42.5104 315.948 43.0208 316.781 43.3125C317.635 43.6042 318.615 43.75 319.719 43.75C321.01 43.75 322.167 43.6042 323.188 43.3125C324.208 43 325.094 42.5729 325.844 42.0312C326.469 41.5938 327.01 41.0729 327.469 40.4688C327.948 39.8438 328.344 39.1667 328.656 38.4375V14.1875H334.469V48H329.219ZM367.531 13.5625C368.594 13.5625 369.698 13.6354 370.844 13.7812C372.01 13.9271 372.885 14.125 373.469 14.375L372.688 20.0312C371.562 19.7812 370.49 19.6042 369.469 19.5C368.469 19.375 367.417 19.3125 366.312 19.3125C364.896 19.3125 363.615 19.4896 362.469 19.8438C361.323 20.1771 360.323 20.6771 359.469 21.3438C358.698 21.9271 358.021 22.6458 357.438 23.5C356.875 24.3333 356.406 25.2708 356.031 26.3125V48H350.219V14.1875H355.719L355.969 18.7188L356 19.5625C357.375 17.7083 359.021 16.25 360.938 15.1875C362.875 14.1042 365.073 13.5625 367.531 13.5625ZM423.156 0H440.438V43H451.469V48H423.156V43H434.656V5.03125H423.156V0ZM459.062 30.7812C459.062 28.3438 459.417 26.0833 460.125 24C460.833 21.8958 461.854 20.0729 463.188 18.5312C464.5 16.9896 466.104 15.7812 468 14.9062C469.896 14.0104 472.031 13.5625 474.406 13.5625C476.802 13.5625 478.948 14.0104 480.844 14.9062C482.76 15.7812 484.385 16.9896 485.719 18.5312C487.031 20.0729 488.042 21.8958 488.75 24C489.458 26.0833 489.812 28.3438 489.812 30.7812V31.4688C489.812 33.9062 489.458 36.1667 488.75 38.25C488.042 40.3333 487.031 42.1458 485.719 43.6875C484.385 45.2292 482.771 46.4375 480.875 47.3125C478.979 48.1875 476.844 48.625 474.469 48.625C472.073 48.625 469.917 48.1875 468 47.3125C466.104 46.4375 464.5 45.2292 463.188 43.6875C461.854 42.1458 460.833 40.3333 460.125 38.25C459.417 36.1667 459.062 33.9062 459.062 31.4688V30.7812ZM464.844 31.4688C464.844 33.1354 465.042 34.7292 465.438 36.25C465.833 37.75 466.438 39.0729 467.25 40.2188C468.042 41.3646 469.042 42.2708 470.25 42.9375C471.458 43.6042 472.865 43.9375 474.469 43.9375C476.052 43.9375 477.438 43.6042 478.625 42.9375C479.833 42.2708 480.844 41.3646 481.656 40.2188C482.448 39.0729 483.042 37.75 483.438 36.25C483.833 34.7292 484.031 33.1354 484.031 31.4688V30.7812C484.031 29.1354 483.823 27.5625 483.406 26.0625C483.01 24.5417 482.417 23.2083 481.625 22.0625C480.812 20.9167 479.802 20.0104 478.594 19.3438C477.406 18.6562 476.01 18.3125 474.406 18.3125C472.802 18.3125 471.406 18.6562 470.219 19.3438C469.031 20.0104 468.042 20.9167 467.25 22.0625C466.438 23.2083 465.833 24.5417 465.438 26.0625C465.042 27.5625 464.844 29.1354 464.844 30.7812V31.4688ZM510.656 48L496.75 14.1875H502.688L512.375 39.6875L512.906 41.7812L513.469 39.6875L522.938 14.1875H528.844L515.062 48H510.656ZM552.5 48.625C550.125 48.625 547.938 48.2188 545.938 47.4062C543.958 46.5938 542.26 45.4583 540.844 44C539.427 42.5417 538.323 40.8125 537.531 38.8125C536.74 36.8125 536.344 34.6354 536.344 32.2812V30.9688C536.344 28.2396 536.781 25.8021 537.656 23.6562C538.531 21.4896 539.698 19.6562 541.156 18.1562C542.594 16.6771 544.229 15.5417 546.062 14.75C547.917 13.9583 549.812 13.5625 551.75 13.5625C554.188 13.5625 556.312 13.9896 558.125 14.8438C559.958 15.6771 561.479 16.8333 562.688 18.3125C563.896 19.8125 564.792 21.5729 565.375 23.5938C565.979 25.6146 566.281 27.8021 566.281 30.1562V32.75H542.125V32.9688C542.271 34.6146 542.594 36.0625 543.094 37.3125C543.615 38.5625 544.323 39.6667 545.219 40.625C546.135 41.6458 547.24 42.4479 548.531 43.0312C549.823 43.6146 551.25 43.9062 552.812 43.9062C554.875 43.9062 556.708 43.4896 558.312 42.6562C559.917 41.8229 561.25 40.7188 562.312 39.3438L565.844 42.0938C564.719 43.8021 563.031 45.3229 560.781 46.6562C558.552 47.9688 555.792 48.625 552.5 48.625ZM551.75 18.3125C550.583 18.3125 549.479 18.5312 548.438 18.9688C547.396 19.3854 546.458 20 545.625 20.8125C544.792 21.6458 544.083 22.6667 543.5 23.875C542.938 25.0625 542.542 26.4375 542.312 28H560.5V27.7188C560.5 26.6771 560.302 25.5625 559.906 24.375C559.51 23.1667 558.958 22.125 558.25 21.25C557.542 20.375 556.646 19.6667 555.562 19.125C554.5 18.5833 553.229 18.3125 551.75 18.3125ZM643.094 31.4688C643.094 32.9479 642.979 34.375 642.75 35.75C642.542 37.1042 642.229 38.375 641.812 39.5625C641.25 41.125 640.51 42.5312 639.594 43.7812C638.698 45.0104 637.615 46.0312 636.344 46.8438C635.427 47.4062 634.417 47.8438 633.312 48.1562C632.229 48.4688 631.052 48.625 629.781 48.625C628.323 48.625 626.99 48.4479 625.781 48.0938C624.594 47.7396 623.521 47.2292 622.562 46.5625C622.104 46.2292 621.667 45.8646 621.25 45.4688C620.833 45.0729 620.438 44.6354 620.062 44.1562L619.781 48H614.469V0H620.25V17.8125C620.729 17.2083 621.26 16.6667 621.844 16.1875C622.427 15.6875 623.052 15.2604 623.719 14.9062C624.552 14.4688 625.469 14.1354 626.469 13.9062C627.469 13.6771 628.552 13.5625 629.719 13.5625C631.177 13.5625 632.521 13.7604 633.75 14.1562C634.979 14.5521 636.094 15.1042 637.094 15.8125C637.99 16.4792 638.792 17.2917 639.5 18.25C640.208 19.1875 640.833 20.2396 641.375 21.4062C641.938 22.7188 642.365 24.1771 642.656 25.7812C642.948 27.3646 643.094 29.0417 643.094 30.8125V31.4688ZM637.312 30.8125C637.312 29.75 637.24 28.7188 637.094 27.7188C636.969 26.6979 636.771 25.7396 636.5 24.8438C636.125 23.7396 635.635 22.7292 635.031 21.8125C634.427 20.8958 633.688 20.1771 632.812 19.6562C632.208 19.2812 631.531 18.9896 630.781 18.7812C630.031 18.5729 629.198 18.4688 628.281 18.4688C627.281 18.4688 626.365 18.6042 625.531 18.875C624.698 19.125 623.958 19.4792 623.312 19.9375C622.646 20.4167 622.052 20.9792 621.531 21.625C621.031 22.25 620.604 22.9375 620.25 23.6875V38.4688C620.625 39.2188 621.062 39.9167 621.562 40.5625C622.083 41.1875 622.677 41.7396 623.344 42.2188C624.01 42.6979 624.76 43.0729 625.594 43.3438C626.427 43.5938 627.344 43.7188 628.344 43.7188C629.302 43.7188 630.177 43.6042 630.969 43.375C631.76 43.125 632.469 42.7708 633.094 42.3125C633.927 41.7292 634.625 40.9896 635.188 40.0938C635.75 39.1979 636.198 38.1979 636.531 37.0938C636.802 36.2604 637 35.3646 637.125 34.4062C637.25 33.4479 637.312 32.4688 637.312 31.4688V30.8125ZM655.594 61.6562C655.052 61.6562 654.417 61.5938 653.688 61.4688C652.958 61.3438 652.406 61.2396 652.031 61.1562L652.969 56.4375C653.49 56.4792 654 56.5104 654.5 56.5312C655.021 56.5729 655.427 56.5938 655.719 56.5938C656.51 56.5938 657.229 56.375 657.875 55.9375C658.542 55.5 659.135 54.9792 659.656 54.375C660.156 53.7708 660.583 53.1458 660.938 52.5C661.312 51.8542 661.604 51.3229 661.812 50.9062L664.125 46.4062L649.562 14.1875H656.031L665.312 36L666.812 40.0938L668.406 36.125L677.125 14.1875H683.594L666.438 53.2188C666.042 54.0938 665.531 55.0208 664.906 56C664.302 56.9792 663.562 57.8854 662.688 58.7188C661.812 59.5521 660.792 60.25 659.625 60.8125C658.458 61.375 657.115 61.6562 655.594 61.6562ZM705 6V14.1875H717.875V18.6562H705V37.0312C705 38.3438 705.167 39.4271 705.5 40.2812C705.833 41.1354 706.292 41.8125 706.875 42.3125C707.458 42.8333 708.125 43.1979 708.875 43.4062C709.646 43.6146 710.458 43.7188 711.312 43.7188C711.938 43.7188 712.583 43.6875 713.25 43.625C713.917 43.5417 714.573 43.4479 715.219 43.3438C715.844 43.2396 716.427 43.1354 716.969 43.0312C717.531 42.9062 717.99 42.8021 718.344 42.7188L719.156 46.8125C718.677 47.1042 718.094 47.3646 717.406 47.5938C716.719 47.8021 715.969 47.9792 715.156 48.125C714.344 48.2917 713.479 48.4167 712.562 48.5C711.667 48.5833 710.771 48.625 709.875 48.625C708.375 48.625 706.969 48.4167 705.656 48C704.365 47.5625 703.24 46.875 702.281 45.9375C701.323 45.0208 700.562 43.8333 700 42.375C699.458 40.8958 699.188 39.1146 699.188 37.0312V18.6562H690.312V14.1875H699.188V6H705ZM744.688 48.625C742.312 48.625 740.125 48.2188 738.125 47.4062C736.146 46.5938 734.448 45.4583 733.031 44C731.615 42.5417 730.51 40.8125 729.719 38.8125C728.927 36.8125 728.531 34.6354 728.531 32.2812V30.9688C728.531 28.2396 728.969 25.8021 729.844 23.6562C730.719 21.4896 731.885 19.6562 733.344 18.1562C734.781 16.6771 736.417 15.5417 738.25 14.75C740.104 13.9583 742 13.5625 743.938 13.5625C746.375 13.5625 748.5 13.9896 750.312 14.8438C752.146 15.6771 753.667 16.8333 754.875 18.3125C756.083 19.8125 756.979 21.5729 757.562 23.5938C758.167 25.6146 758.469 27.8021 758.469 30.1562V32.75H734.312V32.9688C734.458 34.6146 734.781 36.0625 735.281 37.3125C735.802 38.5625 736.51 39.6667 737.406 40.625C738.323 41.6458 739.427 42.4479 740.719 43.0312C742.01 43.6146 743.438 43.9062 745 43.9062C747.062 43.9062 748.896 43.4896 750.5 42.6562C752.104 41.8229 753.438 40.7188 754.5 39.3438L758.031 42.0938C756.906 43.8021 755.219 45.3229 752.969 46.6562C750.74 47.9688 747.979 48.625 744.688 48.625ZM743.938 18.3125C742.771 18.3125 741.667 18.5312 740.625 18.9688C739.583 19.3854 738.646 20 737.812 20.8125C736.979 21.6458 736.271 22.6667 735.688 23.875C735.125 25.0625 734.729 26.4375 734.5 28H752.688V27.7188C752.688 26.6771 752.49 25.5625 752.094 24.375C751.698 23.1667 751.146 22.125 750.438 21.25C749.729 20.375 748.833 19.6667 747.75 19.125C746.688 18.5833 745.417 18.3125 743.938 18.3125Z" fill="#FF35D0"/>
</svg>
