<svg width="625" height="92" viewBox="0 0 625 92" fill="none" xmlns="http://www.w3.org/2000/svg">
<path d="M20 21.4453C19.8307 22.7604 19.4922 23.9714 18.9844 25.0781C18.4766 26.1719 17.819 27.1094 17.0117 27.8906C16.1914 28.6849 15.2214 29.3034 14.1016 29.7461C12.9948 30.1758 11.7578 30.3906 10.3906 30.3906C9.21875 30.3906 8.15104 30.2279 7.1875 29.9023C6.23698 29.5638 5.39062 29.1016 4.64844 28.5156C3.89323 27.9297 3.24219 27.2396 2.69531 26.4453C2.16146 25.651 1.71875 24.7852 1.36719 23.8477C1.0026 22.9102 0.729167 21.9271 0.546875 20.8984C0.377604 19.8698 0.286458 18.8281 0.273438 17.7734V13.8086C0.286458 12.7539 0.377604 11.7122 0.546875 10.6836C0.729167 9.65495 1.0026 8.67188 1.36719 7.73438C1.71875 6.79688 2.16146 5.93099 2.69531 5.13672C3.24219 4.32943 3.89323 3.63281 4.64844 3.04688C5.39062 2.46094 6.23698 2.00521 7.1875 1.67969C8.13802 1.34115 9.20573 1.17188 10.3906 1.17188C11.8099 1.17188 13.0794 1.39323 14.1992 1.83594C15.319 2.26562 16.2826 2.8776 17.0898 3.67188C17.8971 4.47917 18.5417 5.44271 19.0234 6.5625C19.5182 7.68229 19.8438 8.91927 20 10.2734H16.3867C16.2695 9.41406 16.0677 8.61328 15.7812 7.87109C15.4948 7.12891 15.1107 6.47786 14.6289 5.91797C14.1471 5.35807 13.5547 4.92188 12.8516 4.60938C12.1615 4.28385 11.3411 4.12109 10.3906 4.12109C9.53125 4.12109 8.76953 4.26432 8.10547 4.55078C7.45443 4.82422 6.89453 5.20182 6.42578 5.68359C5.94401 6.16536 5.54036 6.72526 5.21484 7.36328C4.90234 8.0013 4.64844 8.67839 4.45312 9.39453C4.25781 10.1107 4.11458 10.8464 4.02344 11.6016C3.94531 12.3438 3.90625 13.0664 3.90625 13.7695V17.7734C3.90625 18.4766 3.94531 19.2057 4.02344 19.9609C4.11458 20.7031 4.25781 21.4323 4.45312 22.1484C4.64844 22.8776 4.90234 23.5612 5.21484 24.1992C5.52734 24.8372 5.92448 25.3971 6.40625 25.8789C6.88802 26.3737 7.45443 26.7643 8.10547 27.0508C8.75651 27.3242 9.51823 27.4609 10.3906 27.4609C11.3411 27.4609 12.1615 27.3112 12.8516 27.0117C13.5547 26.7122 14.1471 26.2891 14.6289 25.7422C15.1107 25.2083 15.4948 24.5768 15.7812 23.8477C16.0677 23.1055 16.2695 22.3047 16.3867 21.4453H20ZM26.1719 0H36.9727V26.875H43.8672V30H26.1719V26.875H33.3594V3.14453H26.1719V0ZM50.1953 8.86719H60.9961V26.875H67.8906V30H50.1953V26.875H57.3828V12.0117H50.1953V8.86719ZM56.9141 3.32031C56.9141 3.00781 56.9596 2.71484 57.0508 2.44141C57.1549 2.16797 57.3112 1.93359 57.5195 1.73828C57.6888 1.56901 57.9036 1.4388 58.1641 1.34766C58.4375 1.24349 58.7435 1.19141 59.082 1.19141C59.4206 1.19141 59.7201 1.24349 59.9805 1.34766C60.2409 1.4388 60.4557 1.56901 60.625 1.73828C60.8333 1.92057 60.9896 2.14844 61.0938 2.42188C61.1979 2.69531 61.25 2.99479 61.25 3.32031C61.25 3.90625 61.0677 4.39453 60.7031 4.78516C60.3385 5.17578 59.7982 5.37109 59.082 5.37109C58.3529 5.37109 57.806 5.17578 57.4414 4.78516C57.0898 4.39453 56.9141 3.90625 56.9141 3.32031ZM82.6562 27.4609C83.3073 27.4609 83.9388 27.3568 84.5508 27.1484C85.1758 26.9401 85.7292 26.6471 86.2109 26.2695C86.6927 25.9049 87.0768 25.4753 87.3633 24.9805C87.6628 24.4727 87.819 23.9258 87.832 23.3398H91.25C91.237 24.2773 90.9896 25.1758 90.5078 26.0352C90.0391 26.8815 89.4076 27.6237 88.6133 28.2617C87.819 28.9128 86.9076 29.4336 85.8789 29.8242C84.8503 30.2018 83.776 30.3906 82.6562 30.3906C81.0547 30.3906 79.6549 30.1042 78.457 29.5312C77.2591 28.9583 76.263 28.1836 75.4688 27.207C74.6615 26.2435 74.056 25.1302 73.6523 23.8672C73.2487 22.5911 73.0469 21.25 73.0469 19.8438V19.0234C73.0469 17.6302 73.2487 16.2956 73.6523 15.0195C74.056 13.7435 74.6615 12.6172 75.4688 11.6406C76.263 10.6771 77.2591 9.90885 78.457 9.33594C79.6549 8.76302 81.0547 8.47656 82.6562 8.47656C83.9062 8.47656 85.0521 8.67839 86.0938 9.08203C87.1484 9.47266 88.0599 10.0065 88.8281 10.6836C89.5833 11.3737 90.1758 12.1875 90.6055 13.125C91.0352 14.0625 91.25 15.0651 91.25 16.1328H87.832C87.819 15.4948 87.6758 14.8958 87.4023 14.3359C87.1419 13.763 86.7839 13.2617 86.3281 12.832C85.8724 12.4023 85.3255 12.0638 84.6875 11.8164C84.0625 11.569 83.3854 11.4453 82.6562 11.4453C81.5365 11.4453 80.5924 11.6732 79.8242 12.1289C79.069 12.5716 78.457 13.151 77.9883 13.8672C77.5195 14.5964 77.181 15.4102 76.9727 16.3086C76.7773 17.207 76.6797 18.112 76.6797 19.0234V19.8438C76.6797 20.7682 76.7773 21.6862 76.9727 22.5977C77.181 23.4961 77.5195 24.3034 77.9883 25.0195C78.444 25.7487 79.0495 26.3411 79.8047 26.7969C80.5729 27.2396 81.5234 27.4609 82.6562 27.4609ZM104.004 20.1367L101.348 22.6953V30H97.7148V0H101.348V18.3594L103.711 15.8203L110.645 8.86719H115.039L106.484 17.6758L116.348 30H111.758L104.004 20.1367ZM154.277 3.75V8.86719H162.324V11.6602H154.277V23.1445C154.277 23.9648 154.382 24.6419 154.59 25.1758C154.798 25.7096 155.085 26.1328 155.449 26.4453C155.814 26.7708 156.23 26.9987 156.699 27.1289C157.181 27.2591 157.689 27.3242 158.223 27.3242C158.613 27.3242 159.017 27.3047 159.434 27.2656C159.85 27.2135 160.26 27.1549 160.664 27.0898C161.055 27.0247 161.419 26.9596 161.758 26.8945C162.109 26.8164 162.396 26.7513 162.617 26.6992L163.125 29.2578C162.826 29.4401 162.461 29.6029 162.031 29.7461C161.602 29.8763 161.133 29.987 160.625 30.0781C160.117 30.1823 159.577 30.2604 159.004 30.3125C158.444 30.3646 157.884 30.3906 157.324 30.3906C156.387 30.3906 155.508 30.2604 154.688 30C153.88 29.7266 153.177 29.2969 152.578 28.7109C151.979 28.138 151.504 27.3958 151.152 26.4844C150.814 25.5599 150.645 24.4466 150.645 23.1445V11.6602H145.098V8.86719H150.645V3.75H154.277ZM168.73 19.2383C168.73 17.7148 168.952 16.3021 169.395 15C169.837 13.6849 170.475 12.5456 171.309 11.582C172.129 10.6185 173.132 9.86328 174.316 9.31641C175.501 8.75651 176.836 8.47656 178.32 8.47656C179.818 8.47656 181.159 8.75651 182.344 9.31641C183.542 9.86328 184.557 10.6185 185.391 11.582C186.211 12.5456 186.842 13.6849 187.285 15C187.728 16.3021 187.949 17.7148 187.949 19.2383V19.668C187.949 21.1914 187.728 22.6042 187.285 23.9062C186.842 25.2083 186.211 26.3411 185.391 27.3047C184.557 28.2682 183.548 29.0234 182.363 29.5703C181.178 30.1172 179.844 30.3906 178.359 30.3906C176.862 30.3906 175.514 30.1172 174.316 29.5703C173.132 29.0234 172.129 28.2682 171.309 27.3047C170.475 26.3411 169.837 25.2083 169.395 23.9062C168.952 22.6042 168.73 21.1914 168.73 19.668V19.2383ZM172.344 19.668C172.344 20.7096 172.467 21.7057 172.715 22.6562C172.962 23.5938 173.34 24.4206 173.848 25.1367C174.342 25.8529 174.967 26.4193 175.723 26.8359C176.478 27.2526 177.357 27.4609 178.359 27.4609C179.349 27.4609 180.215 27.2526 180.957 26.8359C181.712 26.4193 182.344 25.8529 182.852 25.1367C183.346 24.4206 183.717 23.5938 183.965 22.6562C184.212 21.7057 184.336 20.7096 184.336 19.668V19.2383C184.336 18.2096 184.206 17.2266 183.945 16.2891C183.698 15.3385 183.327 14.5052 182.832 13.7891C182.324 13.0729 181.693 12.5065 180.938 12.0898C180.195 11.6602 179.323 11.4453 178.32 11.4453C177.318 11.4453 176.445 11.6602 175.703 12.0898C174.961 12.5065 174.342 13.0729 173.848 13.7891C173.34 14.5052 172.962 15.3385 172.715 16.2891C172.467 17.2266 172.344 18.2096 172.344 19.2383V19.668ZM226.797 27.4609C227.448 27.4609 228.079 27.3568 228.691 27.1484C229.316 26.9401 229.87 26.6471 230.352 26.2695C230.833 25.9049 231.217 25.4753 231.504 24.9805C231.803 24.4727 231.96 23.9258 231.973 23.3398H235.391C235.378 24.2773 235.13 25.1758 234.648 26.0352C234.18 26.8815 233.548 27.6237 232.754 28.2617C231.96 28.9128 231.048 29.4336 230.02 29.8242C228.991 30.2018 227.917 30.3906 226.797 30.3906C225.195 30.3906 223.796 30.1042 222.598 29.5312C221.4 28.9583 220.404 28.1836 219.609 27.207C218.802 26.2435 218.197 25.1302 217.793 23.8672C217.389 22.5911 217.188 21.25 217.188 19.8438V19.0234C217.188 17.6302 217.389 16.2956 217.793 15.0195C218.197 13.7435 218.802 12.6172 219.609 11.6406C220.404 10.6771 221.4 9.90885 222.598 9.33594C223.796 8.76302 225.195 8.47656 226.797 8.47656C228.047 8.47656 229.193 8.67839 230.234 9.08203C231.289 9.47266 232.201 10.0065 232.969 10.6836C233.724 11.3737 234.316 12.1875 234.746 13.125C235.176 14.0625 235.391 15.0651 235.391 16.1328H231.973C231.96 15.4948 231.816 14.8958 231.543 14.3359C231.283 13.763 230.924 13.2617 230.469 12.832C230.013 12.4023 229.466 12.0638 228.828 11.8164C228.203 11.569 227.526 11.4453 226.797 11.4453C225.677 11.4453 224.733 11.6732 223.965 12.1289C223.21 12.5716 222.598 13.151 222.129 13.8672C221.66 14.5964 221.322 15.4102 221.113 16.3086C220.918 17.207 220.82 18.112 220.82 19.0234V19.8438C220.82 20.7682 220.918 21.6862 221.113 22.5977C221.322 23.4961 221.66 24.3034 222.129 25.0195C222.585 25.7487 223.19 26.3411 223.945 26.7969C224.714 27.2396 225.664 27.4609 226.797 27.4609ZM240.801 19.2383C240.801 17.7148 241.022 16.3021 241.465 15C241.908 13.6849 242.546 12.5456 243.379 11.582C244.199 10.6185 245.202 9.86328 246.387 9.31641C247.572 8.75651 248.906 8.47656 250.391 8.47656C251.888 8.47656 253.229 8.75651 254.414 9.31641C255.612 9.86328 256.628 10.6185 257.461 11.582C258.281 12.5456 258.913 13.6849 259.355 15C259.798 16.3021 260.02 17.7148 260.02 19.2383V19.668C260.02 21.1914 259.798 22.6042 259.355 23.9062C258.913 25.2083 258.281 26.3411 257.461 27.3047C256.628 28.2682 255.618 29.0234 254.434 29.5703C253.249 30.1172 251.914 30.3906 250.43 30.3906C248.932 30.3906 247.585 30.1172 246.387 29.5703C245.202 29.0234 244.199 28.2682 243.379 27.3047C242.546 26.3411 241.908 25.2083 241.465 23.9062C241.022 22.6042 240.801 21.1914 240.801 19.668V19.2383ZM244.414 19.668C244.414 20.7096 244.538 21.7057 244.785 22.6562C245.033 23.5938 245.41 24.4206 245.918 25.1367C246.413 25.8529 247.038 26.4193 247.793 26.8359C248.548 27.2526 249.427 27.4609 250.43 27.4609C251.419 27.4609 252.285 27.2526 253.027 26.8359C253.783 26.4193 254.414 25.8529 254.922 25.1367C255.417 24.4206 255.788 23.5938 256.035 22.6562C256.283 21.7057 256.406 20.7096 256.406 19.668V19.2383C256.406 18.2096 256.276 17.2266 256.016 16.2891C255.768 15.3385 255.397 14.5052 254.902 13.7891C254.395 13.0729 253.763 12.5065 253.008 12.0898C252.266 11.6602 251.393 11.4453 250.391 11.4453C249.388 11.4453 248.516 11.6602 247.773 12.0898C247.031 12.5065 246.413 13.0729 245.918 13.7891C245.41 14.5052 245.033 15.3385 244.785 16.2891C244.538 17.2266 244.414 18.2096 244.414 19.2383V19.668ZM265.82 38.125V8.86719H269.121L269.297 11.1719C269.583 10.8073 269.896 10.4818 270.234 10.1953C270.573 9.89583 270.938 9.64193 271.328 9.43359C271.875 9.12109 272.48 8.88672 273.145 8.73047C273.822 8.5612 274.544 8.47656 275.312 8.47656C276.667 8.47656 277.865 8.74349 278.906 9.27734C279.948 9.8112 280.82 10.5534 281.523 11.5039C282.227 12.4544 282.76 13.5938 283.125 14.9219C283.49 16.237 283.672 17.6823 283.672 19.2578V19.668C283.672 21.1784 283.49 22.5911 283.125 23.9062C282.76 25.2083 282.227 26.3411 281.523 27.3047C280.82 28.2682 279.948 29.0234 278.906 29.5703C277.878 30.1172 276.699 30.3906 275.371 30.3906C274.564 30.3906 273.809 30.306 273.105 30.1367C272.415 29.9674 271.79 29.7266 271.23 29.4141C270.892 29.2188 270.573 29.0039 270.273 28.7695C269.974 28.5221 269.694 28.2552 269.434 27.9688V38.125H265.82ZM280.059 19.2578C280.059 18.2292 279.941 17.2526 279.707 16.3281C279.486 15.3906 279.141 14.5638 278.672 13.8477C278.19 13.1445 277.585 12.5846 276.855 12.168C276.126 11.7513 275.254 11.543 274.238 11.543C273.678 11.543 273.158 11.6081 272.676 11.7383C272.207 11.8685 271.784 12.0573 271.406 12.3047C270.99 12.5521 270.618 12.8581 270.293 13.2227C269.967 13.5872 269.681 13.9909 269.434 14.4336V24.6094C269.655 25 269.909 25.3646 270.195 25.7031C270.482 26.0417 270.807 26.3281 271.172 26.5625C271.589 26.8359 272.051 27.0508 272.559 27.207C273.079 27.3633 273.652 27.4414 274.277 27.4414C275.28 27.4414 276.146 27.2331 276.875 26.8164C277.604 26.3867 278.203 25.8138 278.672 25.0977C279.141 24.3815 279.486 23.5547 279.707 22.6172C279.941 21.6797 280.059 20.6966 280.059 19.668V19.2578ZM291.562 38.5352C291.224 38.5352 290.827 38.4961 290.371 38.418C289.915 38.3398 289.57 38.2747 289.336 38.2227L289.922 35.2734C290.247 35.2995 290.566 35.319 290.879 35.332C291.204 35.3581 291.458 35.3711 291.641 35.3711C292.135 35.3711 292.585 35.2344 292.988 34.9609C293.405 34.6875 293.776 34.362 294.102 33.9844C294.414 33.6068 294.681 33.2161 294.902 32.8125C295.137 32.4089 295.319 32.0768 295.449 31.8164L296.895 29.0039L287.793 8.86719H291.836L297.637 22.5L298.574 25.0586L299.57 22.5781L305.02 8.86719H309.062L298.34 33.2617C298.092 33.8086 297.773 34.388 297.383 35C297.005 35.612 296.543 36.1784 295.996 36.6992C295.449 37.2201 294.811 37.6562 294.082 38.0078C293.353 38.3594 292.513 38.5352 291.562 38.5352ZM355.762 1.5625L355.801 20.8203C355.801 22.1484 355.566 23.3919 355.098 24.5508C354.629 25.7096 353.984 26.7188 353.164 27.5781C352.344 28.4505 351.367 29.1406 350.234 29.6484C349.102 30.1432 347.858 30.3906 346.504 30.3906C345.124 30.3906 343.867 30.1432 342.734 29.6484C341.602 29.1536 340.632 28.4701 339.824 27.5977C339.017 26.7383 338.385 25.7292 337.93 24.5703C337.474 23.3984 337.24 22.1484 337.227 20.8203L337.266 1.5625H340.703L340.781 20.8203C340.794 21.6667 340.924 22.4805 341.172 23.2617C341.432 24.043 341.803 24.7331 342.285 25.332C342.754 25.931 343.34 26.4128 344.043 26.7773C344.759 27.1419 345.579 27.3242 346.504 27.3242C347.428 27.3242 348.242 27.1484 348.945 26.7969C349.648 26.4323 350.241 25.944 350.723 25.332C351.191 24.7331 351.549 24.043 351.797 23.2617C352.044 22.4805 352.181 21.6667 352.207 20.8203L352.266 1.5625H355.762ZM371.348 18.3984H365.664V30H362.07V1.5625H370.41C371.738 1.58854 372.988 1.77734 374.16 2.12891C375.332 2.48047 376.361 3.00781 377.246 3.71094C378.118 4.41406 378.802 5.29948 379.297 6.36719C379.805 7.42188 380.059 8.66536 380.059 10.0977C380.059 11.0221 379.922 11.8685 379.648 12.6367C379.388 13.4049 379.023 14.1016 378.555 14.7266C378.086 15.3516 377.526 15.9049 376.875 16.3867C376.224 16.8685 375.508 17.2786 374.727 17.6172L380.762 29.7656L380.742 30H376.934L371.348 18.3984ZM365.664 15.4297H370.508C371.315 15.4167 372.077 15.293 372.793 15.0586C373.509 14.8112 374.141 14.4596 374.688 14.0039C375.221 13.5482 375.645 12.9948 375.957 12.3438C376.27 11.6797 376.426 10.918 376.426 10.0586C376.426 9.14714 376.276 8.35286 375.977 7.67578C375.677 6.98568 375.26 6.40625 374.727 5.9375C374.193 5.48177 373.555 5.13672 372.812 4.90234C372.083 4.66797 371.283 4.54427 370.41 4.53125H365.664V15.4297ZM390.039 26.9336H403.945V30H386.426V1.5625H390.039V26.9336ZM447.891 30C447.747 29.7266 447.63 29.388 447.539 28.9844C447.461 28.5677 447.402 28.138 447.363 27.6953C446.999 28.0599 446.589 28.4049 446.133 28.7305C445.69 29.056 445.202 29.3424 444.668 29.5898C444.121 29.8372 443.542 30.0326 442.93 30.1758C442.318 30.319 441.667 30.3906 440.977 30.3906C439.857 30.3906 438.841 30.2279 437.93 29.9023C437.031 29.5768 436.27 29.1341 435.645 28.5742C435.007 28.0273 434.512 27.3763 434.16 26.6211C433.822 25.8529 433.652 25.026 433.652 24.1406C433.652 22.9818 433.88 21.9661 434.336 21.0938C434.805 20.2214 435.462 19.4922 436.309 18.9062C437.155 18.3333 438.171 17.9036 439.355 17.6172C440.553 17.3307 441.888 17.1875 443.359 17.1875H447.305V15.5273C447.305 14.8893 447.188 14.3164 446.953 13.8086C446.719 13.3008 446.387 12.8646 445.957 12.5C445.527 12.1484 445 11.875 444.375 11.6797C443.763 11.4844 443.073 11.3867 442.305 11.3867C441.589 11.3867 440.944 11.4779 440.371 11.6602C439.811 11.8424 439.336 12.0833 438.945 12.3828C438.555 12.6823 438.249 13.0404 438.027 13.457C437.819 13.8607 437.715 14.2839 437.715 14.7266H434.082C434.095 13.9583 434.29 13.2031 434.668 12.4609C435.059 11.7188 435.618 11.0482 436.348 10.4492C437.064 9.86328 437.936 9.38802 438.965 9.02344C440.007 8.65885 441.185 8.47656 442.5 8.47656C443.698 8.47656 444.811 8.6263 445.84 8.92578C446.868 9.21224 447.76 9.64844 448.516 10.2344C449.258 10.8333 449.844 11.5755 450.273 12.4609C450.703 13.3464 450.918 14.3815 450.918 15.5664V25.3906C450.918 26.0938 450.983 26.8424 451.113 27.6367C451.243 28.418 451.426 29.1016 451.66 29.6875V30H447.891ZM441.504 27.2461C442.207 27.2461 442.865 27.1549 443.477 26.9727C444.089 26.7904 444.648 26.5495 445.156 26.25C445.651 25.9505 446.081 25.612 446.445 25.2344C446.81 24.8438 447.096 24.4401 447.305 24.0234V19.7461H443.945C442.695 19.7461 441.602 19.8568 440.664 20.0781C439.74 20.2865 439.004 20.612 438.457 21.0547C438.066 21.3672 437.767 21.7383 437.559 22.168C437.363 22.5977 437.266 23.0859 437.266 23.6328C437.266 24.1536 437.35 24.6354 437.52 25.0781C437.702 25.5208 437.969 25.8984 438.32 26.2109C438.672 26.5365 439.115 26.7904 439.648 26.9727C440.182 27.1549 440.801 27.2461 441.504 27.2461ZM458.027 30V8.86719H461.27L461.523 11.9922C461.836 11.5495 462.174 11.1458 462.539 10.7812C462.917 10.4036 463.314 10.0781 463.73 9.80469C464.355 9.38802 465.033 9.06901 465.762 8.84766C466.504 8.61328 467.285 8.48958 468.105 8.47656C469.212 8.47656 470.215 8.63281 471.113 8.94531C472.025 9.25781 472.799 9.74609 473.438 10.4102C474.076 11.0742 474.564 11.9206 474.902 12.9492C475.254 13.9648 475.43 15.1758 475.43 16.582V30H471.816V16.6602C471.816 15.7227 471.712 14.9284 471.504 14.2773C471.296 13.6263 470.99 13.099 470.586 12.6953C470.169 12.2917 469.661 11.9987 469.062 11.8164C468.477 11.6341 467.799 11.543 467.031 11.543C466.367 11.543 465.749 11.6406 465.176 11.8359C464.603 12.0182 464.076 12.2721 463.594 12.5977C463.203 12.8841 462.839 13.2161 462.5 13.5938C462.174 13.9714 461.888 14.388 461.641 14.8438V30H458.027ZM481.367 19.2578C481.367 17.6823 481.562 16.237 481.953 14.9219C482.357 13.5938 482.93 12.4544 483.672 11.5039C484.401 10.5534 485.286 9.8112 486.328 9.27734C487.37 8.74349 488.535 8.47656 489.824 8.47656C491.087 8.47656 492.188 8.69141 493.125 9.12109C494.076 9.53776 494.896 10.1497 495.586 10.957V0H499.199V30H495.879L495.723 27.7734C495.02 28.6328 494.18 29.2839 493.203 29.7266C492.227 30.1693 491.087 30.3906 489.785 30.3906C488.509 30.3906 487.35 30.1172 486.309 29.5703C485.28 29.0234 484.401 28.2682 483.672 27.3047C482.943 26.3411 482.376 25.2083 481.973 23.9062C481.569 22.5911 481.367 21.1784 481.367 19.668V19.2578ZM484.98 19.668C484.98 20.6966 485.091 21.6732 485.312 22.5977C485.534 23.5221 485.879 24.3359 486.348 25.0391C486.803 25.7422 487.389 26.3021 488.105 26.7188C488.822 27.1224 489.681 27.3242 490.684 27.3242C491.895 27.3242 492.897 27.0508 493.691 26.5039C494.486 25.957 495.117 25.2214 495.586 24.2969V14.4922C495.117 13.6328 494.486 12.9297 493.691 12.3828C492.897 11.8229 491.908 11.543 490.723 11.543C489.707 11.543 488.835 11.7513 488.105 12.168C487.389 12.5846 486.803 13.1445 486.348 13.8477C485.879 14.5638 485.534 15.3906 485.312 16.3281C485.091 17.2526 484.98 18.2292 484.98 19.2578V19.668ZM544.141 24.3945C544.141 23.9648 544.056 23.5807 543.887 23.2422C543.717 22.8906 543.431 22.5716 543.027 22.2852C542.624 21.9987 542.09 21.7383 541.426 21.5039C540.762 21.2565 539.935 21.0352 538.945 20.8398C537.734 20.5924 536.628 20.293 535.625 19.9414C534.635 19.5898 533.789 19.1667 533.086 18.6719C532.37 18.1901 531.816 17.6237 531.426 16.9727C531.035 16.3086 530.84 15.5404 530.84 14.668C530.84 13.8086 531.042 13.0078 531.445 12.2656C531.849 11.5104 532.415 10.8529 533.145 10.293C533.874 9.73307 534.74 9.29036 535.742 8.96484C536.758 8.63932 537.871 8.47656 539.082 8.47656C540.384 8.47656 541.556 8.64583 542.598 8.98438C543.639 9.32292 544.525 9.79167 545.254 10.3906C545.983 10.9896 546.543 11.6927 546.934 12.5C547.337 13.2943 547.539 14.1536 547.539 15.0781H543.926C543.926 14.6224 543.809 14.1797 543.574 13.75C543.34 13.3073 543.014 12.9167 542.598 12.5781C542.181 12.2396 541.673 11.9661 541.074 11.7578C540.488 11.5495 539.824 11.4453 539.082 11.4453C538.314 11.4453 537.637 11.5299 537.051 11.6992C536.478 11.8685 536.003 12.0964 535.625 12.3828C535.234 12.6693 534.941 13.0013 534.746 13.3789C534.551 13.7565 534.453 14.1471 534.453 14.5508C534.453 14.9674 534.531 15.3385 534.688 15.6641C534.844 15.9896 535.117 16.2826 535.508 16.543C535.885 16.8034 536.393 17.0378 537.031 17.2461C537.682 17.4544 538.503 17.6562 539.492 17.8516C540.794 18.125 541.96 18.444 542.988 18.8086C544.017 19.1602 544.883 19.5833 545.586 20.0781C546.289 20.5859 546.823 21.1719 547.188 21.8359C547.565 22.5 547.754 23.2682 547.754 24.1406C547.754 25.0781 547.539 25.931 547.109 26.6992C546.693 27.4674 546.107 28.125 545.352 28.6719C544.596 29.2188 543.691 29.6419 542.637 29.9414C541.582 30.2409 540.43 30.3906 539.18 30.3906C537.747 30.3906 536.471 30.2018 535.352 29.8242C534.232 29.4336 533.288 28.9193 532.52 28.2812C531.738 27.6562 531.139 26.9271 530.723 26.0938C530.319 25.2604 530.117 24.3945 530.117 23.4961H533.73C533.783 24.2383 533.978 24.8633 534.316 25.3711C534.668 25.8789 535.104 26.2891 535.625 26.6016C536.133 26.9141 536.699 27.1354 537.324 27.2656C537.949 27.3958 538.568 27.4609 539.18 27.4609C540.143 27.4609 540.983 27.3503 541.699 27.1289C542.415 26.8945 542.975 26.5755 543.379 26.1719C543.626 25.9245 543.815 25.651 543.945 25.3516C544.076 25.0521 544.141 24.7331 544.141 24.3945ZM563.457 30.3906C561.973 30.3906 560.605 30.1367 559.355 29.6289C558.118 29.1211 557.057 28.4115 556.172 27.5C555.286 26.5885 554.596 25.5078 554.102 24.2578C553.607 23.0078 553.359 21.6471 553.359 20.1758V19.3555C553.359 17.6497 553.633 16.1263 554.18 14.7852C554.727 13.431 555.456 12.2852 556.367 11.3477C557.266 10.4232 558.288 9.71354 559.434 9.21875C560.592 8.72396 561.777 8.47656 562.988 8.47656C564.512 8.47656 565.84 8.74349 566.973 9.27734C568.118 9.79818 569.069 10.5208 569.824 11.4453C570.579 12.3828 571.139 13.4831 571.504 14.7461C571.882 16.0091 572.07 17.3763 572.07 18.8477V20.4688H556.973V20.6055C557.064 21.6341 557.266 22.5391 557.578 23.3203C557.904 24.1016 558.346 24.7917 558.906 25.3906C559.479 26.0286 560.169 26.5299 560.977 26.8945C561.784 27.2591 562.676 27.4414 563.652 27.4414C564.941 27.4414 566.087 27.181 567.09 26.6602C568.092 26.1393 568.926 25.4492 569.59 24.5898L571.797 26.3086C571.094 27.3763 570.039 28.3268 568.633 29.1602C567.24 29.9805 565.514 30.3906 563.457 30.3906ZM562.988 11.4453C562.259 11.4453 561.569 11.582 560.918 11.8555C560.267 12.1159 559.681 12.5 559.16 13.0078C558.639 13.5286 558.197 14.1667 557.832 14.9219C557.48 15.6641 557.233 16.5234 557.09 17.5H568.457V17.3242C568.457 16.6732 568.333 15.9766 568.086 15.2344C567.839 14.4792 567.493 13.8281 567.051 13.2812C566.608 12.7344 566.048 12.2917 565.371 11.9531C564.707 11.6146 563.913 11.4453 562.988 11.4453ZM578.145 30V8.86719H581.387L581.641 11.9922C581.953 11.5495 582.292 11.1458 582.656 10.7812C583.034 10.4036 583.431 10.0781 583.848 9.80469C584.473 9.38802 585.15 9.06901 585.879 8.84766C586.621 8.61328 587.402 8.48958 588.223 8.47656C589.329 8.47656 590.332 8.63281 591.23 8.94531C592.142 9.25781 592.917 9.74609 593.555 10.4102C594.193 11.0742 594.681 11.9206 595.02 12.9492C595.371 13.9648 595.547 15.1758 595.547 16.582V30H591.934V16.6602C591.934 15.7227 591.829 14.9284 591.621 14.2773C591.413 13.6263 591.107 13.099 590.703 12.6953C590.286 12.2917 589.779 11.9987 589.18 11.8164C588.594 11.6341 587.917 11.543 587.148 11.543C586.484 11.543 585.866 11.6406 585.293 11.8359C584.72 12.0182 584.193 12.2721 583.711 12.5977C583.32 12.8841 582.956 13.2161 582.617 13.5938C582.292 13.9714 582.005 14.388 581.758 14.8438V30H578.145ZM601.484 19.2578C601.484 17.6823 601.68 16.237 602.07 14.9219C602.474 13.5938 603.047 12.4544 603.789 11.5039C604.518 10.5534 605.404 9.8112 606.445 9.27734C607.487 8.74349 608.652 8.47656 609.941 8.47656C611.204 8.47656 612.305 8.69141 613.242 9.12109C614.193 9.53776 615.013 10.1497 615.703 10.957V0H619.316V30H615.996L615.84 27.7734C615.137 28.6328 614.297 29.2839 613.32 29.7266C612.344 30.1693 611.204 30.3906 609.902 30.3906C608.626 30.3906 607.467 30.1172 606.426 29.5703C605.397 29.0234 604.518 28.2682 603.789 27.3047C603.06 26.3411 602.493 25.2083 602.09 23.9062C601.686 22.5911 601.484 21.1784 601.484 19.668V19.2578ZM605.098 19.668C605.098 20.6966 605.208 21.6732 605.43 22.5977C605.651 23.5221 605.996 24.3359 606.465 25.0391C606.921 25.7422 607.507 26.3021 608.223 26.7188C608.939 27.1224 609.798 27.3242 610.801 27.3242C612.012 27.3242 613.014 27.0508 613.809 26.5039C614.603 25.957 615.234 25.2214 615.703 24.2969V14.4922C615.234 13.6328 614.603 12.9297 613.809 12.3828C613.014 11.8229 612.025 11.543 610.84 11.543C609.824 11.543 608.952 11.7513 608.223 12.168C607.507 12.5846 606.921 13.1445 606.465 13.8477C605.996 14.5638 605.651 15.3906 605.43 16.3281C605.208 17.2526 605.098 18.2292 605.098 19.2578V19.668ZM15.293 91.5352C14.9544 91.5352 14.5573 91.4961 14.1016 91.418C13.6458 91.3398 13.3008 91.2747 13.0664 91.2227L13.6523 88.2734C13.9779 88.2995 14.2969 88.319 14.6094 88.332C14.9349 88.3581 15.1888 88.3711 15.3711 88.3711C15.8659 88.3711 16.3151 88.2344 16.7188 87.9609C17.1354 87.6875 17.5065 87.362 17.832 86.9844C18.1445 86.6068 18.4115 86.2161 18.6328 85.8125C18.8672 85.4089 19.0495 85.0768 19.1797 84.8164L20.625 82.0039L11.5234 61.8672H15.5664L21.3672 75.5L22.3047 78.0586L23.3008 75.5781L28.75 61.8672H32.793L22.0703 86.2617C21.8229 86.8086 21.5039 87.388 21.1133 88C20.7357 88.612 20.2734 89.1784 19.7266 89.6992C19.1797 90.2201 18.5417 90.6562 17.8125 91.0078C17.0833 91.3594 16.2435 91.5352 15.293 91.5352ZM36.6016 72.2383C36.6016 70.7148 36.8229 69.3021 37.2656 68C37.7083 66.6849 38.3464 65.5456 39.1797 64.582C40 63.6185 41.0026 62.8633 42.1875 62.3164C43.3724 61.7565 44.707 61.4766 46.1914 61.4766C47.6888 61.4766 49.0299 61.7565 50.2148 62.3164C51.4128 62.8633 52.4284 63.6185 53.2617 64.582C54.082 65.5456 54.7135 66.6849 55.1562 68C55.599 69.3021 55.8203 70.7148 55.8203 72.2383V72.668C55.8203 74.1914 55.599 75.6042 55.1562 76.9062C54.7135 78.2083 54.082 79.3411 53.2617 80.3047C52.4284 81.2682 51.4193 82.0234 50.2344 82.5703C49.0495 83.1172 47.7148 83.3906 46.2305 83.3906C44.7331 83.3906 43.3854 83.1172 42.1875 82.5703C41.0026 82.0234 40 81.2682 39.1797 80.3047C38.3464 79.3411 37.7083 78.2083 37.2656 76.9062C36.8229 75.6042 36.6016 74.1914 36.6016 72.668V72.2383ZM40.2148 72.668C40.2148 73.7096 40.3385 74.7057 40.5859 75.6562C40.8333 76.5938 41.2109 77.4206 41.7188 78.1367C42.2135 78.8529 42.8385 79.4193 43.5938 79.8359C44.349 80.2526 45.2279 80.4609 46.2305 80.4609C47.2201 80.4609 48.0859 80.2526 48.8281 79.8359C49.5833 79.4193 50.2148 78.8529 50.7227 78.1367C51.2174 77.4206 51.5885 76.5938 51.8359 75.6562C52.0833 74.7057 52.207 73.7096 52.207 72.668V72.2383C52.207 71.2096 52.0768 70.2266 51.8164 69.2891C51.569 68.3385 51.1979 67.5052 50.7031 66.7891C50.1953 66.0729 49.5638 65.5065 48.8086 65.0898C48.0664 64.6602 47.194 64.4453 46.1914 64.4453C45.1888 64.4453 44.3164 64.6602 43.5742 65.0898C42.832 65.5065 42.2135 66.0729 41.7188 66.7891C41.2109 67.5052 40.8333 68.3385 40.5859 69.2891C40.3385 70.2266 40.2148 71.2096 40.2148 72.2383V72.668ZM75.5664 83L75.3516 80.0898C74.6484 81.1315 73.7695 81.9453 72.7148 82.5312C71.6602 83.1042 70.4427 83.3906 69.0625 83.3906C67.9557 83.3906 66.9531 83.2214 66.0547 82.8828C65.1562 82.5312 64.388 81.9909 63.75 81.2617C63.112 80.5326 62.6172 79.6081 62.2656 78.4883C61.9271 77.3555 61.7578 76.0013 61.7578 74.4258V61.8672H65.3711V74.4648C65.3711 75.6107 65.4622 76.5612 65.6445 77.3164C65.8268 78.0716 66.1003 78.6706 66.4648 79.1133C66.8294 79.569 67.2721 79.888 67.793 80.0703C68.3268 80.2526 68.9388 80.3438 69.6289 80.3438C70.4362 80.3438 71.1589 80.2526 71.7969 80.0703C72.4349 79.875 72.9883 79.6081 73.457 79.2695C73.8477 78.9961 74.1862 78.6706 74.4727 78.293C74.7721 77.9023 75.0195 77.4792 75.2148 77.0234V61.8672H78.8477V83H75.5664ZM99.5117 61.4766C100.176 61.4766 100.866 61.5221 101.582 61.6133C102.311 61.7044 102.858 61.8281 103.223 61.9844L102.734 65.5195C102.031 65.3633 101.361 65.2526 100.723 65.1875C100.098 65.1094 99.4401 65.0703 98.75 65.0703C97.8646 65.0703 97.0638 65.181 96.3477 65.4023C95.6315 65.6107 95.0065 65.9232 94.4727 66.3398C93.9909 66.7044 93.5677 67.1536 93.2031 67.6875C92.8516 68.2083 92.5586 68.7943 92.3242 69.4453V83H88.6914V61.8672H92.1289L92.2852 64.6992L92.3047 65.2266C93.1641 64.0677 94.1927 63.1562 95.3906 62.4922C96.6016 61.8151 97.9753 61.4766 99.5117 61.4766ZM134.277 53H145.078V79.875H151.973V83H134.277V79.875H141.465V56.1445H134.277V53ZM156.719 72.2383C156.719 70.7148 156.94 69.3021 157.383 68C157.826 66.6849 158.464 65.5456 159.297 64.582C160.117 63.6185 161.12 62.8633 162.305 62.3164C163.49 61.7565 164.824 61.4766 166.309 61.4766C167.806 61.4766 169.147 61.7565 170.332 62.3164C171.53 62.8633 172.546 63.6185 173.379 64.582C174.199 65.5456 174.831 66.6849 175.273 68C175.716 69.3021 175.938 70.7148 175.938 72.2383V72.668C175.938 74.1914 175.716 75.6042 175.273 76.9062C174.831 78.2083 174.199 79.3411 173.379 80.3047C172.546 81.2682 171.536 82.0234 170.352 82.5703C169.167 83.1172 167.832 83.3906 166.348 83.3906C164.85 83.3906 163.503 83.1172 162.305 82.5703C161.12 82.0234 160.117 81.2682 159.297 80.3047C158.464 79.3411 157.826 78.2083 157.383 76.9062C156.94 75.6042 156.719 74.1914 156.719 72.668V72.2383ZM160.332 72.668C160.332 73.7096 160.456 74.7057 160.703 75.6562C160.951 76.5938 161.328 77.4206 161.836 78.1367C162.331 78.8529 162.956 79.4193 163.711 79.8359C164.466 80.2526 165.345 80.4609 166.348 80.4609C167.337 80.4609 168.203 80.2526 168.945 79.8359C169.701 79.4193 170.332 78.8529 170.84 78.1367C171.335 77.4206 171.706 76.5938 171.953 75.6562C172.201 74.7057 172.324 73.7096 172.324 72.668V72.2383C172.324 71.2096 172.194 70.2266 171.934 69.2891C171.686 68.3385 171.315 67.5052 170.82 66.7891C170.312 66.0729 169.681 65.5065 168.926 65.0898C168.184 64.6602 167.311 64.4453 166.309 64.4453C165.306 64.4453 164.434 64.6602 163.691 65.0898C162.949 65.5065 162.331 66.0729 161.836 66.7891C161.328 67.5052 160.951 68.3385 160.703 69.2891C160.456 70.2266 160.332 71.2096 160.332 72.2383V72.668ZM188.965 83L180.273 61.8672H183.984L190.039 77.8047L190.371 79.1133L190.723 77.8047L196.641 61.8672H200.332L191.719 83H188.965ZM215.117 83.3906C213.633 83.3906 212.266 83.1367 211.016 82.6289C209.779 82.1211 208.717 81.4115 207.832 80.5C206.947 79.5885 206.257 78.5078 205.762 77.2578C205.267 76.0078 205.02 74.6471 205.02 73.1758V72.3555C205.02 70.6497 205.293 69.1263 205.84 67.7852C206.387 66.431 207.116 65.2852 208.027 64.3477C208.926 63.4232 209.948 62.7135 211.094 62.2188C212.253 61.724 213.438 61.4766 214.648 61.4766C216.172 61.4766 217.5 61.7435 218.633 62.2773C219.779 62.7982 220.729 63.5208 221.484 64.4453C222.24 65.3828 222.799 66.4831 223.164 67.7461C223.542 69.0091 223.73 70.3763 223.73 71.8477V73.4688H208.633V73.6055C208.724 74.6341 208.926 75.5391 209.238 76.3203C209.564 77.1016 210.007 77.7917 210.566 78.3906C211.139 79.0286 211.829 79.5299 212.637 79.8945C213.444 80.2591 214.336 80.4414 215.312 80.4414C216.602 80.4414 217.747 80.181 218.75 79.6602C219.753 79.1393 220.586 78.4492 221.25 77.5898L223.457 79.3086C222.754 80.3763 221.699 81.3268 220.293 82.1602C218.9 82.9805 217.174 83.3906 215.117 83.3906ZM214.648 64.4453C213.919 64.4453 213.229 64.582 212.578 64.8555C211.927 65.1159 211.341 65.5 210.82 66.0078C210.299 66.5286 209.857 67.1667 209.492 67.9219C209.141 68.6641 208.893 69.5234 208.75 70.5H220.117V70.3242C220.117 69.6732 219.993 68.9766 219.746 68.2344C219.499 67.4792 219.154 66.8281 218.711 66.2812C218.268 65.7344 217.708 65.2917 217.031 64.9531C216.367 64.6146 215.573 64.4453 214.648 64.4453ZM271.738 72.668C271.738 73.5924 271.667 74.4844 271.523 75.3438C271.393 76.1901 271.198 76.9844 270.938 77.7266C270.586 78.7031 270.124 79.582 269.551 80.3633C268.991 81.1315 268.314 81.7695 267.52 82.2773C266.947 82.6289 266.315 82.9023 265.625 83.0977C264.948 83.293 264.212 83.3906 263.418 83.3906C262.507 83.3906 261.673 83.2799 260.918 83.0586C260.176 82.8372 259.505 82.5182 258.906 82.1016C258.62 81.8932 258.346 81.6654 258.086 81.418C257.826 81.1706 257.578 80.8971 257.344 80.5977L257.168 83H253.848V53H257.461V64.1328C257.76 63.7552 258.092 63.4167 258.457 63.1172C258.822 62.8047 259.212 62.5378 259.629 62.3164C260.15 62.043 260.723 61.8346 261.348 61.6914C261.973 61.5482 262.65 61.4766 263.379 61.4766C264.29 61.4766 265.13 61.6003 265.898 61.8477C266.667 62.0951 267.363 62.4401 267.988 62.8828C268.548 63.2995 269.049 63.8073 269.492 64.4062C269.935 64.9922 270.326 65.6497 270.664 66.3789C271.016 67.1992 271.283 68.1107 271.465 69.1133C271.647 70.1029 271.738 71.151 271.738 72.2578V72.668ZM268.125 72.2578C268.125 71.5938 268.079 70.9492 267.988 70.3242C267.91 69.6862 267.786 69.0872 267.617 68.5273C267.383 67.8372 267.077 67.2057 266.699 66.6328C266.322 66.0599 265.859 65.6107 265.312 65.2852C264.935 65.0508 264.512 64.8685 264.043 64.7383C263.574 64.6081 263.053 64.543 262.48 64.543C261.855 64.543 261.283 64.6276 260.762 64.7969C260.241 64.9531 259.779 65.1745 259.375 65.4609C258.958 65.7604 258.587 66.112 258.262 66.5156C257.949 66.9062 257.682 67.3359 257.461 67.8047V77.043C257.695 77.5117 257.969 77.9479 258.281 78.3516C258.607 78.7422 258.978 79.0872 259.395 79.3867C259.811 79.6862 260.28 79.9206 260.801 80.0898C261.322 80.2461 261.895 80.3242 262.52 80.3242C263.118 80.3242 263.665 80.2526 264.16 80.1094C264.655 79.9531 265.098 79.7318 265.488 79.4453C266.009 79.0807 266.445 78.6185 266.797 78.0586C267.148 77.4987 267.428 76.8737 267.637 76.1836C267.806 75.6628 267.93 75.1029 268.008 74.5039C268.086 73.9049 268.125 73.293 268.125 72.668V72.2578ZM279.551 91.5352C279.212 91.5352 278.815 91.4961 278.359 91.418C277.904 91.3398 277.559 91.2747 277.324 91.2227L277.91 88.2734C278.236 88.2995 278.555 88.319 278.867 88.332C279.193 88.3581 279.447 88.3711 279.629 88.3711C280.124 88.3711 280.573 88.2344 280.977 87.9609C281.393 87.6875 281.764 87.362 282.09 86.9844C282.402 86.6068 282.669 86.2161 282.891 85.8125C283.125 85.4089 283.307 85.0768 283.438 84.8164L284.883 82.0039L275.781 61.8672H279.824L285.625 75.5L286.562 78.0586L287.559 75.5781L293.008 61.8672H297.051L286.328 86.2617C286.081 86.8086 285.762 87.388 285.371 88C284.993 88.612 284.531 89.1784 283.984 89.6992C283.438 90.2201 282.799 90.6562 282.07 91.0078C281.341 91.3594 280.501 91.5352 279.551 91.5352ZM310.43 56.75V61.8672H318.477V64.6602H310.43V76.1445C310.43 76.9648 310.534 77.6419 310.742 78.1758C310.951 78.7096 311.237 79.1328 311.602 79.4453C311.966 79.7708 312.383 79.9987 312.852 80.1289C313.333 80.2591 313.841 80.3242 314.375 80.3242C314.766 80.3242 315.169 80.3047 315.586 80.2656C316.003 80.2135 316.413 80.1549 316.816 80.0898C317.207 80.0247 317.572 79.9596 317.91 79.8945C318.262 79.8164 318.548 79.7513 318.77 79.6992L319.277 82.2578C318.978 82.4401 318.613 82.6029 318.184 82.7461C317.754 82.8763 317.285 82.987 316.777 83.0781C316.27 83.1823 315.729 83.2604 315.156 83.3125C314.596 83.3646 314.036 83.3906 313.477 83.3906C312.539 83.3906 311.66 83.2604 310.84 83C310.033 82.7266 309.329 82.2969 308.73 81.7109C308.132 81.138 307.656 80.3958 307.305 79.4844C306.966 78.5599 306.797 77.4466 306.797 76.1445V64.6602H301.25V61.8672H306.797V56.75H310.43ZM335.234 83.3906C333.75 83.3906 332.383 83.1367 331.133 82.6289C329.896 82.1211 328.835 81.4115 327.949 80.5C327.064 79.5885 326.374 78.5078 325.879 77.2578C325.384 76.0078 325.137 74.6471 325.137 73.1758V72.3555C325.137 70.6497 325.41 69.1263 325.957 67.7852C326.504 66.431 327.233 65.2852 328.145 64.3477C329.043 63.4232 330.065 62.7135 331.211 62.2188C332.37 61.724 333.555 61.4766 334.766 61.4766C336.289 61.4766 337.617 61.7435 338.75 62.2773C339.896 62.7982 340.846 63.5208 341.602 64.4453C342.357 65.3828 342.917 66.4831 343.281 67.7461C343.659 69.0091 343.848 70.3763 343.848 71.8477V73.4688H328.75V73.6055C328.841 74.6341 329.043 75.5391 329.355 76.3203C329.681 77.1016 330.124 77.7917 330.684 78.3906C331.257 79.0286 331.947 79.5299 332.754 79.8945C333.561 80.2591 334.453 80.4414 335.43 80.4414C336.719 80.4414 337.865 80.181 338.867 79.6602C339.87 79.1393 340.703 78.4492 341.367 77.5898L343.574 79.3086C342.871 80.3763 341.816 81.3268 340.41 82.1602C339.017 82.9805 337.292 83.3906 335.234 83.3906ZM334.766 64.4453C334.036 64.4453 333.346 64.582 332.695 64.8555C332.044 65.1159 331.458 65.5 330.938 66.0078C330.417 66.5286 329.974 67.1667 329.609 67.9219C329.258 68.6641 329.01 69.5234 328.867 70.5H340.234V70.3242C340.234 69.6732 340.111 68.9766 339.863 68.2344C339.616 67.4792 339.271 66.8281 338.828 66.2812C338.385 65.7344 337.826 65.2917 337.148 64.9531C336.484 64.6146 335.69 64.4453 334.766 64.4453ZM382.5 56.75V61.8672H390.547V64.6602H382.5V76.1445C382.5 76.9648 382.604 77.6419 382.812 78.1758C383.021 78.7096 383.307 79.1328 383.672 79.4453C384.036 79.7708 384.453 79.9987 384.922 80.1289C385.404 80.2591 385.911 80.3242 386.445 80.3242C386.836 80.3242 387.24 80.3047 387.656 80.2656C388.073 80.2135 388.483 80.1549 388.887 80.0898C389.277 80.0247 389.642 79.9596 389.98 79.8945C390.332 79.8164 390.618 79.7513 390.84 79.6992L391.348 82.2578C391.048 82.4401 390.684 82.6029 390.254 82.7461C389.824 82.8763 389.355 82.987 388.848 83.0781C388.34 83.1823 387.799 83.2604 387.227 83.3125C386.667 83.3646 386.107 83.3906 385.547 83.3906C384.609 83.3906 383.73 83.2604 382.91 83C382.103 82.7266 381.4 82.2969 380.801 81.7109C380.202 81.138 379.727 80.3958 379.375 79.4844C379.036 78.5599 378.867 77.4466 378.867 76.1445V64.6602H373.32V61.8672H378.867V56.75H382.5ZM396.953 72.2383C396.953 70.7148 397.174 69.3021 397.617 68C398.06 66.6849 398.698 65.5456 399.531 64.582C400.352 63.6185 401.354 62.8633 402.539 62.3164C403.724 61.7565 405.059 61.4766 406.543 61.4766C408.04 61.4766 409.382 61.7565 410.566 62.3164C411.764 62.8633 412.78 63.6185 413.613 64.582C414.434 65.5456 415.065 66.6849 415.508 68C415.951 69.3021 416.172 70.7148 416.172 72.2383V72.668C416.172 74.1914 415.951 75.6042 415.508 76.9062C415.065 78.2083 414.434 79.3411 413.613 80.3047C412.78 81.2682 411.771 82.0234 410.586 82.5703C409.401 83.1172 408.066 83.3906 406.582 83.3906C405.085 83.3906 403.737 83.1172 402.539 82.5703C401.354 82.0234 400.352 81.2682 399.531 80.3047C398.698 79.3411 398.06 78.2083 397.617 76.9062C397.174 75.6042 396.953 74.1914 396.953 72.668V72.2383ZM400.566 72.668C400.566 73.7096 400.69 74.7057 400.938 75.6562C401.185 76.5938 401.562 77.4206 402.07 78.1367C402.565 78.8529 403.19 79.4193 403.945 79.8359C404.701 80.2526 405.579 80.4609 406.582 80.4609C407.572 80.4609 408.438 80.2526 409.18 79.8359C409.935 79.4193 410.566 78.8529 411.074 78.1367C411.569 77.4206 411.94 76.5938 412.188 75.6562C412.435 74.7057 412.559 73.7096 412.559 72.668V72.2383C412.559 71.2096 412.428 70.2266 412.168 69.2891C411.921 68.3385 411.549 67.5052 411.055 66.7891C410.547 66.0729 409.915 65.5065 409.16 65.0898C408.418 64.6602 407.546 64.4453 406.543 64.4453C405.54 64.4453 404.668 64.6602 403.926 65.0898C403.184 65.5065 402.565 66.0729 402.07 66.7891C401.562 67.5052 401.185 68.3385 400.938 69.2891C400.69 70.2266 400.566 71.2096 400.566 72.2383V72.668ZM460.059 77.3945C460.059 76.9648 459.974 76.5807 459.805 76.2422C459.635 75.8906 459.349 75.5716 458.945 75.2852C458.542 74.9987 458.008 74.7383 457.344 74.5039C456.68 74.2565 455.853 74.0352 454.863 73.8398C453.652 73.5924 452.546 73.293 451.543 72.9414C450.553 72.5898 449.707 72.1667 449.004 71.6719C448.288 71.1901 447.734 70.6237 447.344 69.9727C446.953 69.3086 446.758 68.5404 446.758 67.668C446.758 66.8086 446.96 66.0078 447.363 65.2656C447.767 64.5104 448.333 63.8529 449.062 63.293C449.792 62.7331 450.658 62.2904 451.66 61.9648C452.676 61.6393 453.789 61.4766 455 61.4766C456.302 61.4766 457.474 61.6458 458.516 61.9844C459.557 62.3229 460.443 62.7917 461.172 63.3906C461.901 63.9896 462.461 64.6927 462.852 65.5C463.255 66.2943 463.457 67.1536 463.457 68.0781H459.844C459.844 67.6224 459.727 67.1797 459.492 66.75C459.258 66.3073 458.932 65.9167 458.516 65.5781C458.099 65.2396 457.591 64.9661 456.992 64.7578C456.406 64.5495 455.742 64.4453 455 64.4453C454.232 64.4453 453.555 64.5299 452.969 64.6992C452.396 64.8685 451.921 65.0964 451.543 65.3828C451.152 65.6693 450.859 66.0013 450.664 66.3789C450.469 66.7565 450.371 67.1471 450.371 67.5508C450.371 67.9674 450.449 68.3385 450.605 68.6641C450.762 68.9896 451.035 69.2826 451.426 69.543C451.803 69.8034 452.311 70.0378 452.949 70.2461C453.6 70.4544 454.421 70.6562 455.41 70.8516C456.712 71.125 457.878 71.444 458.906 71.8086C459.935 72.1602 460.801 72.5833 461.504 73.0781C462.207 73.5859 462.741 74.1719 463.105 74.8359C463.483 75.5 463.672 76.2682 463.672 77.1406C463.672 78.0781 463.457 78.931 463.027 79.6992C462.611 80.4674 462.025 81.125 461.27 81.6719C460.514 82.2188 459.609 82.6419 458.555 82.9414C457.5 83.2409 456.348 83.3906 455.098 83.3906C453.665 83.3906 452.389 83.2018 451.27 82.8242C450.15 82.4336 449.206 81.9193 448.438 81.2812C447.656 80.6562 447.057 79.9271 446.641 79.0938C446.237 78.2604 446.035 77.3945 446.035 76.4961H449.648C449.701 77.2383 449.896 77.8633 450.234 78.3711C450.586 78.8789 451.022 79.2891 451.543 79.6016C452.051 79.9141 452.617 80.1354 453.242 80.2656C453.867 80.3958 454.486 80.4609 455.098 80.4609C456.061 80.4609 456.901 80.3503 457.617 80.1289C458.333 79.8945 458.893 79.5755 459.297 79.1719C459.544 78.9245 459.733 78.651 459.863 78.3516C459.993 78.0521 460.059 77.7331 460.059 77.3945ZM469.023 72.2383C469.023 70.7148 469.245 69.3021 469.688 68C470.13 66.6849 470.768 65.5456 471.602 64.582C472.422 63.6185 473.424 62.8633 474.609 62.3164C475.794 61.7565 477.129 61.4766 478.613 61.4766C480.111 61.4766 481.452 61.7565 482.637 62.3164C483.835 62.8633 484.85 63.6185 485.684 64.582C486.504 65.5456 487.135 66.6849 487.578 68C488.021 69.3021 488.242 70.7148 488.242 72.2383V72.668C488.242 74.1914 488.021 75.6042 487.578 76.9062C487.135 78.2083 486.504 79.3411 485.684 80.3047C484.85 81.2682 483.841 82.0234 482.656 82.5703C481.471 83.1172 480.137 83.3906 478.652 83.3906C477.155 83.3906 475.807 83.1172 474.609 82.5703C473.424 82.0234 472.422 81.2682 471.602 80.3047C470.768 79.3411 470.13 78.2083 469.688 76.9062C469.245 75.6042 469.023 74.1914 469.023 72.668V72.2383ZM472.637 72.668C472.637 73.7096 472.76 74.7057 473.008 75.6562C473.255 76.5938 473.633 77.4206 474.141 78.1367C474.635 78.8529 475.26 79.4193 476.016 79.8359C476.771 80.2526 477.65 80.4609 478.652 80.4609C479.642 80.4609 480.508 80.2526 481.25 79.8359C482.005 79.4193 482.637 78.8529 483.145 78.1367C483.639 77.4206 484.01 76.5938 484.258 75.6562C484.505 74.7057 484.629 73.7096 484.629 72.668V72.2383C484.629 71.2096 484.499 70.2266 484.238 69.2891C483.991 68.3385 483.62 67.5052 483.125 66.7891C482.617 66.0729 481.986 65.5065 481.23 65.0898C480.488 64.6602 479.616 64.4453 478.613 64.4453C477.611 64.4453 476.738 64.6602 475.996 65.0898C475.254 65.5065 474.635 66.0729 474.141 66.7891C473.633 67.5052 473.255 68.3385 473.008 69.2891C472.76 70.2266 472.637 71.2096 472.637 72.2383V72.668ZM495.723 61.8672L495.82 63.8594C496.25 63.1172 496.81 62.5378 497.5 62.1211C498.203 61.7044 499.049 61.4896 500.039 61.4766C500.599 61.4766 501.1 61.5417 501.543 61.6719C501.999 61.7891 502.396 61.9648 502.734 62.1992C502.982 62.3815 503.203 62.6029 503.398 62.8633C503.607 63.1237 503.783 63.4167 503.926 63.7422C504.108 63.4427 504.323 63.1628 504.57 62.9023C504.818 62.6419 505.085 62.4141 505.371 62.2188C505.736 61.9974 506.139 61.8216 506.582 61.6914C507.038 61.5612 507.533 61.4896 508.066 61.4766C508.796 61.4766 509.453 61.5872 510.039 61.8086C510.625 62.0169 511.12 62.3294 511.523 62.7461C511.966 63.2148 512.305 63.8268 512.539 64.582C512.773 65.3242 512.891 66.2031 512.891 67.2188V83H509.453V67.1797C509.453 66.737 509.401 66.3464 509.297 66.0078C509.193 65.6693 509.043 65.3893 508.848 65.168C508.639 64.9596 508.379 64.8034 508.066 64.6992C507.767 64.5951 507.415 64.543 507.012 64.543C506.582 64.543 506.211 64.6016 505.898 64.7188C505.586 64.8359 505.326 64.9922 505.117 65.1875C504.909 65.3958 504.746 65.6367 504.629 65.9102C504.512 66.1706 504.434 66.4635 504.395 66.7891C504.395 66.8542 504.395 66.9193 504.395 66.9844C504.395 67.0365 504.395 67.1016 504.395 67.1797V83H500.957V67.1602C500.957 66.7174 500.905 66.3268 500.801 65.9883C500.71 65.6497 500.56 65.3698 500.352 65.1484C500.156 64.9401 499.909 64.7904 499.609 64.6992C499.323 64.5951 498.984 64.543 498.594 64.543C498.164 64.543 497.786 64.5951 497.461 64.6992C497.148 64.7904 496.882 64.9271 496.66 65.1094C496.491 65.2526 496.341 65.4154 496.211 65.5977C496.094 65.7799 495.996 65.9753 495.918 66.1836V83H492.48V61.8672H495.723ZM527.422 83.3906C525.938 83.3906 524.57 83.1367 523.32 82.6289C522.083 82.1211 521.022 81.4115 520.137 80.5C519.251 79.5885 518.561 78.5078 518.066 77.2578C517.572 76.0078 517.324 74.6471 517.324 73.1758V72.3555C517.324 70.6497 517.598 69.1263 518.145 67.7852C518.691 66.431 519.421 65.2852 520.332 64.3477C521.23 63.4232 522.253 62.7135 523.398 62.2188C524.557 61.724 525.742 61.4766 526.953 61.4766C528.477 61.4766 529.805 61.7435 530.938 62.2773C532.083 62.7982 533.034 63.5208 533.789 64.4453C534.544 65.3828 535.104 66.4831 535.469 67.7461C535.846 69.0091 536.035 70.3763 536.035 71.8477V73.4688H520.938V73.6055C521.029 74.6341 521.23 75.5391 521.543 76.3203C521.868 77.1016 522.311 77.7917 522.871 78.3906C523.444 79.0286 524.134 79.5299 524.941 79.8945C525.749 80.2591 526.641 80.4414 527.617 80.4414C528.906 80.4414 530.052 80.181 531.055 79.6602C532.057 79.1393 532.891 78.4492 533.555 77.5898L535.762 79.3086C535.059 80.3763 534.004 81.3268 532.598 82.1602C531.204 82.9805 529.479 83.3906 527.422 83.3906ZM526.953 64.4453C526.224 64.4453 525.534 64.582 524.883 64.8555C524.232 65.1159 523.646 65.5 523.125 66.0078C522.604 66.5286 522.161 67.1667 521.797 67.9219C521.445 68.6641 521.198 69.5234 521.055 70.5H532.422V70.3242C532.422 69.6732 532.298 68.9766 532.051 68.2344C531.803 67.4792 531.458 66.8281 531.016 66.2812C530.573 65.7344 530.013 65.2917 529.336 64.9531C528.672 64.6146 527.878 64.4453 526.953 64.4453ZM541.094 72.2383C541.094 70.7148 541.315 69.3021 541.758 68C542.201 66.6849 542.839 65.5456 543.672 64.582C544.492 63.6185 545.495 62.8633 546.68 62.3164C547.865 61.7565 549.199 61.4766 550.684 61.4766C552.181 61.4766 553.522 61.7565 554.707 62.3164C555.905 62.8633 556.921 63.6185 557.754 64.582C558.574 65.5456 559.206 66.6849 559.648 68C560.091 69.3021 560.312 70.7148 560.312 72.2383V72.668C560.312 74.1914 560.091 75.6042 559.648 76.9062C559.206 78.2083 558.574 79.3411 557.754 80.3047C556.921 81.2682 555.911 82.0234 554.727 82.5703C553.542 83.1172 552.207 83.3906 550.723 83.3906C549.225 83.3906 547.878 83.1172 546.68 82.5703C545.495 82.0234 544.492 81.2682 543.672 80.3047C542.839 79.3411 542.201 78.2083 541.758 76.9062C541.315 75.6042 541.094 74.1914 541.094 72.668V72.2383ZM544.707 72.668C544.707 73.7096 544.831 74.7057 545.078 75.6562C545.326 76.5938 545.703 77.4206 546.211 78.1367C546.706 78.8529 547.331 79.4193 548.086 79.8359C548.841 80.2526 549.72 80.4609 550.723 80.4609C551.712 80.4609 552.578 80.2526 553.32 79.8359C554.076 79.4193 554.707 78.8529 555.215 78.1367C555.71 77.4206 556.081 76.5938 556.328 75.6562C556.576 74.7057 556.699 73.7096 556.699 72.668V72.2383C556.699 71.2096 556.569 70.2266 556.309 69.2891C556.061 68.3385 555.69 67.5052 555.195 66.7891C554.688 66.0729 554.056 65.5065 553.301 65.0898C552.559 64.6602 551.686 64.4453 550.684 64.4453C549.681 64.4453 548.809 64.6602 548.066 65.0898C547.324 65.5065 546.706 66.0729 546.211 66.7891C545.703 67.5052 545.326 68.3385 545.078 69.2891C544.831 70.2266 544.707 71.2096 544.707 72.2383V72.668ZM566.133 83V61.8672H569.375L569.629 64.9922C569.941 64.5495 570.28 64.1458 570.645 63.7812C571.022 63.4036 571.419 63.0781 571.836 62.8047C572.461 62.388 573.138 62.069 573.867 61.8477C574.609 61.6133 575.391 61.4896 576.211 61.4766C577.318 61.4766 578.32 61.6328 579.219 61.9453C580.13 62.2578 580.905 62.7461 581.543 63.4102C582.181 64.0742 582.669 64.9206 583.008 65.9492C583.359 66.9648 583.535 68.1758 583.535 69.582V83H579.922V69.6602C579.922 68.7227 579.818 67.9284 579.609 67.2773C579.401 66.6263 579.095 66.099 578.691 65.6953C578.275 65.2917 577.767 64.9987 577.168 64.8164C576.582 64.6341 575.905 64.543 575.137 64.543C574.473 64.543 573.854 64.6406 573.281 64.8359C572.708 65.0182 572.181 65.2721 571.699 65.5977C571.309 65.8841 570.944 66.2161 570.605 66.5938C570.28 66.9714 569.993 67.388 569.746 67.8438V83H566.133ZM599.492 83.3906C598.008 83.3906 596.641 83.1367 595.391 82.6289C594.154 82.1211 593.092 81.4115 592.207 80.5C591.322 79.5885 590.632 78.5078 590.137 77.2578C589.642 76.0078 589.395 74.6471 589.395 73.1758V72.3555C589.395 70.6497 589.668 69.1263 590.215 67.7852C590.762 66.431 591.491 65.2852 592.402 64.3477C593.301 63.4232 594.323 62.7135 595.469 62.2188C596.628 61.724 597.812 61.4766 599.023 61.4766C600.547 61.4766 601.875 61.7435 603.008 62.2773C604.154 62.7982 605.104 63.5208 605.859 64.4453C606.615 65.3828 607.174 66.4831 607.539 67.7461C607.917 69.0091 608.105 70.3763 608.105 71.8477V73.4688H593.008V73.6055C593.099 74.6341 593.301 75.5391 593.613 76.3203C593.939 77.1016 594.382 77.7917 594.941 78.3906C595.514 79.0286 596.204 79.5299 597.012 79.8945C597.819 80.2591 598.711 80.4414 599.688 80.4414C600.977 80.4414 602.122 80.181 603.125 79.6602C604.128 79.1393 604.961 78.4492 605.625 77.5898L607.832 79.3086C607.129 80.3763 606.074 81.3268 604.668 82.1602C603.275 82.9805 601.549 83.3906 599.492 83.3906ZM599.023 64.4453C598.294 64.4453 597.604 64.582 596.953 64.8555C596.302 65.1159 595.716 65.5 595.195 66.0078C594.674 66.5286 594.232 67.1667 593.867 67.9219C593.516 68.6641 593.268 69.5234 593.125 70.5H604.492V70.3242C604.492 69.6732 604.368 68.9766 604.121 68.2344C603.874 67.4792 603.529 66.8281 603.086 66.2812C602.643 65.7344 602.083 65.2917 601.406 64.9531C600.742 64.6146 599.948 64.4453 599.023 64.4453ZM624.258 73.8008H620.625V54.5625H624.258V73.8008ZM620.273 81.1055C620.273 80.4805 620.456 79.9596 620.82 79.543C621.198 79.1263 621.758 78.918 622.5 78.918C623.242 78.918 623.802 79.1263 624.18 79.543C624.57 79.9596 624.766 80.4805 624.766 81.1055C624.766 81.7044 624.57 82.2057 624.18 82.6094C623.802 83.013 623.242 83.2148 622.5 83.2148C621.758 83.2148 621.198 83.013 620.82 82.6094C620.456 82.2057 620.273 81.7044 620.273 81.1055Z" fill="#FF35D0"/>
</svg>
