<svg width="999" height="39" viewBox="0 0 999 39" fill="none" xmlns="http://www.w3.org/2000/svg">
<path d="M19.8242 21.4453C19.6549 22.7604 19.3164 23.9714 18.8086 25.0781C18.3008 26.1719 17.6432 27.1094 16.8359 27.8906C16.0156 28.6849 15.0456 29.3034 13.9258 29.7461C12.819 30.1758 11.582 30.3906 10.2148 30.3906C9.04297 30.3906 7.97526 30.2279 7.01172 29.9023C6.0612 29.5638 5.21484 29.1016 4.47266 28.5156C3.71745 27.9297 3.06641 27.2396 2.51953 26.4453C1.98568 25.651 1.54297 24.7852 1.19141 23.8477C0.826823 22.9102 0.553385 21.9271 0.371094 20.8984C0.201823 19.8698 0.110677 18.8281 0.0976562 17.7734V13.8086C0.110677 12.7539 0.201823 11.7122 0.371094 10.6836C0.553385 9.65495 0.826823 8.67188 1.19141 7.73438C1.54297 6.79688 1.98568 5.93099 2.51953 5.13672C3.06641 4.32943 3.71745 3.63281 4.47266 3.04688C5.21484 2.46094 6.0612 2.00521 7.01172 1.67969C7.96224 1.34115 9.02995 1.17188 10.2148 1.17188C11.6341 1.17188 12.9036 1.39323 14.0234 1.83594C15.1432 2.26562 16.1068 2.8776 16.9141 3.67188C17.7214 4.47917 18.3659 5.44271 18.8477 6.5625C19.3424 7.68229 19.668 8.91927 19.8242 10.2734H16.2109C16.0938 9.41406 15.8919 8.61328 15.6055 7.87109C15.319 7.12891 14.9349 6.47786 14.4531 5.91797C13.9714 5.35807 13.3789 4.92188 12.6758 4.60938C11.9857 4.28385 11.1654 4.12109 10.2148 4.12109C9.35547 4.12109 8.59375 4.26432 7.92969 4.55078C7.27865 4.82422 6.71875 5.20182 6.25 5.68359C5.76823 6.16536 5.36458 6.72526 5.03906 7.36328C4.72656 8.0013 4.47266 8.67839 4.27734 9.39453C4.08203 10.1107 3.9388 10.8464 3.84766 11.6016C3.76953 12.3438 3.73047 13.0664 3.73047 13.7695V17.7734C3.73047 18.4766 3.76953 19.2057 3.84766 19.9609C3.9388 20.7031 4.08203 21.4323 4.27734 22.1484C4.47266 22.8776 4.72656 23.5612 5.03906 24.1992C5.35156 24.8372 5.7487 25.3971 6.23047 25.8789C6.71224 26.3737 7.27865 26.7643 7.92969 27.0508C8.58073 27.3242 9.34245 27.4609 10.2148 27.4609C11.1654 27.4609 11.9857 27.3112 12.6758 27.0117C13.3789 26.7122 13.9714 26.2891 14.4531 25.7422C14.9349 25.2083 15.319 24.5768 15.6055 23.8477C15.8919 23.1055 16.0938 22.3047 16.2109 21.4453H19.8242ZM29.043 12.0117C29.3294 11.582 29.6484 11.1914 30 10.8398C30.3516 10.4753 30.7227 10.1562 31.1133 9.88281C31.7383 9.42708 32.4219 9.08203 33.1641 8.84766C33.9193 8.61328 34.7201 8.48958 35.5664 8.47656C36.6732 8.47656 37.6758 8.63932 38.5742 8.96484C39.4857 9.27734 40.2604 9.77214 40.8984 10.4492C41.5365 11.1263 42.0247 11.9857 42.3633 13.0273C42.7148 14.056 42.8906 15.2799 42.8906 16.6992V30H39.2773V16.6602C39.2773 15.8268 39.1797 15.0977 38.9844 14.4727C38.7891 13.8346 38.5026 13.3073 38.125 12.8906C37.7214 12.4349 37.2135 12.0964 36.6016 11.875C35.9896 11.6406 35.2865 11.5299 34.4922 11.543C33.8411 11.543 33.2227 11.6341 32.6367 11.8164C32.0508 11.9987 31.5104 12.2591 31.0156 12.5977C30.625 12.8581 30.2604 13.1641 29.9219 13.5156C29.5964 13.8542 29.3034 14.2318 29.043 14.6484V30H25.4297V0H29.043V12.0117ZM58.7891 30.3906C57.3047 30.3906 55.9375 30.1367 54.6875 29.6289C53.4505 29.1211 52.3893 28.4115 51.5039 27.5C50.6185 26.5885 49.9284 25.5078 49.4336 24.2578C48.9388 23.0078 48.6914 21.6471 48.6914 20.1758V19.3555C48.6914 17.6497 48.9648 16.1263 49.5117 14.7852C50.0586 13.431 50.7878 12.2852 51.6992 11.3477C52.5977 10.4232 53.6198 9.71354 54.7656 9.21875C55.9245 8.72396 57.1094 8.47656 58.3203 8.47656C59.8438 8.47656 61.1719 8.74349 62.3047 9.27734C63.4505 9.79818 64.401 10.5208 65.1562 11.4453C65.9115 12.3828 66.4714 13.4831 66.8359 14.7461C67.2135 16.0091 67.4023 17.3763 67.4023 18.8477V20.4688H52.3047V20.6055C52.3958 21.6341 52.5977 22.5391 52.9102 23.3203C53.2357 24.1016 53.6784 24.7917 54.2383 25.3906C54.8112 26.0286 55.5013 26.5299 56.3086 26.8945C57.1159 27.2591 58.0078 27.4414 58.9844 27.4414C60.2734 27.4414 61.4193 27.181 62.4219 26.6602C63.4245 26.1393 64.2578 25.4492 64.9219 24.5898L67.1289 26.3086C66.4258 27.3763 65.3711 28.3268 63.9648 29.1602C62.5716 29.9805 60.8464 30.3906 58.7891 30.3906ZM58.3203 11.4453C57.5911 11.4453 56.901 11.582 56.25 11.8555C55.599 12.1159 55.013 12.5 54.4922 13.0078C53.9714 13.5286 53.5286 14.1667 53.1641 14.9219C52.8125 15.6641 52.5651 16.5234 52.4219 17.5H63.7891V17.3242C63.7891 16.6732 63.6654 15.9766 63.418 15.2344C63.1706 14.4792 62.8255 13.8281 62.3828 13.2812C61.9401 12.7344 61.3802 12.2917 60.7031 11.9531C60.0391 11.6146 59.2448 11.4453 58.3203 11.4453ZM82.4805 27.4609C83.1315 27.4609 83.763 27.3568 84.375 27.1484C85 26.9401 85.5534 26.6471 86.0352 26.2695C86.5169 25.9049 86.901 25.4753 87.1875 24.9805C87.487 24.4727 87.6432 23.9258 87.6562 23.3398H91.0742C91.0612 24.2773 90.8138 25.1758 90.332 26.0352C89.8633 26.8815 89.2318 27.6237 88.4375 28.2617C87.6432 28.9128 86.7318 29.4336 85.7031 29.8242C84.6745 30.2018 83.6003 30.3906 82.4805 30.3906C80.8789 30.3906 79.4792 30.1042 78.2812 29.5312C77.0833 28.9583 76.0872 28.1836 75.293 27.207C74.4857 26.2435 73.8802 25.1302 73.4766 23.8672C73.0729 22.5911 72.8711 21.25 72.8711 19.8438V19.0234C72.8711 17.6302 73.0729 16.2956 73.4766 15.0195C73.8802 13.7435 74.4857 12.6172 75.293 11.6406C76.0872 10.6771 77.0833 9.90885 78.2812 9.33594C79.4792 8.76302 80.8789 8.47656 82.4805 8.47656C83.7305 8.47656 84.8763 8.67839 85.918 9.08203C86.9727 9.47266 87.8841 10.0065 88.6523 10.6836C89.4076 11.3737 90 12.1875 90.4297 13.125C90.8594 14.0625 91.0742 15.0651 91.0742 16.1328H87.6562C87.6432 15.4948 87.5 14.8958 87.2266 14.3359C86.9661 13.763 86.6081 13.2617 86.1523 12.832C85.6966 12.4023 85.1497 12.0638 84.5117 11.8164C83.8867 11.569 83.2096 11.4453 82.4805 11.4453C81.3607 11.4453 80.4167 11.6732 79.6484 12.1289C78.8932 12.5716 78.2812 13.151 77.8125 13.8672C77.3438 14.5964 77.0052 15.4102 76.7969 16.3086C76.6016 17.207 76.5039 18.112 76.5039 19.0234V19.8438C76.5039 20.7682 76.6016 21.6862 76.7969 22.5977C77.0052 23.4961 77.3438 24.3034 77.8125 25.0195C78.2682 25.7487 78.8737 26.3411 79.6289 26.7969C80.3971 27.2396 81.3477 27.4609 82.4805 27.4609ZM103.828 20.1367L101.172 22.6953V30H97.5391V0H101.172V18.3594L103.535 15.8203L110.469 8.86719H114.863L106.309 17.6758L116.172 30H111.582L103.828 20.1367ZM144.531 19.2383C144.531 17.7148 144.753 16.3021 145.195 15C145.638 13.6849 146.276 12.5456 147.109 11.582C147.93 10.6185 148.932 9.86328 150.117 9.31641C151.302 8.75651 152.637 8.47656 154.121 8.47656C155.618 8.47656 156.96 8.75651 158.145 9.31641C159.342 9.86328 160.358 10.6185 161.191 11.582C162.012 12.5456 162.643 13.6849 163.086 15C163.529 16.3021 163.75 17.7148 163.75 19.2383V19.668C163.75 21.1914 163.529 22.6042 163.086 23.9062C162.643 25.2083 162.012 26.3411 161.191 27.3047C160.358 28.2682 159.349 29.0234 158.164 29.5703C156.979 30.1172 155.645 30.3906 154.16 30.3906C152.663 30.3906 151.315 30.1172 150.117 29.5703C148.932 29.0234 147.93 28.2682 147.109 27.3047C146.276 26.3411 145.638 25.2083 145.195 23.9062C144.753 22.6042 144.531 21.1914 144.531 19.668V19.2383ZM148.145 19.668C148.145 20.7096 148.268 21.7057 148.516 22.6562C148.763 23.5938 149.141 24.4206 149.648 25.1367C150.143 25.8529 150.768 26.4193 151.523 26.8359C152.279 27.2526 153.158 27.4609 154.16 27.4609C155.15 27.4609 156.016 27.2526 156.758 26.8359C157.513 26.4193 158.145 25.8529 158.652 25.1367C159.147 24.4206 159.518 23.5938 159.766 22.6562C160.013 21.7057 160.137 20.7096 160.137 19.668V19.2383C160.137 18.2096 160.007 17.2266 159.746 16.2891C159.499 15.3385 159.128 14.5052 158.633 13.7891C158.125 13.0729 157.493 12.5065 156.738 12.0898C155.996 11.6602 155.124 11.4453 154.121 11.4453C153.118 11.4453 152.246 11.6602 151.504 12.0898C150.762 12.5065 150.143 13.0729 149.648 13.7891C149.141 14.5052 148.763 15.3385 148.516 16.2891C148.268 17.2266 148.145 18.2096 148.145 19.2383V19.668ZM183.496 30L183.281 27.0898C182.578 28.1315 181.699 28.9453 180.645 29.5312C179.59 30.1042 178.372 30.3906 176.992 30.3906C175.885 30.3906 174.883 30.2214 173.984 29.8828C173.086 29.5312 172.318 28.9909 171.68 28.2617C171.042 27.5326 170.547 26.6081 170.195 25.4883C169.857 24.3555 169.688 23.0013 169.688 21.4258V8.86719H173.301V21.4648C173.301 22.6107 173.392 23.5612 173.574 24.3164C173.757 25.0716 174.03 25.6706 174.395 26.1133C174.759 26.569 175.202 26.888 175.723 27.0703C176.257 27.2526 176.868 27.3438 177.559 27.3438C178.366 27.3438 179.089 27.2526 179.727 27.0703C180.365 26.875 180.918 26.6081 181.387 26.2695C181.777 25.9961 182.116 25.6706 182.402 25.293C182.702 24.9023 182.949 24.4792 183.145 24.0234V8.86719H186.777V30H183.496ZM202.148 3.75V8.86719H210.195V11.6602H202.148V23.1445C202.148 23.9648 202.253 24.6419 202.461 25.1758C202.669 25.7096 202.956 26.1328 203.32 26.4453C203.685 26.7708 204.102 26.9987 204.57 27.1289C205.052 27.2591 205.56 27.3242 206.094 27.3242C206.484 27.3242 206.888 27.3047 207.305 27.2656C207.721 27.2135 208.132 27.1549 208.535 27.0898C208.926 27.0247 209.29 26.9596 209.629 26.8945C209.98 26.8164 210.267 26.7513 210.488 26.6992L210.996 29.2578C210.697 29.4401 210.332 29.6029 209.902 29.7461C209.473 29.8763 209.004 29.987 208.496 30.0781C207.988 30.1823 207.448 30.2604 206.875 30.3125C206.315 30.3646 205.755 30.3906 205.195 30.3906C204.258 30.3906 203.379 30.2604 202.559 30C201.751 29.7266 201.048 29.2969 200.449 28.7109C199.85 28.138 199.375 27.3958 199.023 26.4844C198.685 25.5599 198.516 24.4466 198.516 23.1445V11.6602H192.969V8.86719H198.516V3.75H202.148ZM250.195 3.75V8.86719H258.242V11.6602H250.195V23.1445C250.195 23.9648 250.299 24.6419 250.508 25.1758C250.716 25.7096 251.003 26.1328 251.367 26.4453C251.732 26.7708 252.148 26.9987 252.617 27.1289C253.099 27.2591 253.607 27.3242 254.141 27.3242C254.531 27.3242 254.935 27.3047 255.352 27.2656C255.768 27.2135 256.178 27.1549 256.582 27.0898C256.973 27.0247 257.337 26.9596 257.676 26.8945C258.027 26.8164 258.314 26.7513 258.535 26.6992L259.043 29.2578C258.743 29.4401 258.379 29.6029 257.949 29.7461C257.52 29.8763 257.051 29.987 256.543 30.0781C256.035 30.1823 255.495 30.2604 254.922 30.3125C254.362 30.3646 253.802 30.3906 253.242 30.3906C252.305 30.3906 251.426 30.2604 250.605 30C249.798 29.7266 249.095 29.2969 248.496 28.7109C247.897 28.138 247.422 27.3958 247.07 26.4844C246.732 25.5599 246.562 24.4466 246.562 23.1445V11.6602H241.016V8.86719H246.562V3.75H250.195ZM269.277 12.0117C269.564 11.582 269.883 11.1914 270.234 10.8398C270.586 10.4753 270.957 10.1562 271.348 9.88281C271.973 9.42708 272.656 9.08203 273.398 8.84766C274.154 8.61328 274.954 8.48958 275.801 8.47656C276.908 8.47656 277.91 8.63932 278.809 8.96484C279.72 9.27734 280.495 9.77214 281.133 10.4492C281.771 11.1263 282.259 11.9857 282.598 13.0273C282.949 14.056 283.125 15.2799 283.125 16.6992V30H279.512V16.6602C279.512 15.8268 279.414 15.0977 279.219 14.4727C279.023 13.8346 278.737 13.3073 278.359 12.8906C277.956 12.4349 277.448 12.0964 276.836 11.875C276.224 11.6406 275.521 11.5299 274.727 11.543C274.076 11.543 273.457 11.6341 272.871 11.8164C272.285 11.9987 271.745 12.2591 271.25 12.5977C270.859 12.8581 270.495 13.1641 270.156 13.5156C269.831 13.8542 269.538 14.2318 269.277 14.6484V30H265.664V0H269.277V12.0117ZM299.023 30.3906C297.539 30.3906 296.172 30.1367 294.922 29.6289C293.685 29.1211 292.624 28.4115 291.738 27.5C290.853 26.5885 290.163 25.5078 289.668 24.2578C289.173 23.0078 288.926 21.6471 288.926 20.1758V19.3555C288.926 17.6497 289.199 16.1263 289.746 14.7852C290.293 13.431 291.022 12.2852 291.934 11.3477C292.832 10.4232 293.854 9.71354 295 9.21875C296.159 8.72396 297.344 8.47656 298.555 8.47656C300.078 8.47656 301.406 8.74349 302.539 9.27734C303.685 9.79818 304.635 10.5208 305.391 11.4453C306.146 12.3828 306.706 13.4831 307.07 14.7461C307.448 16.0091 307.637 17.3763 307.637 18.8477V20.4688H292.539V20.6055C292.63 21.6341 292.832 22.5391 293.145 23.3203C293.47 24.1016 293.913 24.7917 294.473 25.3906C295.046 26.0286 295.736 26.5299 296.543 26.8945C297.35 27.2591 298.242 27.4414 299.219 27.4414C300.508 27.4414 301.654 27.181 302.656 26.6602C303.659 26.1393 304.492 25.4492 305.156 24.5898L307.363 26.3086C306.66 27.3763 305.605 28.3268 304.199 29.1602C302.806 29.9805 301.081 30.3906 299.023 30.3906ZM298.555 11.4453C297.826 11.4453 297.135 11.582 296.484 11.8555C295.833 12.1159 295.247 12.5 294.727 13.0078C294.206 13.5286 293.763 14.1667 293.398 14.9219C293.047 15.6641 292.799 16.5234 292.656 17.5H304.023V17.3242C304.023 16.6732 303.9 15.9766 303.652 15.2344C303.405 14.4792 303.06 13.8281 302.617 13.2812C302.174 12.7344 301.615 12.2917 300.938 11.9531C300.273 11.6146 299.479 11.4453 298.555 11.4453ZM346.289 3.75V8.86719H354.336V11.6602H346.289V23.1445C346.289 23.9648 346.393 24.6419 346.602 25.1758C346.81 25.7096 347.096 26.1328 347.461 26.4453C347.826 26.7708 348.242 26.9987 348.711 27.1289C349.193 27.2591 349.701 27.3242 350.234 27.3242C350.625 27.3242 351.029 27.3047 351.445 27.2656C351.862 27.2135 352.272 27.1549 352.676 27.0898C353.066 27.0247 353.431 26.9596 353.77 26.8945C354.121 26.8164 354.408 26.7513 354.629 26.6992L355.137 29.2578C354.837 29.4401 354.473 29.6029 354.043 29.7461C353.613 29.8763 353.145 29.987 352.637 30.0781C352.129 30.1823 351.589 30.2604 351.016 30.3125C350.456 30.3646 349.896 30.3906 349.336 30.3906C348.398 30.3906 347.52 30.2604 346.699 30C345.892 29.7266 345.189 29.2969 344.59 28.7109C343.991 28.138 343.516 27.3958 343.164 26.4844C342.826 25.5599 342.656 24.4466 342.656 23.1445V11.6602H337.109V8.86719H342.656V3.75H346.289ZM362.324 8.86719H373.125V26.875H380.02V30H362.324V26.875H369.512V12.0117H362.324V8.86719ZM369.043 3.32031C369.043 3.00781 369.089 2.71484 369.18 2.44141C369.284 2.16797 369.44 1.93359 369.648 1.73828C369.818 1.56901 370.033 1.4388 370.293 1.34766C370.566 1.24349 370.872 1.19141 371.211 1.19141C371.549 1.19141 371.849 1.24349 372.109 1.34766C372.37 1.4388 372.585 1.56901 372.754 1.73828C372.962 1.92057 373.118 2.14844 373.223 2.42188C373.327 2.69531 373.379 2.99479 373.379 3.32031C373.379 3.90625 373.197 4.39453 372.832 4.78516C372.467 5.17578 371.927 5.37109 371.211 5.37109C370.482 5.37109 369.935 5.17578 369.57 4.78516C369.219 4.39453 369.043 3.90625 369.043 3.32031ZM387.441 8.86719L387.539 10.8594C387.969 10.1172 388.529 9.53776 389.219 9.12109C389.922 8.70443 390.768 8.48958 391.758 8.47656C392.318 8.47656 392.819 8.54167 393.262 8.67188C393.717 8.78906 394.115 8.96484 394.453 9.19922C394.701 9.38151 394.922 9.60286 395.117 9.86328C395.326 10.1237 395.501 10.4167 395.645 10.7422C395.827 10.4427 396.042 10.1628 396.289 9.90234C396.536 9.64193 396.803 9.41406 397.09 9.21875C397.454 8.9974 397.858 8.82161 398.301 8.69141C398.757 8.5612 399.251 8.48958 399.785 8.47656C400.514 8.47656 401.172 8.58724 401.758 8.80859C402.344 9.01693 402.839 9.32943 403.242 9.74609C403.685 10.2148 404.023 10.8268 404.258 11.582C404.492 12.3242 404.609 13.2031 404.609 14.2188V30H401.172V14.1797C401.172 13.737 401.12 13.3464 401.016 13.0078C400.911 12.6693 400.762 12.3893 400.566 12.168C400.358 11.9596 400.098 11.8034 399.785 11.6992C399.486 11.5951 399.134 11.543 398.73 11.543C398.301 11.543 397.93 11.6016 397.617 11.7188C397.305 11.8359 397.044 11.9922 396.836 12.1875C396.628 12.3958 396.465 12.6367 396.348 12.9102C396.23 13.1706 396.152 13.4635 396.113 13.7891C396.113 13.8542 396.113 13.9193 396.113 13.9844C396.113 14.0365 396.113 14.1016 396.113 14.1797V30H392.676V14.1602C392.676 13.7174 392.624 13.3268 392.52 12.9883C392.428 12.6497 392.279 12.3698 392.07 12.1484C391.875 11.9401 391.628 11.7904 391.328 11.6992C391.042 11.5951 390.703 11.543 390.312 11.543C389.883 11.543 389.505 11.5951 389.18 11.6992C388.867 11.7904 388.6 11.9271 388.379 12.1094C388.21 12.2526 388.06 12.4154 387.93 12.5977C387.812 12.7799 387.715 12.9753 387.637 13.1836V30H384.199V8.86719H387.441ZM419.141 30.3906C417.656 30.3906 416.289 30.1367 415.039 29.6289C413.802 29.1211 412.741 28.4115 411.855 27.5C410.97 26.5885 410.28 25.5078 409.785 24.2578C409.29 23.0078 409.043 21.6471 409.043 20.1758V19.3555C409.043 17.6497 409.316 16.1263 409.863 14.7852C410.41 13.431 411.139 12.2852 412.051 11.3477C412.949 10.4232 413.971 9.71354 415.117 9.21875C416.276 8.72396 417.461 8.47656 418.672 8.47656C420.195 8.47656 421.523 8.74349 422.656 9.27734C423.802 9.79818 424.753 10.5208 425.508 11.4453C426.263 12.3828 426.823 13.4831 427.188 14.7461C427.565 16.0091 427.754 17.3763 427.754 18.8477V20.4688H412.656V20.6055C412.747 21.6341 412.949 22.5391 413.262 23.3203C413.587 24.1016 414.03 24.7917 414.59 25.3906C415.163 26.0286 415.853 26.5299 416.66 26.8945C417.467 27.2591 418.359 27.4414 419.336 27.4414C420.625 27.4414 421.771 27.181 422.773 26.6602C423.776 26.1393 424.609 25.4492 425.273 24.5898L427.48 26.3086C426.777 27.3763 425.723 28.3268 424.316 29.1602C422.923 29.9805 421.198 30.3906 419.141 30.3906ZM418.672 11.4453C417.943 11.4453 417.253 11.582 416.602 11.8555C415.951 12.1159 415.365 12.5 414.844 13.0078C414.323 13.5286 413.88 14.1667 413.516 14.9219C413.164 15.6641 412.917 16.5234 412.773 17.5H424.141V17.3242C424.141 16.6732 424.017 15.9766 423.77 15.2344C423.522 14.4792 423.177 13.8281 422.734 13.2812C422.292 12.7344 421.732 12.2917 421.055 11.9531C420.391 11.6146 419.596 11.4453 418.672 11.4453ZM434.395 0H445.195V26.875H452.09V30H434.395V26.875H441.582V3.14453H434.395V0ZM456.836 19.2383C456.836 17.7148 457.057 16.3021 457.5 15C457.943 13.6849 458.581 12.5456 459.414 11.582C460.234 10.6185 461.237 9.86328 462.422 9.31641C463.607 8.75651 464.941 8.47656 466.426 8.47656C467.923 8.47656 469.264 8.75651 470.449 9.31641C471.647 9.86328 472.663 10.6185 473.496 11.582C474.316 12.5456 474.948 13.6849 475.391 15C475.833 16.3021 476.055 17.7148 476.055 19.2383V19.668C476.055 21.1914 475.833 22.6042 475.391 23.9062C474.948 25.2083 474.316 26.3411 473.496 27.3047C472.663 28.2682 471.654 29.0234 470.469 29.5703C469.284 30.1172 467.949 30.3906 466.465 30.3906C464.967 30.3906 463.62 30.1172 462.422 29.5703C461.237 29.0234 460.234 28.2682 459.414 27.3047C458.581 26.3411 457.943 25.2083 457.5 23.9062C457.057 22.6042 456.836 21.1914 456.836 19.668V19.2383ZM460.449 19.668C460.449 20.7096 460.573 21.7057 460.82 22.6562C461.068 23.5938 461.445 24.4206 461.953 25.1367C462.448 25.8529 463.073 26.4193 463.828 26.8359C464.583 27.2526 465.462 27.4609 466.465 27.4609C467.454 27.4609 468.32 27.2526 469.062 26.8359C469.818 26.4193 470.449 25.8529 470.957 25.1367C471.452 24.4206 471.823 23.5938 472.07 22.6562C472.318 21.7057 472.441 20.7096 472.441 19.668V19.2383C472.441 18.2096 472.311 17.2266 472.051 16.2891C471.803 15.3385 471.432 14.5052 470.938 13.7891C470.43 13.0729 469.798 12.5065 469.043 12.0898C468.301 11.6602 467.428 11.4453 466.426 11.4453C465.423 11.4453 464.551 11.6602 463.809 12.0898C463.066 12.5065 462.448 13.0729 461.953 13.7891C461.445 14.5052 461.068 15.3385 460.82 16.2891C460.573 17.2266 460.449 18.2096 460.449 19.2383V19.668ZM490.879 27.4609C491.53 27.4609 492.161 27.3568 492.773 27.1484C493.398 26.9401 493.952 26.6471 494.434 26.2695C494.915 25.9049 495.299 25.4753 495.586 24.9805C495.885 24.4727 496.042 23.9258 496.055 23.3398H499.473C499.46 24.2773 499.212 25.1758 498.73 26.0352C498.262 26.8815 497.63 27.6237 496.836 28.2617C496.042 28.9128 495.13 29.4336 494.102 29.8242C493.073 30.2018 491.999 30.3906 490.879 30.3906C489.277 30.3906 487.878 30.1042 486.68 29.5312C485.482 28.9583 484.486 28.1836 483.691 27.207C482.884 26.2435 482.279 25.1302 481.875 23.8672C481.471 22.5911 481.27 21.25 481.27 19.8438V19.0234C481.27 17.6302 481.471 16.2956 481.875 15.0195C482.279 13.7435 482.884 12.6172 483.691 11.6406C484.486 10.6771 485.482 9.90885 486.68 9.33594C487.878 8.76302 489.277 8.47656 490.879 8.47656C492.129 8.47656 493.275 8.67839 494.316 9.08203C495.371 9.47266 496.283 10.0065 497.051 10.6836C497.806 11.3737 498.398 12.1875 498.828 13.125C499.258 14.0625 499.473 15.0651 499.473 16.1328H496.055C496.042 15.4948 495.898 14.8958 495.625 14.3359C495.365 13.763 495.007 13.2617 494.551 12.832C494.095 12.4023 493.548 12.0638 492.91 11.8164C492.285 11.569 491.608 11.4453 490.879 11.4453C489.759 11.4453 488.815 11.6732 488.047 12.1289C487.292 12.5716 486.68 13.151 486.211 13.8672C485.742 14.5964 485.404 15.4102 485.195 16.3086C485 17.207 484.902 18.112 484.902 19.0234V19.8438C484.902 20.7682 485 21.6862 485.195 22.5977C485.404 23.4961 485.742 24.3034 486.211 25.0195C486.667 25.7487 487.272 26.3411 488.027 26.7969C488.796 27.2396 489.746 27.4609 490.879 27.4609ZM512.227 20.1367L509.57 22.6953V30H505.938V0H509.57V18.3594L511.934 15.8203L518.867 8.86719H523.262L514.707 17.6758L524.57 30H519.98L512.227 20.1367ZM563.281 30.3906C561.797 30.3906 560.43 30.1367 559.18 29.6289C557.943 29.1211 556.882 28.4115 555.996 27.5C555.111 26.5885 554.421 25.5078 553.926 24.2578C553.431 23.0078 553.184 21.6471 553.184 20.1758V19.3555C553.184 17.6497 553.457 16.1263 554.004 14.7852C554.551 13.431 555.28 12.2852 556.191 11.3477C557.09 10.4232 558.112 9.71354 559.258 9.21875C560.417 8.72396 561.602 8.47656 562.812 8.47656C564.336 8.47656 565.664 8.74349 566.797 9.27734C567.943 9.79818 568.893 10.5208 569.648 11.4453C570.404 12.3828 570.964 13.4831 571.328 14.7461C571.706 16.0091 571.895 17.3763 571.895 18.8477V20.4688H556.797V20.6055C556.888 21.6341 557.09 22.5391 557.402 23.3203C557.728 24.1016 558.171 24.7917 558.73 25.3906C559.303 26.0286 559.993 26.5299 560.801 26.8945C561.608 27.2591 562.5 27.4414 563.477 27.4414C564.766 27.4414 565.911 27.181 566.914 26.6602C567.917 26.1393 568.75 25.4492 569.414 24.5898L571.621 26.3086C570.918 27.3763 569.863 28.3268 568.457 29.1602C567.064 29.9805 565.339 30.3906 563.281 30.3906ZM562.812 11.4453C562.083 11.4453 561.393 11.582 560.742 11.8555C560.091 12.1159 559.505 12.5 558.984 13.0078C558.464 13.5286 558.021 14.1667 557.656 14.9219C557.305 15.6641 557.057 16.5234 556.914 17.5H568.281V17.3242C568.281 16.6732 568.158 15.9766 567.91 15.2344C567.663 14.4792 567.318 13.8281 566.875 13.2812C566.432 12.7344 565.872 12.2917 565.195 11.9531C564.531 11.6146 563.737 11.4453 562.812 11.4453ZM577.969 30V8.86719H581.211L581.465 11.9922C581.777 11.5495 582.116 11.1458 582.48 10.7812C582.858 10.4036 583.255 10.0781 583.672 9.80469C584.297 9.38802 584.974 9.06901 585.703 8.84766C586.445 8.61328 587.227 8.48958 588.047 8.47656C589.154 8.47656 590.156 8.63281 591.055 8.94531C591.966 9.25781 592.741 9.74609 593.379 10.4102C594.017 11.0742 594.505 11.9206 594.844 12.9492C595.195 13.9648 595.371 15.1758 595.371 16.582V30H591.758V16.6602C591.758 15.7227 591.654 14.9284 591.445 14.2773C591.237 13.6263 590.931 13.099 590.527 12.6953C590.111 12.2917 589.603 11.9987 589.004 11.8164C588.418 11.6341 587.741 11.543 586.973 11.543C586.309 11.543 585.69 11.6406 585.117 11.8359C584.544 12.0182 584.017 12.2721 583.535 12.5977C583.145 12.8841 582.78 13.2161 582.441 13.5938C582.116 13.9714 581.829 14.388 581.582 14.8438V30H577.969ZM610.996 27.4609C611.647 27.4609 612.279 27.3568 612.891 27.1484C613.516 26.9401 614.069 26.6471 614.551 26.2695C615.033 25.9049 615.417 25.4753 615.703 24.9805C616.003 24.4727 616.159 23.9258 616.172 23.3398H619.59C619.577 24.2773 619.329 25.1758 618.848 26.0352C618.379 26.8815 617.747 27.6237 616.953 28.2617C616.159 28.9128 615.247 29.4336 614.219 29.8242C613.19 30.2018 612.116 30.3906 610.996 30.3906C609.395 30.3906 607.995 30.1042 606.797 29.5312C605.599 28.9583 604.603 28.1836 603.809 27.207C603.001 26.2435 602.396 25.1302 601.992 23.8672C601.589 22.5911 601.387 21.25 601.387 19.8438V19.0234C601.387 17.6302 601.589 16.2956 601.992 15.0195C602.396 13.7435 603.001 12.6172 603.809 11.6406C604.603 10.6771 605.599 9.90885 606.797 9.33594C607.995 8.76302 609.395 8.47656 610.996 8.47656C612.246 8.47656 613.392 8.67839 614.434 9.08203C615.488 9.47266 616.4 10.0065 617.168 10.6836C617.923 11.3737 618.516 12.1875 618.945 13.125C619.375 14.0625 619.59 15.0651 619.59 16.1328H616.172C616.159 15.4948 616.016 14.8958 615.742 14.3359C615.482 13.763 615.124 13.2617 614.668 12.832C614.212 12.4023 613.665 12.0638 613.027 11.8164C612.402 11.569 611.725 11.4453 610.996 11.4453C609.876 11.4453 608.932 11.6732 608.164 12.1289C607.409 12.5716 606.797 13.151 606.328 13.8672C605.859 14.5964 605.521 15.4102 605.312 16.3086C605.117 17.207 605.02 18.112 605.02 19.0234V19.8438C605.02 20.7682 605.117 21.6862 605.312 22.5977C605.521 23.4961 605.859 24.3034 606.328 25.0195C606.784 25.7487 607.389 26.3411 608.145 26.7969C608.913 27.2396 609.863 27.4609 610.996 27.4609ZM639.863 8.47656C640.527 8.47656 641.217 8.52214 641.934 8.61328C642.663 8.70443 643.21 8.82812 643.574 8.98438L643.086 12.5195C642.383 12.3633 641.712 12.2526 641.074 12.1875C640.449 12.1094 639.792 12.0703 639.102 12.0703C638.216 12.0703 637.415 12.181 636.699 12.4023C635.983 12.6107 635.358 12.9232 634.824 13.3398C634.342 13.7044 633.919 14.1536 633.555 14.6875C633.203 15.2083 632.91 15.7943 632.676 16.4453V30H629.043V8.86719H632.48L632.637 11.6992L632.656 12.2266C633.516 11.0677 634.544 10.1562 635.742 9.49219C636.953 8.8151 638.327 8.47656 639.863 8.47656ZM651.738 38.5352C651.4 38.5352 651.003 38.4961 650.547 38.418C650.091 38.3398 649.746 38.2747 649.512 38.2227L650.098 35.2734C650.423 35.2995 650.742 35.319 651.055 35.332C651.38 35.3581 651.634 35.3711 651.816 35.3711C652.311 35.3711 652.76 35.2344 653.164 34.9609C653.581 34.6875 653.952 34.362 654.277 33.9844C654.59 33.6068 654.857 33.2161 655.078 32.8125C655.312 32.4089 655.495 32.0768 655.625 31.8164L657.07 29.0039L647.969 8.86719H652.012L657.812 22.5L658.75 25.0586L659.746 22.5781L665.195 8.86719H669.238L658.516 33.2617C658.268 33.8086 657.949 34.388 657.559 35C657.181 35.612 656.719 36.1784 656.172 36.6992C655.625 37.2201 654.987 37.6562 654.258 38.0078C653.529 38.3594 652.689 38.5352 651.738 38.5352ZM674.043 38.125V8.86719H677.344L677.52 11.1719C677.806 10.8073 678.118 10.4818 678.457 10.1953C678.796 9.89583 679.16 9.64193 679.551 9.43359C680.098 9.12109 680.703 8.88672 681.367 8.73047C682.044 8.5612 682.767 8.47656 683.535 8.47656C684.889 8.47656 686.087 8.74349 687.129 9.27734C688.171 9.8112 689.043 10.5534 689.746 11.5039C690.449 12.4544 690.983 13.5938 691.348 14.9219C691.712 16.237 691.895 17.6823 691.895 19.2578V19.668C691.895 21.1784 691.712 22.5911 691.348 23.9062C690.983 25.2083 690.449 26.3411 689.746 27.3047C689.043 28.2682 688.171 29.0234 687.129 29.5703C686.1 30.1172 684.922 30.3906 683.594 30.3906C682.786 30.3906 682.031 30.306 681.328 30.1367C680.638 29.9674 680.013 29.7266 679.453 29.4141C679.115 29.2188 678.796 29.0039 678.496 28.7695C678.197 28.5221 677.917 28.2552 677.656 27.9688V38.125H674.043ZM688.281 19.2578C688.281 18.2292 688.164 17.2526 687.93 16.3281C687.708 15.3906 687.363 14.5638 686.895 13.8477C686.413 13.1445 685.807 12.5846 685.078 12.168C684.349 11.7513 683.477 11.543 682.461 11.543C681.901 11.543 681.38 11.6081 680.898 11.7383C680.43 11.8685 680.007 12.0573 679.629 12.3047C679.212 12.5521 678.841 12.8581 678.516 13.2227C678.19 13.5872 677.904 13.9909 677.656 14.4336V24.6094C677.878 25 678.132 25.3646 678.418 25.7031C678.704 26.0417 679.03 26.3281 679.395 26.5625C679.811 26.8359 680.273 27.0508 680.781 27.207C681.302 27.3633 681.875 27.4414 682.5 27.4414C683.503 27.4414 684.368 27.2331 685.098 26.8164C685.827 26.3867 686.426 25.8138 686.895 25.0977C687.363 24.3815 687.708 23.5547 687.93 22.6172C688.164 21.6797 688.281 20.6966 688.281 19.668V19.2578ZM706.641 3.75V8.86719H714.688V11.6602H706.641V23.1445C706.641 23.9648 706.745 24.6419 706.953 25.1758C707.161 25.7096 707.448 26.1328 707.812 26.4453C708.177 26.7708 708.594 26.9987 709.062 27.1289C709.544 27.2591 710.052 27.3242 710.586 27.3242C710.977 27.3242 711.38 27.3047 711.797 27.2656C712.214 27.2135 712.624 27.1549 713.027 27.0898C713.418 27.0247 713.783 26.9596 714.121 26.8945C714.473 26.8164 714.759 26.7513 714.98 26.6992L715.488 29.2578C715.189 29.4401 714.824 29.6029 714.395 29.7461C713.965 29.8763 713.496 29.987 712.988 30.0781C712.48 30.1823 711.94 30.2604 711.367 30.3125C710.807 30.3646 710.247 30.3906 709.688 30.3906C708.75 30.3906 707.871 30.2604 707.051 30C706.243 29.7266 705.54 29.2969 704.941 28.7109C704.342 28.138 703.867 27.3958 703.516 26.4844C703.177 25.5599 703.008 24.4466 703.008 23.1445V11.6602H697.461V8.86719H703.008V3.75H706.641ZM722.676 8.86719H733.477V26.875H740.371V30H722.676V26.875H729.863V12.0117H722.676V8.86719ZM729.395 3.32031C729.395 3.00781 729.44 2.71484 729.531 2.44141C729.635 2.16797 729.792 1.93359 730 1.73828C730.169 1.56901 730.384 1.4388 730.645 1.34766C730.918 1.24349 731.224 1.19141 731.562 1.19141C731.901 1.19141 732.201 1.24349 732.461 1.34766C732.721 1.4388 732.936 1.56901 733.105 1.73828C733.314 1.92057 733.47 2.14844 733.574 2.42188C733.678 2.69531 733.73 2.99479 733.73 3.32031C733.73 3.90625 733.548 4.39453 733.184 4.78516C732.819 5.17578 732.279 5.37109 731.562 5.37109C730.833 5.37109 730.286 5.17578 729.922 4.78516C729.57 4.39453 729.395 3.90625 729.395 3.32031ZM745.117 19.2383C745.117 17.7148 745.339 16.3021 745.781 15C746.224 13.6849 746.862 12.5456 747.695 11.582C748.516 10.6185 749.518 9.86328 750.703 9.31641C751.888 8.75651 753.223 8.47656 754.707 8.47656C756.204 8.47656 757.546 8.75651 758.73 9.31641C759.928 9.86328 760.944 10.6185 761.777 11.582C762.598 12.5456 763.229 13.6849 763.672 15C764.115 16.3021 764.336 17.7148 764.336 19.2383V19.668C764.336 21.1914 764.115 22.6042 763.672 23.9062C763.229 25.2083 762.598 26.3411 761.777 27.3047C760.944 28.2682 759.935 29.0234 758.75 29.5703C757.565 30.1172 756.23 30.3906 754.746 30.3906C753.249 30.3906 751.901 30.1172 750.703 29.5703C749.518 29.0234 748.516 28.2682 747.695 27.3047C746.862 26.3411 746.224 25.2083 745.781 23.9062C745.339 22.6042 745.117 21.1914 745.117 19.668V19.2383ZM748.73 19.668C748.73 20.7096 748.854 21.7057 749.102 22.6562C749.349 23.5938 749.727 24.4206 750.234 25.1367C750.729 25.8529 751.354 26.4193 752.109 26.8359C752.865 27.2526 753.743 27.4609 754.746 27.4609C755.736 27.4609 756.602 27.2526 757.344 26.8359C758.099 26.4193 758.73 25.8529 759.238 25.1367C759.733 24.4206 760.104 23.5938 760.352 22.6562C760.599 21.7057 760.723 20.7096 760.723 19.668V19.2383C760.723 18.2096 760.592 17.2266 760.332 16.2891C760.085 15.3385 759.714 14.5052 759.219 13.7891C758.711 13.0729 758.079 12.5065 757.324 12.0898C756.582 11.6602 755.71 11.4453 754.707 11.4453C753.704 11.4453 752.832 11.6602 752.09 12.0898C751.348 12.5065 750.729 13.0729 750.234 13.7891C749.727 14.5052 749.349 15.3385 749.102 16.2891C748.854 17.2266 748.73 18.2096 748.73 19.2383V19.668ZM770.156 30V8.86719H773.398L773.652 11.9922C773.965 11.5495 774.303 11.1458 774.668 10.7812C775.046 10.4036 775.443 10.0781 775.859 9.80469C776.484 9.38802 777.161 9.06901 777.891 8.84766C778.633 8.61328 779.414 8.48958 780.234 8.47656C781.341 8.47656 782.344 8.63281 783.242 8.94531C784.154 9.25781 784.928 9.74609 785.566 10.4102C786.204 11.0742 786.693 11.9206 787.031 12.9492C787.383 13.9648 787.559 15.1758 787.559 16.582V30H783.945V16.6602C783.945 15.7227 783.841 14.9284 783.633 14.2773C783.424 13.6263 783.118 13.099 782.715 12.6953C782.298 12.2917 781.79 11.9987 781.191 11.8164C780.605 11.6341 779.928 11.543 779.16 11.543C778.496 11.543 777.878 11.6406 777.305 11.8359C776.732 12.0182 776.204 12.2721 775.723 12.5977C775.332 12.8841 774.967 13.2161 774.629 13.5938C774.303 13.9714 774.017 14.388 773.77 14.8438V30H770.156ZM818.77 0H829.57V26.875H836.465V30H818.77V26.875H825.957V3.14453H818.77V0ZM842.793 8.86719H853.594V26.875H860.488V30H842.793V26.875H849.98V12.0117H842.793V8.86719ZM849.512 3.32031C849.512 3.00781 849.557 2.71484 849.648 2.44141C849.753 2.16797 849.909 1.93359 850.117 1.73828C850.286 1.56901 850.501 1.4388 850.762 1.34766C851.035 1.24349 851.341 1.19141 851.68 1.19141C852.018 1.19141 852.318 1.24349 852.578 1.34766C852.839 1.4388 853.053 1.56901 853.223 1.73828C853.431 1.92057 853.587 2.14844 853.691 2.42188C853.796 2.69531 853.848 2.99479 853.848 3.32031C853.848 3.90625 853.665 4.39453 853.301 4.78516C852.936 5.17578 852.396 5.37109 851.68 5.37109C850.951 5.37109 850.404 5.17578 850.039 4.78516C849.688 4.39453 849.512 3.90625 849.512 3.32031ZM884.16 19.668C884.16 20.5924 884.089 21.4844 883.945 22.3438C883.815 23.1901 883.62 23.9844 883.359 24.7266C883.008 25.7031 882.546 26.582 881.973 27.3633C881.413 28.1315 880.736 28.7695 879.941 29.2773C879.368 29.6289 878.737 29.9023 878.047 30.0977C877.37 30.293 876.634 30.3906 875.84 30.3906C874.928 30.3906 874.095 30.2799 873.34 30.0586C872.598 29.8372 871.927 29.5182 871.328 29.1016C871.042 28.8932 870.768 28.6654 870.508 28.418C870.247 28.1706 870 27.8971 869.766 27.5977L869.59 30H866.27V0H869.883V11.1328C870.182 10.7552 870.514 10.4167 870.879 10.1172C871.243 9.80469 871.634 9.53776 872.051 9.31641C872.572 9.04297 873.145 8.83464 873.77 8.69141C874.395 8.54818 875.072 8.47656 875.801 8.47656C876.712 8.47656 877.552 8.60026 878.32 8.84766C879.089 9.09505 879.785 9.4401 880.41 9.88281C880.97 10.2995 881.471 10.8073 881.914 11.4062C882.357 11.9922 882.747 12.6497 883.086 13.3789C883.438 14.1992 883.704 15.1107 883.887 16.1133C884.069 17.1029 884.16 18.151 884.16 19.2578V19.668ZM880.547 19.2578C880.547 18.5938 880.501 17.9492 880.41 17.3242C880.332 16.6862 880.208 16.0872 880.039 15.5273C879.805 14.8372 879.499 14.2057 879.121 13.6328C878.743 13.0599 878.281 12.6107 877.734 12.2852C877.357 12.0508 876.934 11.8685 876.465 11.7383C875.996 11.6081 875.475 11.543 874.902 11.543C874.277 11.543 873.704 11.6276 873.184 11.7969C872.663 11.9531 872.201 12.1745 871.797 12.4609C871.38 12.7604 871.009 13.112 870.684 13.5156C870.371 13.9062 870.104 14.3359 869.883 14.8047V24.043C870.117 24.5117 870.391 24.9479 870.703 25.3516C871.029 25.7422 871.4 26.0872 871.816 26.3867C872.233 26.6862 872.702 26.9206 873.223 27.0898C873.743 27.2461 874.316 27.3242 874.941 27.3242C875.54 27.3242 876.087 27.2526 876.582 27.1094C877.077 26.9531 877.52 26.7318 877.91 26.4453C878.431 26.0807 878.867 25.6185 879.219 25.0586C879.57 24.4987 879.85 23.8737 880.059 23.1836C880.228 22.6628 880.352 22.1029 880.43 21.5039C880.508 20.9049 880.547 20.293 880.547 19.668V19.2578ZM904.121 8.47656C904.785 8.47656 905.475 8.52214 906.191 8.61328C906.921 8.70443 907.467 8.82812 907.832 8.98438L907.344 12.5195C906.641 12.3633 905.97 12.2526 905.332 12.1875C904.707 12.1094 904.049 12.0703 903.359 12.0703C902.474 12.0703 901.673 12.181 900.957 12.4023C900.241 12.6107 899.616 12.9232 899.082 13.3398C898.6 13.7044 898.177 14.1536 897.812 14.6875C897.461 15.2083 897.168 15.7943 896.934 16.4453V30H893.301V8.86719H896.738L896.895 11.6992L896.914 12.2266C897.773 11.0677 898.802 10.1562 900 9.49219C901.211 8.8151 902.585 8.47656 904.121 8.47656ZM928.184 30C928.04 29.7266 927.923 29.388 927.832 28.9844C927.754 28.5677 927.695 28.138 927.656 27.6953C927.292 28.0599 926.882 28.4049 926.426 28.7305C925.983 29.056 925.495 29.3424 924.961 29.5898C924.414 29.8372 923.835 30.0326 923.223 30.1758C922.611 30.319 921.96 30.3906 921.27 30.3906C920.15 30.3906 919.134 30.2279 918.223 29.9023C917.324 29.5768 916.562 29.1341 915.938 28.5742C915.299 28.0273 914.805 27.3763 914.453 26.6211C914.115 25.8529 913.945 25.026 913.945 24.1406C913.945 22.9818 914.173 21.9661 914.629 21.0938C915.098 20.2214 915.755 19.4922 916.602 18.9062C917.448 18.3333 918.464 17.9036 919.648 17.6172C920.846 17.3307 922.181 17.1875 923.652 17.1875H927.598V15.5273C927.598 14.8893 927.48 14.3164 927.246 13.8086C927.012 13.3008 926.68 12.8646 926.25 12.5C925.82 12.1484 925.293 11.875 924.668 11.6797C924.056 11.4844 923.366 11.3867 922.598 11.3867C921.882 11.3867 921.237 11.4779 920.664 11.6602C920.104 11.8424 919.629 12.0833 919.238 12.3828C918.848 12.6823 918.542 13.0404 918.32 13.457C918.112 13.8607 918.008 14.2839 918.008 14.7266H914.375C914.388 13.9583 914.583 13.2031 914.961 12.4609C915.352 11.7188 915.911 11.0482 916.641 10.4492C917.357 9.86328 918.229 9.38802 919.258 9.02344C920.299 8.65885 921.478 8.47656 922.793 8.47656C923.991 8.47656 925.104 8.6263 926.133 8.92578C927.161 9.21224 928.053 9.64844 928.809 10.2344C929.551 10.8333 930.137 11.5755 930.566 12.4609C930.996 13.3464 931.211 14.3815 931.211 15.5664V25.3906C931.211 26.0938 931.276 26.8424 931.406 27.6367C931.536 28.418 931.719 29.1016 931.953 29.6875V30H928.184ZM921.797 27.2461C922.5 27.2461 923.158 27.1549 923.77 26.9727C924.382 26.7904 924.941 26.5495 925.449 26.25C925.944 25.9505 926.374 25.612 926.738 25.2344C927.103 24.8438 927.389 24.4401 927.598 24.0234V19.7461H924.238C922.988 19.7461 921.895 19.8568 920.957 20.0781C920.033 20.2865 919.297 20.612 918.75 21.0547C918.359 21.3672 918.06 21.7383 917.852 22.168C917.656 22.5977 917.559 23.0859 917.559 23.6328C917.559 24.1536 917.643 24.6354 917.812 25.0781C917.995 25.5208 918.262 25.8984 918.613 26.2109C918.965 26.5365 919.408 26.7904 919.941 26.9727C920.475 27.1549 921.094 27.2461 921.797 27.2461ZM952.168 8.47656C952.832 8.47656 953.522 8.52214 954.238 8.61328C954.967 8.70443 955.514 8.82812 955.879 8.98438L955.391 12.5195C954.688 12.3633 954.017 12.2526 953.379 12.1875C952.754 12.1094 952.096 12.0703 951.406 12.0703C950.521 12.0703 949.72 12.181 949.004 12.4023C948.288 12.6107 947.663 12.9232 947.129 13.3398C946.647 13.7044 946.224 14.1536 945.859 14.6875C945.508 15.2083 945.215 15.7943 944.98 16.4453V30H941.348V8.86719H944.785L944.941 11.6992L944.961 12.2266C945.82 11.0677 946.849 10.1562 948.047 9.49219C949.258 8.8151 950.632 8.47656 952.168 8.47656ZM964.043 38.5352C963.704 38.5352 963.307 38.4961 962.852 38.418C962.396 38.3398 962.051 38.2747 961.816 38.2227L962.402 35.2734C962.728 35.2995 963.047 35.319 963.359 35.332C963.685 35.3581 963.939 35.3711 964.121 35.3711C964.616 35.3711 965.065 35.2344 965.469 34.9609C965.885 34.6875 966.257 34.362 966.582 33.9844C966.895 33.6068 967.161 33.2161 967.383 32.8125C967.617 32.4089 967.799 32.0768 967.93 31.8164L969.375 29.0039L960.273 8.86719H964.316L970.117 22.5L971.055 25.0586L972.051 22.5781L977.5 8.86719H981.543L970.82 33.2617C970.573 33.8086 970.254 34.388 969.863 35C969.486 35.612 969.023 36.1784 968.477 36.6992C967.93 37.2201 967.292 37.6562 966.562 38.0078C965.833 38.3594 964.993 38.5352 964.043 38.5352ZM992.656 27.6562C992.656 26.888 992.891 26.2305 993.359 25.6836C993.828 25.1367 994.538 24.8633 995.488 24.8633C996.426 24.8633 997.135 25.1367 997.617 25.6836C998.112 26.2174 998.359 26.875 998.359 27.6562C998.359 28.4245 998.112 29.069 997.617 29.5898C997.122 30.1107 996.413 30.3711 995.488 30.3711C994.551 30.3711 993.841 30.1107 993.359 29.5898C992.891 29.056 992.656 28.4115 992.656 27.6562Z" fill="#FF35D0"/>
<path d="M334.336 33.9062H648.031V35.8594H334.336V33.9062ZM660.156 33.9062H672.094V35.8594H660.156V33.9062ZM679.609 33.9062H960.336V35.8594H679.609V33.9062ZM972.461 33.9062H982.969V35.8594H972.461V33.9062Z" fill="#FF35D0"/>
</svg>
