<svg width="1263" height="62" viewBox="0 0 1263 62" fill="none" xmlns="http://www.w3.org/2000/svg">
<path d="M17.8438 25.3438L28.2188 2.5H34.7812L20.625 31.0312L20.5312 48H15.1562L15.0625 31.0312L0.90625 2.5H7.5L17.8438 25.3438ZM41.25 30.7812C41.25 28.3438 41.6042 26.0833 42.3125 24C43.0208 21.8958 44.0417 20.0729 45.375 18.5312C46.6875 16.9896 48.2917 15.7812 50.1875 14.9062C52.0833 14.0104 54.2188 13.5625 56.5938 13.5625C58.9896 13.5625 61.1354 14.0104 63.0312 14.9062C64.9479 15.7812 66.5729 16.9896 67.9062 18.5312C69.2188 20.0729 70.2292 21.8958 70.9375 24C71.6458 26.0833 72 28.3438 72 30.7812V31.4688C72 33.9062 71.6458 36.1667 70.9375 38.25C70.2292 40.3333 69.2188 42.1458 67.9062 43.6875C66.5729 45.2292 64.9583 46.4375 63.0625 47.3125C61.1667 48.1875 59.0312 48.625 56.6562 48.625C54.2604 48.625 52.1042 48.1875 50.1875 47.3125C48.2917 46.4375 46.6875 45.2292 45.375 43.6875C44.0417 42.1458 43.0208 40.3333 42.3125 38.25C41.6042 36.1667 41.25 33.9062 41.25 31.4688V30.7812ZM47.0312 31.4688C47.0312 33.1354 47.2292 34.7292 47.625 36.25C48.0208 37.75 48.625 39.0729 49.4375 40.2188C50.2292 41.3646 51.2292 42.2708 52.4375 42.9375C53.6458 43.6042 55.0521 43.9375 56.6562 43.9375C58.2396 43.9375 59.625 43.6042 60.8125 42.9375C62.0208 42.2708 63.0312 41.3646 63.8438 40.2188C64.6354 39.0729 65.2292 37.75 65.625 36.25C66.0208 34.7292 66.2188 33.1354 66.2188 31.4688V30.7812C66.2188 29.1354 66.0104 27.5625 65.5938 26.0625C65.1979 24.5417 64.6042 23.2083 63.8125 22.0625C63 20.9167 61.9896 20.0104 60.7812 19.3438C59.5938 18.6562 58.1979 18.3125 56.5938 18.3125C54.9896 18.3125 53.5938 18.6562 52.4062 19.3438C51.2188 20.0104 50.2292 20.9167 49.4375 22.0625C48.625 23.2083 48.0208 24.5417 47.625 26.0625C47.2292 27.5625 47.0312 29.1354 47.0312 30.7812V31.4688ZM103.594 48L103.25 43.3438C102.125 45.0104 100.719 46.3125 99.0312 47.25C97.3438 48.1667 95.3958 48.625 93.1875 48.625C91.4167 48.625 89.8125 48.3542 88.375 47.8125C86.9375 47.25 85.7083 46.3854 84.6875 45.2188C83.6667 44.0521 82.875 42.5729 82.3125 40.7812C81.7708 38.9688 81.5 36.8021 81.5 34.2812V14.1875H87.2812V34.3438C87.2812 36.1771 87.4271 37.6979 87.7188 38.9062C88.0104 40.1146 88.4479 41.0729 89.0312 41.7812C89.6146 42.5104 90.3229 43.0208 91.1562 43.3125C92.0104 43.6042 92.9896 43.75 94.0938 43.75C95.3854 43.75 96.5417 43.6042 97.5625 43.3125C98.5833 43 99.4688 42.5729 100.219 42.0312C100.844 41.5938 101.385 41.0729 101.844 40.4688C102.323 39.8438 102.719 39.1667 103.031 38.4375V14.1875H108.844V48H103.594ZM141.906 13.5625C142.969 13.5625 144.073 13.6354 145.219 13.7812C146.385 13.9271 147.26 14.125 147.844 14.375L147.062 20.0312C145.938 19.7812 144.865 19.6042 143.844 19.5C142.844 19.375 141.792 19.3125 140.688 19.3125C139.271 19.3125 137.99 19.4896 136.844 19.8438C135.698 20.1771 134.698 20.6771 133.844 21.3438C133.073 21.9271 132.396 22.6458 131.812 23.5C131.25 24.3333 130.781 25.2708 130.406 26.3125V48H124.594V14.1875H130.094L130.344 18.7188L130.375 19.5625C131.75 17.7083 133.396 16.25 135.312 15.1875C137.25 14.1042 139.448 13.5625 141.906 13.5625ZM197.531 0H214.812V43H225.844V48H197.531V43H209.031V5.03125H197.531V0ZM233.438 30.7812C233.438 28.3438 233.792 26.0833 234.5 24C235.208 21.8958 236.229 20.0729 237.562 18.5312C238.875 16.9896 240.479 15.7812 242.375 14.9062C244.271 14.0104 246.406 13.5625 248.781 13.5625C251.177 13.5625 253.323 14.0104 255.219 14.9062C257.135 15.7812 258.76 16.9896 260.094 18.5312C261.406 20.0729 262.417 21.8958 263.125 24C263.833 26.0833 264.188 28.3438 264.188 30.7812V31.4688C264.188 33.9062 263.833 36.1667 263.125 38.25C262.417 40.3333 261.406 42.1458 260.094 43.6875C258.76 45.2292 257.146 46.4375 255.25 47.3125C253.354 48.1875 251.219 48.625 248.844 48.625C246.448 48.625 244.292 48.1875 242.375 47.3125C240.479 46.4375 238.875 45.2292 237.562 43.6875C236.229 42.1458 235.208 40.3333 234.5 38.25C233.792 36.1667 233.438 33.9062 233.438 31.4688V30.7812ZM239.219 31.4688C239.219 33.1354 239.417 34.7292 239.812 36.25C240.208 37.75 240.812 39.0729 241.625 40.2188C242.417 41.3646 243.417 42.2708 244.625 42.9375C245.833 43.6042 247.24 43.9375 248.844 43.9375C250.427 43.9375 251.812 43.6042 253 42.9375C254.208 42.2708 255.219 41.3646 256.031 40.2188C256.823 39.0729 257.417 37.75 257.812 36.25C258.208 34.7292 258.406 33.1354 258.406 31.4688V30.7812C258.406 29.1354 258.198 27.5625 257.781 26.0625C257.385 24.5417 256.792 23.2083 256 22.0625C255.188 20.9167 254.177 20.0104 252.969 19.3438C251.781 18.6562 250.385 18.3125 248.781 18.3125C247.177 18.3125 245.781 18.6562 244.594 19.3438C243.406 20.0104 242.417 20.9167 241.625 22.0625C240.812 23.2083 240.208 24.5417 239.812 26.0625C239.417 27.5625 239.219 29.1354 239.219 30.7812V31.4688ZM285.031 48L271.125 14.1875H277.062L286.75 39.6875L287.281 41.7812L287.844 39.6875L297.312 14.1875H303.219L289.438 48H285.031ZM326.875 48.625C324.5 48.625 322.312 48.2188 320.312 47.4062C318.333 46.5938 316.635 45.4583 315.219 44C313.802 42.5417 312.698 40.8125 311.906 38.8125C311.115 36.8125 310.719 34.6354 310.719 32.2812V30.9688C310.719 28.2396 311.156 25.8021 312.031 23.6562C312.906 21.4896 314.073 19.6562 315.531 18.1562C316.969 16.6771 318.604 15.5417 320.438 14.75C322.292 13.9583 324.188 13.5625 326.125 13.5625C328.562 13.5625 330.688 13.9896 332.5 14.8438C334.333 15.6771 335.854 16.8333 337.062 18.3125C338.271 19.8125 339.167 21.5729 339.75 23.5938C340.354 25.6146 340.656 27.8021 340.656 30.1562V32.75H316.5V32.9688C316.646 34.6146 316.969 36.0625 317.469 37.3125C317.99 38.5625 318.698 39.6667 319.594 40.625C320.51 41.6458 321.615 42.4479 322.906 43.0312C324.198 43.6146 325.625 43.9062 327.188 43.9062C329.25 43.9062 331.083 43.4896 332.688 42.6562C334.292 41.8229 335.625 40.7188 336.688 39.3438L340.219 42.0938C339.094 43.8021 337.406 45.3229 335.156 46.6562C332.927 47.9688 330.167 48.625 326.875 48.625ZM326.125 18.3125C324.958 18.3125 323.854 18.5312 322.812 18.9688C321.771 19.3854 320.833 20 320 20.8125C319.167 21.6458 318.458 22.6667 317.875 23.875C317.312 25.0625 316.917 26.4375 316.688 28H334.875V27.7188C334.875 26.6771 334.677 25.5625 334.281 24.375C333.885 23.1667 333.333 22.125 332.625 21.25C331.917 20.375 331.021 19.6667 329.938 19.125C328.875 18.5833 327.604 18.3125 326.125 18.3125ZM417.469 31.4688C417.469 32.9479 417.354 34.375 417.125 35.75C416.917 37.1042 416.604 38.375 416.188 39.5625C415.625 41.125 414.885 42.5312 413.969 43.7812C413.073 45.0104 411.99 46.0312 410.719 46.8438C409.802 47.4062 408.792 47.8438 407.688 48.1562C406.604 48.4688 405.427 48.625 404.156 48.625C402.698 48.625 401.365 48.4479 400.156 48.0938C398.969 47.7396 397.896 47.2292 396.938 46.5625C396.479 46.2292 396.042 45.8646 395.625 45.4688C395.208 45.0729 394.812 44.6354 394.438 44.1562L394.156 48H388.844V0H394.625V17.8125C395.104 17.2083 395.635 16.6667 396.219 16.1875C396.802 15.6875 397.427 15.2604 398.094 14.9062C398.927 14.4688 399.844 14.1354 400.844 13.9062C401.844 13.6771 402.927 13.5625 404.094 13.5625C405.552 13.5625 406.896 13.7604 408.125 14.1562C409.354 14.5521 410.469 15.1042 411.469 15.8125C412.365 16.4792 413.167 17.2917 413.875 18.25C414.583 19.1875 415.208 20.2396 415.75 21.4062C416.312 22.7188 416.74 24.1771 417.031 25.7812C417.323 27.3646 417.469 29.0417 417.469 30.8125V31.4688ZM411.688 30.8125C411.688 29.75 411.615 28.7188 411.469 27.7188C411.344 26.6979 411.146 25.7396 410.875 24.8438C410.5 23.7396 410.01 22.7292 409.406 21.8125C408.802 20.8958 408.062 20.1771 407.188 19.6562C406.583 19.2812 405.906 18.9896 405.156 18.7812C404.406 18.5729 403.573 18.4688 402.656 18.4688C401.656 18.4688 400.74 18.6042 399.906 18.875C399.073 19.125 398.333 19.4792 397.688 19.9375C397.021 20.4167 396.427 20.9792 395.906 21.625C395.406 22.25 394.979 22.9375 394.625 23.6875V38.4688C395 39.2188 395.438 39.9167 395.938 40.5625C396.458 41.1875 397.052 41.7396 397.719 42.2188C398.385 42.6979 399.135 43.0729 399.969 43.3438C400.802 43.5938 401.719 43.7188 402.719 43.7188C403.677 43.7188 404.552 43.6042 405.344 43.375C406.135 43.125 406.844 42.7708 407.469 42.3125C408.302 41.7292 409 40.9896 409.562 40.0938C410.125 39.1979 410.573 38.1979 410.906 37.0938C411.177 36.2604 411.375 35.3646 411.5 34.4062C411.625 33.4479 411.688 32.4688 411.688 31.4688V30.8125ZM429.969 61.6562C429.427 61.6562 428.792 61.5938 428.062 61.4688C427.333 61.3438 426.781 61.2396 426.406 61.1562L427.344 56.4375C427.865 56.4792 428.375 56.5104 428.875 56.5312C429.396 56.5729 429.802 56.5938 430.094 56.5938C430.885 56.5938 431.604 56.375 432.25 55.9375C432.917 55.5 433.51 54.9792 434.031 54.375C434.531 53.7708 434.958 53.1458 435.312 52.5C435.688 51.8542 435.979 51.3229 436.188 50.9062L438.5 46.4062L423.938 14.1875H430.406L439.688 36L441.188 40.0938L442.781 36.125L451.5 14.1875H457.969L440.812 53.2188C440.417 54.0938 439.906 55.0208 439.281 56C438.677 56.9792 437.938 57.8854 437.062 58.7188C436.188 59.5521 435.167 60.25 434 60.8125C432.833 61.375 431.49 61.6562 429.969 61.6562ZM479.375 6V14.1875H492.25V18.6562H479.375V37.0312C479.375 38.3438 479.542 39.4271 479.875 40.2812C480.208 41.1354 480.667 41.8125 481.25 42.3125C481.833 42.8333 482.5 43.1979 483.25 43.4062C484.021 43.6146 484.833 43.7188 485.688 43.7188C486.312 43.7188 486.958 43.6875 487.625 43.625C488.292 43.5417 488.948 43.4479 489.594 43.3438C490.219 43.2396 490.802 43.1354 491.344 43.0312C491.906 42.9062 492.365 42.8021 492.719 42.7188L493.531 46.8125C493.052 47.1042 492.469 47.3646 491.781 47.5938C491.094 47.8021 490.344 47.9792 489.531 48.125C488.719 48.2917 487.854 48.4167 486.938 48.5C486.042 48.5833 485.146 48.625 484.25 48.625C482.75 48.625 481.344 48.4167 480.031 48C478.74 47.5625 477.615 46.875 476.656 45.9375C475.698 45.0208 474.938 43.8333 474.375 42.375C473.833 40.8958 473.562 39.1146 473.562 37.0312V18.6562H464.688V14.1875H473.562V6H479.375ZM519.062 48.625C516.688 48.625 514.5 48.2188 512.5 47.4062C510.521 46.5938 508.823 45.4583 507.406 44C505.99 42.5417 504.885 40.8125 504.094 38.8125C503.302 36.8125 502.906 34.6354 502.906 32.2812V30.9688C502.906 28.2396 503.344 25.8021 504.219 23.6562C505.094 21.4896 506.26 19.6562 507.719 18.1562C509.156 16.6771 510.792 15.5417 512.625 14.75C514.479 13.9583 516.375 13.5625 518.312 13.5625C520.75 13.5625 522.875 13.9896 524.688 14.8438C526.521 15.6771 528.042 16.8333 529.25 18.3125C530.458 19.8125 531.354 21.5729 531.938 23.5938C532.542 25.6146 532.844 27.8021 532.844 30.1562V32.75H508.688V32.9688C508.833 34.6146 509.156 36.0625 509.656 37.3125C510.177 38.5625 510.885 39.6667 511.781 40.625C512.698 41.6458 513.802 42.4479 515.094 43.0312C516.385 43.6146 517.812 43.9062 519.375 43.9062C521.438 43.9062 523.271 43.4896 524.875 42.6562C526.479 41.8229 527.812 40.7188 528.875 39.3438L532.406 42.0938C531.281 43.8021 529.594 45.3229 527.344 46.6562C525.115 47.9688 522.354 48.625 519.062 48.625ZM518.312 18.3125C517.146 18.3125 516.042 18.5312 515 18.9688C513.958 19.3854 513.021 20 512.188 20.8125C511.354 21.6458 510.646 22.6667 510.062 23.875C509.5 25.0625 509.104 26.4375 508.875 28H527.062V27.7188C527.062 26.6771 526.865 25.5625 526.469 24.375C526.073 23.1667 525.521 22.125 524.812 21.25C524.104 20.375 523.208 19.6667 522.125 19.125C521.062 18.5833 519.792 18.3125 518.312 18.3125ZM584.25 48L577.062 14.1875H582.188L586.125 35.75L586.812 40.5938L587.656 35.75L593.062 14.1875H596.781L602.156 35.75L603.062 41.0625L603.906 35.75L607.656 14.1875H612.781L605.594 48H601.031L595.75 27.2812L594.875 22.0312L594.031 27.2812L588.812 48H584.25ZM620.344 14.1875H637.625V43H648.656V48H620.344V43H631.844V19.2188H620.344V14.1875ZM631.094 5.3125C631.094 4.8125 631.167 4.34375 631.312 3.90625C631.479 3.46875 631.729 3.09375 632.062 2.78125C632.333 2.51042 632.677 2.30208 633.094 2.15625C633.531 1.98958 634.021 1.90625 634.562 1.90625C635.104 1.90625 635.583 1.98958 636 2.15625C636.417 2.30208 636.76 2.51042 637.031 2.78125C637.365 3.07292 637.615 3.4375 637.781 3.875C637.948 4.3125 638.031 4.79167 638.031 5.3125C638.031 6.25 637.74 7.03125 637.156 7.65625C636.573 8.28125 635.708 8.59375 634.562 8.59375C633.396 8.59375 632.521 8.28125 631.938 7.65625C631.375 7.03125 631.094 6.25 631.094 5.3125ZM658.781 0H676.062V43H687.094V48H658.781V43H670.281V5.03125H658.781V0ZM697.219 0H714.5V43H725.531V48H697.219V43H708.719V5.03125H697.219V0ZM801.844 31.4688C801.844 32.9479 801.729 34.375 801.5 35.75C801.292 37.1042 800.979 38.375 800.562 39.5625C800 41.125 799.26 42.5312 798.344 43.7812C797.448 45.0104 796.365 46.0312 795.094 46.8438C794.177 47.4062 793.167 47.8438 792.062 48.1562C790.979 48.4688 789.802 48.625 788.531 48.625C787.073 48.625 785.74 48.4479 784.531 48.0938C783.344 47.7396 782.271 47.2292 781.312 46.5625C780.854 46.2292 780.417 45.8646 780 45.4688C779.583 45.0729 779.188 44.6354 778.812 44.1562L778.531 48H773.219V0H779V17.8125C779.479 17.2083 780.01 16.6667 780.594 16.1875C781.177 15.6875 781.802 15.2604 782.469 14.9062C783.302 14.4688 784.219 14.1354 785.219 13.9062C786.219 13.6771 787.302 13.5625 788.469 13.5625C789.927 13.5625 791.271 13.7604 792.5 14.1562C793.729 14.5521 794.844 15.1042 795.844 15.8125C796.74 16.4792 797.542 17.2917 798.25 18.25C798.958 19.1875 799.583 20.2396 800.125 21.4062C800.688 22.7188 801.115 24.1771 801.406 25.7812C801.698 27.3646 801.844 29.0417 801.844 30.8125V31.4688ZM796.062 30.8125C796.062 29.75 795.99 28.7188 795.844 27.7188C795.719 26.6979 795.521 25.7396 795.25 24.8438C794.875 23.7396 794.385 22.7292 793.781 21.8125C793.177 20.8958 792.438 20.1771 791.562 19.6562C790.958 19.2812 790.281 18.9896 789.531 18.7812C788.781 18.5729 787.948 18.4688 787.031 18.4688C786.031 18.4688 785.115 18.6042 784.281 18.875C783.448 19.125 782.708 19.4792 782.062 19.9375C781.396 20.4167 780.802 20.9792 780.281 21.625C779.781 22.25 779.354 22.9375 779 23.6875V38.4688C779.375 39.2188 779.812 39.9167 780.312 40.5625C780.833 41.1875 781.427 41.7396 782.094 42.2188C782.76 42.6979 783.51 43.0729 784.344 43.3438C785.177 43.5938 786.094 43.7188 787.094 43.7188C788.052 43.7188 788.927 43.6042 789.719 43.375C790.51 43.125 791.219 42.7708 791.844 42.3125C792.677 41.7292 793.375 40.9896 793.938 40.0938C794.5 39.1979 794.948 38.1979 795.281 37.0938C795.552 36.2604 795.75 35.3646 795.875 34.4062C796 33.4479 796.062 32.4688 796.062 31.4688V30.8125ZM826.562 48.625C824.188 48.625 822 48.2188 820 47.4062C818.021 46.5938 816.323 45.4583 814.906 44C813.49 42.5417 812.385 40.8125 811.594 38.8125C810.802 36.8125 810.406 34.6354 810.406 32.2812V30.9688C810.406 28.2396 810.844 25.8021 811.719 23.6562C812.594 21.4896 813.76 19.6562 815.219 18.1562C816.656 16.6771 818.292 15.5417 820.125 14.75C821.979 13.9583 823.875 13.5625 825.812 13.5625C828.25 13.5625 830.375 13.9896 832.188 14.8438C834.021 15.6771 835.542 16.8333 836.75 18.3125C837.958 19.8125 838.854 21.5729 839.438 23.5938C840.042 25.6146 840.344 27.8021 840.344 30.1562V32.75H816.188V32.9688C816.333 34.6146 816.656 36.0625 817.156 37.3125C817.677 38.5625 818.385 39.6667 819.281 40.625C820.198 41.6458 821.302 42.4479 822.594 43.0312C823.885 43.6146 825.312 43.9062 826.875 43.9062C828.938 43.9062 830.771 43.4896 832.375 42.6562C833.979 41.8229 835.312 40.7188 836.375 39.3438L839.906 42.0938C838.781 43.8021 837.094 45.3229 834.844 46.6562C832.615 47.9688 829.854 48.625 826.562 48.625ZM825.812 18.3125C824.646 18.3125 823.542 18.5312 822.5 18.9688C821.458 19.3854 820.521 20 819.688 20.8125C818.854 21.6458 818.146 22.6667 817.562 23.875C817 25.0625 816.604 26.4375 816.375 28H834.562V27.7188C834.562 26.6771 834.365 25.5625 833.969 24.375C833.573 23.1667 833.021 22.125 832.312 21.25C831.604 20.375 830.708 19.6667 829.625 19.125C828.562 18.5833 827.292 18.3125 825.812 18.3125ZM900.031 48L886.125 14.1875H892.062L901.75 39.6875L902.281 41.7812L902.844 39.6875L912.312 14.1875H918.219L904.438 48H900.031ZM927.844 14.1875H945.125V43H956.156V48H927.844V43H939.344V19.2188H927.844V14.1875ZM938.594 5.3125C938.594 4.8125 938.667 4.34375 938.812 3.90625C938.979 3.46875 939.229 3.09375 939.562 2.78125C939.833 2.51042 940.177 2.30208 940.594 2.15625C941.031 1.98958 941.521 1.90625 942.062 1.90625C942.604 1.90625 943.083 1.98958 943.5 2.15625C943.917 2.30208 944.26 2.51042 944.531 2.78125C944.865 3.07292 945.115 3.4375 945.281 3.875C945.448 4.3125 945.531 4.79167 945.531 5.3125C945.531 6.25 945.24 7.03125 944.656 7.65625C944.073 8.28125 943.208 8.59375 942.062 8.59375C940.896 8.59375 940.021 8.28125 939.438 7.65625C938.875 7.03125 938.594 6.25 938.594 5.3125ZM987.844 39.0312C987.844 38.3438 987.708 37.7292 987.438 37.1875C987.167 36.625 986.708 36.1146 986.062 35.6562C985.417 35.1979 984.562 34.7812 983.5 34.4062C982.438 34.0104 981.115 33.6562 979.531 33.3438C977.594 32.9479 975.823 32.4688 974.219 31.9062C972.635 31.3438 971.281 30.6667 970.156 29.875C969.01 29.1042 968.125 28.1979 967.5 27.1562C966.875 26.0938 966.562 24.8646 966.562 23.4688C966.562 22.0938 966.885 20.8125 967.531 19.625C968.177 18.4167 969.083 17.3646 970.25 16.4688C971.417 15.5729 972.802 14.8646 974.406 14.3438C976.031 13.8229 977.812 13.5625 979.75 13.5625C981.833 13.5625 983.708 13.8333 985.375 14.375C987.042 14.9167 988.458 15.6667 989.625 16.625C990.792 17.5833 991.688 18.7083 992.312 20C992.958 21.2708 993.281 22.6458 993.281 24.125H987.5C987.5 23.3958 987.312 22.6875 986.938 22C986.562 21.2917 986.042 20.6667 985.375 20.125C984.708 19.5833 983.896 19.1458 982.938 18.8125C982 18.4792 980.938 18.3125 979.75 18.3125C978.521 18.3125 977.438 18.4479 976.5 18.7188C975.583 18.9896 974.823 19.3542 974.219 19.8125C973.594 20.2708 973.125 20.8021 972.812 21.4062C972.5 22.0104 972.344 22.6354 972.344 23.2812C972.344 23.9479 972.469 24.5417 972.719 25.0625C972.969 25.5833 973.406 26.0521 974.031 26.4688C974.635 26.8854 975.448 27.2604 976.469 27.5938C977.51 27.9271 978.823 28.25 980.406 28.5625C982.49 29 984.354 29.5104 986 30.0938C987.646 30.6562 989.031 31.3333 990.156 32.125C991.281 32.9375 992.135 33.875 992.719 34.9375C993.323 36 993.625 37.2292 993.625 38.625C993.625 40.125 993.281 41.4896 992.594 42.7188C991.927 43.9479 990.99 45 989.781 45.875C988.573 46.75 987.125 47.4271 985.438 47.9062C983.75 48.3854 981.906 48.625 979.906 48.625C977.615 48.625 975.573 48.3229 973.781 47.7188C971.99 47.0938 970.479 46.2708 969.25 45.25C968 44.25 967.042 43.0833 966.375 41.75C965.729 40.4167 965.406 39.0312 965.406 37.5938H971.188C971.271 38.7812 971.583 39.7812 972.125 40.5938C972.688 41.4062 973.385 42.0625 974.219 42.5625C975.031 43.0625 975.938 43.4167 976.938 43.625C977.938 43.8333 978.927 43.9375 979.906 43.9375C981.448 43.9375 982.792 43.7604 983.938 43.4062C985.083 43.0312 985.979 42.5208 986.625 41.875C987.021 41.4792 987.323 41.0417 987.531 40.5625C987.74 40.0833 987.844 39.5729 987.844 39.0312ZM1004.72 14.1875H1022V43H1033.03V48H1004.72V43H1016.22V19.2188H1004.72V14.1875ZM1015.47 5.3125C1015.47 4.8125 1015.54 4.34375 1015.69 3.90625C1015.85 3.46875 1016.1 3.09375 1016.44 2.78125C1016.71 2.51042 1017.05 2.30208 1017.47 2.15625C1017.91 1.98958 1018.4 1.90625 1018.94 1.90625C1019.48 1.90625 1019.96 1.98958 1020.38 2.15625C1020.79 2.30208 1021.14 2.51042 1021.41 2.78125C1021.74 3.07292 1021.99 3.4375 1022.16 3.875C1022.32 4.3125 1022.41 4.79167 1022.41 5.3125C1022.41 6.25 1022.11 7.03125 1021.53 7.65625C1020.95 8.28125 1020.08 8.59375 1018.94 8.59375C1017.77 8.59375 1016.9 8.28125 1016.31 7.65625C1015.75 7.03125 1015.47 6.25 1015.47 5.3125ZM1070.91 31.4688C1070.91 32.9479 1070.79 34.375 1070.56 35.75C1070.35 37.1042 1070.04 38.375 1069.62 39.5625C1069.06 41.125 1068.32 42.5312 1067.41 43.7812C1066.51 45.0104 1065.43 46.0312 1064.16 46.8438C1063.24 47.4062 1062.23 47.8438 1061.12 48.1562C1060.04 48.4688 1058.86 48.625 1057.59 48.625C1056.14 48.625 1054.8 48.4479 1053.59 48.0938C1052.41 47.7396 1051.33 47.2292 1050.38 46.5625C1049.92 46.2292 1049.48 45.8646 1049.06 45.4688C1048.65 45.0729 1048.25 44.6354 1047.88 44.1562L1047.59 48H1042.28V0H1048.06V17.8125C1048.54 17.2083 1049.07 16.6667 1049.66 16.1875C1050.24 15.6875 1050.86 15.2604 1051.53 14.9062C1052.36 14.4688 1053.28 14.1354 1054.28 13.9062C1055.28 13.6771 1056.36 13.5625 1057.53 13.5625C1058.99 13.5625 1060.33 13.7604 1061.56 14.1562C1062.79 14.5521 1063.91 15.1042 1064.91 15.8125C1065.8 16.4792 1066.6 17.2917 1067.31 18.25C1068.02 19.1875 1068.65 20.2396 1069.19 21.4062C1069.75 22.7188 1070.18 24.1771 1070.47 25.7812C1070.76 27.3646 1070.91 29.0417 1070.91 30.8125V31.4688ZM1065.12 30.8125C1065.12 29.75 1065.05 28.7188 1064.91 27.7188C1064.78 26.6979 1064.58 25.7396 1064.31 24.8438C1063.94 23.7396 1063.45 22.7292 1062.84 21.8125C1062.24 20.8958 1061.5 20.1771 1060.62 19.6562C1060.02 19.2812 1059.34 18.9896 1058.59 18.7812C1057.84 18.5729 1057.01 18.4688 1056.09 18.4688C1055.09 18.4688 1054.18 18.6042 1053.34 18.875C1052.51 19.125 1051.77 19.4792 1051.12 19.9375C1050.46 20.4167 1049.86 20.9792 1049.34 21.625C1048.84 22.25 1048.42 22.9375 1048.06 23.6875V38.4688C1048.44 39.2188 1048.88 39.9167 1049.38 40.5625C1049.9 41.1875 1050.49 41.7396 1051.16 42.2188C1051.82 42.6979 1052.57 43.0729 1053.41 43.3438C1054.24 43.5938 1055.16 43.7188 1056.16 43.7188C1057.11 43.7188 1057.99 43.6042 1058.78 43.375C1059.57 43.125 1060.28 42.7708 1060.91 42.3125C1061.74 41.7292 1062.44 40.9896 1063 40.0938C1063.56 39.1979 1064.01 38.1979 1064.34 37.0938C1064.61 36.2604 1064.81 35.3646 1064.94 34.4062C1065.06 33.4479 1065.12 32.4688 1065.12 31.4688V30.8125ZM1081.59 0H1098.88V43H1109.91V48H1081.59V43H1093.09V5.03125H1081.59V0ZM1134.06 48.625C1131.69 48.625 1129.5 48.2188 1127.5 47.4062C1125.52 46.5938 1123.82 45.4583 1122.41 44C1120.99 42.5417 1119.89 40.8125 1119.09 38.8125C1118.3 36.8125 1117.91 34.6354 1117.91 32.2812V30.9688C1117.91 28.2396 1118.34 25.8021 1119.22 23.6562C1120.09 21.4896 1121.26 19.6562 1122.72 18.1562C1124.16 16.6771 1125.79 15.5417 1127.62 14.75C1129.48 13.9583 1131.38 13.5625 1133.31 13.5625C1135.75 13.5625 1137.88 13.9896 1139.69 14.8438C1141.52 15.6771 1143.04 16.8333 1144.25 18.3125C1145.46 19.8125 1146.35 21.5729 1146.94 23.5938C1147.54 25.6146 1147.84 27.8021 1147.84 30.1562V32.75H1123.69V32.9688C1123.83 34.6146 1124.16 36.0625 1124.66 37.3125C1125.18 38.5625 1125.89 39.6667 1126.78 40.625C1127.7 41.6458 1128.8 42.4479 1130.09 43.0312C1131.39 43.6146 1132.81 43.9062 1134.38 43.9062C1136.44 43.9062 1138.27 43.4896 1139.88 42.6562C1141.48 41.8229 1142.81 40.7188 1143.88 39.3438L1147.41 42.0938C1146.28 43.8021 1144.59 45.3229 1142.34 46.6562C1140.11 47.9688 1137.35 48.625 1134.06 48.625ZM1133.31 18.3125C1132.15 18.3125 1131.04 18.5312 1130 18.9688C1128.96 19.3854 1128.02 20 1127.19 20.8125C1126.35 21.6458 1125.65 22.6667 1125.06 23.875C1124.5 25.0625 1124.1 26.4375 1123.88 28H1142.06V27.7188C1142.06 26.6771 1141.86 25.5625 1141.47 24.375C1141.07 23.1667 1140.52 22.125 1139.81 21.25C1139.1 20.375 1138.21 19.6667 1137.12 19.125C1136.06 18.5833 1134.79 18.3125 1133.31 18.3125ZM1194.38 30.7812C1194.38 28.3438 1194.73 26.0833 1195.44 24C1196.15 21.8958 1197.17 20.0729 1198.5 18.5312C1199.81 16.9896 1201.42 15.7812 1203.31 14.9062C1205.21 14.0104 1207.34 13.5625 1209.72 13.5625C1212.11 13.5625 1214.26 14.0104 1216.16 14.9062C1218.07 15.7812 1219.7 16.9896 1221.03 18.5312C1222.34 20.0729 1223.35 21.8958 1224.06 24C1224.77 26.0833 1225.12 28.3438 1225.12 30.7812V31.4688C1225.12 33.9062 1224.77 36.1667 1224.06 38.25C1223.35 40.3333 1222.34 42.1458 1221.03 43.6875C1219.7 45.2292 1218.08 46.4375 1216.19 47.3125C1214.29 48.1875 1212.16 48.625 1209.78 48.625C1207.39 48.625 1205.23 48.1875 1203.31 47.3125C1201.42 46.4375 1199.81 45.2292 1198.5 43.6875C1197.17 42.1458 1196.15 40.3333 1195.44 38.25C1194.73 36.1667 1194.38 33.9062 1194.38 31.4688V30.7812ZM1200.16 31.4688C1200.16 33.1354 1200.35 34.7292 1200.75 36.25C1201.15 37.75 1201.75 39.0729 1202.56 40.2188C1203.35 41.3646 1204.35 42.2708 1205.56 42.9375C1206.77 43.6042 1208.18 43.9375 1209.78 43.9375C1211.36 43.9375 1212.75 43.6042 1213.94 42.9375C1215.15 42.2708 1216.16 41.3646 1216.97 40.2188C1217.76 39.0729 1218.35 37.75 1218.75 36.25C1219.15 34.7292 1219.34 33.1354 1219.34 31.4688V30.7812C1219.34 29.1354 1219.14 27.5625 1218.72 26.0625C1218.32 24.5417 1217.73 23.2083 1216.94 22.0625C1216.12 20.9167 1215.11 20.0104 1213.91 19.3438C1212.72 18.6562 1211.32 18.3125 1209.72 18.3125C1208.11 18.3125 1206.72 18.6562 1205.53 19.3438C1204.34 20.0104 1203.35 20.9167 1202.56 22.0625C1201.75 23.2083 1201.15 24.5417 1200.75 26.0625C1200.35 27.5625 1200.16 29.1354 1200.16 30.7812V31.4688ZM1234.44 48V14.1875H1239.62L1240.03 19.1875C1240.53 18.4792 1241.07 17.8333 1241.66 17.25C1242.26 16.6458 1242.9 16.125 1243.56 15.6875C1244.56 15.0208 1245.65 14.5104 1246.81 14.1562C1248 13.7812 1249.25 13.5833 1250.56 13.5625C1252.33 13.5625 1253.94 13.8125 1255.38 14.3125C1256.83 14.8125 1258.07 15.5938 1259.09 16.6562C1260.11 17.7188 1260.9 19.0729 1261.44 20.7188C1262 22.3438 1262.28 24.2812 1262.28 26.5312V48H1256.5V26.6562C1256.5 25.1562 1256.33 23.8854 1256 22.8438C1255.67 21.8021 1255.18 20.9583 1254.53 20.3125C1253.86 19.6667 1253.05 19.1979 1252.09 18.9062C1251.16 18.6146 1250.07 18.4688 1248.84 18.4688C1247.78 18.4688 1246.79 18.625 1245.88 18.9375C1244.96 19.2292 1244.11 19.6354 1243.34 20.1562C1242.72 20.6146 1242.14 21.1458 1241.59 21.75C1241.07 22.3542 1240.61 23.0208 1240.22 23.75V48H1234.44Z" fill="#FF35D0"/>
</svg>
