<svg width="616" height="37" viewBox="0 0 616 37" fill="none" xmlns="http://www.w3.org/2000/svg">
<path d="M10.032 36V22.32L0.72 0.959999H4.704L11.904 18.192H12.096L19.296 0.959999H23.28L13.968 22.32V36H10.032ZM36 36.48C33.536 36.48 31.568 35.952 30.096 34.896C28.624 33.808 27.552 32.048 26.88 29.616C26.24 27.184 25.92 23.952 25.92 19.92V17.04C25.92 12.976 26.24 9.744 26.88 7.344C27.552 4.912 28.624 3.168 30.096 2.112C31.568 1.024 33.536 0.48 36 0.48C38.464 0.48 40.432 1.024 41.904 2.112C43.376 3.168 44.432 4.912 45.072 7.344C45.744 9.744 46.08 12.976 46.08 17.04V19.92C46.08 23.952 45.744 27.184 45.072 29.616C44.432 32.048 43.376 33.808 41.904 34.896C40.432 35.952 38.464 36.48 36 36.48ZM36 33.024C37.6 33.024 38.832 32.64 39.696 31.872C40.592 31.072 41.216 29.712 41.568 27.792C41.952 25.84 42.144 23.136 42.144 19.68V17.28C42.144 13.824 41.952 11.136 41.568 9.216C41.216 7.264 40.592 5.904 39.696 5.136C38.832 4.336 37.6 3.936 36 3.936C34.432 3.936 33.2 4.336 32.304 5.136C31.408 5.904 30.768 7.264 30.384 9.216C30.032 11.136 29.856 13.824 29.856 17.28V19.68C29.856 23.136 30.032 25.84 30.384 27.792C30.768 29.712 31.408 31.072 32.304 31.872C33.2 32.64 34.432 33.024 36 33.024ZM60 36.48C56.8 36.48 54.432 35.696 52.896 34.128C51.392 32.528 50.64 30.032 50.64 26.64V0.959999H54.48V26.256C54.48 28.656 54.912 30.384 55.776 31.44C56.64 32.496 58.048 33.024 60 33.024C61.984 33.024 63.392 32.496 64.224 31.44C65.088 30.384 65.52 28.656 65.52 26.256V0.959999H69.36V26.64C69.36 30.032 68.608 32.528 67.104 34.128C65.6 35.696 63.232 36.48 60 36.48ZM75.36 1.056C76.768 0.831999 77.984 0.687999 79.008 0.623998C80.064 0.527999 81.072 0.48 82.032 0.48C84.944 0.48 87.28 0.848 89.04 1.584C90.8 2.288 92.08 3.44 92.88 5.04C93.68 6.608 94.08 8.688 94.08 11.28C94.08 13.872 93.68 15.968 92.88 17.568C92.08 19.136 90.8 20.288 89.04 21.024C87.28 21.728 84.944 22.08 82.032 22.08C81.168 22.08 80.32 22.048 79.488 21.984C78.688 21.92 77.84 21.824 76.944 21.696L78.192 18.336C79.024 18.464 79.776 18.56 80.448 18.624C81.12 18.688 81.76 18.72 82.368 18.72C84.288 18.72 85.808 18.48 86.928 18C88.08 17.52 88.912 16.736 89.424 15.648C89.936 14.56 90.192 13.12 90.192 11.328C90.192 9.504 89.936 8.064 89.424 7.008C88.912 5.92 88.08 5.136 86.928 4.656C85.808 4.176 84.288 3.936 82.368 3.936C81.728 3.936 81.056 3.968 80.352 4.032C79.68 4.064 78.912 4.16 78.048 4.32L79.2 2.976V36H75.36V1.056ZM90.048 36L78.048 20.256H82.464L94.56 36H90.048ZM123.84 36V0.959999H127.776V32.544H141.6V36H123.84ZM156 36.48C153.536 36.48 151.568 35.952 150.096 34.896C148.624 33.808 147.552 32.048 146.88 29.616C146.24 27.184 145.92 23.952 145.92 19.92V17.04C145.92 12.976 146.24 9.744 146.88 7.344C147.552 4.912 148.624 3.168 150.096 2.112C151.568 1.024 153.536 0.48 156 0.48C158.464 0.48 160.432 1.024 161.904 2.112C163.376 3.168 164.432 4.912 165.072 7.344C165.744 9.744 166.08 12.976 166.08 17.04V19.92C166.08 23.952 165.744 27.184 165.072 29.616C164.432 32.048 163.376 33.808 161.904 34.896C160.432 35.952 158.464 36.48 156 36.48ZM156 33.024C157.6 33.024 158.832 32.64 159.696 31.872C160.592 31.072 161.216 29.712 161.568 27.792C161.952 25.84 162.144 23.136 162.144 19.68V17.28C162.144 13.824 161.952 11.136 161.568 9.216C161.216 7.264 160.592 5.904 159.696 5.136C158.832 4.336 157.6 3.936 156 3.936C154.432 3.936 153.2 4.336 152.304 5.136C151.408 5.904 150.768 7.264 150.384 9.216C150.032 11.136 149.856 13.824 149.856 17.28V19.68C149.856 23.136 150.032 25.84 150.384 27.792C150.768 29.712 151.408 31.072 152.304 31.872C153.2 32.64 154.432 33.024 156 33.024ZM177.648 36L168.96 0.959999H172.896L179.904 31.008H180.096L187.104 0.959999H191.04L182.352 36H177.648ZM195.888 36V0.959999H212.688V4.32H199.776V15.792H212.208V19.152H199.776V32.64H212.688V36H195.888ZM250.176 36.48C249.376 36.48 248.352 36.432 247.104 36.336C245.888 36.272 244.56 36.128 243.12 35.904V1.056C244.592 0.831999 245.92 0.687999 247.104 0.623998C248.32 0.527999 249.344 0.48 250.176 0.48C253.952 0.48 256.768 1.216 258.624 2.688C260.48 4.16 261.408 6.384 261.408 9.36C261.408 11.312 261.008 12.944 260.208 14.256C259.408 15.568 258.224 16.528 256.656 17.136V17.328C258.576 17.872 260 18.848 260.928 20.256C261.856 21.664 262.32 23.552 262.32 25.92C262.32 29.408 261.296 32.048 259.248 33.84C257.232 35.6 254.208 36.48 250.176 36.48ZM246 32.4C246.832 32.624 247.616 32.784 248.352 32.88C249.088 32.976 249.84 33.024 250.608 33.024C253.264 33.024 255.216 32.448 256.464 31.296C257.744 30.112 258.384 28.32 258.384 25.92C258.384 23.52 257.744 21.792 256.464 20.736C255.216 19.648 253.216 19.104 250.464 19.104H245.04V15.84H250.08C252.608 15.84 254.48 15.344 255.696 14.352C256.912 13.328 257.52 11.776 257.52 9.696C257.52 7.712 256.96 6.256 255.84 5.328C254.72 4.4 252.976 3.936 250.608 3.936C249.84 3.936 249.072 3.984 248.304 4.08C247.536 4.176 246.768 4.336 246 4.56L246.96 3.024V33.936L246 32.4ZM274.032 36V22.32L264.72 0.959999H268.704L275.904 18.192H276.096L283.296 0.959999H287.28L277.968 22.32V36H274.032ZM298.032 36V4.416H289.92V0.959999H310.08V4.416H301.968V36H298.032ZM315.888 36V0.959999H332.688V4.32H319.776V15.792H332.208V19.152H319.776V32.64H332.688V36H315.888ZM363.6 36V32.64H370.032V4.32H363.6V0.959999H380.4V4.32H373.968V32.64H380.4V36H363.6ZM394.752 36.48C393.504 36.48 392.256 36.368 391.008 36.144C389.792 35.952 388.576 35.648 387.36 35.232V31.536C388.544 32.016 389.712 32.384 390.864 32.64C392.016 32.896 393.2 33.024 394.416 33.024C396.592 33.024 398.272 32.576 399.456 31.68C400.672 30.784 401.28 29.36 401.28 27.408C401.28 26.384 401.072 25.472 400.656 24.672C400.272 23.84 399.6 23.04 398.64 22.272C397.712 21.504 396.4 20.656 394.704 19.728C392.624 18.544 390.976 17.44 389.76 16.416C388.576 15.392 387.728 14.304 387.216 13.152C386.736 11.968 386.496 10.624 386.496 9.12C386.496 6.144 387.36 3.968 389.088 2.592C390.848 1.184 393.6 0.48 397.344 0.48C398.464 0.48 399.584 0.543999 400.704 0.671997C401.856 0.799997 403.056 1.008 404.304 1.296V11.52H400.464V2.784L402 4.512C401.136 4.32 400.32 4.176 399.552 4.08C398.816 3.984 398.048 3.936 397.248 3.936C394.944 3.936 393.232 4.368 392.112 5.232C390.992 6.064 390.432 7.376 390.432 9.168C390.432 10.16 390.624 11.072 391.008 11.904C391.424 12.704 392.112 13.504 393.072 14.304C394.064 15.072 395.392 15.92 397.056 16.848C399.104 18 400.72 19.104 401.904 20.16C403.088 21.184 403.936 22.288 404.448 23.472C404.96 24.624 405.216 25.968 405.216 27.504C405.216 30.512 404.336 32.768 402.576 34.272C400.848 35.744 398.24 36.48 394.752 36.48ZM441.648 36L432.96 0.959999H436.896L443.904 31.008H444.096L451.104 0.959999H455.04L446.352 36H441.648ZM459.6 36V32.64H466.032V4.32H459.6V0.959999H476.4V4.32H469.968V32.64H476.4V36H459.6ZM490.752 36.48C489.504 36.48 488.256 36.368 487.008 36.144C485.792 35.952 484.576 35.648 483.36 35.232V31.536C484.544 32.016 485.712 32.384 486.864 32.64C488.016 32.896 489.2 33.024 490.416 33.024C492.592 33.024 494.272 32.576 495.456 31.68C496.672 30.784 497.28 29.36 497.28 27.408C497.28 26.384 497.072 25.472 496.656 24.672C496.272 23.84 495.6 23.04 494.64 22.272C493.712 21.504 492.4 20.656 490.704 19.728C488.624 18.544 486.976 17.44 485.76 16.416C484.576 15.392 483.728 14.304 483.216 13.152C482.736 11.968 482.496 10.624 482.496 9.12C482.496 6.144 483.36 3.968 485.088 2.592C486.848 1.184 489.6 0.48 493.344 0.48C494.464 0.48 495.584 0.543999 496.704 0.671997C497.856 0.799997 499.056 1.008 500.304 1.296V11.52H496.464V2.784L498 4.512C497.136 4.32 496.32 4.176 495.552 4.08C494.816 3.984 494.048 3.936 493.248 3.936C490.944 3.936 489.232 4.368 488.112 5.232C486.992 6.064 486.432 7.376 486.432 9.168C486.432 10.16 486.624 11.072 487.008 11.904C487.424 12.704 488.112 13.504 489.072 14.304C490.064 15.072 491.392 15.92 493.056 16.848C495.104 18 496.72 19.104 497.904 20.16C499.088 21.184 499.936 22.288 500.448 23.472C500.96 24.624 501.216 25.968 501.216 27.504C501.216 30.512 500.336 32.768 498.576 34.272C496.848 35.744 494.24 36.48 490.752 36.48ZM507.6 36V32.64H514.032V4.32H507.6V0.959999H524.4V4.32H517.968V32.64H524.4V36H507.6ZM538.176 36.48C537.376 36.48 536.352 36.432 535.104 36.336C533.888 36.272 532.56 36.128 531.12 35.904V1.056C532.592 0.831999 533.92 0.687999 535.104 0.623998C536.32 0.527999 537.344 0.48 538.176 0.48C541.952 0.48 544.768 1.216 546.624 2.688C548.48 4.16 549.408 6.384 549.408 9.36C549.408 11.312 549.008 12.944 548.208 14.256C547.408 15.568 546.224 16.528 544.656 17.136V17.328C546.576 17.872 548 18.848 548.928 20.256C549.856 21.664 550.32 23.552 550.32 25.92C550.32 29.408 549.296 32.048 547.248 33.84C545.232 35.6 542.208 36.48 538.176 36.48ZM534 32.4C534.832 32.624 535.616 32.784 536.352 32.88C537.088 32.976 537.84 33.024 538.608 33.024C541.264 33.024 543.216 32.448 544.464 31.296C545.744 30.112 546.384 28.32 546.384 25.92C546.384 23.52 545.744 21.792 544.464 20.736C543.216 19.648 541.216 19.104 538.464 19.104H533.04V15.84H538.08C540.608 15.84 542.48 15.344 543.696 14.352C544.912 13.328 545.52 11.776 545.52 9.696C545.52 7.712 544.96 6.256 543.84 5.328C542.72 4.4 540.976 3.936 538.608 3.936C537.84 3.936 537.072 3.984 536.304 4.08C535.536 4.176 534.768 4.336 534 4.56L534.96 3.024V33.936L534 32.4ZM555.84 36V0.959999H559.776V32.544H573.6V36H555.84ZM579.888 36V0.959999H596.688V4.32H583.776V15.792H596.208V19.152H583.776V32.64H596.688V36H579.888ZM612 17.856C610.88 17.856 609.968 17.52 609.264 16.848C608.592 16.176 608.256 15.296 608.256 14.208C608.256 13.088 608.592 12.208 609.264 11.568C609.968 10.896 610.88 10.56 612 10.56C613.12 10.56 614.016 10.896 614.688 11.568C615.392 12.208 615.744 13.088 615.744 14.208C615.744 15.296 615.392 16.176 614.688 16.848C614.016 17.52 613.12 17.856 612 17.856ZM612 36.48C610.88 36.48 609.968 36.144 609.264 35.472C608.592 34.8 608.256 33.92 608.256 32.832C608.256 31.712 608.592 30.832 609.264 30.192C609.968 29.52 610.88 29.184 612 29.184C613.12 29.184 614.016 29.52 614.688 30.192C615.392 30.832 615.744 31.712 615.744 32.832C615.744 33.92 615.392 34.8 614.688 35.472C614.016 36.144 613.12 36.48 612 36.48Z" fill="#FF35D0"/>
</svg>
