<svg width="982" height="62" viewBox="0 0 982 62" fill="none" xmlns="http://www.w3.org/2000/svg">
<path d="M5.8125 48L0.28125 2.5H5.78125L9.0625 33.875L9.25 35.6875L9.59375 33.8125L15.0938 2.5H20.125L25.6562 33.8438L26 35.6875L26.1875 33.8125L29.4688 2.5H34.9375L29.4062 48H23.5L17.9688 15.625L17.6562 13.7188L17.3125 15.6562L11.75 48H5.8125ZM56.8125 48.625C54.4375 48.625 52.25 48.2188 50.25 47.4062C48.2708 46.5938 46.5729 45.4583 45.1562 44C43.7396 42.5417 42.6354 40.8125 41.8438 38.8125C41.0521 36.8125 40.6562 34.6354 40.6562 32.2812V30.9688C40.6562 28.2396 41.0938 25.8021 41.9688 23.6562C42.8438 21.4896 44.0104 19.6562 45.4688 18.1562C46.9062 16.6771 48.5417 15.5417 50.375 14.75C52.2292 13.9583 54.125 13.5625 56.0625 13.5625C58.5 13.5625 60.625 13.9896 62.4375 14.8438C64.2708 15.6771 65.7917 16.8333 67 18.3125C68.2083 19.8125 69.1042 21.5729 69.6875 23.5938C70.2917 25.6146 70.5938 27.8021 70.5938 30.1562V32.75H46.4375V32.9688C46.5833 34.6146 46.9062 36.0625 47.4062 37.3125C47.9271 38.5625 48.6354 39.6667 49.5312 40.625C50.4479 41.6458 51.5521 42.4479 52.8438 43.0312C54.1354 43.6146 55.5625 43.9062 57.125 43.9062C59.1875 43.9062 61.0208 43.4896 62.625 42.6562C64.2292 41.8229 65.5625 40.7188 66.625 39.3438L70.1562 42.0938C69.0312 43.8021 67.3438 45.3229 65.0938 46.6562C62.8646 47.9688 60.1042 48.625 56.8125 48.625ZM56.0625 18.3125C54.8958 18.3125 53.7917 18.5312 52.75 18.9688C51.7083 19.3854 50.7708 20 49.9375 20.8125C49.1042 21.6458 48.3958 22.6667 47.8125 23.875C47.25 25.0625 46.8542 26.4375 46.625 28H64.8125V27.7188C64.8125 26.6771 64.6146 25.5625 64.2188 24.375C63.8229 23.1667 63.2708 22.125 62.5625 21.25C61.8542 20.375 60.9583 19.6667 59.875 19.125C58.8125 18.5833 57.5417 18.3125 56.0625 18.3125ZM133.156 43.9375C134.198 43.9375 135.208 43.7708 136.188 43.4375C137.188 43.1042 138.073 42.6354 138.844 42.0312C139.615 41.4479 140.229 40.7604 140.688 39.9688C141.167 39.1562 141.417 38.2812 141.438 37.3438H146.906C146.885 38.8438 146.49 40.2812 145.719 41.6562C144.969 43.0104 143.958 44.1979 142.688 45.2188C141.417 46.2604 139.958 47.0938 138.312 47.7188C136.667 48.3229 134.948 48.625 133.156 48.625C130.594 48.625 128.354 48.1667 126.438 47.25C124.521 46.3333 122.927 45.0938 121.656 43.5312C120.365 41.9896 119.396 40.2083 118.75 38.1875C118.104 36.1458 117.781 34 117.781 31.75V30.4375C117.781 28.2083 118.104 26.0729 118.75 24.0312C119.396 21.9896 120.365 20.1875 121.656 18.625C122.927 17.0833 124.521 15.8542 126.438 14.9375C128.354 14.0208 130.594 13.5625 133.156 13.5625C135.156 13.5625 136.99 13.8854 138.656 14.5312C140.344 15.1562 141.802 16.0104 143.031 17.0938C144.24 18.1979 145.188 19.5 145.875 21C146.562 22.5 146.906 24.1042 146.906 25.8125H141.438C141.417 24.7917 141.188 23.8333 140.75 22.9375C140.333 22.0208 139.76 21.2188 139.031 20.5312C138.302 19.8438 137.427 19.3021 136.406 18.9062C135.406 18.5104 134.323 18.3125 133.156 18.3125C131.365 18.3125 129.854 18.6771 128.625 19.4062C127.417 20.1146 126.438 21.0417 125.688 22.1875C124.938 23.3542 124.396 24.6562 124.062 26.0938C123.75 27.5312 123.594 28.9792 123.594 30.4375V31.75C123.594 33.2292 123.75 34.6979 124.062 36.1562C124.396 37.5938 124.938 38.8854 125.688 40.0312C126.417 41.1979 127.385 42.1458 128.594 42.875C129.823 43.5833 131.344 43.9375 133.156 43.9375ZM179.406 48C179.177 47.5625 178.99 47.0208 178.844 46.375C178.719 45.7083 178.625 45.0208 178.562 44.3125C177.979 44.8958 177.323 45.4479 176.594 45.9688C175.885 46.4896 175.104 46.9479 174.25 47.3438C173.375 47.7396 172.448 48.0521 171.469 48.2812C170.49 48.5104 169.448 48.625 168.344 48.625C166.552 48.625 164.927 48.3646 163.469 47.8438C162.031 47.3229 160.812 46.6146 159.812 45.7188C158.792 44.8438 158 43.8021 157.438 42.5938C156.896 41.3646 156.625 40.0417 156.625 38.625C156.625 36.7708 156.99 35.1458 157.719 33.75C158.469 32.3542 159.521 31.1875 160.875 30.25C162.229 29.3333 163.854 28.6458 165.75 28.1875C167.667 27.7292 169.802 27.5 172.156 27.5H178.469V24.8438C178.469 23.8229 178.281 22.9062 177.906 22.0938C177.531 21.2812 177 20.5833 176.312 20C175.625 19.4375 174.781 19 173.781 18.6875C172.802 18.375 171.698 18.2188 170.469 18.2188C169.323 18.2188 168.292 18.3646 167.375 18.6562C166.479 18.9479 165.719 19.3333 165.094 19.8125C164.469 20.2917 163.979 20.8646 163.625 21.5312C163.292 22.1771 163.125 22.8542 163.125 23.5625H157.312C157.333 22.3333 157.646 21.125 158.25 19.9375C158.875 18.75 159.771 17.6771 160.938 16.7188C162.083 15.7812 163.479 15.0208 165.125 14.4375C166.792 13.8542 168.677 13.5625 170.781 13.5625C172.698 13.5625 174.479 13.8021 176.125 14.2812C177.771 14.7396 179.198 15.4375 180.406 16.375C181.594 17.3333 182.531 18.5208 183.219 19.9375C183.906 21.3542 184.25 23.0104 184.25 24.9062V40.625C184.25 41.75 184.354 42.9479 184.562 44.2188C184.771 45.4688 185.062 46.5625 185.438 47.5V48H179.406ZM169.188 43.5938C170.312 43.5938 171.365 43.4479 172.344 43.1562C173.323 42.8646 174.219 42.4792 175.031 42C175.823 41.5208 176.51 40.9792 177.094 40.375C177.677 39.75 178.135 39.1042 178.469 38.4375V31.5938H173.094C171.094 31.5938 169.344 31.7708 167.844 32.125C166.365 32.4583 165.188 32.9792 164.312 33.6875C163.688 34.1875 163.208 34.7812 162.875 35.4688C162.562 36.1562 162.406 36.9375 162.406 37.8125C162.406 38.6458 162.542 39.4167 162.812 40.125C163.104 40.8333 163.531 41.4375 164.094 41.9375C164.656 42.4583 165.365 42.8646 166.219 43.1562C167.073 43.4479 168.062 43.5938 169.188 43.5938ZM195.625 48V14.1875H200.812L201.219 19.1875C201.719 18.4792 202.26 17.8333 202.844 17.25C203.448 16.6458 204.083 16.125 204.75 15.6875C205.75 15.0208 206.833 14.5104 208 14.1562C209.188 13.7812 210.438 13.5833 211.75 13.5625C213.521 13.5625 215.125 13.8125 216.562 14.3125C218.021 14.8125 219.26 15.5938 220.281 16.6562C221.302 17.7188 222.083 19.0729 222.625 20.7188C223.188 22.3438 223.469 24.2812 223.469 26.5312V48H217.688V26.6562C217.688 25.1562 217.521 23.8854 217.188 22.8438C216.854 21.8021 216.365 20.9583 215.719 20.3125C215.052 19.6667 214.24 19.1979 213.281 18.9062C212.344 18.6146 211.26 18.4688 210.031 18.4688C208.969 18.4688 207.979 18.625 207.062 18.9375C206.146 19.2292 205.302 19.6354 204.531 20.1562C203.906 20.6146 203.323 21.1458 202.781 21.75C202.26 22.3542 201.802 23.0208 201.406 23.75V48H195.625ZM294.969 39.0312C294.969 38.3438 294.833 37.7292 294.562 37.1875C294.292 36.625 293.833 36.1146 293.188 35.6562C292.542 35.1979 291.688 34.7812 290.625 34.4062C289.562 34.0104 288.24 33.6562 286.656 33.3438C284.719 32.9479 282.948 32.4688 281.344 31.9062C279.76 31.3438 278.406 30.6667 277.281 29.875C276.135 29.1042 275.25 28.1979 274.625 27.1562C274 26.0938 273.688 24.8646 273.688 23.4688C273.688 22.0938 274.01 20.8125 274.656 19.625C275.302 18.4167 276.208 17.3646 277.375 16.4688C278.542 15.5729 279.927 14.8646 281.531 14.3438C283.156 13.8229 284.938 13.5625 286.875 13.5625C288.958 13.5625 290.833 13.8333 292.5 14.375C294.167 14.9167 295.583 15.6667 296.75 16.625C297.917 17.5833 298.812 18.7083 299.438 20C300.083 21.2708 300.406 22.6458 300.406 24.125H294.625C294.625 23.3958 294.438 22.6875 294.062 22C293.688 21.2917 293.167 20.6667 292.5 20.125C291.833 19.5833 291.021 19.1458 290.062 18.8125C289.125 18.4792 288.062 18.3125 286.875 18.3125C285.646 18.3125 284.562 18.4479 283.625 18.7188C282.708 18.9896 281.948 19.3542 281.344 19.8125C280.719 20.2708 280.25 20.8021 279.938 21.4062C279.625 22.0104 279.469 22.6354 279.469 23.2812C279.469 23.9479 279.594 24.5417 279.844 25.0625C280.094 25.5833 280.531 26.0521 281.156 26.4688C281.76 26.8854 282.573 27.2604 283.594 27.5938C284.635 27.9271 285.948 28.25 287.531 28.5625C289.615 29 291.479 29.5104 293.125 30.0938C294.771 30.6562 296.156 31.3333 297.281 32.125C298.406 32.9375 299.26 33.875 299.844 34.9375C300.448 36 300.75 37.2292 300.75 38.625C300.75 40.125 300.406 41.4896 299.719 42.7188C299.052 43.9479 298.115 45 296.906 45.875C295.698 46.75 294.25 47.4271 292.562 47.9062C290.875 48.3854 289.031 48.625 287.031 48.625C284.74 48.625 282.698 48.3229 280.906 47.7188C279.115 47.0938 277.604 46.2708 276.375 45.25C275.125 44.25 274.167 43.0833 273.5 41.75C272.854 40.4167 272.531 39.0312 272.531 37.5938H278.312C278.396 38.7812 278.708 39.7812 279.25 40.5938C279.812 41.4062 280.51 42.0625 281.344 42.5625C282.156 43.0625 283.062 43.4167 284.062 43.625C285.062 43.8333 286.052 43.9375 287.031 43.9375C288.573 43.9375 289.917 43.7604 291.062 43.4062C292.208 43.0312 293.104 42.5208 293.75 41.875C294.146 41.4792 294.448 41.0417 294.656 40.5625C294.865 40.0833 294.969 39.5729 294.969 39.0312ZM325.875 48.625C323.5 48.625 321.312 48.2188 319.312 47.4062C317.333 46.5938 315.635 45.4583 314.219 44C312.802 42.5417 311.698 40.8125 310.906 38.8125C310.115 36.8125 309.719 34.6354 309.719 32.2812V30.9688C309.719 28.2396 310.156 25.8021 311.031 23.6562C311.906 21.4896 313.073 19.6562 314.531 18.1562C315.969 16.6771 317.604 15.5417 319.438 14.75C321.292 13.9583 323.188 13.5625 325.125 13.5625C327.562 13.5625 329.688 13.9896 331.5 14.8438C333.333 15.6771 334.854 16.8333 336.062 18.3125C337.271 19.8125 338.167 21.5729 338.75 23.5938C339.354 25.6146 339.656 27.8021 339.656 30.1562V32.75H315.5V32.9688C315.646 34.6146 315.969 36.0625 316.469 37.3125C316.99 38.5625 317.698 39.6667 318.594 40.625C319.51 41.6458 320.615 42.4479 321.906 43.0312C323.198 43.6146 324.625 43.9062 326.188 43.9062C328.25 43.9062 330.083 43.4896 331.688 42.6562C333.292 41.8229 334.625 40.7188 335.688 39.3438L339.219 42.0938C338.094 43.8021 336.406 45.3229 334.156 46.6562C331.927 47.9688 329.167 48.625 325.875 48.625ZM325.125 18.3125C323.958 18.3125 322.854 18.5312 321.812 18.9688C320.771 19.3854 319.833 20 319 20.8125C318.167 21.6458 317.458 22.6667 316.875 23.875C316.312 25.0625 315.917 26.4375 315.688 28H333.875V27.7188C333.875 26.6771 333.677 25.5625 333.281 24.375C332.885 23.1667 332.333 22.125 331.625 21.25C330.917 20.375 330.021 19.6667 328.938 19.125C327.875 18.5833 326.604 18.3125 325.125 18.3125ZM364.312 48.625C361.938 48.625 359.75 48.2188 357.75 47.4062C355.771 46.5938 354.073 45.4583 352.656 44C351.24 42.5417 350.135 40.8125 349.344 38.8125C348.552 36.8125 348.156 34.6354 348.156 32.2812V30.9688C348.156 28.2396 348.594 25.8021 349.469 23.6562C350.344 21.4896 351.51 19.6562 352.969 18.1562C354.406 16.6771 356.042 15.5417 357.875 14.75C359.729 13.9583 361.625 13.5625 363.562 13.5625C366 13.5625 368.125 13.9896 369.938 14.8438C371.771 15.6771 373.292 16.8333 374.5 18.3125C375.708 19.8125 376.604 21.5729 377.188 23.5938C377.792 25.6146 378.094 27.8021 378.094 30.1562V32.75H353.938V32.9688C354.083 34.6146 354.406 36.0625 354.906 37.3125C355.427 38.5625 356.135 39.6667 357.031 40.625C357.948 41.6458 359.052 42.4479 360.344 43.0312C361.635 43.6146 363.062 43.9062 364.625 43.9062C366.688 43.9062 368.521 43.4896 370.125 42.6562C371.729 41.8229 373.062 40.7188 374.125 39.3438L377.656 42.0938C376.531 43.8021 374.844 45.3229 372.594 46.6562C370.365 47.9688 367.604 48.625 364.312 48.625ZM363.562 18.3125C362.396 18.3125 361.292 18.5312 360.25 18.9688C359.208 19.3854 358.271 20 357.438 20.8125C356.604 21.6458 355.896 22.6667 355.312 23.875C354.75 25.0625 354.354 26.4375 354.125 28H372.312V27.7188C372.312 26.6771 372.115 25.5625 371.719 24.375C371.323 23.1667 370.771 22.125 370.062 21.25C369.354 20.375 368.458 19.6667 367.375 19.125C366.312 18.5833 365.042 18.3125 363.562 18.3125ZM428.969 61.6562C428.427 61.6562 427.792 61.5938 427.062 61.4688C426.333 61.3438 425.781 61.2396 425.406 61.1562L426.344 56.4375C426.865 56.4792 427.375 56.5104 427.875 56.5312C428.396 56.5729 428.802 56.5938 429.094 56.5938C429.885 56.5938 430.604 56.375 431.25 55.9375C431.917 55.5 432.51 54.9792 433.031 54.375C433.531 53.7708 433.958 53.1458 434.312 52.5C434.688 51.8542 434.979 51.3229 435.188 50.9062L437.5 46.4062L422.938 14.1875H429.406L438.688 36L440.188 40.0938L441.781 36.125L450.5 14.1875H456.969L439.812 53.2188C439.417 54.0938 438.906 55.0208 438.281 56C437.677 56.9792 436.938 57.8854 436.062 58.7188C435.188 59.5521 434.167 60.25 433 60.8125C431.833 61.375 430.49 61.6562 428.969 61.6562ZM463.062 30.7812C463.062 28.3438 463.417 26.0833 464.125 24C464.833 21.8958 465.854 20.0729 467.188 18.5312C468.5 16.9896 470.104 15.7812 472 14.9062C473.896 14.0104 476.031 13.5625 478.406 13.5625C480.802 13.5625 482.948 14.0104 484.844 14.9062C486.76 15.7812 488.385 16.9896 489.719 18.5312C491.031 20.0729 492.042 21.8958 492.75 24C493.458 26.0833 493.812 28.3438 493.812 30.7812V31.4688C493.812 33.9062 493.458 36.1667 492.75 38.25C492.042 40.3333 491.031 42.1458 489.719 43.6875C488.385 45.2292 486.771 46.4375 484.875 47.3125C482.979 48.1875 480.844 48.625 478.469 48.625C476.073 48.625 473.917 48.1875 472 47.3125C470.104 46.4375 468.5 45.2292 467.188 43.6875C465.854 42.1458 464.833 40.3333 464.125 38.25C463.417 36.1667 463.062 33.9062 463.062 31.4688V30.7812ZM468.844 31.4688C468.844 33.1354 469.042 34.7292 469.438 36.25C469.833 37.75 470.438 39.0729 471.25 40.2188C472.042 41.3646 473.042 42.2708 474.25 42.9375C475.458 43.6042 476.865 43.9375 478.469 43.9375C480.052 43.9375 481.438 43.6042 482.625 42.9375C483.833 42.2708 484.844 41.3646 485.656 40.2188C486.448 39.0729 487.042 37.75 487.438 36.25C487.833 34.7292 488.031 33.1354 488.031 31.4688V30.7812C488.031 29.1354 487.823 27.5625 487.406 26.0625C487.01 24.5417 486.417 23.2083 485.625 22.0625C484.812 20.9167 483.802 20.0104 482.594 19.3438C481.406 18.6562 480.01 18.3125 478.406 18.3125C476.802 18.3125 475.406 18.6562 474.219 19.3438C473.031 20.0104 472.042 20.9167 471.25 22.0625C470.438 23.2083 469.833 24.5417 469.438 26.0625C469.042 27.5625 468.844 29.1354 468.844 30.7812V31.4688ZM525.406 48L525.062 43.3438C523.938 45.0104 522.531 46.3125 520.844 47.25C519.156 48.1667 517.208 48.625 515 48.625C513.229 48.625 511.625 48.3542 510.188 47.8125C508.75 47.25 507.521 46.3854 506.5 45.2188C505.479 44.0521 504.688 42.5729 504.125 40.7812C503.583 38.9688 503.312 36.8021 503.312 34.2812V14.1875H509.094V34.3438C509.094 36.1771 509.24 37.6979 509.531 38.9062C509.823 40.1146 510.26 41.0729 510.844 41.7812C511.427 42.5104 512.135 43.0208 512.969 43.3125C513.823 43.6042 514.802 43.75 515.906 43.75C517.198 43.75 518.354 43.6042 519.375 43.3125C520.396 43 521.281 42.5729 522.031 42.0312C522.656 41.5938 523.198 41.0729 523.656 40.4688C524.135 39.8438 524.531 39.1667 524.844 38.4375V14.1875H530.656V48H525.406ZM563.719 13.5625C564.781 13.5625 565.885 13.6354 567.031 13.7812C568.198 13.9271 569.073 14.125 569.656 14.375L568.875 20.0312C567.75 19.7812 566.677 19.6042 565.656 19.5C564.656 19.375 563.604 19.3125 562.5 19.3125C561.083 19.3125 559.802 19.4896 558.656 19.8438C557.51 20.1771 556.51 20.6771 555.656 21.3438C554.885 21.9271 554.208 22.6458 553.625 23.5C553.062 24.3333 552.594 25.2708 552.219 26.3125V48H546.406V14.1875H551.906L552.156 18.7188L552.188 19.5625C553.562 17.7083 555.208 16.25 557.125 15.1875C559.062 14.1042 561.26 13.5625 563.719 13.5625ZM619.344 0H636.625V43H647.656V48H619.344V43H630.844V5.03125H619.344V0ZM655.25 30.7812C655.25 28.3438 655.604 26.0833 656.312 24C657.021 21.8958 658.042 20.0729 659.375 18.5312C660.688 16.9896 662.292 15.7812 664.188 14.9062C666.083 14.0104 668.219 13.5625 670.594 13.5625C672.99 13.5625 675.135 14.0104 677.031 14.9062C678.948 15.7812 680.573 16.9896 681.906 18.5312C683.219 20.0729 684.229 21.8958 684.938 24C685.646 26.0833 686 28.3438 686 30.7812V31.4688C686 33.9062 685.646 36.1667 684.938 38.25C684.229 40.3333 683.219 42.1458 681.906 43.6875C680.573 45.2292 678.958 46.4375 677.062 47.3125C675.167 48.1875 673.031 48.625 670.656 48.625C668.26 48.625 666.104 48.1875 664.188 47.3125C662.292 46.4375 660.688 45.2292 659.375 43.6875C658.042 42.1458 657.021 40.3333 656.312 38.25C655.604 36.1667 655.25 33.9062 655.25 31.4688V30.7812ZM661.031 31.4688C661.031 33.1354 661.229 34.7292 661.625 36.25C662.021 37.75 662.625 39.0729 663.438 40.2188C664.229 41.3646 665.229 42.2708 666.438 42.9375C667.646 43.6042 669.052 43.9375 670.656 43.9375C672.24 43.9375 673.625 43.6042 674.812 42.9375C676.021 42.2708 677.031 41.3646 677.844 40.2188C678.635 39.0729 679.229 37.75 679.625 36.25C680.021 34.7292 680.219 33.1354 680.219 31.4688V30.7812C680.219 29.1354 680.01 27.5625 679.594 26.0625C679.198 24.5417 678.604 23.2083 677.812 22.0625C677 20.9167 675.99 20.0104 674.781 19.3438C673.594 18.6562 672.198 18.3125 670.594 18.3125C668.99 18.3125 667.594 18.6562 666.406 19.3438C665.219 20.0104 664.229 20.9167 663.438 22.0625C662.625 23.2083 662.021 24.5417 661.625 26.0625C661.229 27.5625 661.031 29.1354 661.031 30.7812V31.4688ZM706.844 48L692.938 14.1875H698.875L708.562 39.6875L709.094 41.7812L709.656 39.6875L719.125 14.1875H725.031L711.25 48H706.844ZM748.688 48.625C746.312 48.625 744.125 48.2188 742.125 47.4062C740.146 46.5938 738.448 45.4583 737.031 44C735.615 42.5417 734.51 40.8125 733.719 38.8125C732.927 36.8125 732.531 34.6354 732.531 32.2812V30.9688C732.531 28.2396 732.969 25.8021 733.844 23.6562C734.719 21.4896 735.885 19.6562 737.344 18.1562C738.781 16.6771 740.417 15.5417 742.25 14.75C744.104 13.9583 746 13.5625 747.938 13.5625C750.375 13.5625 752.5 13.9896 754.312 14.8438C756.146 15.6771 757.667 16.8333 758.875 18.3125C760.083 19.8125 760.979 21.5729 761.562 23.5938C762.167 25.6146 762.469 27.8021 762.469 30.1562V32.75H738.312V32.9688C738.458 34.6146 738.781 36.0625 739.281 37.3125C739.802 38.5625 740.51 39.6667 741.406 40.625C742.323 41.6458 743.427 42.4479 744.719 43.0312C746.01 43.6146 747.438 43.9062 749 43.9062C751.062 43.9062 752.896 43.4896 754.5 42.6562C756.104 41.8229 757.438 40.7188 758.5 39.3438L762.031 42.0938C760.906 43.8021 759.219 45.3229 756.969 46.6562C754.74 47.9688 751.979 48.625 748.688 48.625ZM747.938 18.3125C746.771 18.3125 745.667 18.5312 744.625 18.9688C743.583 19.3854 742.646 20 741.812 20.8125C740.979 21.6458 740.271 22.6667 739.688 23.875C739.125 25.0625 738.729 26.4375 738.5 28H756.688V27.7188C756.688 26.6771 756.49 25.5625 756.094 24.375C755.698 23.1667 755.146 22.125 754.438 21.25C753.729 20.375 752.833 19.6667 751.75 19.125C750.688 18.5833 749.417 18.3125 747.938 18.3125ZM839.281 31.4688C839.281 32.9479 839.167 34.375 838.938 35.75C838.729 37.1042 838.417 38.375 838 39.5625C837.438 41.125 836.698 42.5312 835.781 43.7812C834.885 45.0104 833.802 46.0312 832.531 46.8438C831.615 47.4062 830.604 47.8438 829.5 48.1562C828.417 48.4688 827.24 48.625 825.969 48.625C824.51 48.625 823.177 48.4479 821.969 48.0938C820.781 47.7396 819.708 47.2292 818.75 46.5625C818.292 46.2292 817.854 45.8646 817.438 45.4688C817.021 45.0729 816.625 44.6354 816.25 44.1562L815.969 48H810.656V0H816.438V17.8125C816.917 17.2083 817.448 16.6667 818.031 16.1875C818.615 15.6875 819.24 15.2604 819.906 14.9062C820.74 14.4688 821.656 14.1354 822.656 13.9062C823.656 13.6771 824.74 13.5625 825.906 13.5625C827.365 13.5625 828.708 13.7604 829.938 14.1562C831.167 14.5521 832.281 15.1042 833.281 15.8125C834.177 16.4792 834.979 17.2917 835.688 18.25C836.396 19.1875 837.021 20.2396 837.562 21.4062C838.125 22.7188 838.552 24.1771 838.844 25.7812C839.135 27.3646 839.281 29.0417 839.281 30.8125V31.4688ZM833.5 30.8125C833.5 29.75 833.427 28.7188 833.281 27.7188C833.156 26.6979 832.958 25.7396 832.688 24.8438C832.312 23.7396 831.823 22.7292 831.219 21.8125C830.615 20.8958 829.875 20.1771 829 19.6562C828.396 19.2812 827.719 18.9896 826.969 18.7812C826.219 18.5729 825.385 18.4688 824.469 18.4688C823.469 18.4688 822.552 18.6042 821.719 18.875C820.885 19.125 820.146 19.4792 819.5 19.9375C818.833 20.4167 818.24 20.9792 817.719 21.625C817.219 22.25 816.792 22.9375 816.438 23.6875V38.4688C816.812 39.2188 817.25 39.9167 817.75 40.5625C818.271 41.1875 818.865 41.7396 819.531 42.2188C820.198 42.6979 820.948 43.0729 821.781 43.3438C822.615 43.5938 823.531 43.7188 824.531 43.7188C825.49 43.7188 826.365 43.6042 827.156 43.375C827.948 43.125 828.656 42.7708 829.281 42.3125C830.115 41.7292 830.812 40.9896 831.375 40.0938C831.938 39.1979 832.385 38.1979 832.719 37.0938C832.99 36.2604 833.188 35.3646 833.312 34.4062C833.438 33.4479 833.5 32.4688 833.5 31.4688V30.8125ZM851.781 61.6562C851.24 61.6562 850.604 61.5938 849.875 61.4688C849.146 61.3438 848.594 61.2396 848.219 61.1562L849.156 56.4375C849.677 56.4792 850.188 56.5104 850.688 56.5312C851.208 56.5729 851.615 56.5938 851.906 56.5938C852.698 56.5938 853.417 56.375 854.062 55.9375C854.729 55.5 855.323 54.9792 855.844 54.375C856.344 53.7708 856.771 53.1458 857.125 52.5C857.5 51.8542 857.792 51.3229 858 50.9062L860.312 46.4062L845.75 14.1875H852.219L861.5 36L863 40.0938L864.594 36.125L873.312 14.1875H879.781L862.625 53.2188C862.229 54.0938 861.719 55.0208 861.094 56C860.49 56.9792 859.75 57.8854 858.875 58.7188C858 59.5521 856.979 60.25 855.812 60.8125C854.646 61.375 853.302 61.6562 851.781 61.6562ZM901.188 6V14.1875H914.062V18.6562H901.188V37.0312C901.188 38.3438 901.354 39.4271 901.688 40.2812C902.021 41.1354 902.479 41.8125 903.062 42.3125C903.646 42.8333 904.312 43.1979 905.062 43.4062C905.833 43.6146 906.646 43.7188 907.5 43.7188C908.125 43.7188 908.771 43.6875 909.438 43.625C910.104 43.5417 910.76 43.4479 911.406 43.3438C912.031 43.2396 912.615 43.1354 913.156 43.0312C913.719 42.9062 914.177 42.8021 914.531 42.7188L915.344 46.8125C914.865 47.1042 914.281 47.3646 913.594 47.5938C912.906 47.8021 912.156 47.9792 911.344 48.125C910.531 48.2917 909.667 48.4167 908.75 48.5C907.854 48.5833 906.958 48.625 906.062 48.625C904.562 48.625 903.156 48.4167 901.844 48C900.552 47.5625 899.427 46.875 898.469 45.9375C897.51 45.0208 896.75 43.8333 896.188 42.375C895.646 40.8958 895.375 39.1146 895.375 37.0312V18.6562H886.5V14.1875H895.375V6H901.188ZM940.875 48.625C938.5 48.625 936.312 48.2188 934.312 47.4062C932.333 46.5938 930.635 45.4583 929.219 44C927.802 42.5417 926.698 40.8125 925.906 38.8125C925.115 36.8125 924.719 34.6354 924.719 32.2812V30.9688C924.719 28.2396 925.156 25.8021 926.031 23.6562C926.906 21.4896 928.073 19.6562 929.531 18.1562C930.969 16.6771 932.604 15.5417 934.438 14.75C936.292 13.9583 938.188 13.5625 940.125 13.5625C942.562 13.5625 944.688 13.9896 946.5 14.8438C948.333 15.6771 949.854 16.8333 951.062 18.3125C952.271 19.8125 953.167 21.5729 953.75 23.5938C954.354 25.6146 954.656 27.8021 954.656 30.1562V32.75H930.5V32.9688C930.646 34.6146 930.969 36.0625 931.469 37.3125C931.99 38.5625 932.698 39.6667 933.594 40.625C934.51 41.6458 935.615 42.4479 936.906 43.0312C938.198 43.6146 939.625 43.9062 941.188 43.9062C943.25 43.9062 945.083 43.4896 946.688 42.6562C948.292 41.8229 949.625 40.7188 950.688 39.3438L954.219 42.0938C953.094 43.8021 951.406 45.3229 949.156 46.6562C946.927 47.9688 944.167 48.625 940.875 48.625ZM940.125 18.3125C938.958 18.3125 937.854 18.5312 936.812 18.9688C935.771 19.3854 934.833 20 934 20.8125C933.167 21.6458 932.458 22.6667 931.875 23.875C931.312 25.0625 930.917 26.4375 930.688 28H948.875V27.7188C948.875 26.6771 948.677 25.5625 948.281 24.375C947.885 23.1667 947.333 22.125 946.625 21.25C945.917 20.375 945.021 19.6667 943.938 19.125C942.875 18.5833 941.604 18.3125 940.125 18.3125ZM980.5 33.2812H974.688V2.5H980.5V33.2812ZM974.125 44.9688C974.125 43.9688 974.417 43.1354 975 42.4688C975.604 41.8021 976.5 41.4688 977.688 41.4688C978.875 41.4688 979.771 41.8021 980.375 42.4688C981 43.1354 981.312 43.9688 981.312 44.9688C981.312 45.9271 981 46.7292 980.375 47.375C979.771 48.0208 978.875 48.3438 977.688 48.3438C976.5 48.3438 975.604 48.0208 975 47.375C974.417 46.7292 974.125 45.9271 974.125 44.9688Z" fill="#FF35D0"/>
</svg>
